*
*
G04 PADS 9.5 Build Number: 522968 generated Gerber (RS-274-X) file*
G04 PC Version=2.1*
*
%IN "GDCS_test.pcb"*%
*
%MOIN*%
*
%FSLAX35Y35*%
*
*
*
*
G04 PC Standard Apertures*
*
*
G04 Thermal Relief Aperture macro.*
%AMTER*
1,1,$1,0,0*
1,0,$1-$2,0,0*
21,0,$3,$4,0,0,45*
21,0,$3,$4,0,0,135*
%
*
*
G04 Annular Aperture macro.*
%AMANN*
1,1,$1,0,0*
1,0,$2,0,0*
%
*
*
G04 Odd Aperture macro.*
%AMODD*
1,1,$1,0,0*
1,0,$1-0.005,0,0*
%
*
*
G04 PC Custom Aperture Macros*
*
*
*
*
*
*
G04 PC Aperture Table*
*
%ADD010C,0.001*%
%ADD012R,0.038X0.03*%
%ADD013ANN,0.07874X0.0315*%
%ADD017ANN,0.05906X0.0315*%
%ADD018R,0.06X0.06*%
%ADD019C,0.06*%
%ADD022C,0.07874*%
%ADD027C,0.01*%
%ADD028C,0.012*%
%ADD029C,0.015*%
%ADD030C,0.022*%
%ADD031C,0.008*%
%ADD032R,0.09055X0.06496*%
%ADD033R,0.08661X0.30315*%
%ADD061ANN,0.04331X0.02756*%
*
*
*
*
G04 PC Circuitry*
G04 Layer Name GDCS_test.pcb - circuitry*
%LPD*%
*
*
G04 PC Custom Flashes*
G04 Layer Name GDCS_test.pcb - flashes*
%LPD*%
*
*
G04 PC Circuitry*
G04 Layer Name GDCS_test.pcb - circuitry*
%LPD*%
*
G54D10*
G54D12*
G01X1197600Y1020000D03*
X1191400D03*
G54D13*
X1023000Y1183000D03*
Y1193000D03*
X1033000Y1183000D03*
Y1193000D03*
X1043000Y1183000D03*
Y1193000D03*
X1053000Y1183000D03*
Y1193000D03*
X1063000Y1183000D03*
Y1193000D03*
X1073000Y1183000D03*
Y1193000D03*
X1083000Y1183000D03*
Y1193000D03*
X1093000Y1183000D03*
Y1193000D03*
X1103000Y1183000D03*
Y1193000D03*
X1113000Y1183000D03*
Y1193000D03*
X1158500Y1088000D03*
Y1078000D03*
X1054000Y1033000D03*
Y1043000D03*
X1199500Y1160500D03*
Y1170500D03*
X1017000Y1034500D03*
X1027000D03*
X1036000Y1017500D03*
X1026000D03*
X1016000D03*
G54D17*
X1071000D03*
X1061000D03*
X1051000D03*
G54D18*
X1124500Y1168500D03*
X1161500Y1126000D03*
X1193000Y1186000D03*
X1180250Y1057000D03*
X1166750D03*
G54D19*
X1114500Y1168500D03*
X1104500D03*
X1094500D03*
Y1138500D03*
X1104500D03*
X1114500D03*
X1124500D03*
X1161500Y1116100D03*
X1193000Y1195900D03*
G54D22*
X1036000Y1102500D03*
Y1122185D03*
G54D27*
X1040000Y1012000D02*
X1074500D01*
X1076500Y1014000*
Y1021500*
X1071500Y1026500*
Y1041500*
X1080000Y1050000*
X1040000Y1012000D02*
X1036000Y1016000D01*
Y1017500*
X1071000Y1019575D02*
Y1022500D01*
X1067500Y1026000*
Y1049500*
X1082000Y1064000*
X1191400Y1020000D02*
X1167000D01*
X1146500Y1040500*
Y1094000*
X1197600Y1020000D02*
X1197500Y1020100D01*
Y1023750*
X1195750Y1025500*
X1167500*
X1151000Y1042000*
Y1097000*
X1140000Y1045500D02*
X1123000Y1062500D01*
X1166750Y1057000D02*
X1166500Y1057250D01*
Y1061000*
X1170000Y1064500*
X1062000Y1075500D02*
Y1097500D01*
X1181000Y1081500D02*
X1186000D01*
X1180217Y1073500D02*
X1182217Y1075500D01*
X1187000*
X1089000Y1099500D02*
X1101000Y1111500D01*
Y1117000*
X1091000Y1095000D02*
X1094500Y1098500D01*
X1103500*
X1155000Y1101000D02*
Y1132500D01*
X1163500Y1141000*
Y1168000*
X1154500Y1177000*
X1055500*
X1052500Y1180000*
X1053000Y1180500*
Y1180925*
X1168717Y1095500D02*
X1166000D01*
X1160000Y1101500*
X1177000Y1088500D02*
X1183283Y1094783D01*
Y1095500*
X1093000Y1117000D02*
X1082000Y1128000D01*
X1202000Y1115500D02*
X1195750Y1121750D01*
X1194478*
X1020000Y1143000D02*
Y1150000D01*
X1028000Y1158000*
X1087000Y1129500D02*
X1080000Y1136500D01*
X1045500*
X1043000Y1139000*
Y1180925*
X1087000Y1151500D02*
X1062000D01*
X1133000Y1152500D02*
X1115000D01*
X1180250Y1053000D02*
Y1054000D01*
X1176250Y1057000D02*
X1177250D01*
X1180250Y1061000D02*
Y1060000D01*
X1184250Y1057000D02*
X1183250D01*
X1194783Y1077748D02*
Y1076748D01*
X1200311Y1073500D02*
X1199311D01*
X1194783Y1069252D02*
Y1070252D01*
X1189256Y1073500D02*
X1190256D01*
X1007500Y1205000D02*
X1208500D01*
Y1010000*
X1007500*
Y1205000*
G54D28*
X1023000Y1066500D02*
Y1131000D01*
X1047000Y1051000D02*
Y1064000D01*
X1178000Y1050500D02*
X1161500D01*
X1180250Y1057000D02*
X1179750Y1057500D01*
X1175000*
X1206000Y1048000D02*
Y1132500D01*
X1204000Y1134500*
X1198000Y1073500D02*
X1194783D01*
X1200500*
X1201000Y1074000*
X1112000Y1123500D02*
X1100000D01*
X1136000Y1115500D02*
Y1125500D01*
X1171522Y1121750D02*
X1171500Y1121772D01*
Y1124500*
X1174500Y1127500*
X1182000*
X1068000Y1128500D02*
X1065500Y1131000D01*
X1023000*
X1093000Y1132500D02*
X1087000Y1138500D01*
Y1143500*
X1099000Y1155500*
Y1164500*
X1154000Y1165500D02*
X1137500D01*
X1128500Y1174500*
X1100000*
X1172000Y1187500D02*
X1149500D01*
X1146500Y1190500*
X1144000*
X1193000Y1186000D02*
X1179000Y1200000D01*
X1178500*
X1149500Y1194500D02*
X1155000Y1200000D01*
X1178500*
G54D29*
X1057047Y1017500D02*
X1058047D01*
X1064953D02*
X1063953D01*
X1061000Y1021453D02*
Y1020453D01*
X1193000Y1191900D02*
Y1192900D01*
X1197000Y1195900D02*
X1196000D01*
X1193000Y1199900D02*
Y1198900D01*
X1189000Y1195900D02*
X1190000D01*
X1161500Y1120100D02*
Y1119100D01*
X1157500Y1116100D02*
X1158500D01*
X1161500Y1112100D02*
Y1113100D01*
X1126665Y1016500D02*
X1125665D01*
X1123500Y1019665D02*
Y1018665D01*
Y1013335D02*
Y1014335D01*
X1011063Y1017500D02*
X1012063D01*
X1016000Y1012563D02*
Y1013563D01*
Y1022437D02*
Y1021437D01*
X1113000Y1197937D02*
Y1196937D01*
X1117937Y1193000D02*
X1116937D01*
X1103000Y1197937D02*
Y1196937D01*
X1093000Y1197937D02*
Y1196937D01*
X1083000Y1197937D02*
Y1196937D01*
X1073000Y1197937D02*
Y1196937D01*
X1063000Y1197937D02*
Y1196937D01*
X1053000Y1197937D02*
Y1196937D01*
X1043000Y1197937D02*
Y1196937D01*
X1033000Y1197937D02*
Y1196937D01*
X1090500Y1168500D02*
X1091500D01*
X1094500Y1164500D02*
Y1165500D01*
X1098500Y1168500D02*
X1097500D01*
X1094500Y1172500D02*
Y1171500D01*
X1199500Y1175437D02*
Y1174437D01*
X1194563Y1170500D02*
X1195563D01*
X1204437D02*
X1203437D01*
G54D30*
X1162000Y1020500D03*
X1084000Y1037500D03*
X1129000Y1041000D03*
X1116000Y1043500D03*
X1140000Y1045500D03*
X1203000Y1039000D03*
X1023000Y1066500D03*
X1031000Y1057500D03*
X1047000Y1064000D03*
Y1051000D03*
X1080000Y1050000D03*
X1082000Y1064000D03*
X1123000Y1062500D03*
X1161500Y1050500D03*
X1170000Y1064500D03*
X1159000Y1063500D03*
X1175000Y1057500D03*
X1178000Y1050500D03*
X1206000Y1048000D03*
X1197000Y1066500D03*
Y1056500D03*
X1053000Y1087500D03*
X1062000Y1075500D03*
X1130000Y1083500D03*
X1166000Y1081500D03*
X1186000D03*
X1181000D03*
X1187000Y1075500D03*
X1201000Y1074000D03*
X1198000Y1073500D03*
X1020000Y1092500D03*
X1062000Y1097500D03*
X1089000Y1099500D03*
X1091000Y1095000D03*
X1103500Y1098500D03*
X1151000Y1097000D03*
X1146500Y1094000D03*
X1155000Y1101000D03*
X1160000Y1101500D03*
X1177000Y1088500D03*
X1055000Y1125500D03*
X1069000Y1108500D03*
X1068500Y1115500D03*
X1093000Y1117000D03*
X1101000D03*
X1100000Y1123500D03*
X1112000D03*
X1136000Y1115500D03*
Y1125500D03*
X1182000Y1127500D03*
X1179500Y1109500D03*
X1202000Y1115500D03*
X1020000Y1143000D03*
X1023000Y1131000D03*
X1068000Y1128500D03*
X1087000Y1129500D03*
X1082000Y1128000D03*
X1093000Y1132500D03*
X1204000Y1134500D03*
X1028000Y1158000D03*
X1035000Y1164500D03*
X1049000D03*
X1062000Y1151500D03*
X1087000D03*
X1099000Y1164500D03*
X1115000Y1152500D03*
X1133000D03*
X1154000Y1165500D03*
X1171000Y1158000D03*
X1100000Y1174500D03*
X1172000Y1187500D03*
X1188000Y1170500D03*
X1149500Y1194500D03*
X1144000Y1190500D03*
G54D31*
X1197000Y1195900D02*
G75*
G03X1197000I-4000J0D01*
G01X1128500Y1138500D02*
G03X1128500I-4000J0D01*
G01X1118500D02*
G03X1118500I-4000J0D01*
G01Y1168500D02*
G03X1118500I-4000J0D01*
G01X1108500Y1138500D02*
G03X1108500I-4000J0D01*
G01Y1168500D02*
G03X1108500I-4000J0D01*
G01X1098500Y1138500D02*
G03X1098500I-4000J0D01*
G01Y1168500D02*
G03X1098500I-4000J0D01*
G01X1040937Y1102500D02*
G03X1040937I-4937J0D01*
G01Y1122185D02*
G03X1040937I-4937J0D01*
G01X1207500Y1134228D02*
Y1203600D01*
G03X1207100Y1204000I-400J-0*
G01X1008900*
G03X1008500Y1203600I0J-400*
G01Y1011400*
G03X1008900Y1011000I400J0*
G01X1037913*
G03X1038196Y1011683I-0J400*
G01X1037329Y1012549*
G03X1036968Y1012659I-283J-282*
G01X1031375Y1015773D02*
G03X1036968Y1012659I4625J1727D01*
G01X1031375Y1015773D02*
G03X1030625I-375J-140D01*
G01X1021375D02*
G03X1030625I4625J1727D01*
G01X1021375D02*
G03X1020625I-375J-140D01*
G01Y1019227D02*
G03Y1015773I-4625J-1727D01*
G01Y1019227D02*
G03X1021375I375J140D01*
G01X1030625D02*
G03X1021375I-4625J-1727D01*
G01X1030625D02*
G03X1031375I375J140D01*
G01X1039997Y1014601D02*
G03X1031375Y1019227I-3997J2899D01*
G01X1039997Y1014601D02*
G03X1040038Y1014084I323J-234D01*
G01X1040504Y1013617*
G03X1040787Y1013500I283J283*
G01X1048553*
G03X1048778Y1014231I0J400*
G01X1053222D02*
G03X1048778I-2222J3269D01*
G01X1053222D02*
G03X1053447Y1013500I225J-331D01*
G01X1058553*
G03X1058778Y1014231I0J400*
G01X1063222D02*
G03X1058778I-2222J3269D01*
G01X1063222D02*
G03X1063447Y1013500I225J-331D01*
G01X1068553*
G03X1068778Y1014231I0J400*
G01X1069275Y1021056D02*
G03X1068778Y1014231I1725J-3556D01*
G01X1069275Y1021056D02*
G03X1069500Y1021416I-175J360D01*
G01Y1021713*
G03X1069383Y1021996I-400J-0*
G01X1066439Y1024939*
X1066000Y1026000D02*
G03X1066439Y1024939I1500J0D01*
G01X1066000Y1026000D02*
Y1049500D01*
X1066439Y1050561D02*
G03X1066000Y1049500I1061J-1061D01*
G01X1066439Y1050561D02*
X1079790Y1063912D01*
G03X1079906Y1064163I-282J283*
G01X1082163Y1061906D02*
G03X1079906Y1064163I-163J2094D01*
G01X1082163Y1061906D02*
G03X1081912Y1061790I32J-398D01*
G01X1069117Y1048996*
G03X1069000Y1048713I283J-283*
G01Y1026787*
G03X1069117Y1026504I400J0*
G01X1069317Y1026304*
G03X1070000Y1026587I283J283*
G01Y1041500*
X1070439Y1042561D02*
G03X1070000Y1041500I1061J-1061D01*
G01X1070439Y1042561D02*
X1077790Y1049912D01*
G03X1077906Y1050163I-282J283*
G01X1080163Y1047906D02*
G03X1077906Y1050163I-163J2094D01*
G01X1080163Y1047906D02*
G03X1079912Y1047790I32J-398D01*
G01X1073117Y1040996*
G03X1073000Y1040713I283J-283*
G01Y1027287*
G03X1073117Y1027004I400J0*
G01X1077561Y1022561*
X1078000Y1021500D02*
G03X1077561Y1022561I-1500J0D01*
G01X1078000Y1021500D02*
Y1014000D01*
X1077561Y1012939D02*
G03X1078000Y1014000I-1061J1061D01*
G01X1077561Y1012939D02*
X1076304Y1011683D01*
G03X1076587Y1011000I283J-283*
G01X1207100*
G03X1207500Y1011400I-0J400*
G01Y1045755*
G03X1206924Y1046114I-400J-0*
G01X1204320Y1049260D02*
G03X1206924Y1046114I1680J-1260D01*
G01X1204320Y1049260D02*
G03X1204400Y1049500I-320J240D01*
G01Y1114000*
G03X1203680Y1114240I-400J-0*
G01X1200496Y1114035D02*
G03X1203680Y1114240I1504J1465D01*
G01X1200496Y1114035D02*
G03X1199809Y1113756I-287J-279D01*
G01Y1106593*
X1198809Y1105592D02*
G03X1199809Y1106593I0J1001D01*
G01X1198809Y1105592D02*
X1190148D01*
X1189148Y1106593D02*
G03X1190148Y1105592I1000J-0D01*
G01X1189148Y1106593D02*
Y1136907D01*
X1190148Y1137908D02*
G03X1189148Y1136907I-0J-1001D01*
G01X1190148Y1137908D02*
X1198809D01*
X1199809Y1136907D02*
G03X1198809Y1137908I-1000J0D01*
G01X1199809Y1136907D02*
Y1119978D01*
G03X1199926Y1119695I400J-0*
G01X1201912Y1117710*
G03X1202163Y1117594I283J282*
G01X1203680Y1116760D02*
G03X1202163Y1117594I-1680J-1260D01*
G01X1203680Y1116760D02*
G03X1204400Y1117000I320J240D01*
G01Y1131672*
G03X1204283Y1131954I-400J-0*
G01X1203929Y1132308*
G03X1203703Y1132421I-283J-283*
G01X1206079Y1134797D02*
G03X1203703Y1132421I-2079J-297D01*
G01X1206079Y1134797D02*
G03X1206192Y1134571I396J57D01*
G01X1206817Y1133946*
G03X1207500Y1134228I283J282*
G01X1201227Y1165875D02*
G03X1197773I-1727J4625D01*
G01X1201227D02*
G03Y1165125I140J-375D01*
G01X1197773D02*
G03X1201227I1727J-4625D01*
G01X1197773D02*
G03Y1165875I-140J375D01*
G01X1197000Y1189000D02*
Y1183000D01*
X1196000Y1182000D02*
G03X1197000Y1183000I0J1000D01*
G01X1196000Y1182000D02*
X1190000D01*
X1189000Y1183000D02*
G03X1190000Y1182000I1000J0D01*
G01X1189000Y1183000D02*
Y1187572D01*
G03X1188883Y1187854I-400J-0*
G01X1178454Y1198283*
G03X1178172Y1198400I-282J-283*
G01X1155828*
G03X1155546Y1198283I0J-400*
G01X1151692Y1194429*
G03X1151579Y1194203I283J-283*
G01X1149203Y1196579D02*
G03X1151579Y1194203I297J-2079D01*
G01X1149203Y1196579D02*
G03X1149429Y1196692I-57J396D01*
G01X1153869Y1201131*
X1155000Y1201600D02*
G03X1153869Y1201131I0J-1600D01*
G01X1155000Y1201600D02*
X1178500D01*
X1179000*
X1180131Y1201131D02*
G03X1179000Y1201600I-1131J-1131D01*
G01X1180131Y1201131D02*
X1191146Y1190117D01*
G03X1191428Y1190000I282J283*
G01X1196000*
X1197000Y1189000D02*
G03X1196000Y1190000I-1000J0D01*
G01X1197000Y1195900D02*
G03X1197000I-4000J0D01*
G01X1028163Y1155906D02*
G03X1025906Y1158163I-163J2094D01*
G01X1028163Y1155906D02*
G03X1027912Y1155790I32J-398D01*
G01X1021617Y1149496*
G03X1021500Y1149213I283J-283*
G01Y1144625*
G03X1021596Y1144365I400J-0*
G01X1018404D02*
G03X1021596I1596J-1365D01*
G01X1018404D02*
G03X1018500Y1144625I-304J260D01*
G01Y1150000*
X1018939Y1151061D02*
G03X1018500Y1150000I1061J-1061D01*
G01X1018939Y1151061D02*
X1025790Y1157912D01*
G03X1025906Y1158163I-282J283*
G01X1121280Y1014243D02*
G03Y1018757I2220J2257D01*
G01Y1014243D02*
G03X1120720I-280J-285D01*
G01X1116280D02*
G03X1120720I2220J2257D01*
G01X1116280D02*
G03X1115720I-280J-285D01*
G01X1111280D02*
G03X1115720I2220J2257D01*
G01X1111280D02*
G03X1110720I-280J-285D01*
G01X1106280D02*
G03X1110720I2220J2257D01*
G01X1106280D02*
G03X1105720I-280J-285D01*
G01X1101280D02*
G03X1105720I2220J2257D01*
G01X1101280D02*
G03X1100720I-280J-285D01*
G01X1096280D02*
G03X1100720I2220J2257D01*
G01X1096280D02*
G03X1095720I-280J-285D01*
G01X1091280D02*
G03X1095720I2220J2257D01*
G01X1091280D02*
G03X1090720I-280J-285D01*
G01Y1018757D02*
G03Y1014243I-2220J-2257D01*
G01Y1018757D02*
G03X1091280I280J285D01*
G01X1095720D02*
G03X1091280I-2220J-2257D01*
G01X1095720D02*
G03X1096280I280J285D01*
G01X1100720D02*
G03X1096280I-2220J-2257D01*
G01X1100720D02*
G03X1101280I280J285D01*
G01X1105720D02*
G03X1101280I-2220J-2257D01*
G01X1105720D02*
G03X1106280I280J285D01*
G01X1110720D02*
G03X1106280I-2220J-2257D01*
G01X1110720D02*
G03X1111280I280J285D01*
G01X1115720D02*
G03X1111280I-2220J-2257D01*
G01X1115720D02*
G03X1116280I280J285D01*
G01X1120720D02*
G03X1116280I-2220J-2257D01*
G01X1120720D02*
G03X1121280I280J285D01*
G01X1137906Y1045337D02*
G03X1140163Y1047594I2094J163D01*
G01X1137906Y1045337D02*
G03X1137790Y1045588I-398J-32D01*
G01X1123088Y1060290*
G03X1122837Y1060406I-283J-282*
G01X1125094Y1062663D02*
G03X1122837Y1060406I-2094J-163D01*
G01X1125094Y1062663D02*
G03X1125210Y1062412I398J32D01*
G01X1139912Y1047710*
G03X1140163Y1047594I283J282*
G01X1128500Y1138500D02*
G03X1128500I-4000J0D01*
G01X1118500D02*
G03X1118500I-4000J0D01*
G01X1131635Y1150904D02*
G03Y1154096I1365J1596D01*
G01Y1150904D02*
G03X1131375Y1151000I-260J-304D01*
G01X1116625*
G03X1116365Y1150904I-0J-400*
G01Y1154096D02*
G03Y1150904I-1365J-1596D01*
G01Y1154096D02*
G03X1116625Y1154000I260J304D01*
G01X1131375*
G03X1131635Y1154096I0J400*
G01X1128500Y1171500D02*
Y1165500D01*
X1127500Y1164500D02*
G03X1128500Y1165500I0J1000D01*
G01X1127500Y1164500D02*
X1121500D01*
X1120500Y1165500D02*
G03X1121500Y1164500I1000J0D01*
G01X1120500Y1165500D02*
Y1171500D01*
X1121500Y1172500D02*
G03X1120500Y1171500I0J-1000D01*
G01X1121500Y1172500D02*
X1127500D01*
X1128500Y1171500D02*
G03X1127500Y1172500I-1000J0D01*
G01X1118500Y1168500D02*
G03X1118500I-4000J0D01*
G01X1102135Y1096904D02*
G03Y1100096I1365J1596D01*
G01Y1096904D02*
G03X1101875Y1097000I-260J-304D01*
G01X1095287*
G03X1095004Y1096883I0J-400*
G01X1093210Y1095088*
G03X1093094Y1094837I282J-283*
G01X1089828Y1096742D02*
G03X1093094Y1094837I1172J-1742D01*
G01X1089828Y1096742D02*
G03X1089508Y1097462I-224J332D01*
G01X1088837Y1101594D02*
G03X1089508Y1097462I163J-2094D01*
G01X1088837Y1101594D02*
G03X1089088Y1101710I-32J398D01*
G01X1099383Y1112004*
G03X1099500Y1112287I-283J283*
G01Y1115375*
G03X1099404Y1115635I-400J0*
G01X1102596D02*
G03X1099404I-1596J1365D01*
G01X1102596D02*
G03X1102500Y1115375I304J-260D01*
G01Y1111500*
X1102061Y1110439D02*
G03X1102500Y1111500I-1061J1061D01*
G01X1102061Y1110439D02*
X1091210Y1099588D01*
G03X1091094Y1099337I282J-283*
G01X1090172Y1097758D02*
G03X1091094Y1099337I-1172J1742D01*
G01X1090172Y1097758D02*
G03X1090492Y1097038I224J-332D01*
G01X1090837Y1097094D02*
G03X1090492Y1097038I163J-2094D01*
G01X1090837Y1097094D02*
G03X1091088Y1097210I-32J398D01*
G01X1093439Y1099561*
X1094500Y1100000D02*
G03X1093439Y1099561I0J-1500D01*
G01X1094500Y1100000D02*
X1101875D01*
G03X1102135Y1100096I0J400*
G01X1108500Y1138500D02*
G03X1108500I-4000J0D01*
G01Y1168500D02*
G03X1108500I-4000J0D01*
G01X1090906Y1116837D02*
G03X1093163Y1119094I2094J163D01*
G01X1090906Y1116837D02*
G03X1090790Y1117088I-398J-32D01*
G01X1082088Y1125790*
G03X1081837Y1125906I-283J-282*
G01X1084094Y1128163D02*
G03X1081837Y1125906I-2094J-163D01*
G01X1084094Y1128163D02*
G03X1084210Y1127912I398J32D01*
G01X1092912Y1119210*
G03X1093163Y1119094I283J282*
G01X1098500Y1138500D02*
G03X1098500I-4000J0D01*
G01Y1168500D02*
G03X1098500I-4000J0D01*
G01X1063596Y1096135D02*
G03X1060404I-1596J1365D01*
G01X1063596D02*
G03X1063500Y1095875I304J-260D01*
G01Y1077125*
G03X1063596Y1076865I400J-0*
G01X1060404D02*
G03X1063596I1596J-1365D01*
G01X1060404D02*
G03X1060500Y1077125I-304J260D01*
G01Y1095875*
G03X1060404Y1096135I-400J0*
G01X1055727Y1038375D02*
G03X1052273I-1727J4625D01*
G01X1055727D02*
G03Y1037625I140J-375D01*
G01X1052273D02*
G03X1055727I1727J-4625D01*
G01X1052273D02*
G03Y1038375I-140J375D01*
G01X1048680Y1062740D02*
G03X1045320I-1680J1260D01*
G01X1048680D02*
G03X1048600Y1062500I320J-240D01*
G01Y1052500*
G03X1048680Y1052260I400J0*
G01X1045320D02*
G03X1048680I1680J-1260D01*
G01X1045320D02*
G03X1045400Y1052500I-320J240D01*
G01Y1062500*
G03X1045320Y1062740I-400J-0*
G01X1022375Y1032773D02*
G03Y1036227I4625J1727D01*
G01Y1032773D02*
G03X1021625I-375J-140D01*
G01Y1036227D02*
G03Y1032773I-4625J-1727D01*
G01Y1036227D02*
G03X1022375I375J140D01*
G01X1040937Y1102500D02*
G03X1040937I-4937J0D01*
G01Y1122185D02*
G03X1040937I-4937J0D01*
G01X1065921Y1128203D02*
G03X1068297Y1130579I2079J297D01*
G01X1065921Y1128203D02*
G03X1065808Y1128429I-396J-57D01*
G01X1064954Y1129283*
G03X1064672Y1129400I-282J-283*
G01X1025000*
G03X1024600Y1129000I0J-400*
G01Y1068000*
G03X1024680Y1067760I400J0*
G01X1021320D02*
G03X1024680I1680J-1260D01*
G01X1021320D02*
G03X1021400Y1068000I-320J240D01*
G01Y1129500*
G03X1021320Y1129740I-400J-0*
G01X1024260Y1132680D02*
G03X1021320Y1129740I-1260J-1680D01*
G01X1024260Y1132680D02*
G03X1024500Y1132600I240J320D01*
G01X1065500*
X1066631Y1132131D02*
G03X1065500Y1132600I-1131J-1131D01*
G01X1066631Y1132131D02*
X1068071Y1130692D01*
G03X1068297Y1130579I283J283*
G01X1085635Y1149904D02*
G03Y1153096I1365J1596D01*
G01Y1149904D02*
G03X1085375Y1150000I-260J-304D01*
G01X1063625*
G03X1063365Y1149904I-0J-400*
G01Y1153096D02*
G03Y1149904I-1365J-1596D01*
G01Y1153096D02*
G03X1063625Y1153000I260J304D01*
G01X1085375*
G03X1085635Y1153096I0J400*
G01X1184635Y1079904D02*
G03Y1083096I1365J1596D01*
G01Y1079904D02*
G03X1184375Y1080000I-260J-304D01*
G01X1182625*
G03X1182365Y1079904I-0J-400*
G01Y1083096D02*
G03Y1079904I-1365J-1596D01*
G01Y1083096D02*
G03X1182625Y1083000I260J304D01*
G01X1184375*
G03X1184635Y1083096I0J400*
G01X1188811Y1098748D02*
Y1092252D01*
X1187811Y1091252D02*
G03X1188811Y1092252I0J1000D01*
G01X1187811Y1091252D02*
X1182039D01*
G03X1181756Y1091135I-0J-400*
G01X1179210Y1088588*
G03X1179094Y1088337I282J-283*
G01X1176837Y1090594D02*
G03X1179094Y1088337I163J-2094D01*
G01X1176837Y1090594D02*
G03X1177088Y1090710I-32J398D01*
G01X1177766Y1091387*
G03X1177846Y1091836I-283J283*
G01X1177756Y1092252D02*
G03X1177846Y1091836I1000J-0D01*
G01X1177756Y1092252D02*
Y1098748D01*
X1178756Y1099748D02*
G03X1177756Y1098748I-0J-1000D01*
G01X1178756Y1099748D02*
X1187811D01*
X1188811Y1098748D02*
G03X1187811Y1099748I-1000J0D01*
G01X1170163Y1062406D02*
G03X1167906Y1064663I-163J2094D01*
G01X1170163Y1062406D02*
G03X1169912Y1062290I32J-398D01*
G01X1169304Y1061683*
G03X1169587Y1061000I283J-283*
G01X1169750*
X1170750Y1060000D02*
G03X1169750Y1061000I-1000J0D01*
G01X1170750Y1060000D02*
Y1054000D01*
X1169750Y1053000D02*
G03X1170750Y1054000I0J1000D01*
G01X1169750Y1053000D02*
X1163750D01*
X1162750Y1054000D02*
G03X1163750Y1053000I1000J0D01*
G01X1162750Y1054000D02*
Y1060000D01*
X1163750Y1061000D02*
G03X1162750Y1060000I0J-1000D01*
G01X1163750Y1061000D02*
X1164643D01*
G03X1165034Y1061316I-0J400*
G01X1165439Y1062061D02*
G03X1165034Y1061316I1061J-1061D01*
G01X1165439Y1062061D02*
X1167790Y1064412D01*
G03X1167906Y1064663I-282J283*
G01X1160227Y1083375D02*
G03X1156773I-1727J4625D01*
G01X1160227D02*
G03Y1082625I140J-375D01*
G01X1156773D02*
G03X1160227I1727J-4625D01*
G01X1156773D02*
G03Y1083375I-140J375D01*
G01X1174244Y1098748D02*
Y1092252D01*
X1173244Y1091252D02*
G03X1174244Y1092252I0J1000D01*
G01X1173244Y1091252D02*
X1164189D01*
X1163189Y1092252D02*
G03X1164189Y1091252I1000J-0D01*
G01X1163189Y1092252D02*
Y1096024D01*
G03X1163072Y1096307I-400J0*
G01X1160088Y1099290*
G03X1159837Y1099406I-283J-282*
G01X1162094Y1101663D02*
G03X1159837Y1099406I-2094J-163D01*
G01X1162094Y1101663D02*
G03X1162210Y1101412I398J32D01*
G01X1163763Y1099858*
G03X1164087Y1099743I283J283*
G01X1164189Y1099748D02*
G03X1164087Y1099743I-0J-1000D01*
G01X1164189Y1099748D02*
X1173244D01*
X1174244Y1098748D02*
G03X1173244Y1099748I-1000J0D01*
G01X1180740Y1125820D02*
G03Y1129180I1260J1680D01*
G01Y1125820D02*
G03X1180500Y1125900I-240J-320D01*
G01X1177252*
G03X1176852Y1125500I0J-400*
G01Y1106593*
X1175852Y1105592D02*
G03X1176852Y1106593I0J1001D01*
G01X1175852Y1105592D02*
X1167191D01*
X1166191Y1106593D02*
G03X1167191Y1105592I1000J-0D01*
G01X1166191Y1106593D02*
Y1115126D01*
G03X1165401Y1115215I-400J0*
G01Y1116985D02*
G03Y1115215I-3901J-885D01*
G01Y1116985D02*
G03X1166191Y1117074I390J89D01*
G01Y1122458*
G03X1165422Y1122613I-400J0*
G01X1164500Y1122000D02*
G03X1165422Y1122613I0J1000D01*
G01X1164500Y1122000D02*
X1158500D01*
X1157500Y1123000D02*
G03X1158500Y1122000I1000J0D01*
G01X1157500Y1123000D02*
Y1129000D01*
X1158500Y1130000D02*
G03X1157500Y1129000I0J-1000D01*
G01X1158500Y1130000D02*
X1164500D01*
X1165422Y1129387D02*
G03X1164500Y1130000I-922J-387D01*
G01X1165422Y1129387D02*
G03X1166191Y1129542I369J155D01*
G01Y1136907*
X1167191Y1137908D02*
G03X1166191Y1136907I-0J-1001D01*
G01X1167191Y1137908D02*
X1175852D01*
X1176852Y1136907D02*
G03X1175852Y1137908I-1000J0D01*
G01X1176852Y1136907D02*
Y1129500D01*
G03X1177252Y1129100I400J0*
G01X1180500*
G03X1180740Y1129180I-0J400*
G01X1165000Y1168000D02*
Y1141000D01*
X1164561Y1139939D02*
G03X1165000Y1141000I-1061J1061D01*
G01X1164561Y1139939D02*
X1156617Y1131996D01*
G03X1156500Y1131713I283J-283*
G01Y1102625*
G03X1156596Y1102365I400J-0*
G01X1153404D02*
G03X1156596I1596J-1365D01*
G01X1153404D02*
G03X1153500Y1102625I-304J260D01*
G01Y1132500*
X1153939Y1133561D02*
G03X1153500Y1132500I1061J-1061D01*
G01X1153939Y1133561D02*
X1161883Y1141504D01*
G03X1162000Y1141787I-283J283*
G01Y1167213*
G03X1161883Y1167496I-400J-0*
G01X1153996Y1175383*
G03X1153713Y1175500I-283J-283*
G01X1055500*
X1054439Y1175939D02*
G03X1055500Y1175500I1061J1061D01*
G01X1054439Y1175939D02*
X1052351Y1178028D01*
G03X1052138Y1178139I-283J-283*
G01X1048375Y1181273D02*
G03X1052138Y1178139I4625J1727D01*
G01X1048375Y1181273D02*
G03X1047625I-375J-140D01*
G01X1044758Y1178386D02*
G03X1047625Y1181273I-1758J4614D01*
G01X1044758Y1178386D02*
G03X1044500Y1178013I142J-373D01*
G01Y1139787*
G03X1044617Y1139504I400J0*
G01X1046004Y1138117*
G03X1046287Y1138000I283J283*
G01X1080000*
X1081061Y1137561D02*
G03X1080000Y1138000I-1061J-1061D01*
G01X1081061Y1137561D02*
X1086912Y1131710D01*
G03X1087163Y1131594I283J282*
G01X1084906Y1129337D02*
G03X1087163Y1131594I2094J163D01*
G01X1084906Y1129337D02*
G03X1084790Y1129588I-398J-32D01*
G01X1079496Y1134883*
G03X1079213Y1135000I-283J-283*
G01X1045500*
X1044439Y1135439D02*
G03X1045500Y1135000I1061J1061D01*
G01X1044439Y1135439D02*
X1041939Y1137939D01*
X1041500Y1139000D02*
G03X1041939Y1137939I1500J0D01*
G01X1041500Y1139000D02*
Y1178013D01*
G03X1041242Y1178386I-400J-0*
G01X1038375Y1181273D02*
G03X1041242Y1178386I4625J1727D01*
G01X1038375Y1181273D02*
G03X1037625I-375J-140D01*
G01X1028375D02*
G03X1037625I4625J1727D01*
G01X1028375D02*
G03X1027625I-375J-140D01*
G01X1021273Y1187625D02*
G03X1027625Y1181273I1727J-4625D01*
G01X1021273Y1187625D02*
G03Y1188375I-140J375D01*
G01X1027625Y1194727D02*
G03X1021273Y1188375I-4625J-1727D01*
G01X1027625Y1194727D02*
G03X1028375I375J140D01*
G01X1037625D02*
G03X1028375I-4625J-1727D01*
G01X1037625D02*
G03X1038375I375J140D01*
G01X1047625D02*
G03X1038375I-4625J-1727D01*
G01X1047625D02*
G03X1048375I375J140D01*
G01X1057625D02*
G03X1048375I-4625J-1727D01*
G01X1057625D02*
G03X1058375I375J140D01*
G01X1067625D02*
G03X1058375I-4625J-1727D01*
G01X1067625D02*
G03X1068375I375J140D01*
G01X1077625D02*
G03X1068375I-4625J-1727D01*
G01X1077625D02*
G03X1078375I375J140D01*
G01X1087625D02*
G03X1078375I-4625J-1727D01*
G01X1087625D02*
G03X1088375I375J140D01*
G01X1097625D02*
G03X1088375I-4625J-1727D01*
G01X1097625D02*
G03X1098375I375J140D01*
G01X1107625D02*
G03X1098375I-4625J-1727D01*
G01X1107625D02*
G03X1108375I375J140D01*
G01X1114727Y1188375D02*
G03X1108375Y1194727I-1727J4625D01*
G01X1114727Y1188375D02*
G03Y1187625I140J-375D01*
G01X1116161Y1179207D02*
G03X1114727Y1187625I-3161J3793D01*
G01X1116161Y1179207D02*
G03X1116417Y1178500I256J-307D01*
G01X1154500*
X1155561Y1178061D02*
G03X1154500Y1178500I-1061J-1061D01*
G01X1155561Y1178061D02*
X1164561Y1169061D01*
X1165000Y1168000D02*
G03X1164561Y1169061I-1500J0D01*
G01X1184250Y1060000D02*
Y1054000D01*
X1183250Y1053000D02*
G03X1184250Y1054000I0J1000D01*
G01X1183250Y1053000D02*
X1179357D01*
G03X1179139Y1052264I-0J-400*
G01X1176740Y1048820D02*
G03X1179139Y1052264I1260J1680D01*
G01X1176740Y1048820D02*
G03X1176500Y1048900I-240J-320D01*
G01X1163000*
G03X1162760Y1048820I0J-400*
G01Y1052180D02*
G03Y1048820I-1260J-1680D01*
G01Y1052180D02*
G03X1163000Y1052100I240J320D01*
G01X1176500*
G03X1176740Y1052180I-0J400*
G01X1176974Y1052333D02*
G03X1176740Y1052180I1026J-1833D01*
G01X1176974Y1052333D02*
G03X1176914Y1053058I-195J349D01*
G01X1176250Y1054000D02*
G03X1176914Y1053058I1000J0D01*
G01X1176250Y1054000D02*
Y1060000D01*
X1177250Y1061000D02*
G03X1176250Y1060000I0J-1000D01*
G01X1177250Y1061000D02*
X1183250D01*
X1184250Y1060000D02*
G03X1183250Y1061000I-1000J0D01*
G01X1200500Y1021500D02*
Y1018500D01*
X1199500Y1017500D02*
G03X1200500Y1018500I0J1000D01*
G01X1199500Y1017500D02*
X1195700D01*
X1194843Y1017985D02*
G03X1195700Y1017500I857J515D01*
G01X1194843Y1017985D02*
G03X1194157I-343J-206D01*
G01X1193300Y1017500D02*
G03X1194157Y1017985I0J1000D01*
G01X1193300Y1017500D02*
X1189500D01*
X1188542Y1018214D02*
G03X1189500Y1017500I958J286D01*
G01X1188542Y1018214D02*
G03X1188158Y1018500I-384J-114D01*
G01X1167000*
X1165939Y1018939D02*
G03X1167000Y1018500I1061J1061D01*
G01X1165939Y1018939D02*
X1145439Y1039439D01*
X1145000Y1040500D02*
G03X1145439Y1039439I1500J0D01*
G01X1145000Y1040500D02*
Y1092375D01*
G03X1144904Y1092635I-400J0*
G01X1148096D02*
G03X1144904I-1596J1365D01*
G01X1148096D02*
G03X1148000Y1092375I304J-260D01*
G01Y1041287*
G03X1148117Y1041004I400J0*
G01X1167504Y1021617*
G03X1167787Y1021500I283J283*
G01X1188158*
G03X1188542Y1021786I0J400*
G01X1189500Y1022500D02*
G03X1188542Y1021786I0J-1000D01*
G01X1189500Y1022500D02*
X1193300D01*
X1194157Y1022015D02*
G03X1193300Y1022500I-857J-515D01*
G01X1194157Y1022015D02*
G03X1194843I343J206D01*
G01X1195629Y1022497D02*
G03X1194843Y1022015I71J-997D01*
G01X1195629Y1022497D02*
G03X1196000Y1022896I-29J399D01*
G01Y1022963*
G03X1195883Y1023246I-400J-0*
G01X1195246Y1023883*
G03X1194963Y1024000I-283J-283*
G01X1167500*
X1166439Y1024439D02*
G03X1167500Y1024000I1061J1061D01*
G01X1166439Y1024439D02*
X1149939Y1040939D01*
X1149500Y1042000D02*
G03X1149939Y1040939I1500J0D01*
G01X1149500Y1042000D02*
Y1095375D01*
G03X1149404Y1095635I-400J0*
G01X1152596D02*
G03X1149404I-1596J1365D01*
G01X1152596D02*
G03X1152500Y1095375I304J-260D01*
G01Y1042787*
G03X1152617Y1042504I400J0*
G01X1168004Y1027117*
G03X1168287Y1027000I283J283*
G01X1195750*
X1196811Y1026561D02*
G03X1195750Y1027000I-1061J-1061D01*
G01X1196811Y1026561D02*
X1198561Y1024811D01*
X1199000Y1023750D02*
G03X1198561Y1024811I-1500J0D01*
G01X1199000Y1023750D02*
Y1022900D01*
G03X1199400Y1022500I400J0*
G01X1199500*
X1200500Y1021500D02*
G03X1199500Y1022500I-1000J0D01*
G01X1200311Y1076748D02*
Y1070252D01*
X1199311Y1069252D02*
G03X1200311Y1070252I0J1000D01*
G01X1199311Y1069252D02*
X1190256D01*
X1189256Y1070252D02*
G03X1190256Y1069252I1000J-0D01*
G01X1189256Y1070252D02*
Y1073825D01*
G03X1188559Y1074093I-400J-0*
G01X1186281Y1073527D02*
G03X1188559Y1074093I719J1973D01*
G01X1186281Y1073527D02*
G03X1185744Y1073151I-137J-376D01*
G01Y1070252*
X1184744Y1069252D02*
G03X1185744Y1070252I0J1000D01*
G01X1184744Y1069252D02*
X1175689D01*
X1174689Y1070252D02*
G03X1175689Y1069252I1000J-0D01*
G01X1174689Y1070252D02*
Y1076748D01*
X1175689Y1077748D02*
G03X1174689Y1076748I-0J-1000D01*
G01X1175689Y1077748D02*
X1184744D01*
X1185487Y1077417D02*
G03X1184744Y1077748I-743J-669D01*
G01X1185487Y1077417D02*
G03X1185979Y1077335I298J268D01*
G01X1188601Y1076859D02*
G03X1185979Y1077335I-1601J-1359D01*
G01X1188601Y1076859D02*
G03X1189291Y1077012I305J259D01*
G01X1190256Y1077748D02*
G03X1189291Y1077012I-0J-1000D01*
G01X1190256Y1077748D02*
X1199311D01*
X1200311Y1076748D02*
G03X1199311Y1077748I-1000J0D01*
G01X1008500Y1203379D02*
X1207500D01*
X1008500Y1202659D02*
X1207500D01*
X1008500Y1201939D02*
X1207500D01*
X1180037Y1201219D02*
X1207500D01*
X1180764Y1200499D02*
X1207500D01*
X1193978Y1199779D02*
X1207500D01*
X1195454Y1199059D02*
X1207500D01*
X1196171Y1198339D02*
X1207500D01*
X1196612Y1197619D02*
X1207500D01*
X1196873Y1196899D02*
X1207500D01*
X1196990Y1196179D02*
X1207500D01*
X1196976Y1195459D02*
X1207500D01*
X1196828Y1194739D02*
X1207500D01*
X1196530Y1194019D02*
X1207500D01*
X1196039Y1193299D02*
X1207500D01*
X1195229Y1192579D02*
X1207500D01*
X1189404Y1191859D02*
X1207500D01*
X1190124Y1191139D02*
X1207500D01*
X1190844Y1190419D02*
X1207500D01*
X1196715Y1189699D02*
X1207500D01*
X1197000Y1188979D02*
X1207500D01*
X1197000Y1188259D02*
X1207500D01*
X1197000Y1187539D02*
X1207500D01*
X1197000Y1186819D02*
X1207500D01*
X1197000Y1186099D02*
X1207500D01*
X1197000Y1185379D02*
X1207500D01*
X1197000Y1184659D02*
X1207500D01*
X1197000Y1183939D02*
X1207500D01*
X1197000Y1183219D02*
X1207500D01*
X1196865Y1182499D02*
X1207500D01*
X1117784Y1181779D02*
X1207500D01*
X1117539Y1181059D02*
X1207500D01*
X1117158Y1180339D02*
X1207500D01*
X1116597Y1179619D02*
X1207500D01*
X1116017Y1178899D02*
X1207500D01*
X1155428Y1178179D02*
X1207500D01*
X1156163Y1177459D02*
X1207500D01*
X1156883Y1176739D02*
X1207500D01*
X1157603Y1176019D02*
X1207500D01*
X1200661Y1175299D02*
X1207500D01*
X1202282Y1174579D02*
X1207500D01*
X1203118Y1173859D02*
X1207500D01*
X1203673Y1173139D02*
X1207500D01*
X1204049Y1172419D02*
X1207500D01*
X1204289Y1171699D02*
X1207500D01*
X1204414Y1170979D02*
X1207500D01*
X1204431Y1170259D02*
X1207500D01*
X1204343Y1169539D02*
X1207500D01*
X1204142Y1168819D02*
X1207500D01*
X1203814Y1168099D02*
X1207500D01*
X1203325Y1167379D02*
X1207500D01*
X1202601Y1166659D02*
X1207500D01*
X1201389Y1165939D02*
X1207500D01*
X1201082Y1165219D02*
X1207500D01*
X1202396Y1164499D02*
X1207500D01*
X1203191Y1163779D02*
X1207500D01*
X1203722Y1163059D02*
X1207500D01*
X1204082Y1162339D02*
X1207500D01*
X1204309Y1161619D02*
X1207500D01*
X1204421Y1160899D02*
X1207500D01*
X1204427Y1160179D02*
X1207500D01*
X1204326Y1159459D02*
X1207500D01*
X1204112Y1158739D02*
X1207500D01*
X1203768Y1158019D02*
X1207500D01*
X1203258Y1157299D02*
X1207500D01*
X1202500Y1156579D02*
X1207500D01*
X1201183Y1155859D02*
X1207500D01*
X1165000Y1155139D02*
X1207500D01*
X1165000Y1154419D02*
X1207500D01*
X1165000Y1153699D02*
X1207500D01*
X1165000Y1152979D02*
X1207500D01*
X1165000Y1152259D02*
X1207500D01*
X1165000Y1151539D02*
X1207500D01*
X1165000Y1150819D02*
X1207500D01*
X1165000Y1150099D02*
X1207500D01*
X1165000Y1149379D02*
X1207500D01*
X1165000Y1148659D02*
X1207500D01*
X1165000Y1147939D02*
X1207500D01*
X1165000Y1147219D02*
X1207500D01*
X1165000Y1146499D02*
X1207500D01*
X1165000Y1145779D02*
X1207500D01*
X1165000Y1145059D02*
X1207500D01*
X1165000Y1144339D02*
X1207500D01*
X1165000Y1143619D02*
X1207500D01*
X1165000Y1142899D02*
X1207500D01*
X1165000Y1142179D02*
X1207500D01*
X1165000Y1141459D02*
X1207500D01*
X1164977Y1140739D02*
X1207500D01*
X1164634Y1140019D02*
X1207500D01*
X1163920Y1139299D02*
X1207500D01*
X1163200Y1138579D02*
X1207500D01*
X1199118Y1137859D02*
X1207500D01*
X1199782Y1137139D02*
X1207500D01*
X1204854Y1136419D02*
X1207500D01*
X1205724Y1135699D02*
X1207500D01*
X1206045Y1134979D02*
X1207500D01*
X1206504Y1134259D02*
X1207500D01*
X1152500Y1045699D02*
X1207500D01*
X1152500Y1044979D02*
X1207500D01*
X1152500Y1044259D02*
X1207500D01*
X1152500Y1043539D02*
X1207500D01*
X1152500Y1042819D02*
X1207500D01*
X1153023Y1042099D02*
X1207500D01*
X1153743Y1041379D02*
X1207500D01*
X1154463Y1040659D02*
X1207500D01*
X1155183Y1039939D02*
X1207500D01*
X1155903Y1039219D02*
X1207500D01*
X1156623Y1038499D02*
X1207500D01*
X1157343Y1037779D02*
X1207500D01*
X1158063Y1037059D02*
X1207500D01*
X1158783Y1036339D02*
X1207500D01*
X1159503Y1035619D02*
X1207500D01*
X1160223Y1034899D02*
X1207500D01*
X1160943Y1034179D02*
X1207500D01*
X1161663Y1033459D02*
X1207500D01*
X1162383Y1032739D02*
X1207500D01*
X1163103Y1032019D02*
X1207500D01*
X1163823Y1031299D02*
X1207500D01*
X1164543Y1030579D02*
X1207500D01*
X1165263Y1029859D02*
X1207500D01*
X1165983Y1029139D02*
X1207500D01*
X1166703Y1028419D02*
X1207500D01*
X1167423Y1027699D02*
X1207500D01*
X1196002Y1026979D02*
X1207500D01*
X1197113Y1026259D02*
X1207500D01*
X1197833Y1025539D02*
X1207500D01*
X1198553Y1024819D02*
X1207500D01*
X1198959Y1024099D02*
X1207500D01*
X1199000Y1023379D02*
X1207500D01*
X1199081Y1022659D02*
X1207500D01*
X1200399Y1021939D02*
X1207500D01*
X1200500Y1021219D02*
X1207500D01*
X1200500Y1020499D02*
X1207500D01*
X1200500Y1019779D02*
X1207500D01*
X1200500Y1019059D02*
X1207500D01*
X1200487Y1018339D02*
X1207500D01*
X1199973Y1017619D02*
X1207500D01*
X1126640Y1016899D02*
X1207500D01*
X1126649Y1016179D02*
X1207500D01*
X1126489Y1015459D02*
X1207500D01*
X1126130Y1014739D02*
X1207500D01*
X1125465Y1014019D02*
X1207500D01*
X1077826Y1013299D02*
X1207500D01*
X1077200Y1012579D02*
X1207500D01*
X1076480Y1011859D02*
X1207500D01*
X1076284Y1011139D02*
X1207403D01*
X1152500Y1046419D02*
X1204618D01*
X1199809Y1131379D02*
X1204400D01*
X1199809Y1130659D02*
X1204400D01*
X1199809Y1129939D02*
X1204400D01*
X1199809Y1129219D02*
X1204400D01*
X1199809Y1128499D02*
X1204400D01*
X1199809Y1127779D02*
X1204400D01*
X1199809Y1127059D02*
X1204400D01*
X1199809Y1126339D02*
X1204400D01*
X1199809Y1125619D02*
X1204400D01*
X1199809Y1124899D02*
X1204400D01*
X1199809Y1124179D02*
X1204400D01*
X1199809Y1123459D02*
X1204400D01*
X1199809Y1122739D02*
X1204400D01*
X1199809Y1122019D02*
X1204400D01*
X1199809Y1121299D02*
X1204400D01*
X1199809Y1120579D02*
X1204400D01*
X1199827Y1119859D02*
X1204400D01*
X1200483Y1119139D02*
X1204400D01*
X1201203Y1118419D02*
X1204400D01*
X1201923Y1117699D02*
X1204400D01*
X1199809Y1113379D02*
X1204400D01*
X1199809Y1112659D02*
X1204400D01*
X1199809Y1111939D02*
X1204400D01*
X1199809Y1111219D02*
X1204400D01*
X1199809Y1110499D02*
X1204400D01*
X1199809Y1109779D02*
X1204400D01*
X1199809Y1109059D02*
X1204400D01*
X1199809Y1108339D02*
X1204400D01*
X1199809Y1107619D02*
X1204400D01*
X1199809Y1106899D02*
X1204400D01*
X1199719Y1106179D02*
X1204400D01*
X1156500Y1105459D02*
X1204400D01*
X1156500Y1104739D02*
X1204400D01*
X1156500Y1104019D02*
X1204400D01*
X1161084Y1103299D02*
X1204400D01*
X1161802Y1102579D02*
X1204400D01*
X1162069Y1101859D02*
X1204400D01*
X1162483Y1101139D02*
X1204400D01*
X1163203Y1100419D02*
X1204400D01*
X1188121Y1099699D02*
X1204400D01*
X1188784Y1098979D02*
X1204400D01*
X1188811Y1098259D02*
X1204400D01*
X1188811Y1097539D02*
X1204400D01*
X1188811Y1096819D02*
X1204400D01*
X1188811Y1096099D02*
X1204400D01*
X1188811Y1095379D02*
X1204400D01*
X1188811Y1094659D02*
X1204400D01*
X1188811Y1093939D02*
X1204400D01*
X1188811Y1093219D02*
X1204400D01*
X1188811Y1092499D02*
X1204400D01*
X1188692Y1091779D02*
X1204400D01*
X1181680Y1091059D02*
X1204400D01*
X1180960Y1090339D02*
X1204400D01*
X1180240Y1089619D02*
X1204400D01*
X1179520Y1088899D02*
X1204400D01*
X1179075Y1088179D02*
X1204400D01*
X1178824Y1087459D02*
X1204400D01*
X1178144Y1086739D02*
X1204400D01*
X1163022Y1086019D02*
X1204400D01*
X1162632Y1085299D02*
X1204400D01*
X1162059Y1084579D02*
X1204400D01*
X1161188Y1083859D02*
X1204400D01*
X1187313Y1083139D02*
X1204400D01*
X1187888Y1082419D02*
X1204400D01*
X1188091Y1081699D02*
X1204400D01*
X1188034Y1080979D02*
X1204400D01*
X1187694Y1080259D02*
X1204400D01*
X1186751Y1079539D02*
X1204400D01*
X1163369Y1078819D02*
X1204400D01*
X1163436Y1078099D02*
X1204400D01*
X1200087Y1077379D02*
X1204400D01*
X1200311Y1076659D02*
X1204400D01*
X1200311Y1075939D02*
X1204400D01*
X1200311Y1075219D02*
X1204400D01*
X1200311Y1074499D02*
X1204400D01*
X1200311Y1073779D02*
X1204400D01*
X1200311Y1073059D02*
X1204400D01*
X1200311Y1072339D02*
X1204400D01*
X1200311Y1071619D02*
X1204400D01*
X1200311Y1070899D02*
X1204400D01*
X1200308Y1070179D02*
X1204400D01*
X1199920Y1069459D02*
X1204400D01*
X1152500Y1068739D02*
X1204400D01*
X1152500Y1068019D02*
X1204400D01*
X1152500Y1067299D02*
X1204400D01*
X1170299Y1066579D02*
X1204400D01*
X1171601Y1065859D02*
X1204400D01*
X1172001Y1065139D02*
X1204400D01*
X1172098Y1064419D02*
X1204400D01*
X1171941Y1063699D02*
X1204400D01*
X1171448Y1062979D02*
X1204400D01*
X1169880Y1062259D02*
X1204400D01*
X1169212Y1061539D02*
X1204400D01*
X1183824Y1060819D02*
X1204400D01*
X1184245Y1060099D02*
X1204400D01*
X1184250Y1059379D02*
X1204400D01*
X1184250Y1058659D02*
X1204400D01*
X1184250Y1057939D02*
X1204400D01*
X1184250Y1057219D02*
X1204400D01*
X1184250Y1056499D02*
X1204400D01*
X1184250Y1055779D02*
X1204400D01*
X1184250Y1055059D02*
X1204400D01*
X1184250Y1054339D02*
X1204400D01*
X1184174Y1053619D02*
X1204400D01*
X1179091Y1052899D02*
X1204400D01*
X1179262Y1052179D02*
X1204400D01*
X1179868Y1051459D02*
X1204400D01*
X1180086Y1050739D02*
X1204400D01*
X1180044Y1050019D02*
X1204400D01*
X1203491Y1116979D02*
X1204399D01*
X1203564Y1114099D02*
X1204388D01*
X1179722Y1049299D02*
X1204346D01*
X1199809Y1132099D02*
X1204139D01*
X1152500Y1047139D02*
X1204085D01*
X1178848Y1048579D02*
X1203981D01*
X1152500Y1047859D02*
X1203905D01*
X1199809Y1136419D02*
X1203146D01*
X1199809Y1132819D02*
X1202742D01*
X1199809Y1135699D02*
X1202276D01*
X1199809Y1133539D02*
X1202133D01*
X1199809Y1134979D02*
X1201955D01*
X1199809Y1134259D02*
X1201914D01*
X1200003Y1114099D02*
X1200415D01*
X1158323Y1175299D02*
X1198339D01*
X1165000Y1165219D02*
X1197918D01*
X1165000Y1155859D02*
X1197817D01*
X1165000Y1165939D02*
X1197611D01*
X1159043Y1174579D02*
X1196718D01*
X1165000Y1164499D02*
X1196604D01*
X1165000Y1156579D02*
X1196500D01*
X1165000Y1166659D02*
X1196399D01*
X1166463Y1022659D02*
X1195922D01*
X1159763Y1173859D02*
X1195882D01*
X1165000Y1163779D02*
X1195809D01*
X1165743Y1023379D02*
X1195750D01*
X1165000Y1157299D02*
X1195742D01*
X1165000Y1167379D02*
X1195675D01*
X1160483Y1173139D02*
X1195327D01*
X1165000Y1163059D02*
X1195278D01*
X1165000Y1158019D02*
X1195232D01*
X1193773Y1017619D02*
X1195227D01*
X1164997Y1168099D02*
X1195186D01*
X1161203Y1172419D02*
X1194951D01*
X1165000Y1162339D02*
X1194918D01*
X1165000Y1158739D02*
X1194888D01*
X1164757Y1168819D02*
X1194858D01*
X1194217Y1021939D02*
X1194783D01*
X1161923Y1171699D02*
X1194711D01*
X1165000Y1161619D02*
X1194691D01*
X1165000Y1159459D02*
X1194674D01*
X1164083Y1169539D02*
X1194657D01*
X1162643Y1170979D02*
X1194586D01*
X1165000Y1160899D02*
X1194579D01*
X1165000Y1160179D02*
X1194573D01*
X1163363Y1170259D02*
X1194569D01*
X1181484Y1199779D02*
X1192022D01*
X1188684Y1192579D02*
X1190771D01*
X1182204Y1199059D02*
X1190546D01*
X1187964Y1193299D02*
X1189961D01*
X1176161Y1137859D02*
X1189839D01*
X1182924Y1198339D02*
X1189829D01*
X1185353Y1069459D02*
X1189647D01*
X1187938Y1077379D02*
X1189480D01*
X1187244Y1194019D02*
X1189470D01*
X1183644Y1197619D02*
X1189388D01*
X1185741Y1070179D02*
X1189259D01*
X1188203Y1073779D02*
X1189256D01*
X1185744Y1073059D02*
X1189256D01*
X1185744Y1072339D02*
X1189256D01*
X1185744Y1071619D02*
X1189256D01*
X1185744Y1070899D02*
X1189256D01*
X1176763Y1106179D02*
X1189237D01*
X1176825Y1137139D02*
X1189175D01*
X1186524Y1194739D02*
X1189172D01*
X1176852Y1136419D02*
X1189148D01*
X1176852Y1135699D02*
X1189148D01*
X1176852Y1134979D02*
X1189148D01*
X1176852Y1134259D02*
X1189148D01*
X1176852Y1133539D02*
X1189148D01*
X1176852Y1132819D02*
X1189148D01*
X1176852Y1132099D02*
X1189148D01*
X1176852Y1131379D02*
X1189148D01*
X1176852Y1130659D02*
X1189148D01*
X1176852Y1129939D02*
X1189148D01*
X1183207Y1129219D02*
X1189148D01*
X1183847Y1128499D02*
X1189148D01*
X1184081Y1127779D02*
X1189148D01*
X1184053Y1127059D02*
X1189148D01*
X1183750Y1126339D02*
X1189148D01*
X1182933Y1125619D02*
X1189148D01*
X1176852Y1124899D02*
X1189148D01*
X1176852Y1124179D02*
X1189148D01*
X1176852Y1123459D02*
X1189148D01*
X1176852Y1122739D02*
X1189148D01*
X1176852Y1122019D02*
X1189148D01*
X1176852Y1121299D02*
X1189148D01*
X1176852Y1120579D02*
X1189148D01*
X1176852Y1119859D02*
X1189148D01*
X1176852Y1119139D02*
X1189148D01*
X1176852Y1118419D02*
X1189148D01*
X1176852Y1117699D02*
X1189148D01*
X1176852Y1116979D02*
X1189148D01*
X1176852Y1116259D02*
X1189148D01*
X1176852Y1115539D02*
X1189148D01*
X1176852Y1114819D02*
X1189148D01*
X1176852Y1114099D02*
X1189148D01*
X1176852Y1113379D02*
X1189148D01*
X1176852Y1112659D02*
X1189148D01*
X1176852Y1111939D02*
X1189148D01*
X1176852Y1111219D02*
X1189148D01*
X1176852Y1110499D02*
X1189148D01*
X1176852Y1109779D02*
X1189148D01*
X1176852Y1109059D02*
X1189148D01*
X1176852Y1108339D02*
X1189148D01*
X1176852Y1107619D02*
X1189148D01*
X1176852Y1106899D02*
X1189148D01*
X1117912Y1182499D02*
X1189135D01*
X1184364Y1196899D02*
X1189127D01*
X1126461Y1017619D02*
X1189027D01*
X1185804Y1195459D02*
X1189024D01*
X1185084Y1196179D02*
X1189010D01*
X1114943Y1187539D02*
X1189000D01*
X1116129Y1186819D02*
X1189000D01*
X1116843Y1186099D02*
X1189000D01*
X1117326Y1185379D02*
X1189000D01*
X1117650Y1184659D02*
X1189000D01*
X1117847Y1183939D02*
X1189000D01*
X1117932Y1183219D02*
X1189000D01*
X1167183Y1021939D02*
X1188601D01*
X1126077Y1018339D02*
X1188479D01*
X1114561Y1188259D02*
X1188479D01*
X1115864Y1188979D02*
X1187759D01*
X1116671Y1189699D02*
X1187039D01*
X1117208Y1190419D02*
X1186319D01*
X1185527Y1077379D02*
X1186062D01*
X1117573Y1191139D02*
X1185599D01*
X1181751Y1079539D02*
X1185249D01*
X1117803Y1191859D02*
X1184879D01*
X1182313Y1083139D02*
X1184687D01*
X1150348Y1192579D02*
X1184159D01*
X1151222Y1193299D02*
X1183439D01*
X1151544Y1194019D02*
X1182719D01*
X1152001Y1194739D02*
X1181999D01*
X1152721Y1195459D02*
X1181279D01*
X1176870Y1125619D02*
X1181067D01*
X1176968Y1129219D02*
X1180793D01*
X1153441Y1196179D02*
X1180559D01*
X1163191Y1079539D02*
X1180249D01*
X1154161Y1196899D02*
X1179839D01*
X1159991Y1083139D02*
X1179687D01*
X1162890Y1080259D02*
X1179306D01*
X1154881Y1197619D02*
X1179119D01*
X1160702Y1082419D02*
X1179112D01*
X1162437Y1080979D02*
X1178966D01*
X1161770Y1081699D02*
X1178909D01*
X1173554Y1099699D02*
X1178446D01*
X1155616Y1198339D02*
X1178384D01*
X1174125Y1091779D02*
X1177868D01*
X1174217Y1098979D02*
X1177783D01*
X1174244Y1098259D02*
X1177756D01*
X1174244Y1097539D02*
X1177756D01*
X1174244Y1096819D02*
X1177756D01*
X1174244Y1096099D02*
X1177756D01*
X1174244Y1095379D02*
X1177756D01*
X1174244Y1094659D02*
X1177756D01*
X1174244Y1093939D02*
X1177756D01*
X1174244Y1093219D02*
X1177756D01*
X1174244Y1092499D02*
X1177756D01*
X1162375Y1091059D02*
X1177437D01*
X1162348Y1048579D02*
X1177152D01*
X1152500Y1052899D02*
X1177115D01*
X1162762Y1052179D02*
X1176738D01*
X1170324Y1060819D02*
X1176676D01*
X1170674Y1053619D02*
X1176326D01*
X1170745Y1060099D02*
X1176255D01*
X1170750Y1059379D02*
X1176250D01*
X1170750Y1058659D02*
X1176250D01*
X1170750Y1057939D02*
X1176250D01*
X1170750Y1057219D02*
X1176250D01*
X1170750Y1056499D02*
X1176250D01*
X1170750Y1055779D02*
X1176250D01*
X1170750Y1055059D02*
X1176250D01*
X1170750Y1054339D02*
X1176250D01*
X1162848Y1090339D02*
X1175985D01*
X1163273Y1086739D02*
X1175856D01*
X1163164Y1089619D02*
X1175223D01*
X1163407Y1087459D02*
X1175176D01*
X1152500Y1069459D02*
X1175080D01*
X1163355Y1088899D02*
X1174938D01*
X1163434Y1088179D02*
X1174925D01*
X1163398Y1077379D02*
X1174913D01*
X1152500Y1070179D02*
X1174692D01*
X1163251Y1076659D02*
X1174689D01*
X1162986Y1075939D02*
X1174689D01*
X1162579Y1075219D02*
X1174689D01*
X1161981Y1074499D02*
X1174689D01*
X1161060Y1073779D02*
X1174689D01*
X1152500Y1073059D02*
X1174689D01*
X1152500Y1072339D02*
X1174689D01*
X1152500Y1071619D02*
X1174689D01*
X1152500Y1070899D02*
X1174689D01*
X1152500Y1066579D02*
X1169701D01*
X1152500Y1065859D02*
X1168399D01*
X1152500Y1065139D02*
X1167999D01*
X1152500Y1064419D02*
X1167797D01*
X1152500Y1063699D02*
X1167077D01*
X1165023Y1024099D02*
X1166965D01*
X1162480Y1137859D02*
X1166882D01*
X1152500Y1062979D02*
X1166357D01*
X1156500Y1106179D02*
X1166281D01*
X1161760Y1137139D02*
X1166218D01*
X1161040Y1136419D02*
X1166191D01*
X1160320Y1135699D02*
X1166191D01*
X1159600Y1134979D02*
X1166191D01*
X1158880Y1134259D02*
X1166191D01*
X1158160Y1133539D02*
X1166191D01*
X1157440Y1132819D02*
X1166191D01*
X1156720Y1132099D02*
X1166191D01*
X1156500Y1131379D02*
X1166191D01*
X1156500Y1130659D02*
X1166191D01*
X1164845Y1129939D02*
X1166191D01*
X1164693Y1122019D02*
X1166191D01*
X1156500Y1121299D02*
X1166191D01*
X1156500Y1120579D02*
X1166191D01*
X1162868Y1119859D02*
X1166191D01*
X1164101Y1119139D02*
X1166191D01*
X1164759Y1118419D02*
X1166191D01*
X1165167Y1117699D02*
X1166191D01*
X1165289Y1114819D02*
X1166191D01*
X1164963Y1114099D02*
X1166191D01*
X1164432Y1113379D02*
X1166191D01*
X1163539Y1112659D02*
X1166191D01*
X1156500Y1111939D02*
X1166191D01*
X1156500Y1111219D02*
X1166191D01*
X1156500Y1110499D02*
X1166191D01*
X1156500Y1109779D02*
X1166191D01*
X1156500Y1109059D02*
X1166191D01*
X1156500Y1108339D02*
X1166191D01*
X1156500Y1107619D02*
X1166191D01*
X1156500Y1106899D02*
X1166191D01*
X1165402Y1116979D02*
X1166179D01*
X1165506Y1122739D02*
X1166076D01*
X1164303Y1024819D02*
X1166060D01*
X1165555Y1129219D02*
X1166027D01*
X1125364Y1019059D02*
X1165820D01*
X1152500Y1062259D02*
X1165637D01*
X1163583Y1025539D02*
X1165340D01*
X1152500Y1061539D02*
X1165100D01*
X1078000Y1019779D02*
X1165100D01*
X1162863Y1026259D02*
X1164620D01*
X1078000Y1020499D02*
X1164380D01*
X1162143Y1026979D02*
X1163900D01*
X1078000Y1021219D02*
X1163660D01*
X1161677Y1091779D02*
X1163308D01*
X1152500Y1095379D02*
X1163189D01*
X1152500Y1094659D02*
X1163189D01*
X1152500Y1093939D02*
X1163189D01*
X1152500Y1093219D02*
X1163189D01*
X1160534Y1092499D02*
X1163189D01*
X1152897Y1096099D02*
X1163182D01*
X1161423Y1027699D02*
X1163180D01*
X1152500Y1060819D02*
X1163176D01*
X1077934Y1021939D02*
X1162940D01*
X1152500Y1053619D02*
X1162826D01*
X1152500Y1060099D02*
X1162755D01*
X1152500Y1059379D02*
X1162750D01*
X1152500Y1058659D02*
X1162750D01*
X1152500Y1057939D02*
X1162750D01*
X1152500Y1057219D02*
X1162750D01*
X1152500Y1056499D02*
X1162750D01*
X1152500Y1055779D02*
X1162750D01*
X1152500Y1055059D02*
X1162750D01*
X1152500Y1054339D02*
X1162750D01*
X1153092Y1096819D02*
X1162560D01*
X1160703Y1028419D02*
X1162460D01*
X1077463Y1022659D02*
X1162220D01*
X1128500Y1166659D02*
X1162000D01*
X1128500Y1165939D02*
X1162000D01*
X1128460Y1165219D02*
X1162000D01*
X1044500Y1164499D02*
X1162000D01*
X1044500Y1163779D02*
X1162000D01*
X1044500Y1163059D02*
X1162000D01*
X1044500Y1162339D02*
X1162000D01*
X1044500Y1161619D02*
X1162000D01*
X1044500Y1160899D02*
X1162000D01*
X1044500Y1160179D02*
X1162000D01*
X1044500Y1159459D02*
X1162000D01*
X1044500Y1158739D02*
X1162000D01*
X1044500Y1158019D02*
X1162000D01*
X1044500Y1157299D02*
X1162000D01*
X1044500Y1156579D02*
X1162000D01*
X1044500Y1155859D02*
X1162000D01*
X1044500Y1155139D02*
X1162000D01*
X1133854Y1154419D02*
X1162000D01*
X1134724Y1153699D02*
X1162000D01*
X1135045Y1152979D02*
X1162000D01*
X1135086Y1152259D02*
X1162000D01*
X1134867Y1151539D02*
X1162000D01*
X1134258Y1150819D02*
X1162000D01*
X1088564Y1150099D02*
X1162000D01*
X1044500Y1149379D02*
X1162000D01*
X1044500Y1148659D02*
X1162000D01*
X1044500Y1147939D02*
X1162000D01*
X1044500Y1147219D02*
X1162000D01*
X1044500Y1146499D02*
X1162000D01*
X1044500Y1145779D02*
X1162000D01*
X1044500Y1145059D02*
X1162000D01*
X1044500Y1144339D02*
X1162000D01*
X1044500Y1143619D02*
X1162000D01*
X1044500Y1142899D02*
X1162000D01*
X1126071Y1142179D02*
X1162000D01*
X1128500Y1167379D02*
X1161964D01*
X1153030Y1097539D02*
X1161840D01*
X1127192Y1141459D02*
X1161837D01*
X1159983Y1029139D02*
X1161740D01*
X1076743Y1023379D02*
X1161500D01*
X1128500Y1168099D02*
X1161280D01*
X1152681Y1098259D02*
X1161120D01*
X1127815Y1140739D02*
X1161117D01*
X1159263Y1029859D02*
X1161020D01*
X1076023Y1024099D02*
X1160780D01*
X1152500Y1048579D02*
X1160652D01*
X1128500Y1168819D02*
X1160560D01*
X1155570Y1098979D02*
X1160400D01*
X1128201Y1140019D02*
X1160397D01*
X1158543Y1030579D02*
X1160300D01*
X1152500Y1052179D02*
X1160238D01*
X1156500Y1119859D02*
X1160132D01*
X1075303Y1024819D02*
X1160060D01*
X1128500Y1169539D02*
X1159840D01*
X1152500Y1049299D02*
X1159778D01*
X1128419Y1139299D02*
X1159677D01*
X1152500Y1051459D02*
X1159632D01*
X1157823Y1031299D02*
X1159580D01*
X1156500Y1112659D02*
X1159461D01*
X1152500Y1050019D02*
X1159456D01*
X1152500Y1050739D02*
X1159414D01*
X1074583Y1025539D02*
X1159340D01*
X1128500Y1170259D02*
X1159120D01*
X1128499Y1138579D02*
X1158957D01*
X1156648Y1099699D02*
X1158920D01*
X1156500Y1103299D02*
X1158916D01*
X1156500Y1119139D02*
X1158899D01*
X1157103Y1032019D02*
X1158860D01*
X1073863Y1026259D02*
X1158620D01*
X1156500Y1113379D02*
X1158568D01*
X1128500Y1170979D02*
X1158400D01*
X1156500Y1122019D02*
X1158307D01*
X1156500Y1118419D02*
X1158241D01*
X1128448Y1137859D02*
X1158237D01*
X1157018Y1100419D02*
X1158200D01*
X1156503Y1102579D02*
X1158198D01*
X1156500Y1129939D02*
X1158155D01*
X1156383Y1032739D02*
X1158140D01*
X1156500Y1114099D02*
X1158037D01*
X1157095Y1101139D02*
X1157931D01*
X1156916Y1101859D02*
X1157931D01*
X1073143Y1026979D02*
X1157900D01*
X1156500Y1117699D02*
X1157833D01*
X1156500Y1114819D02*
X1157711D01*
X1128480Y1171699D02*
X1157680D01*
X1156500Y1116979D02*
X1157598D01*
X1156500Y1115539D02*
X1157540D01*
X1156500Y1122739D02*
X1157535D01*
X1156500Y1129219D02*
X1157524D01*
X1128261Y1137139D02*
X1157517D01*
X1156500Y1116259D02*
X1157503D01*
X1156500Y1128499D02*
X1157500D01*
X1156500Y1127779D02*
X1157500D01*
X1156500Y1127059D02*
X1157500D01*
X1156500Y1126339D02*
X1157500D01*
X1156500Y1125619D02*
X1157500D01*
X1156500Y1124899D02*
X1157500D01*
X1156500Y1124179D02*
X1157500D01*
X1156500Y1123459D02*
X1157500D01*
X1155663Y1033459D02*
X1157420D01*
X1073000Y1027699D02*
X1157180D01*
X1152500Y1083139D02*
X1157009D01*
X1127895Y1172419D02*
X1156960D01*
X1127916Y1136419D02*
X1156797D01*
X1154943Y1034179D02*
X1156700D01*
X1152500Y1092499D02*
X1156466D01*
X1073000Y1028419D02*
X1156460D01*
X1152500Y1082419D02*
X1156298D01*
X1044500Y1173139D02*
X1156240D01*
X1127355Y1135699D02*
X1156077D01*
X1154223Y1034899D02*
X1155980D01*
X1152500Y1073779D02*
X1155940D01*
X1152500Y1083859D02*
X1155812D01*
X1073000Y1029139D02*
X1155740D01*
X1044500Y1173859D02*
X1155520D01*
X1126398Y1134979D02*
X1155357D01*
X1152500Y1091779D02*
X1155323D01*
X1153503Y1035619D02*
X1155260D01*
X1152500Y1081699D02*
X1155230D01*
X1073000Y1029859D02*
X1155020D01*
X1152500Y1074499D02*
X1155019D01*
X1152500Y1084579D02*
X1154941D01*
X1044500Y1174579D02*
X1154800D01*
X1084363Y1134259D02*
X1154637D01*
X1152500Y1091059D02*
X1154625D01*
X1152500Y1080979D02*
X1154563D01*
X1152783Y1036339D02*
X1154540D01*
X1151703Y1098979D02*
X1154430D01*
X1152500Y1075219D02*
X1154421D01*
X1152500Y1085299D02*
X1154368D01*
X1073000Y1030579D02*
X1154300D01*
X1152500Y1090339D02*
X1154152D01*
X1152500Y1080259D02*
X1154110D01*
X1044500Y1175299D02*
X1154080D01*
X1152500Y1075939D02*
X1154014D01*
X1152500Y1086019D02*
X1153978D01*
X1008500Y1201219D02*
X1153963D01*
X1085083Y1133539D02*
X1153918D01*
X1152500Y1089619D02*
X1153836D01*
X1152063Y1037059D02*
X1153820D01*
X1152500Y1079539D02*
X1153809D01*
X1152500Y1076659D02*
X1153749D01*
X1152500Y1086739D02*
X1153727D01*
X1152500Y1088899D02*
X1153645D01*
X1152500Y1078819D02*
X1153631D01*
X1152500Y1077379D02*
X1153602D01*
X1152500Y1087459D02*
X1153593D01*
X1073000Y1031299D02*
X1153580D01*
X1152500Y1088179D02*
X1153566D01*
X1152500Y1078099D02*
X1153564D01*
X1085803Y1132819D02*
X1153534D01*
X1086523Y1132099D02*
X1153500D01*
X1087938Y1131379D02*
X1153500D01*
X1088751Y1130659D02*
X1153500D01*
X1089054Y1129939D02*
X1153500D01*
X1089081Y1129219D02*
X1153500D01*
X1088846Y1128499D02*
X1153500D01*
X1088203Y1127779D02*
X1153500D01*
X1085063Y1127059D02*
X1153500D01*
X1085783Y1126339D02*
X1153500D01*
X1086503Y1125619D02*
X1153500D01*
X1087223Y1124899D02*
X1153500D01*
X1087943Y1124179D02*
X1153500D01*
X1088663Y1123459D02*
X1153500D01*
X1089383Y1122739D02*
X1153500D01*
X1090103Y1122019D02*
X1153500D01*
X1090823Y1121299D02*
X1153500D01*
X1091543Y1120579D02*
X1153500D01*
X1092263Y1119859D02*
X1153500D01*
X1093008Y1119139D02*
X1153500D01*
X1102548Y1118419D02*
X1153500D01*
X1102980Y1117699D02*
X1153500D01*
X1103100Y1116979D02*
X1153500D01*
X1102965Y1116259D02*
X1153500D01*
X1102535Y1115539D02*
X1153500D01*
X1102500Y1114819D02*
X1153500D01*
X1102500Y1114099D02*
X1153500D01*
X1102500Y1113379D02*
X1153500D01*
X1102500Y1112659D02*
X1153500D01*
X1102500Y1111939D02*
X1153500D01*
X1102473Y1111219D02*
X1153500D01*
X1102117Y1110499D02*
X1153500D01*
X1101400Y1109779D02*
X1153500D01*
X1100680Y1109059D02*
X1153500D01*
X1099960Y1108339D02*
X1153500D01*
X1099240Y1107619D02*
X1153500D01*
X1098520Y1106899D02*
X1153500D01*
X1097800Y1106179D02*
X1153500D01*
X1097080Y1105459D02*
X1153500D01*
X1096360Y1104739D02*
X1153500D01*
X1095640Y1104019D02*
X1153500D01*
X1094920Y1103299D02*
X1153500D01*
X1094200Y1102579D02*
X1153497D01*
X1105224Y1099699D02*
X1153352D01*
X1008500Y1200499D02*
X1153236D01*
X1151343Y1037779D02*
X1153100D01*
X1093480Y1101859D02*
X1153084D01*
X1104354Y1100419D02*
X1152982D01*
X1092760Y1101139D02*
X1152905D01*
X1073000Y1032019D02*
X1152860D01*
X1008500Y1199779D02*
X1152516D01*
X1150623Y1038499D02*
X1152380D01*
X1073000Y1032739D02*
X1152140D01*
X1008500Y1199059D02*
X1151796D01*
X1149903Y1039219D02*
X1151660D01*
X1073000Y1033459D02*
X1151420D01*
X1008500Y1198339D02*
X1151076D01*
X1149183Y1039939D02*
X1150940D01*
X1073000Y1034179D02*
X1150700D01*
X1114744Y1197619D02*
X1150356D01*
X1105545Y1098979D02*
X1150297D01*
X1148463Y1040659D02*
X1150220D01*
X1073000Y1034899D02*
X1149980D01*
X1116029Y1196899D02*
X1149636D01*
X1148000Y1041379D02*
X1149635D01*
X1148494Y1094659D02*
X1149500D01*
X1148599Y1093939D02*
X1149500D01*
X1148449Y1093219D02*
X1149500D01*
X1148020Y1092499D02*
X1149500D01*
X1148000Y1091779D02*
X1149500D01*
X1148000Y1091059D02*
X1149500D01*
X1148000Y1090339D02*
X1149500D01*
X1148000Y1089619D02*
X1149500D01*
X1148000Y1088899D02*
X1149500D01*
X1148000Y1088179D02*
X1149500D01*
X1148000Y1087459D02*
X1149500D01*
X1148000Y1086739D02*
X1149500D01*
X1148000Y1086019D02*
X1149500D01*
X1148000Y1085299D02*
X1149500D01*
X1148000Y1084579D02*
X1149500D01*
X1148000Y1083859D02*
X1149500D01*
X1148000Y1083139D02*
X1149500D01*
X1148000Y1082419D02*
X1149500D01*
X1148000Y1081699D02*
X1149500D01*
X1148000Y1080979D02*
X1149500D01*
X1148000Y1080259D02*
X1149500D01*
X1148000Y1079539D02*
X1149500D01*
X1148000Y1078819D02*
X1149500D01*
X1148000Y1078099D02*
X1149500D01*
X1148000Y1077379D02*
X1149500D01*
X1148000Y1076659D02*
X1149500D01*
X1148000Y1075939D02*
X1149500D01*
X1148000Y1075219D02*
X1149500D01*
X1148000Y1074499D02*
X1149500D01*
X1148000Y1073779D02*
X1149500D01*
X1148000Y1073059D02*
X1149500D01*
X1148000Y1072339D02*
X1149500D01*
X1148000Y1071619D02*
X1149500D01*
X1148000Y1070899D02*
X1149500D01*
X1148000Y1070179D02*
X1149500D01*
X1148000Y1069459D02*
X1149500D01*
X1148000Y1068739D02*
X1149500D01*
X1148000Y1068019D02*
X1149500D01*
X1148000Y1067299D02*
X1149500D01*
X1148000Y1066579D02*
X1149500D01*
X1148000Y1065859D02*
X1149500D01*
X1148000Y1065139D02*
X1149500D01*
X1148000Y1064419D02*
X1149500D01*
X1148000Y1063699D02*
X1149500D01*
X1148000Y1062979D02*
X1149500D01*
X1148000Y1062259D02*
X1149500D01*
X1148000Y1061539D02*
X1149500D01*
X1148000Y1060819D02*
X1149500D01*
X1148000Y1060099D02*
X1149500D01*
X1148000Y1059379D02*
X1149500D01*
X1148000Y1058659D02*
X1149500D01*
X1148000Y1057939D02*
X1149500D01*
X1148000Y1057219D02*
X1149500D01*
X1148000Y1056499D02*
X1149500D01*
X1148000Y1055779D02*
X1149500D01*
X1148000Y1055059D02*
X1149500D01*
X1148000Y1054339D02*
X1149500D01*
X1148000Y1053619D02*
X1149500D01*
X1148000Y1052899D02*
X1149500D01*
X1148000Y1052179D02*
X1149500D01*
X1148000Y1051459D02*
X1149500D01*
X1148000Y1050739D02*
X1149500D01*
X1148000Y1050019D02*
X1149500D01*
X1148000Y1049299D02*
X1149500D01*
X1148000Y1048579D02*
X1149500D01*
X1148000Y1047859D02*
X1149500D01*
X1148000Y1047139D02*
X1149500D01*
X1148000Y1046419D02*
X1149500D01*
X1148000Y1045699D02*
X1149500D01*
X1148000Y1044979D02*
X1149500D01*
X1148000Y1044259D02*
X1149500D01*
X1148000Y1043539D02*
X1149500D01*
X1148000Y1042819D02*
X1149500D01*
X1148000Y1042099D02*
X1149500D01*
X1148084Y1095379D02*
X1149500D01*
X1105586Y1098259D02*
X1149319D01*
X1073000Y1035619D02*
X1149260D01*
X1146575Y1096099D02*
X1149103D01*
X1105367Y1097539D02*
X1148970D01*
X1104758Y1096819D02*
X1148908D01*
X1117919Y1192579D02*
X1148652D01*
X1073000Y1036339D02*
X1148540D01*
X1116778Y1196179D02*
X1148238D01*
X1073000Y1037059D02*
X1147820D01*
X1117928Y1193299D02*
X1147778D01*
X1117281Y1195459D02*
X1147632D01*
X1117831Y1194019D02*
X1147456D01*
X1117621Y1194739D02*
X1147414D01*
X1073000Y1037779D02*
X1147100D01*
X1094220Y1096099D02*
X1146425D01*
X1073000Y1038499D02*
X1146380D01*
X1073000Y1039219D02*
X1145660D01*
X1073000Y1039939D02*
X1145109D01*
X1063500Y1091779D02*
X1145000D01*
X1063500Y1091059D02*
X1145000D01*
X1063500Y1090339D02*
X1145000D01*
X1063500Y1089619D02*
X1145000D01*
X1063500Y1088899D02*
X1145000D01*
X1063500Y1088179D02*
X1145000D01*
X1063500Y1087459D02*
X1145000D01*
X1063500Y1086739D02*
X1145000D01*
X1063500Y1086019D02*
X1145000D01*
X1063500Y1085299D02*
X1145000D01*
X1063500Y1084579D02*
X1145000D01*
X1063500Y1083859D02*
X1145000D01*
X1063500Y1083139D02*
X1145000D01*
X1063500Y1082419D02*
X1145000D01*
X1063500Y1081699D02*
X1145000D01*
X1063500Y1080979D02*
X1145000D01*
X1063500Y1080259D02*
X1145000D01*
X1063500Y1079539D02*
X1145000D01*
X1063500Y1078819D02*
X1145000D01*
X1063500Y1078099D02*
X1145000D01*
X1063500Y1077379D02*
X1145000D01*
X1063751Y1076659D02*
X1145000D01*
X1064054Y1075939D02*
X1145000D01*
X1064081Y1075219D02*
X1145000D01*
X1063846Y1074499D02*
X1145000D01*
X1063203Y1073779D02*
X1145000D01*
X1024600Y1073059D02*
X1145000D01*
X1024600Y1072339D02*
X1145000D01*
X1024600Y1071619D02*
X1145000D01*
X1024600Y1070899D02*
X1145000D01*
X1024600Y1070179D02*
X1145000D01*
X1024600Y1069459D02*
X1145000D01*
X1024600Y1068739D02*
X1145000D01*
X1024600Y1068019D02*
X1145000D01*
X1024942Y1067299D02*
X1145000D01*
X1025099Y1066579D02*
X1145000D01*
X1082977Y1065859D02*
X1145000D01*
X1083765Y1065139D02*
X1145000D01*
X1123854Y1064419D02*
X1145000D01*
X1124724Y1063699D02*
X1145000D01*
X1125045Y1062979D02*
X1145000D01*
X1125363Y1062259D02*
X1145000D01*
X1126083Y1061539D02*
X1145000D01*
X1126803Y1060819D02*
X1145000D01*
X1127523Y1060099D02*
X1145000D01*
X1128243Y1059379D02*
X1145000D01*
X1128963Y1058659D02*
X1145000D01*
X1129683Y1057939D02*
X1145000D01*
X1130403Y1057219D02*
X1145000D01*
X1131123Y1056499D02*
X1145000D01*
X1131843Y1055779D02*
X1145000D01*
X1132563Y1055059D02*
X1145000D01*
X1133283Y1054339D02*
X1145000D01*
X1134003Y1053619D02*
X1145000D01*
X1134723Y1052899D02*
X1145000D01*
X1135443Y1052179D02*
X1145000D01*
X1136163Y1051459D02*
X1145000D01*
X1136883Y1050739D02*
X1145000D01*
X1137603Y1050019D02*
X1145000D01*
X1138323Y1049299D02*
X1145000D01*
X1139043Y1048579D02*
X1145000D01*
X1139763Y1047859D02*
X1145000D01*
X1141313Y1047139D02*
X1145000D01*
X1141888Y1046419D02*
X1145000D01*
X1142091Y1045699D02*
X1145000D01*
X1142034Y1044979D02*
X1145000D01*
X1141694Y1044259D02*
X1145000D01*
X1140751Y1043539D02*
X1145000D01*
X1074940Y1042819D02*
X1145000D01*
X1074220Y1042099D02*
X1145000D01*
X1073500Y1041379D02*
X1145000D01*
X1073000Y1040659D02*
X1145000D01*
X1063500Y1092499D02*
X1144980D01*
X1093500Y1095379D02*
X1144916D01*
X1092112Y1093219D02*
X1144551D01*
X1093072Y1094659D02*
X1144506D01*
X1092812Y1093939D02*
X1144401D01*
X1075660Y1043539D02*
X1139249D01*
X1076380Y1044259D02*
X1138306D01*
X1077100Y1044979D02*
X1137966D01*
X1077820Y1045699D02*
X1137680D01*
X1078540Y1046419D02*
X1136960D01*
X1079260Y1047139D02*
X1136240D01*
X1080003Y1047859D02*
X1135520D01*
X1081546Y1048579D02*
X1134800D01*
X1081979Y1049299D02*
X1134080D01*
X1082100Y1050019D02*
X1133360D01*
X1081966Y1050739D02*
X1132640D01*
X1115854Y1154419D02*
X1132146D01*
X1081511Y1051459D02*
X1131920D01*
X1116258Y1150819D02*
X1131742D01*
X1072300Y1052179D02*
X1131200D01*
X1073020Y1052899D02*
X1130480D01*
X1073740Y1053619D02*
X1129760D01*
X1074460Y1054339D02*
X1129040D01*
X1075180Y1055059D02*
X1128320D01*
X1075900Y1055779D02*
X1127600D01*
X1076620Y1056499D02*
X1126880D01*
X1077340Y1057219D02*
X1126160D01*
X1078060Y1057939D02*
X1125440D01*
X1078780Y1058659D02*
X1124720D01*
X1079500Y1059379D02*
X1124000D01*
X1080220Y1060099D02*
X1123280D01*
X1116071Y1142179D02*
X1122929D01*
X1116398Y1134979D02*
X1122602D01*
X1084058Y1064419D02*
X1122146D01*
X1117192Y1141459D02*
X1121808D01*
X1080940Y1060819D02*
X1121742D01*
X1117355Y1135699D02*
X1121645D01*
X1120364Y1019059D02*
X1121636D01*
X1120465Y1014019D02*
X1121535D01*
X1084078Y1063699D02*
X1121276D01*
X1117815Y1140739D02*
X1121185D01*
X1081660Y1061539D02*
X1121133D01*
X1115303Y1172419D02*
X1121105D01*
X1117916Y1136419D02*
X1121084D01*
X1083835Y1062979D02*
X1120955D01*
X1083174Y1062259D02*
X1120914D01*
X1118201Y1140019D02*
X1120799D01*
X1118261Y1137139D02*
X1120739D01*
X1118419Y1139299D02*
X1120581D01*
X1118448Y1137859D02*
X1120552D01*
X1116788Y1165219D02*
X1120540D01*
X1116902Y1171699D02*
X1120520D01*
X1118499Y1138579D02*
X1120501D01*
X1117639Y1170979D02*
X1120500D01*
X1118093Y1170259D02*
X1120500D01*
X1118363Y1169539D02*
X1120500D01*
X1118487Y1168819D02*
X1120500D01*
X1118480Y1168099D02*
X1120500D01*
X1118340Y1167379D02*
X1120500D01*
X1118051Y1166659D02*
X1120500D01*
X1117572Y1165939D02*
X1120500D01*
X1115364Y1019059D02*
X1116636D01*
X1115465Y1014019D02*
X1116535D01*
X1044500Y1154419D02*
X1114146D01*
X1088986Y1150819D02*
X1113742D01*
X1105303Y1172419D02*
X1113697D01*
X1044500Y1153699D02*
X1113276D01*
X1089100Y1151539D02*
X1113133D01*
X1088491Y1152979D02*
X1112955D01*
X1106071Y1142179D02*
X1112929D01*
X1088958Y1152259D02*
X1112914D01*
X1106398Y1134979D02*
X1112602D01*
X1106788Y1165219D02*
X1112212D01*
X1106902Y1171699D02*
X1112098D01*
X1107192Y1141459D02*
X1111808D01*
X1107355Y1135699D02*
X1111645D01*
X1110364Y1019059D02*
X1111636D01*
X1110465Y1014019D02*
X1111535D01*
X1107572Y1165939D02*
X1111428D01*
X1107639Y1170979D02*
X1111361D01*
X1104744Y1197619D02*
X1111256D01*
X1107815Y1140739D02*
X1111185D01*
X1107916Y1136419D02*
X1111084D01*
X1108051Y1166659D02*
X1110949D01*
X1108093Y1170259D02*
X1110907D01*
X1108201Y1140019D02*
X1110799D01*
X1108261Y1137139D02*
X1110739D01*
X1108340Y1167379D02*
X1110660D01*
X1108363Y1169539D02*
X1110637D01*
X1108419Y1139299D02*
X1110581D01*
X1108448Y1137859D02*
X1110552D01*
X1108480Y1168099D02*
X1110520D01*
X1108487Y1168819D02*
X1110513D01*
X1108499Y1138579D02*
X1110501D01*
X1106029Y1196899D02*
X1109971D01*
X1106778Y1196179D02*
X1109222D01*
X1107281Y1195459D02*
X1108719D01*
X1107621Y1194739D02*
X1108379D01*
X1105364Y1019059D02*
X1106636D01*
X1105465Y1014019D02*
X1106535D01*
X1095303Y1172419D02*
X1103697D01*
X1096071Y1142179D02*
X1102929D01*
X1092040Y1100419D02*
X1102646D01*
X1096398Y1134979D02*
X1102602D01*
X1094940Y1096819D02*
X1102242D01*
X1096788Y1165219D02*
X1102212D01*
X1096902Y1171699D02*
X1102098D01*
X1097192Y1141459D02*
X1101808D01*
X1097355Y1135699D02*
X1101645D01*
X1100364Y1019059D02*
X1101636D01*
X1100465Y1014019D02*
X1101535D01*
X1097572Y1165939D02*
X1101428D01*
X1097639Y1170979D02*
X1101361D01*
X1094744Y1197619D02*
X1101256D01*
X1097815Y1140739D02*
X1101185D01*
X1097916Y1136419D02*
X1101084D01*
X1098051Y1166659D02*
X1100949D01*
X1098093Y1170259D02*
X1100907D01*
X1098201Y1140019D02*
X1100799D01*
X1098261Y1137139D02*
X1100739D01*
X1098340Y1167379D02*
X1100660D01*
X1098363Y1169539D02*
X1100637D01*
X1098419Y1139299D02*
X1100581D01*
X1098448Y1137859D02*
X1100552D01*
X1098480Y1168099D02*
X1100520D01*
X1098487Y1168819D02*
X1100513D01*
X1098499Y1138579D02*
X1100501D01*
X1096029Y1196899D02*
X1099971D01*
X1024600Y1114819D02*
X1099500D01*
X1024600Y1114099D02*
X1099500D01*
X1024600Y1113379D02*
X1099500D01*
X1024600Y1112659D02*
X1099500D01*
X1094508Y1115539D02*
X1099465D01*
X1094548Y1118419D02*
X1099452D01*
X1024600Y1111939D02*
X1099317D01*
X1096778Y1196179D02*
X1099222D01*
X1094965Y1116259D02*
X1099035D01*
X1094980Y1117699D02*
X1099020D01*
X1095100Y1116979D02*
X1098900D01*
X1097281Y1195459D02*
X1098719D01*
X1024600Y1111219D02*
X1098597D01*
X1097621Y1194739D02*
X1098379D01*
X1024600Y1110499D02*
X1097877D01*
X1024600Y1109779D02*
X1097157D01*
X1095364Y1019059D02*
X1096636D01*
X1095465Y1014019D02*
X1096535D01*
X1024600Y1109059D02*
X1096437D01*
X1024600Y1108339D02*
X1095717D01*
X1024600Y1107619D02*
X1094997D01*
X1038242Y1106899D02*
X1094277D01*
X1044500Y1172419D02*
X1093697D01*
X1091320Y1099699D02*
X1093598D01*
X1039293Y1106179D02*
X1093557D01*
X1044500Y1142179D02*
X1092929D01*
X1091034Y1098979D02*
X1092857D01*
X1039952Y1105459D02*
X1092837D01*
X1083643Y1134979D02*
X1092602D01*
X1044500Y1165219D02*
X1092212D01*
X1090694Y1098259D02*
X1092137D01*
X1040400Y1104739D02*
X1092117D01*
X1044500Y1171699D02*
X1092098D01*
X1044500Y1141459D02*
X1091808D01*
X1082923Y1135699D02*
X1091645D01*
X1090364Y1019059D02*
X1091636D01*
X1090465Y1014019D02*
X1091535D01*
X1024600Y1115539D02*
X1091492D01*
X1044500Y1165939D02*
X1091428D01*
X1090012Y1097539D02*
X1091417D01*
X1040698Y1104019D02*
X1091397D01*
X1044500Y1170979D02*
X1091361D01*
X1084744Y1197619D02*
X1091256D01*
X1044500Y1140739D02*
X1091185D01*
X1082203Y1136419D02*
X1091084D01*
X1024600Y1116259D02*
X1091035D01*
X1044500Y1166659D02*
X1090949D01*
X1044500Y1170259D02*
X1090907D01*
X1024600Y1116979D02*
X1090868D01*
X1044500Y1140019D02*
X1090799D01*
X1081483Y1137139D02*
X1090739D01*
X1040872Y1103299D02*
X1090677D01*
X1044500Y1167379D02*
X1090660D01*
X1044500Y1169539D02*
X1090637D01*
X1044823Y1139299D02*
X1090581D01*
X1080636Y1137859D02*
X1090552D01*
X1044500Y1168099D02*
X1090520D01*
X1044500Y1168819D02*
X1090513D01*
X1045543Y1138579D02*
X1090501D01*
X1038061Y1117699D02*
X1090180D01*
X1086029Y1196899D02*
X1089971D01*
X1040936Y1102579D02*
X1089957D01*
X1063986Y1096819D02*
X1089912D01*
X1063500Y1093219D02*
X1089888D01*
X1039192Y1118419D02*
X1089460D01*
X1040895Y1101859D02*
X1089237D01*
X1086778Y1196179D02*
X1089222D01*
X1063568Y1096099D02*
X1089210D01*
X1063500Y1093939D02*
X1089188D01*
X1063500Y1095379D02*
X1088934D01*
X1063500Y1094659D02*
X1088928D01*
X1039885Y1119139D02*
X1088740D01*
X1087281Y1195459D02*
X1088719D01*
X1087621Y1194739D02*
X1088379D01*
X1064100Y1097539D02*
X1088249D01*
X1040355Y1119859D02*
X1088020D01*
X1040746Y1101139D02*
X1087687D01*
X1063958Y1098259D02*
X1087306D01*
X1040668Y1120579D02*
X1087300D01*
X1040477Y1100419D02*
X1087112D01*
X1063491Y1098979D02*
X1086966D01*
X1040065Y1099699D02*
X1086909D01*
X1078000Y1019059D02*
X1086636D01*
X1040857Y1121299D02*
X1086580D01*
X1078000Y1014019D02*
X1086535D01*
X1078000Y1018339D02*
X1085923D01*
X1078000Y1014739D02*
X1085870D01*
X1040934Y1122019D02*
X1085860D01*
X1084343Y1127779D02*
X1085797D01*
X1078000Y1017619D02*
X1085539D01*
X1078000Y1015459D02*
X1085511D01*
X1078000Y1016899D02*
X1085360D01*
X1078000Y1016179D02*
X1085351D01*
X1084040Y1128499D02*
X1085154D01*
X1040906Y1122739D02*
X1085140D01*
X1083710Y1129219D02*
X1084919D01*
X1082807Y1129939D02*
X1084440D01*
X1040770Y1123459D02*
X1084420D01*
X1068109Y1130659D02*
X1083720D01*
X1040517Y1124179D02*
X1083700D01*
X1067384Y1131379D02*
X1083000D01*
X1040124Y1124899D02*
X1082980D01*
X1066664Y1132099D02*
X1082280D01*
X1039547Y1125619D02*
X1082260D01*
X1024050Y1132819D02*
X1081560D01*
X1074744Y1197619D02*
X1081256D01*
X1069530Y1129939D02*
X1081193D01*
X1047977Y1065859D02*
X1081023D01*
X1008500Y1133539D02*
X1080840D01*
X1038669Y1126339D02*
X1080715D01*
X1069973Y1129219D02*
X1080290D01*
X1048765Y1065139D02*
X1080235D01*
X1069527Y1127059D02*
X1080123D01*
X1008500Y1134259D02*
X1080120D01*
X1076029Y1196899D02*
X1079971D01*
X1070100Y1128499D02*
X1079960D01*
X1049058Y1064419D02*
X1079942D01*
X1069972Y1127779D02*
X1079912D01*
X1049078Y1063699D02*
X1079577D01*
X1008500Y1134979D02*
X1079342D01*
X1076778Y1196179D02*
X1079222D01*
X1048835Y1062979D02*
X1078857D01*
X1077281Y1195459D02*
X1078719D01*
X1071580Y1051459D02*
X1078489D01*
X1077621Y1194739D02*
X1078379D01*
X1048600Y1062259D02*
X1078137D01*
X1070860Y1050739D02*
X1078034D01*
X1070140Y1050019D02*
X1077867D01*
X1048600Y1061539D02*
X1077417D01*
X1069420Y1049299D02*
X1077177D01*
X1048600Y1060819D02*
X1076697D01*
X1069000Y1048579D02*
X1076457D01*
X1048600Y1060099D02*
X1075977D01*
X1069000Y1047859D02*
X1075737D01*
X1048600Y1059379D02*
X1075257D01*
X1069000Y1047139D02*
X1075017D01*
X1048600Y1058659D02*
X1074537D01*
X1069000Y1046419D02*
X1074297D01*
X1048600Y1057939D02*
X1073817D01*
X1069000Y1045699D02*
X1073577D01*
X1048600Y1057219D02*
X1073097D01*
X1069000Y1044979D02*
X1072857D01*
X1048600Y1056499D02*
X1072377D01*
X1069000Y1044259D02*
X1072137D01*
X1048600Y1055779D02*
X1071657D01*
X1069000Y1043539D02*
X1071417D01*
X1064744Y1197619D02*
X1071256D01*
X1048600Y1055059D02*
X1070937D01*
X1069000Y1042819D02*
X1070697D01*
X1048600Y1054339D02*
X1070217D01*
X1069000Y1042099D02*
X1070125D01*
X1069000Y1041379D02*
X1070000D01*
X1069000Y1040659D02*
X1070000D01*
X1069000Y1039939D02*
X1070000D01*
X1069000Y1039219D02*
X1070000D01*
X1069000Y1038499D02*
X1070000D01*
X1069000Y1037779D02*
X1070000D01*
X1069000Y1037059D02*
X1070000D01*
X1069000Y1036339D02*
X1070000D01*
X1069000Y1035619D02*
X1070000D01*
X1069000Y1034899D02*
X1070000D01*
X1069000Y1034179D02*
X1070000D01*
X1069000Y1033459D02*
X1070000D01*
X1069000Y1032739D02*
X1070000D01*
X1069000Y1032019D02*
X1070000D01*
X1069000Y1031299D02*
X1070000D01*
X1069000Y1030579D02*
X1070000D01*
X1069000Y1029859D02*
X1070000D01*
X1069000Y1029139D02*
X1070000D01*
X1069000Y1028419D02*
X1070000D01*
X1069000Y1027699D02*
X1070000D01*
X1069000Y1026979D02*
X1070000D01*
X1066029Y1196899D02*
X1069971D01*
X1069372Y1026259D02*
X1069828D01*
X1048600Y1053619D02*
X1069497D01*
X1062340Y1021219D02*
X1069448D01*
X1038162Y1021939D02*
X1069430D01*
X1066778Y1196179D02*
X1069222D01*
X1063065Y1014019D02*
X1068935D01*
X1048600Y1052899D02*
X1068777D01*
X1008500Y1022659D02*
X1068720D01*
X1067281Y1195459D02*
X1068719D01*
X1063575Y1020499D02*
X1068425D01*
X1067621Y1194739D02*
X1068379D01*
X1063828Y1014739D02*
X1068172D01*
X1048738Y1052179D02*
X1068057D01*
X1008500Y1023379D02*
X1068000D01*
X1064230Y1019779D02*
X1067770D01*
X1064385Y1015459D02*
X1067615D01*
X1064632Y1019059D02*
X1067368D01*
X1049049Y1051459D02*
X1067337D01*
X1008500Y1024099D02*
X1067280D01*
X1064725Y1016179D02*
X1067275D01*
X1064863Y1018339D02*
X1067137D01*
X1064907Y1016899D02*
X1067093D01*
X1064951Y1017619D02*
X1067049D01*
X1049084Y1050739D02*
X1066617D01*
X1008500Y1024819D02*
X1066560D01*
X1036789Y1127059D02*
X1066473D01*
X1048857Y1050019D02*
X1066093D01*
X1008500Y1025539D02*
X1066073D01*
X1024600Y1127779D02*
X1066028D01*
X1048231Y1049299D02*
X1066000D01*
X1008500Y1048579D02*
X1066000D01*
X1054876Y1047859D02*
X1066000D01*
X1056692Y1047139D02*
X1066000D01*
X1057562Y1046419D02*
X1066000D01*
X1058134Y1045699D02*
X1066000D01*
X1058523Y1044979D02*
X1066000D01*
X1058774Y1044259D02*
X1066000D01*
X1058908Y1043539D02*
X1066000D01*
X1058934Y1042819D02*
X1066000D01*
X1058854Y1042099D02*
X1066000D01*
X1058663Y1041379D02*
X1066000D01*
X1058347Y1040659D02*
X1066000D01*
X1057873Y1039939D02*
X1066000D01*
X1057174Y1039219D02*
X1066000D01*
X1056028Y1038499D02*
X1066000D01*
X1055533Y1037779D02*
X1066000D01*
X1056811Y1037059D02*
X1066000D01*
X1057637Y1036339D02*
X1066000D01*
X1058185Y1035619D02*
X1066000D01*
X1058557Y1034899D02*
X1066000D01*
X1058794Y1034179D02*
X1066000D01*
X1058916Y1033459D02*
X1066000D01*
X1058930Y1032739D02*
X1066000D01*
X1058839Y1032019D02*
X1066000D01*
X1058635Y1031299D02*
X1066000D01*
X1058302Y1030579D02*
X1066000D01*
X1057809Y1029859D02*
X1066000D01*
X1057076Y1029139D02*
X1066000D01*
X1055840Y1028419D02*
X1066000D01*
X1008500Y1027699D02*
X1066000D01*
X1008500Y1026979D02*
X1066000D01*
X1008500Y1026259D02*
X1066000D01*
X1024600Y1128499D02*
X1065739D01*
X1024665Y1129219D02*
X1065019D01*
X1054744Y1197619D02*
X1061256D01*
X1024600Y1073779D02*
X1060797D01*
X1044500Y1152979D02*
X1060509D01*
X1039460Y1098979D02*
X1060509D01*
X1024600Y1095379D02*
X1060500D01*
X1024600Y1094659D02*
X1060500D01*
X1024600Y1093939D02*
X1060500D01*
X1024600Y1093219D02*
X1060500D01*
X1024600Y1092499D02*
X1060500D01*
X1024600Y1091779D02*
X1060500D01*
X1024600Y1091059D02*
X1060500D01*
X1024600Y1090339D02*
X1060500D01*
X1024600Y1089619D02*
X1060500D01*
X1024600Y1088899D02*
X1060500D01*
X1024600Y1088179D02*
X1060500D01*
X1024600Y1087459D02*
X1060500D01*
X1024600Y1086739D02*
X1060500D01*
X1024600Y1086019D02*
X1060500D01*
X1024600Y1085299D02*
X1060500D01*
X1024600Y1084579D02*
X1060500D01*
X1024600Y1083859D02*
X1060500D01*
X1024600Y1083139D02*
X1060500D01*
X1024600Y1082419D02*
X1060500D01*
X1024600Y1081699D02*
X1060500D01*
X1024600Y1080979D02*
X1060500D01*
X1024600Y1080259D02*
X1060500D01*
X1024600Y1079539D02*
X1060500D01*
X1024600Y1078819D02*
X1060500D01*
X1024600Y1078099D02*
X1060500D01*
X1024600Y1077379D02*
X1060500D01*
X1044500Y1150099D02*
X1060436D01*
X1024600Y1096099D02*
X1060432D01*
X1024600Y1076659D02*
X1060249D01*
X1024600Y1074499D02*
X1060154D01*
X1044500Y1152259D02*
X1060042D01*
X1038527Y1098259D02*
X1060042D01*
X1044500Y1150819D02*
X1060014D01*
X1024600Y1096819D02*
X1060014D01*
X1056029Y1196899D02*
X1059971D01*
X1024600Y1075939D02*
X1059946D01*
X1024600Y1075219D02*
X1059919D01*
X1044500Y1151539D02*
X1059900D01*
X1024600Y1097539D02*
X1059900D01*
X1052340Y1021219D02*
X1059660D01*
X1056778Y1196179D02*
X1059222D01*
X1053065Y1014019D02*
X1058935D01*
X1057281Y1195459D02*
X1058719D01*
X1053575Y1020499D02*
X1058425D01*
X1057621Y1194739D02*
X1058379D01*
X1053828Y1014739D02*
X1058172D01*
X1054230Y1019779D02*
X1057770D01*
X1054385Y1015459D02*
X1057615D01*
X1054632Y1019059D02*
X1057368D01*
X1054725Y1016179D02*
X1057275D01*
X1054863Y1018339D02*
X1057137D01*
X1054907Y1016899D02*
X1057093D01*
X1054951Y1017619D02*
X1057049D01*
X1044500Y1176019D02*
X1054360D01*
X1044500Y1176739D02*
X1053640D01*
X1008500Y1047859D02*
X1053124D01*
X1044500Y1177459D02*
X1052920D01*
X1030691Y1037779D02*
X1052467D01*
X1008500Y1028419D02*
X1052160D01*
X1029896Y1038499D02*
X1051972D01*
X1044536Y1178179D02*
X1051937D01*
X1008500Y1047139D02*
X1051308D01*
X1044744Y1197619D02*
X1051256D01*
X1031222Y1037059D02*
X1051189D01*
X1008500Y1029139D02*
X1050924D01*
X1028452Y1039219D02*
X1050826D01*
X1008500Y1046419D02*
X1050438D01*
X1031582Y1036339D02*
X1050363D01*
X1045748Y1178899D02*
X1050252D01*
X1028683Y1029859D02*
X1050191D01*
X1008500Y1039939D02*
X1050127D01*
X1046029Y1196899D02*
X1049971D01*
X1008500Y1045699D02*
X1049866D01*
X1031809Y1035619D02*
X1049815D01*
X1030000Y1030579D02*
X1049698D01*
X1039247Y1021219D02*
X1049660D01*
X1008500Y1040659D02*
X1049653D01*
X1008500Y1044979D02*
X1049477D01*
X1031921Y1034899D02*
X1049443D01*
X1046597Y1179619D02*
X1049403D01*
X1030758Y1031299D02*
X1049365D01*
X1008500Y1041379D02*
X1049337D01*
X1008500Y1044259D02*
X1049226D01*
X1046778Y1196179D02*
X1049222D01*
X1031927Y1034179D02*
X1049206D01*
X1031268Y1032019D02*
X1049161D01*
X1008500Y1042099D02*
X1049146D01*
X1008500Y1043539D02*
X1049092D01*
X1031826Y1033459D02*
X1049084D01*
X1031612Y1032739D02*
X1049070D01*
X1008500Y1042819D02*
X1049066D01*
X1040103Y1014019D02*
X1048935D01*
X1047158Y1180339D02*
X1048842D01*
X1047281Y1195459D02*
X1048719D01*
X1047539Y1181059D02*
X1048461D01*
X1039922Y1020499D02*
X1048425D01*
X1047621Y1194739D02*
X1048379D01*
X1040093Y1014739D02*
X1048172D01*
X1040380Y1019779D02*
X1047770D01*
X1040495Y1015459D02*
X1047615D01*
X1040685Y1019059D02*
X1047368D01*
X1040757Y1016179D02*
X1047275D01*
X1040865Y1018339D02*
X1047137D01*
X1040900Y1016899D02*
X1047093D01*
X1040936Y1017619D02*
X1047049D01*
X1025000Y1065859D02*
X1046023D01*
X1008500Y1049299D02*
X1045769D01*
X1008500Y1062259D02*
X1045400D01*
X1008500Y1061539D02*
X1045400D01*
X1008500Y1060819D02*
X1045400D01*
X1008500Y1060099D02*
X1045400D01*
X1008500Y1059379D02*
X1045400D01*
X1008500Y1058659D02*
X1045400D01*
X1008500Y1057939D02*
X1045400D01*
X1008500Y1057219D02*
X1045400D01*
X1008500Y1056499D02*
X1045400D01*
X1008500Y1055779D02*
X1045400D01*
X1008500Y1055059D02*
X1045400D01*
X1008500Y1054339D02*
X1045400D01*
X1008500Y1053619D02*
X1045400D01*
X1008500Y1052899D02*
X1045400D01*
X1008500Y1052179D02*
X1045262D01*
X1024599Y1065139D02*
X1045235D01*
X1008500Y1062979D02*
X1045165D01*
X1008500Y1050019D02*
X1045143D01*
X1008500Y1051459D02*
X1044951D01*
X1023280Y1064419D02*
X1044942D01*
X1008500Y1063699D02*
X1044922D01*
X1008500Y1050739D02*
X1044916D01*
X1008500Y1135699D02*
X1044180D01*
X1008500Y1136419D02*
X1043460D01*
X1008500Y1137139D02*
X1042740D01*
X1008500Y1137859D02*
X1042020D01*
X1008500Y1138579D02*
X1041560D01*
X1008500Y1177459D02*
X1041500D01*
X1008500Y1176739D02*
X1041500D01*
X1008500Y1176019D02*
X1041500D01*
X1008500Y1175299D02*
X1041500D01*
X1008500Y1174579D02*
X1041500D01*
X1008500Y1173859D02*
X1041500D01*
X1008500Y1173139D02*
X1041500D01*
X1008500Y1172419D02*
X1041500D01*
X1008500Y1171699D02*
X1041500D01*
X1008500Y1170979D02*
X1041500D01*
X1008500Y1170259D02*
X1041500D01*
X1008500Y1169539D02*
X1041500D01*
X1008500Y1168819D02*
X1041500D01*
X1008500Y1168099D02*
X1041500D01*
X1008500Y1167379D02*
X1041500D01*
X1008500Y1166659D02*
X1041500D01*
X1008500Y1165939D02*
X1041500D01*
X1008500Y1165219D02*
X1041500D01*
X1008500Y1164499D02*
X1041500D01*
X1008500Y1163779D02*
X1041500D01*
X1008500Y1163059D02*
X1041500D01*
X1008500Y1162339D02*
X1041500D01*
X1008500Y1161619D02*
X1041500D01*
X1008500Y1160899D02*
X1041500D01*
X1008500Y1160179D02*
X1041500D01*
X1029511Y1159459D02*
X1041500D01*
X1029966Y1158739D02*
X1041500D01*
X1030100Y1158019D02*
X1041500D01*
X1029979Y1157299D02*
X1041500D01*
X1029546Y1156579D02*
X1041500D01*
X1028003Y1155859D02*
X1041500D01*
X1027260Y1155139D02*
X1041500D01*
X1026540Y1154419D02*
X1041500D01*
X1025820Y1153699D02*
X1041500D01*
X1025100Y1152979D02*
X1041500D01*
X1024380Y1152259D02*
X1041500D01*
X1023660Y1151539D02*
X1041500D01*
X1022940Y1150819D02*
X1041500D01*
X1022220Y1150099D02*
X1041500D01*
X1021536Y1149379D02*
X1041500D01*
X1021500Y1148659D02*
X1041500D01*
X1021500Y1147939D02*
X1041500D01*
X1021500Y1147219D02*
X1041500D01*
X1021500Y1146499D02*
X1041500D01*
X1021500Y1145779D02*
X1041500D01*
X1021500Y1145059D02*
X1041500D01*
X1021618Y1144339D02*
X1041500D01*
X1022007Y1143619D02*
X1041500D01*
X1022098Y1142899D02*
X1041500D01*
X1021933Y1142179D02*
X1041500D01*
X1021426Y1141459D02*
X1041500D01*
X1008500Y1140739D02*
X1041500D01*
X1008500Y1140019D02*
X1041500D01*
X1008500Y1139299D02*
X1041500D01*
X1034063Y1178179D02*
X1041464D01*
X1034744Y1197619D02*
X1041256D01*
X1035748Y1178899D02*
X1040252D01*
X1036029Y1196899D02*
X1039971D01*
X1036597Y1179619D02*
X1039403D01*
X1036778Y1196179D02*
X1039222D01*
X1037158Y1180339D02*
X1038842D01*
X1037281Y1195459D02*
X1038719D01*
X1037539Y1181059D02*
X1038461D01*
X1037621Y1194739D02*
X1038379D01*
X1008597Y1011139D02*
X1038216D01*
X1008500Y1011859D02*
X1038020D01*
X1036394Y1012579D02*
X1037297D01*
X1026394D02*
X1035606D01*
X1024600Y1127059D02*
X1035211D01*
X1024600Y1117699D02*
X1033939D01*
X1028162Y1021939D02*
X1033838D01*
X1024600Y1106899D02*
X1033758D01*
X1024600Y1098259D02*
X1033473D01*
X1028593Y1013299D02*
X1033407D01*
X1024600Y1126339D02*
X1033331D01*
X1024600Y1118419D02*
X1032808D01*
X1029247Y1021219D02*
X1032753D01*
X1024600Y1106179D02*
X1032707D01*
X1024600Y1098979D02*
X1032540D01*
X1029501Y1014019D02*
X1032499D01*
X1024600Y1125619D02*
X1032453D01*
X1024600Y1119139D02*
X1032115D01*
X1029922Y1020499D02*
X1032078D01*
X1024600Y1105459D02*
X1032048D01*
X1024063Y1178179D02*
X1031937D01*
X1024600Y1099699D02*
X1031935D01*
X1030093Y1014739D02*
X1031907D01*
X1024600Y1124899D02*
X1031876D01*
X1024600Y1119859D02*
X1031645D01*
X1030380Y1019779D02*
X1031620D01*
X1024600Y1104739D02*
X1031600D01*
X1024600Y1100419D02*
X1031523D01*
X1030495Y1015459D02*
X1031505D01*
X1024600Y1124179D02*
X1031483D01*
X1024600Y1120579D02*
X1031332D01*
X1024600Y1104019D02*
X1031302D01*
X1024744Y1197619D02*
X1031256D01*
X1030745Y1019059D02*
X1031255D01*
X1024600Y1101139D02*
X1031254D01*
X1024600Y1123459D02*
X1031230D01*
X1024600Y1121299D02*
X1031143D01*
X1024600Y1103299D02*
X1031128D01*
X1024600Y1101859D02*
X1031105D01*
X1024600Y1122739D02*
X1031094D01*
X1024600Y1122019D02*
X1031066D01*
X1024600Y1102579D02*
X1031064D01*
X1025748Y1178899D02*
X1030252D01*
X1026029Y1196899D02*
X1029971D01*
X1026597Y1179619D02*
X1029403D01*
X1026778Y1196179D02*
X1029222D01*
X1027158Y1180339D02*
X1028842D01*
X1027281Y1195459D02*
X1028719D01*
X1027539Y1181059D02*
X1028461D01*
X1027621Y1194739D02*
X1028379D01*
X1008500Y1159459D02*
X1026489D01*
X1008500Y1158739D02*
X1026034D01*
X1008500Y1158019D02*
X1025867D01*
X1016394Y1012579D02*
X1025606D01*
X1018452Y1039219D02*
X1025548D01*
X1018683Y1029859D02*
X1025317D01*
X1008500Y1157299D02*
X1025177D01*
X1008500Y1156579D02*
X1024457D01*
X1019896Y1038499D02*
X1024104D01*
X1020000Y1030579D02*
X1024000D01*
X1018162Y1021939D02*
X1023838D01*
X1008500Y1155859D02*
X1023737D01*
X1018593Y1013299D02*
X1023407D01*
X1020691Y1037779D02*
X1023309D01*
X1020758Y1031299D02*
X1023242D01*
X1008500Y1155139D02*
X1023017D01*
X1021222Y1037059D02*
X1022778D01*
X1019247Y1021219D02*
X1022753D01*
X1021268Y1032019D02*
X1022732D01*
X1008500Y1064419D02*
X1022720D01*
X1019501Y1014019D02*
X1022499D01*
X1021582Y1036339D02*
X1022418D01*
X1021612Y1032739D02*
X1022388D01*
X1008500Y1154419D02*
X1022297D01*
X1019922Y1020499D02*
X1022078D01*
X1008500Y1132819D02*
X1021950D01*
X1008500Y1178179D02*
X1021937D01*
X1020093Y1014739D02*
X1021907D01*
X1020380Y1019779D02*
X1021620D01*
X1008500Y1153699D02*
X1021577D01*
X1020495Y1015459D02*
X1021505D01*
X1008500Y1188259D02*
X1021439D01*
X1008500Y1065139D02*
X1021401D01*
X1008500Y1129219D02*
X1021400D01*
X1008500Y1128499D02*
X1021400D01*
X1008500Y1127779D02*
X1021400D01*
X1008500Y1127059D02*
X1021400D01*
X1008500Y1126339D02*
X1021400D01*
X1008500Y1125619D02*
X1021400D01*
X1008500Y1124899D02*
X1021400D01*
X1008500Y1124179D02*
X1021400D01*
X1008500Y1123459D02*
X1021400D01*
X1008500Y1122739D02*
X1021400D01*
X1008500Y1122019D02*
X1021400D01*
X1008500Y1121299D02*
X1021400D01*
X1008500Y1120579D02*
X1021400D01*
X1008500Y1119859D02*
X1021400D01*
X1008500Y1119139D02*
X1021400D01*
X1008500Y1118419D02*
X1021400D01*
X1008500Y1117699D02*
X1021400D01*
X1008500Y1116979D02*
X1021400D01*
X1008500Y1116259D02*
X1021400D01*
X1008500Y1115539D02*
X1021400D01*
X1008500Y1114819D02*
X1021400D01*
X1008500Y1114099D02*
X1021400D01*
X1008500Y1113379D02*
X1021400D01*
X1008500Y1112659D02*
X1021400D01*
X1008500Y1111939D02*
X1021400D01*
X1008500Y1111219D02*
X1021400D01*
X1008500Y1110499D02*
X1021400D01*
X1008500Y1109779D02*
X1021400D01*
X1008500Y1109059D02*
X1021400D01*
X1008500Y1108339D02*
X1021400D01*
X1008500Y1107619D02*
X1021400D01*
X1008500Y1106899D02*
X1021400D01*
X1008500Y1106179D02*
X1021400D01*
X1008500Y1105459D02*
X1021400D01*
X1008500Y1104739D02*
X1021400D01*
X1008500Y1104019D02*
X1021400D01*
X1008500Y1103299D02*
X1021400D01*
X1008500Y1102579D02*
X1021400D01*
X1008500Y1101859D02*
X1021400D01*
X1008500Y1101139D02*
X1021400D01*
X1008500Y1100419D02*
X1021400D01*
X1008500Y1099699D02*
X1021400D01*
X1008500Y1098979D02*
X1021400D01*
X1008500Y1098259D02*
X1021400D01*
X1008500Y1097539D02*
X1021400D01*
X1008500Y1096819D02*
X1021400D01*
X1008500Y1096099D02*
X1021400D01*
X1008500Y1095379D02*
X1021400D01*
X1008500Y1094659D02*
X1021400D01*
X1008500Y1093939D02*
X1021400D01*
X1008500Y1093219D02*
X1021400D01*
X1008500Y1092499D02*
X1021400D01*
X1008500Y1091779D02*
X1021400D01*
X1008500Y1091059D02*
X1021400D01*
X1008500Y1090339D02*
X1021400D01*
X1008500Y1089619D02*
X1021400D01*
X1008500Y1088899D02*
X1021400D01*
X1008500Y1088179D02*
X1021400D01*
X1008500Y1087459D02*
X1021400D01*
X1008500Y1086739D02*
X1021400D01*
X1008500Y1086019D02*
X1021400D01*
X1008500Y1085299D02*
X1021400D01*
X1008500Y1084579D02*
X1021400D01*
X1008500Y1083859D02*
X1021400D01*
X1008500Y1083139D02*
X1021400D01*
X1008500Y1082419D02*
X1021400D01*
X1008500Y1081699D02*
X1021400D01*
X1008500Y1080979D02*
X1021400D01*
X1008500Y1080259D02*
X1021400D01*
X1008500Y1079539D02*
X1021400D01*
X1008500Y1078819D02*
X1021400D01*
X1008500Y1078099D02*
X1021400D01*
X1008500Y1077379D02*
X1021400D01*
X1008500Y1076659D02*
X1021400D01*
X1008500Y1075939D02*
X1021400D01*
X1008500Y1075219D02*
X1021400D01*
X1008500Y1074499D02*
X1021400D01*
X1008500Y1073779D02*
X1021400D01*
X1008500Y1073059D02*
X1021400D01*
X1008500Y1072339D02*
X1021400D01*
X1008500Y1071619D02*
X1021400D01*
X1008500Y1070899D02*
X1021400D01*
X1008500Y1070179D02*
X1021400D01*
X1008500Y1069459D02*
X1021400D01*
X1008500Y1068739D02*
X1021400D01*
X1008500Y1068019D02*
X1021400D01*
X1008500Y1197619D02*
X1021256D01*
X1020745Y1019059D02*
X1021255D01*
X1008500Y1132099D02*
X1021210D01*
X1008500Y1129939D02*
X1021188D01*
X1008500Y1067299D02*
X1021058D01*
X1008500Y1187539D02*
X1021057D01*
X1008500Y1065859D02*
X1021000D01*
X1008500Y1131379D02*
X1020934D01*
X1008500Y1130659D02*
X1020928D01*
X1008500Y1066579D02*
X1020901D01*
X1008500Y1152979D02*
X1020857D01*
X1008500Y1178899D02*
X1020252D01*
X1008500Y1152259D02*
X1020137D01*
X1008500Y1188979D02*
X1020136D01*
X1008500Y1196899D02*
X1019971D01*
X1008500Y1186819D02*
X1019871D01*
X1008500Y1151539D02*
X1019417D01*
X1008500Y1179619D02*
X1019403D01*
X1008500Y1189699D02*
X1019329D01*
X1008500Y1196179D02*
X1019222D01*
X1008500Y1186099D02*
X1019157D01*
X1008500Y1180339D02*
X1018842D01*
X1008500Y1190419D02*
X1018792D01*
X1008500Y1150819D02*
X1018743D01*
X1008500Y1195459D02*
X1018719D01*
X1008500Y1185379D02*
X1018674D01*
X1008500Y1141459D02*
X1018574D01*
X1008500Y1150099D02*
X1018503D01*
X1008500Y1149379D02*
X1018500D01*
X1008500Y1148659D02*
X1018500D01*
X1008500Y1147939D02*
X1018500D01*
X1008500Y1147219D02*
X1018500D01*
X1008500Y1146499D02*
X1018500D01*
X1008500Y1145779D02*
X1018500D01*
X1008500Y1145059D02*
X1018500D01*
X1008500Y1181059D02*
X1018461D01*
X1008500Y1191139D02*
X1018427D01*
X1008500Y1144339D02*
X1018382D01*
X1008500Y1194739D02*
X1018379D01*
X1008500Y1184659D02*
X1018350D01*
X1008500Y1181779D02*
X1018216D01*
X1008500Y1191859D02*
X1018197D01*
X1008500Y1194019D02*
X1018169D01*
X1008500Y1183939D02*
X1018153D01*
X1008500Y1182499D02*
X1018088D01*
X1008500Y1192579D02*
X1018081D01*
X1008500Y1193299D02*
X1018072D01*
X1008500Y1183219D02*
X1018068D01*
X1008500Y1142179D02*
X1018067D01*
X1008500Y1143619D02*
X1017993D01*
X1008500Y1142899D02*
X1017902D01*
X1008500Y1012579D02*
X1015606D01*
X1008500Y1039219D02*
X1015548D01*
X1008500Y1029859D02*
X1015317D01*
X1008500Y1038499D02*
X1014104D01*
X1008500Y1030579D02*
X1014000D01*
X1008500Y1021939D02*
X1013838D01*
X1008500Y1013299D02*
X1013407D01*
X1008500Y1037779D02*
X1013309D01*
X1008500Y1031299D02*
X1013242D01*
X1008500Y1037059D02*
X1012778D01*
X1008500Y1021219D02*
X1012753D01*
X1008500Y1032019D02*
X1012732D01*
X1008500Y1014019D02*
X1012499D01*
X1008500Y1036339D02*
X1012418D01*
X1008500Y1032739D02*
X1012388D01*
X1008500Y1035619D02*
X1012191D01*
X1008500Y1033459D02*
X1012174D01*
X1008500Y1034899D02*
X1012079D01*
X1008500Y1020499D02*
X1012078D01*
X1008500Y1034179D02*
X1012073D01*
X1008500Y1014739D02*
X1011907D01*
X1008500Y1019779D02*
X1011620D01*
X1008500Y1015459D02*
X1011505D01*
X1008500Y1019059D02*
X1011315D01*
X1008500Y1016179D02*
X1011243D01*
X1008500Y1018339D02*
X1011135D01*
X1008500Y1016899D02*
X1011100D01*
X1008500Y1017619D02*
X1011064D01*
G54D32*
X1183283Y1095500D03*
X1168717D03*
X1180217Y1073500D03*
X1194783D03*
G54D33*
X1194478Y1121750D03*
X1171522D03*
G54D61*
X1088500Y1016500D03*
X1093500D03*
X1098500D03*
X1103500D03*
X1108500D03*
X1113500D03*
X1118500D03*
X1123500D03*
G74*
X0Y0D02*
M02*
