*
*
G04 PADS 9.5 Build Number: 522968 generated Gerber (RS-274-X) file*
G04 PC Version=2.1*
*
%IN "GDCS.pcb"*%
*
%MOIN*%
*
%FSLAX35Y35*%
*
*
*
*
G04 PC Standard Apertures*
*
*
G04 Thermal Relief Aperture macro.*
%AMTER*
1,1,$1,0,0*
1,0,$1-$2,0,0*
21,0,$3,$4,0,0,45*
21,0,$3,$4,0,0,135*
%
*
*
G04 Annular Aperture macro.*
%AMANN*
1,1,$1,0,0*
1,0,$2,0,0*
%
*
*
G04 Odd Aperture macro.*
%AMODD*
1,1,$1,0,0*
1,0,$1-0.005,0,0*
%
*
*
G04 PC Custom Aperture Macros*
*
*
*
*
*
*
G04 PC Aperture Table*
*
%ADD010C,0.001*%
%ADD027C,0.01*%
*
*
*
*
G04 PC Circuitry*
G04 Layer Name GDCS.pcb - circuitry*
%LPD*%
*
*
G04 PC Custom Flashes*
G04 Layer Name GDCS.pcb - flashes*
%LPD*%
*
*
G04 PC Circuitry*
G04 Layer Name GDCS.pcb - circuitry*
%LPD*%
*
G54D10*
G01X1015000Y1204500D02*
X1015003D01*
X1209000D02*
X1209003D01*
X1015500Y1013500D02*
X1015503D01*
X1014500Y1204500D02*
X1014503D01*
G54D27*
X1019000Y1183000D02*
X1027000D01*
X1023000Y1179000D02*
Y1187000D01*
X1019000Y1193000D02*
X1027000D01*
X1023000Y1189000D02*
Y1197000D01*
X1029000Y1183000D02*
X1037000D01*
X1033000Y1179000D02*
Y1187000D01*
X1029000Y1193000D02*
X1037000D01*
X1033000Y1189000D02*
Y1197000D01*
X1039000Y1183000D02*
X1047000D01*
X1043000Y1179000D02*
Y1187000D01*
X1039000Y1193000D02*
X1047000D01*
X1043000Y1189000D02*
Y1197000D01*
X1049000Y1183000D02*
X1057000D01*
X1053000Y1179000D02*
Y1187000D01*
X1049000Y1193000D02*
X1057000D01*
X1053000Y1189000D02*
Y1197000D01*
X1059000Y1183000D02*
X1067000D01*
X1063000Y1179000D02*
Y1187000D01*
X1059000Y1193000D02*
X1067000D01*
X1063000Y1189000D02*
Y1197000D01*
X1069000Y1183000D02*
X1077000D01*
X1073000Y1179000D02*
Y1187000D01*
X1069000Y1193000D02*
X1077000D01*
X1073000Y1189000D02*
Y1197000D01*
X1079000Y1183000D02*
X1087000D01*
X1083000Y1179000D02*
Y1187000D01*
X1079000Y1193000D02*
X1087000D01*
X1083000Y1189000D02*
Y1197000D01*
X1089000Y1183000D02*
X1097000D01*
X1093000Y1179000D02*
Y1187000D01*
X1089000Y1193000D02*
X1097000D01*
X1093000Y1189000D02*
Y1197000D01*
X1099000Y1183000D02*
X1107000D01*
X1103000Y1179000D02*
Y1187000D01*
X1099000Y1193000D02*
X1107000D01*
X1103000Y1189000D02*
Y1197000D01*
X1109000Y1183000D02*
X1117000D01*
X1113000Y1179000D02*
Y1187000D01*
X1109000Y1193000D02*
X1117000D01*
X1113000Y1189000D02*
Y1197000D01*
X1154500Y1088000D02*
X1162500D01*
X1158500Y1084000D02*
Y1092000D01*
X1154500Y1078000D02*
X1162500D01*
X1158500Y1074000D02*
Y1082000D01*
X1046000Y1025500D02*
X1054000D01*
X1050000Y1021500D02*
Y1029500D01*
X1046000Y1035500D02*
X1054000D01*
X1050000Y1031500D02*
Y1039500D01*
X1074500Y1024500D02*
X1082500D01*
X1078500Y1020500D02*
Y1028500D01*
X1084500Y1024500D02*
X1092500D01*
X1088500Y1020500D02*
Y1028500D01*
X1094500Y1024500D02*
X1102500D01*
X1098500Y1020500D02*
Y1028500D01*
X1105500Y1024500D02*
X1113500D01*
X1109500Y1020500D02*
Y1028500D01*
X1115500Y1024500D02*
X1123500D01*
X1119500Y1020500D02*
Y1028500D01*
X1125500Y1024500D02*
X1133500D01*
X1129500Y1020500D02*
Y1028500D01*
X1135500Y1024500D02*
X1143500D01*
X1139500Y1020500D02*
Y1028500D01*
X1145500Y1024500D02*
X1153500D01*
X1149500Y1020500D02*
Y1028500D01*
X1195500Y1160500D02*
X1203500D01*
X1199500Y1156500D02*
Y1164500D01*
X1195500Y1170500D02*
X1203500D01*
X1199500Y1166500D02*
Y1174500D01*
X1060000Y1023500D02*
X1068000D01*
X1064000Y1019500D02*
Y1027500D01*
X1060000Y1033500D02*
X1068000D01*
X1064000Y1029500D02*
Y1037500D01*
X1060000Y1043500D02*
X1068000D01*
X1064000Y1039500D02*
Y1047500D01*
X1120500Y1168500D02*
X1128500D01*
X1124500Y1164500D02*
Y1172500D01*
X1110500Y1168500D02*
X1118500D01*
X1114500Y1164500D02*
Y1172500D01*
X1100500Y1168500D02*
X1108500D01*
X1104500Y1164500D02*
Y1172500D01*
X1090500Y1168500D02*
X1098500D01*
X1094500Y1164500D02*
Y1172500D01*
X1090500Y1138500D02*
X1098500D01*
X1094500Y1134500D02*
Y1142500D01*
X1100500Y1138500D02*
X1108500D01*
X1104500Y1134500D02*
Y1142500D01*
X1110500Y1138500D02*
X1118500D01*
X1114500Y1134500D02*
Y1142500D01*
X1120500Y1138500D02*
X1128500D01*
X1124500Y1134500D02*
Y1142500D01*
X1032000Y1098500D02*
X1040000D01*
Y1106500*
X1032000*
Y1098500*
X1036000Y1102500D02*
Y1106500D01*
X1032000Y1118185D02*
X1040000D01*
Y1126185*
X1032000*
Y1118185*
X1036000Y1122185D02*
Y1126185D01*
X1018000Y1023000D02*
X1026000D01*
X1022000Y1019000D02*
Y1027000D01*
X1028000Y1023000D02*
X1036000D01*
X1032000Y1019000D02*
Y1027000D01*
X1161500Y1122000D02*
X1165500Y1126000D01*
X1161500Y1130000*
X1157500Y1126000*
X1161500Y1122000*
Y1126000D02*
Y1130000D01*
Y1112100D02*
X1165500Y1116100D01*
X1161500Y1120100*
X1157500Y1116100*
X1161500Y1112100*
Y1116100D02*
Y1120100D01*
X1193000Y1182000D02*
X1197000Y1186000D01*
X1193000Y1190000*
X1189000Y1186000*
X1193000Y1182000*
Y1186000D02*
Y1190000D01*
Y1191900D02*
X1197000Y1195900D01*
X1193000Y1199900*
X1189000Y1195900*
X1193000Y1191900*
Y1195900D02*
Y1199900D01*
X1158000Y1016500D02*
X1166000Y1024500D01*
X1158000D02*
X1166000Y1016500D01*
X1153000Y1020500D02*
X1161000Y1028500D01*
X1153000D02*
X1161000Y1020500D01*
X1065000Y1029500D02*
X1073000Y1037500D01*
X1065000D02*
X1073000Y1029500D01*
X1080000Y1033500D02*
X1088000Y1041500D01*
X1080000D02*
X1088000Y1033500D01*
X1112000Y1039500D02*
X1120000Y1047500D01*
X1112000D02*
X1120000Y1039500D01*
X1136000Y1041500D02*
X1144000Y1049500D01*
X1136000D02*
X1144000Y1041500D01*
X1014000Y1051500D02*
X1022000Y1059500D01*
X1014000D02*
X1022000Y1051500D01*
X1043000Y1044500D02*
X1051000Y1052500D01*
X1043000D02*
X1051000Y1044500D01*
X1157500Y1046500D02*
X1165500Y1054500D01*
X1157500D02*
X1165500Y1046500D01*
X1027000Y1053500D02*
X1035000Y1061500D01*
X1027000D02*
X1035000Y1053500D01*
X1119000Y1058500D02*
X1127000Y1066500D01*
X1119000D02*
X1127000Y1058500D01*
X1155000Y1059500D02*
X1163000Y1067500D01*
X1155000D02*
X1163000Y1059500D01*
X1166000Y1060500D02*
X1174000Y1068500D01*
X1166000D02*
X1174000Y1060500D01*
X1171000Y1053500D02*
X1179000Y1061500D01*
X1171000D02*
X1179000Y1053500D01*
X1019000Y1062500D02*
X1027000Y1070500D01*
X1019000D02*
X1027000Y1062500D01*
X1043000D02*
X1051000Y1070500D01*
X1043000D02*
X1051000Y1062500D01*
X1058000Y1071500D02*
X1066000Y1079500D01*
X1058000D02*
X1066000Y1071500D01*
X1126000Y1079500D02*
X1134000Y1087500D01*
X1126000D02*
X1134000Y1079500D01*
X1162000Y1077500D02*
X1170000Y1085500D01*
X1162000D02*
X1170000Y1077500D01*
X1016000Y1088500D02*
X1024000Y1096500D01*
X1016000D02*
X1024000Y1088500D01*
X1049000Y1083500D02*
X1057000Y1091500D01*
X1049000D02*
X1057000Y1083500D01*
X1087000Y1088500D02*
X1095000Y1096500D01*
X1087000D02*
X1095000Y1088500D01*
X1100000Y1090500D02*
X1108000Y1098500D01*
X1100000D02*
X1108000Y1090500D01*
X1142500Y1090000D02*
X1150500Y1098000D01*
X1142500D02*
X1150500Y1090000D01*
X1058000Y1093500D02*
X1066000Y1101500D01*
X1058000D02*
X1066000Y1093500D01*
X1077000Y1100500D02*
X1085000Y1108500D01*
X1077000D02*
X1085000Y1100500D01*
Y1094500D02*
X1093000Y1102500D01*
X1085000D02*
X1093000Y1094500D01*
X1147000Y1093000D02*
X1155000Y1101000D01*
X1147000D02*
X1155000Y1093000D01*
X1151000Y1097000D02*
X1159000Y1105000D01*
X1151000D02*
X1159000Y1097000D01*
X1156000Y1097500D02*
X1164000Y1105500D01*
X1156000D02*
X1164000Y1097500D01*
X1065000Y1104500D02*
X1073000Y1112500D01*
X1065000D02*
X1073000Y1104500D01*
X1069000Y1108500D02*
X1077000Y1116500D01*
X1069000D02*
X1077000Y1108500D01*
X1095000Y1104500D02*
X1103000Y1112500D01*
X1095000D02*
X1103000Y1104500D01*
X1132000Y1111500D02*
X1140000Y1119500D01*
X1132000D02*
X1140000Y1111500D01*
X1051000Y1121500D02*
X1059000Y1129500D01*
X1051000D02*
X1059000Y1121500D01*
X1087000Y1113500D02*
X1095000Y1121500D01*
X1087000D02*
X1095000Y1113500D01*
X1096000Y1119500D02*
X1104000Y1127500D01*
X1096000D02*
X1104000Y1119500D01*
X1108000D02*
X1116000Y1127500D01*
X1108000D02*
X1116000Y1119500D01*
X1132000Y1121500D02*
X1140000Y1129500D01*
X1132000D02*
X1140000Y1121500D01*
X1019000Y1127000D02*
X1027000Y1135000D01*
X1019000D02*
X1027000Y1127000D01*
X1064000Y1124500D02*
X1072000Y1132500D01*
X1064000D02*
X1072000Y1124500D01*
X1076000Y1125500D02*
X1084000Y1133500D01*
X1076000D02*
X1084000Y1125500D01*
X1083000D02*
X1091000Y1133500D01*
X1083000D02*
X1091000Y1125500D01*
X1089000Y1128500D02*
X1097000Y1136500D01*
X1089000D02*
X1097000Y1128500D01*
X1058000Y1147500D02*
X1066000Y1155500D01*
X1058000D02*
X1066000Y1147500D01*
X1083000D02*
X1091000Y1155500D01*
X1083000D02*
X1091000Y1147500D01*
X1111000Y1148500D02*
X1119000Y1156500D01*
X1111000D02*
X1119000Y1148500D01*
X1129000D02*
X1137000Y1156500D01*
X1129000D02*
X1137000Y1148500D01*
X1167000Y1144500D02*
X1175000Y1152500D01*
X1167000D02*
X1175000Y1144500D01*
X1031000Y1160500D02*
X1039000Y1168500D01*
X1031000D02*
X1039000Y1160500D01*
X1045000D02*
X1053000Y1168500D01*
X1045000D02*
X1053000Y1160500D01*
X1095000D02*
X1103000Y1168500D01*
X1095000D02*
X1103000Y1160500D01*
X1150000Y1161500D02*
X1158000Y1169500D01*
X1150000D02*
X1158000Y1161500D01*
X1167000Y1154000D02*
X1175000Y1162000D01*
X1167000D02*
X1175000Y1154000D01*
X1096000Y1170500D02*
X1104000Y1178500D01*
X1096000D02*
X1104000Y1170500D01*
X1140000Y1186500D02*
X1148000Y1194500D01*
X1140000D02*
X1148000Y1186500D01*
X1145500Y1190500D02*
X1153500Y1198500D01*
X1145500D02*
X1153500Y1190500D01*
X1168000Y1183500D02*
X1176000Y1191500D01*
X1168000D02*
X1176000Y1183500D01*
X1177000Y1077500D02*
X1185000Y1085500D01*
X1177000D02*
X1185000Y1077500D01*
X1193000Y1062500D02*
X1201000Y1070500D01*
X1193000D02*
X1201000Y1062500D01*
X1193000Y1052500D02*
X1201000Y1060500D01*
X1193000D02*
X1201000Y1052500D01*
X1182000Y1077500D02*
X1190000Y1085500D01*
X1182000D02*
X1190000Y1077500D01*
X1194000Y1044000D02*
X1202000Y1052000D01*
X1194000D02*
X1202000Y1044000D01*
X1174000Y1046500D02*
X1182000Y1054500D01*
X1174000D02*
X1182000Y1046500D01*
X1194000Y1069500D02*
X1202000Y1077500D01*
X1194000D02*
X1202000Y1069500D01*
X1173000Y1084500D02*
X1181000Y1092500D01*
X1173000D02*
X1181000Y1084500D01*
X1193000Y1039500D02*
X1201000Y1047500D01*
X1193000D02*
X1201000Y1039500D01*
X1183000Y1071500D02*
X1191000Y1079500D01*
X1183000D02*
X1191000Y1071500D01*
X1175500Y1105500D02*
X1183500Y1113500D01*
X1175500D02*
X1183500Y1105500D01*
X1198000Y1111500D02*
X1206000Y1119500D01*
X1198000D02*
X1206000Y1111500D01*
X1178000Y1123500D02*
X1186000Y1131500D01*
X1178000D02*
X1186000Y1123500D01*
X1184000Y1166500D02*
X1192000Y1174500D01*
X1184000D02*
X1192000Y1166500D01*
X1200000Y1130500D02*
X1208000Y1138500D01*
X1200000D02*
X1208000Y1130500D01*
X1014000Y1205000D02*
X1208500D01*
Y1012500*
X1014000*
Y1205000*
X1015000Y1240000D02*
X1085250D01*
X1015000D02*
X1025000Y1242500D01*
Y1237500*
X1015000Y1240000*
X1209000D02*
X1138750D01*
X1209000D02*
X1199000Y1237500D01*
Y1242500*
X1209000Y1240000*
X1015000Y1209500D02*
Y1245000D01*
X1209000Y1209500D02*
Y1245000D01*
X1088250Y1241563D02*
X1088705Y1241875D01*
X1089386Y1242813*
X1089386D02*
Y1236250D01*
X1094386Y1240625D02*
X1094159Y1239688D01*
X1094159D02*
X1093705Y1239063D01*
X1093705D02*
X1093023Y1238750D01*
X1092795*
X1092114Y1239063*
X1092114D02*
X1091659Y1239688D01*
X1091659D02*
X1091432Y1240625D01*
Y1240938*
X1091432D02*
X1091659Y1241875D01*
X1092114Y1242500*
X1092795Y1242813*
X1092795D02*
X1093023D01*
X1093023D02*
X1093705Y1242500D01*
X1094159Y1241875*
X1094386Y1240625*
Y1239063*
X1094386D02*
X1094159Y1237500D01*
X1093705Y1236563*
X1093705D02*
X1093023Y1236250D01*
X1092568*
X1091886Y1236563*
X1091886D02*
X1091659Y1237188D01*
X1098705Y1242813D02*
X1096432Y1238438D01*
X1096432D02*
X1099841D01*
X1098705Y1242813D02*
Y1236250D01*
X1103250Y1242813D02*
X1102568Y1242500D01*
X1102114Y1241563*
X1102114D02*
X1101886Y1240000D01*
Y1239063*
X1101886D02*
X1102114Y1237500D01*
X1102568Y1236563*
X1102568D02*
X1103250Y1236250D01*
X1103705*
X1104386Y1236563*
X1104386D02*
X1104841Y1237500D01*
X1105068Y1239063*
X1105068D02*
Y1240000D01*
X1104841Y1241563*
X1104841D02*
X1104386Y1242500D01*
X1103705Y1242813*
X1103705D02*
X1103250D01*
X1107341Y1236875D02*
X1107114Y1236563D01*
X1107114D02*
X1107341Y1236250D01*
X1107568Y1236563*
X1107568D02*
X1107341Y1236875D01*
X1110977Y1242813D02*
X1110295Y1242500D01*
X1109841Y1241563*
X1109841D02*
X1109614Y1240000D01*
Y1239063*
X1109614D02*
X1109841Y1237500D01*
X1110295Y1236563*
X1110295D02*
X1110977Y1236250D01*
X1111432*
X1112114Y1236563*
X1112114D02*
X1112568Y1237500D01*
X1112795Y1239063*
X1112795D02*
Y1240000D01*
X1112568Y1241563*
X1112568D02*
X1112114Y1242500D01*
X1111432Y1242813*
X1111432D02*
X1110977D01*
X1116205D02*
X1115523Y1242500D01*
X1115068Y1241563*
X1115068D02*
X1114841Y1240000D01*
Y1239063*
X1114841D02*
X1115068Y1237500D01*
X1115523Y1236563*
X1115523D02*
X1116205Y1236250D01*
X1116659*
X1117341Y1236563*
X1117341D02*
X1117795Y1237500D01*
X1118023Y1239063*
X1118023D02*
Y1240000D01*
X1117795Y1241563*
X1117795D02*
X1117341Y1242500D01*
X1116659Y1242813*
X1116659D02*
X1116205D01*
X1121432D02*
X1120750Y1242500D01*
X1120295Y1241563*
X1120295D02*
X1120068Y1240000D01*
Y1239063*
X1120068D02*
X1120295Y1237500D01*
X1120750Y1236563*
X1120750D02*
X1121432Y1236250D01*
X1121886*
X1122568Y1236563*
X1122568D02*
X1123023Y1237500D01*
X1123250Y1239063*
X1123250D02*
Y1240000D01*
X1123023Y1241563*
X1123023D02*
X1122568Y1242500D01*
X1121886Y1242813*
X1121886D02*
X1121432D01*
X1125295Y1240625D02*
Y1236250D01*
Y1239375D02*
X1125977Y1240313D01*
X1125977D02*
X1126432Y1240625D01*
X1127114*
X1127568Y1240313*
X1127568D02*
X1127795Y1239375D01*
Y1236250*
Y1239375D02*
X1128477Y1240313D01*
X1128477D02*
X1128932Y1240625D01*
X1129614*
X1130068Y1240313*
X1130068D02*
X1130295Y1239375D01*
Y1236250*
X1132341Y1242813D02*
X1132568Y1242500D01*
X1132795Y1242813*
X1132795D02*
X1132568Y1243125D01*
X1132341Y1242813*
X1132568Y1240625D02*
Y1236250D01*
X1134841Y1242813D02*
Y1236250D01*
X965500Y1013500D02*
Y1102250D01*
Y1013500D02*
X963000Y1023500D01*
X968000*
X965500Y1013500*
Y1204500D02*
Y1115750D01*
Y1204500D02*
X968000Y1194500D01*
X963000*
X965500Y1204500*
X1010500Y1013500D02*
X960500D01*
X1009500Y1204500D02*
X960500D01*
X942886Y1110563D02*
X943341Y1110875D01*
X944023Y1111813*
X944023D02*
Y1105250D01*
X949023Y1109625D02*
X948795Y1108688D01*
X948795D02*
X948341Y1108063D01*
X948341D02*
X947659Y1107750D01*
X947432*
X946750Y1108063*
X946750D02*
X946295Y1108688D01*
X946295D02*
X946068Y1109625D01*
Y1109938*
X946068D02*
X946295Y1110875D01*
X946750Y1111500*
X947432Y1111813*
X947432D02*
X947659D01*
X947659D02*
X948341Y1111500D01*
X948795Y1110875*
X949023Y1109625*
Y1108063*
X949023D02*
X948795Y1106500D01*
X948341Y1105563*
X948341D02*
X947659Y1105250D01*
X947205*
X946523Y1105563*
X946523D02*
X946295Y1106188D01*
X951068Y1110563D02*
X951523Y1110875D01*
X952205Y1111813*
X952205D02*
Y1105250D01*
X955614Y1111813D02*
X954932Y1111500D01*
X954477Y1110563*
X954477D02*
X954250Y1109000D01*
Y1108063*
X954250D02*
X954477Y1106500D01*
X954932Y1105563*
X954932D02*
X955614Y1105250D01*
X956068*
X956750Y1105563*
X956750D02*
X957205Y1106500D01*
X957432Y1108063*
X957432D02*
Y1109000D01*
X957205Y1110563*
X957205D02*
X956750Y1111500D01*
X956068Y1111813*
X956068D02*
X955614D01*
X959705Y1105875D02*
X959477Y1105563D01*
X959477D02*
X959705Y1105250D01*
X959932Y1105563*
X959932D02*
X959705Y1105875D01*
X963341Y1111813D02*
X962659Y1111500D01*
X962205Y1110563*
X962205D02*
X961977Y1109000D01*
Y1108063*
X961977D02*
X962205Y1106500D01*
X962659Y1105563*
X962659D02*
X963341Y1105250D01*
X963795*
X964477Y1105563*
X964477D02*
X964932Y1106500D01*
X965159Y1108063*
X965159D02*
Y1109000D01*
X964932Y1110563*
X964932D02*
X964477Y1111500D01*
X963795Y1111813*
X963795D02*
X963341D01*
X968568D02*
X967886Y1111500D01*
X967432Y1110563*
X967432D02*
X967205Y1109000D01*
Y1108063*
X967205D02*
X967432Y1106500D01*
X967886Y1105563*
X967886D02*
X968568Y1105250D01*
X969023*
X969705Y1105563*
X969705D02*
X970159Y1106500D01*
X970386Y1108063*
X970386D02*
Y1109000D01*
X970159Y1110563*
X970159D02*
X969705Y1111500D01*
X969023Y1111813*
X969023D02*
X968568D01*
X973795D02*
X973114Y1111500D01*
X972659Y1110563*
X972659D02*
X972432Y1109000D01*
Y1108063*
X972432D02*
X972659Y1106500D01*
X973114Y1105563*
X973114D02*
X973795Y1105250D01*
X974250*
X974932Y1105563*
X974932D02*
X975386Y1106500D01*
X975614Y1108063*
X975614D02*
Y1109000D01*
X975386Y1110563*
X975386D02*
X974932Y1111500D01*
X974250Y1111813*
X974250D02*
X973795D01*
X977659Y1109625D02*
Y1105250D01*
Y1108375D02*
X978341Y1109313D01*
X978341D02*
X978795Y1109625D01*
X979477*
X979932Y1109313*
X979932D02*
X980159Y1108375D01*
Y1105250*
Y1108375D02*
X980841Y1109313D01*
X980841D02*
X981295Y1109625D01*
X981977*
X982432Y1109313*
X982432D02*
X982659Y1108375D01*
Y1105250*
X984705Y1111813D02*
X984932Y1111500D01*
X985159Y1111813*
X985159D02*
X984932Y1112125D01*
X984705Y1111813*
X984932Y1109625D02*
Y1105250D01*
X987205Y1111813D02*
Y1105250D01*
X1250000Y1125000D02*
X1508000D01*
X1250000Y1101000D02*
X1508000D01*
X1250000Y1077000D02*
X1508000D01*
X1250000Y1053000D02*
X1508000D01*
X1250000Y1029000D02*
X1508000D01*
X1250000Y1005000D02*
X1508000D01*
X1250000Y1125000D02*
Y1005000D01*
X1334000Y1125000D02*
Y1005000D01*
X1370000Y1125000D02*
Y1005000D01*
X1406000Y1125000D02*
Y1005000D01*
X1460000Y1125000D02*
Y1005000D01*
X1508000Y1125000D02*
Y1005000D01*
X1476682Y1114875D02*
Y1107000D01*
X1474773Y1114875D02*
X1478591D01*
X1482682D02*
X1482136Y1114500D01*
X1481591Y1113750*
X1481318Y1113000*
X1481045Y1111875*
Y1110000*
X1481318Y1108875*
X1481591Y1108125*
X1482136Y1107375*
X1482682Y1107000*
X1483773*
X1484318Y1107375*
X1484864Y1108125*
X1485136Y1108875*
X1485409Y1110000*
Y1111875*
X1485136Y1113000*
X1484864Y1113750*
X1484318Y1114500*
X1483773Y1114875*
X1482682*
X1487864D02*
Y1107000D01*
X1491136*
X1256545Y1090875D02*
X1259545D01*
X1257909Y1087875*
X1258727*
X1259273Y1087500*
X1259545Y1087125*
X1259818Y1086000*
Y1085250*
X1259545Y1084125*
X1259000Y1083375*
X1258182Y1083000*
X1257364*
X1256545Y1083375*
X1256273Y1083750*
X1256000Y1084500*
X1265818Y1090875D02*
X1263091D01*
X1262818Y1087500*
X1263091Y1087875*
X1263909Y1088250*
X1264727*
X1265545Y1087875*
X1266091Y1087125*
X1266364Y1086000*
X1266091Y1085250*
X1265818Y1084125*
X1265273Y1083375*
X1264455Y1083000*
X1263636*
X1262818Y1083375*
X1262545Y1083750*
X1262273Y1084500*
X1348500Y1090875D02*
X1345773Y1085625D01*
X1349864*
X1348500Y1090875D02*
Y1083000D01*
X1356136Y1090875D02*
X1353409Y1083000D01*
X1352318Y1090875D02*
X1356136D01*
X1382000Y1089000D02*
X1394000D01*
X1388000Y1083000D02*
Y1095000D01*
X1414636Y1090875D02*
X1416818Y1087125D01*
Y1083000*
X1419000Y1090875D02*
X1416818Y1087125D01*
X1421455Y1090875D02*
Y1083000D01*
Y1090875D02*
X1425000D01*
X1421455Y1087125D02*
X1423636D01*
X1421455Y1083000D02*
X1425000D01*
X1431273Y1089750D02*
X1430727Y1090500D01*
X1429909Y1090875*
X1428818*
X1428000Y1090500*
X1427455Y1089750*
Y1089000*
X1427727Y1088250*
X1428000Y1087875*
X1428545Y1087500*
X1430182Y1086750*
X1430727Y1086375*
X1431000Y1086000*
X1431273Y1085250*
Y1084125*
X1430727Y1083375*
X1429909Y1083000*
X1428818*
X1428000Y1083375*
X1427455Y1084125*
X1467818Y1089750D02*
Y1083000D01*
X1465364Y1086375D02*
X1470273D01*
X1477636Y1092375D02*
X1472727Y1080375D01*
X1480091Y1086375D02*
X1485000D01*
X1489091Y1090875D02*
X1488273Y1090500D01*
X1487727Y1089375*
X1487455Y1087500*
Y1086375*
X1487727Y1084500*
X1488273Y1083375*
X1489091Y1083000*
X1489636*
X1490455Y1083375*
X1491000Y1084500*
X1491273Y1086375*
Y1087500*
X1491000Y1089375*
X1490455Y1090500*
X1489636Y1090875*
X1489091*
X1494000Y1083750D02*
X1493727Y1083375D01*
X1494000Y1083000*
X1494273Y1083375*
X1494000Y1083750*
X1498364Y1090875D02*
X1497545Y1090500D01*
X1497000Y1089375*
X1496727Y1087500*
Y1086375*
X1497000Y1084500*
X1497545Y1083375*
X1498364Y1083000*
X1498909*
X1499727Y1083375*
X1500273Y1084500*
X1500545Y1086375*
Y1087500*
X1500273Y1089375*
X1499727Y1090500*
X1498909Y1090875*
X1498364*
X1256000Y1065375D02*
X1256545Y1065750D01*
X1257364Y1066875*
Y1059000*
X1260091Y1065000D02*
Y1065375D01*
X1260364Y1066125*
X1260636Y1066500*
X1261182Y1066875*
X1262273*
X1262818Y1066500*
X1263091Y1066125*
X1263364Y1065375*
Y1064625*
X1263091Y1063875*
X1262545Y1062750*
X1259818Y1059000*
X1263636*
X1349727Y1066875D02*
X1347000Y1059000D01*
X1345909Y1066875D02*
X1349727D01*
X1352727D02*
X1355727D01*
X1354091Y1063875*
X1354909*
X1355455Y1063500*
X1355727Y1063125*
X1356000Y1062000*
Y1061250*
X1355727Y1060125*
X1355182Y1059375*
X1354364Y1059000*
X1353545*
X1352727Y1059375*
X1352455Y1059750*
X1352182Y1060500*
X1382000Y1059000D02*
X1394000Y1071000D01*
X1382000D02*
X1394000Y1059000D01*
X1414636Y1066875D02*
X1416818Y1063125D01*
Y1059000*
X1419000Y1066875D02*
X1416818Y1063125D01*
X1421455Y1066875D02*
Y1059000D01*
Y1066875D02*
X1425000D01*
X1421455Y1063125D02*
X1423636D01*
X1421455Y1059000D02*
X1425000D01*
X1431273Y1065750D02*
X1430727Y1066500D01*
X1429909Y1066875*
X1428818*
X1428000Y1066500*
X1427455Y1065750*
Y1065000*
X1427727Y1064250*
X1428000Y1063875*
X1428545Y1063500*
X1430182Y1062750*
X1430727Y1062375*
X1431000Y1062000*
X1431273Y1061250*
Y1060125*
X1430727Y1059375*
X1429909Y1059000*
X1428818*
X1428000Y1059375*
X1427455Y1060125*
X1467818Y1065750D02*
Y1059000D01*
X1465364Y1062375D02*
X1470273D01*
X1477636Y1068375D02*
X1472727Y1056375D01*
X1480091Y1062375D02*
X1485000D01*
X1489091Y1066875D02*
X1488273Y1066500D01*
X1487727Y1065375*
X1487455Y1063500*
Y1062375*
X1487727Y1060500*
X1488273Y1059375*
X1489091Y1059000*
X1489636*
X1490455Y1059375*
X1491000Y1060500*
X1491273Y1062375*
Y1063500*
X1491000Y1065375*
X1490455Y1066500*
X1489636Y1066875*
X1489091*
X1494000Y1059750D02*
X1493727Y1059375D01*
X1494000Y1059000*
X1494273Y1059375*
X1494000Y1059750*
X1498364Y1066875D02*
X1497545Y1066500D01*
X1497000Y1065375*
X1496727Y1063500*
Y1062375*
X1497000Y1060500*
X1497545Y1059375*
X1498364Y1059000*
X1498909*
X1499727Y1059375*
X1500273Y1060500*
X1500545Y1062375*
Y1063500*
X1500273Y1065375*
X1499727Y1066500*
X1498909Y1066875*
X1498364*
X1258727Y1042875D02*
X1256000Y1037625D01*
X1260091*
X1258727Y1042875D02*
Y1035000D01*
X1263091Y1042875D02*
X1266091D01*
X1264455Y1039875*
X1265273*
X1265818Y1039500*
X1266091Y1039125*
X1266364Y1038000*
Y1037250*
X1266091Y1036125*
X1265545Y1035375*
X1264727Y1035000*
X1263909*
X1263091Y1035375*
X1262818Y1035750*
X1262545Y1036500*
X1269091Y1035750D02*
X1268818Y1035375D01*
X1269091Y1035000*
X1269364Y1035375*
X1269091Y1035750*
X1272364Y1042875D02*
X1275364D01*
X1273727Y1039875*
X1274545*
X1275091Y1039500*
X1275364Y1039125*
X1275636Y1038000*
Y1037250*
X1275364Y1036125*
X1274818Y1035375*
X1274000Y1035000*
X1273182*
X1272364Y1035375*
X1272091Y1035750*
X1271818Y1036500*
X1278091Y1041375D02*
X1278636Y1041750D01*
X1279455Y1042875*
Y1035000*
X1349318Y1041000D02*
Y1041375D01*
X1349591Y1042125*
X1349864Y1042500*
X1350409Y1042875*
X1351500*
X1352045Y1042500*
X1352318Y1042125*
X1352591Y1041375*
Y1040625*
X1352318Y1039875*
X1351773Y1038750*
X1349045Y1035000*
X1352864*
X1382000D02*
X1394000D01*
Y1047000*
X1382000*
Y1035000*
X1388000Y1041000D02*
Y1047000D01*
X1414636Y1042875D02*
X1416818Y1039125D01*
Y1035000*
X1419000Y1042875D02*
X1416818Y1039125D01*
X1421455Y1042875D02*
Y1035000D01*
Y1042875D02*
X1425000D01*
X1421455Y1039125D02*
X1423636D01*
X1421455Y1035000D02*
X1425000D01*
X1431273Y1041750D02*
X1430727Y1042500D01*
X1429909Y1042875*
X1428818*
X1428000Y1042500*
X1427455Y1041750*
Y1041000*
X1427727Y1040250*
X1428000Y1039875*
X1428545Y1039500*
X1430182Y1038750*
X1430727Y1038375*
X1431000Y1038000*
X1431273Y1037250*
Y1036125*
X1430727Y1035375*
X1429909Y1035000*
X1428818*
X1428000Y1035375*
X1427455Y1036125*
X1467818Y1041750D02*
Y1035000D01*
X1465364Y1038375D02*
X1470273D01*
X1477636Y1044375D02*
X1472727Y1032375D01*
X1480091Y1038375D02*
X1485000D01*
X1489091Y1042875D02*
X1488273Y1042500D01*
X1487727Y1041375*
X1487455Y1039500*
Y1038375*
X1487727Y1036500*
X1488273Y1035375*
X1489091Y1035000*
X1489636*
X1490455Y1035375*
X1491000Y1036500*
X1491273Y1038375*
Y1039500*
X1491000Y1041375*
X1490455Y1042500*
X1489636Y1042875*
X1489091*
X1494000Y1035750D02*
X1493727Y1035375D01*
X1494000Y1035000*
X1494273Y1035375*
X1494000Y1035750*
X1498364Y1042875D02*
X1497545Y1042500D01*
X1497000Y1041375*
X1496727Y1039500*
Y1038375*
X1497000Y1036500*
X1497545Y1035375*
X1498364Y1035000*
X1498909*
X1499727Y1035375*
X1500273Y1036500*
X1500545Y1038375*
Y1039500*
X1500273Y1041375*
X1499727Y1042500*
X1498909Y1042875*
X1498364*
X1256545Y1018875D02*
X1259545D01*
X1257909Y1015875*
X1258727*
X1259273Y1015500*
X1259545Y1015125*
X1259818Y1014000*
Y1013250*
X1259545Y1012125*
X1259000Y1011375*
X1258182Y1011000*
X1257364*
X1256545Y1011375*
X1256273Y1011750*
X1256000Y1012500*
X1265818Y1016250D02*
X1265545Y1015125D01*
X1265000Y1014375*
X1264182Y1014000*
X1263909*
X1263091Y1014375*
X1262545Y1015125*
X1262273Y1016250*
Y1016625*
X1262545Y1017750*
X1263091Y1018500*
X1263909Y1018875*
X1264182*
X1265000Y1018500*
X1265545Y1017750*
X1265818Y1016250*
Y1014375*
X1265545Y1012500*
X1265000Y1011375*
X1264182Y1011000*
X1263636*
X1262818Y1011375*
X1262545Y1012125*
X1351636Y1018875D02*
X1348909Y1013625D01*
X1353000*
X1351636Y1018875D02*
Y1011000D01*
X1388000D02*
X1394000Y1017000D01*
X1388000Y1023000*
X1382000Y1017000*
X1388000Y1011000*
Y1017000D02*
Y1023000D01*
X1414636Y1018875D02*
X1416818Y1015125D01*
Y1011000*
X1419000Y1018875D02*
X1416818Y1015125D01*
X1421455Y1018875D02*
Y1011000D01*
Y1018875D02*
X1425000D01*
X1421455Y1015125D02*
X1423636D01*
X1421455Y1011000D02*
X1425000D01*
X1431273Y1017750D02*
X1430727Y1018500D01*
X1429909Y1018875*
X1428818*
X1428000Y1018500*
X1427455Y1017750*
Y1017000*
X1427727Y1016250*
X1428000Y1015875*
X1428545Y1015500*
X1430182Y1014750*
X1430727Y1014375*
X1431000Y1014000*
X1431273Y1013250*
Y1012125*
X1430727Y1011375*
X1429909Y1011000*
X1428818*
X1428000Y1011375*
X1427455Y1012125*
X1467818Y1017750D02*
Y1011000D01*
X1465364Y1014375D02*
X1470273D01*
X1477636Y1020375D02*
X1472727Y1008375D01*
X1480091Y1014375D02*
X1485000D01*
X1489091Y1018875D02*
X1488273Y1018500D01*
X1487727Y1017375*
X1487455Y1015500*
Y1014375*
X1487727Y1012500*
X1488273Y1011375*
X1489091Y1011000*
X1489636*
X1490455Y1011375*
X1491000Y1012500*
X1491273Y1014375*
Y1015500*
X1491000Y1017375*
X1490455Y1018500*
X1489636Y1018875*
X1489091*
X1494000Y1011750D02*
X1493727Y1011375D01*
X1494000Y1011000*
X1494273Y1011375*
X1494000Y1011750*
X1498364Y1018875D02*
X1497545Y1018500D01*
X1497000Y1017375*
X1496727Y1015500*
Y1014375*
X1497000Y1012500*
X1497545Y1011375*
X1498364Y1011000*
X1498909*
X1499727Y1011375*
X1500273Y1012500*
X1500545Y1014375*
Y1015500*
X1500273Y1017375*
X1499727Y1018500*
X1498909Y1018875*
X1498364*
X0Y0D02*
M02*
