%
T1C.012F095S3
X1018Y10555
X1023Y10665
X1031Y10575
X1047Y10485
X1047Y10665
X1069Y10335
X1084Y10375
X1116Y10435
X1123Y10625
X114Y10455
X1157Y10245
X1159Y10635
X11615Y10505
X1162Y10205
X117Y10645
X1175Y10575
X1178Y10505
X1197Y10565
X1197Y10665
X1197Y10435
X1198Y1048
X1198Y10735
X1187Y10755
X1186Y10815
X1181Y10815
X1177Y10885
X1166Y10815
X11465Y1094
X113Y10835
X1104Y10945
X1091Y10925
X1062Y10755
X1053Y10875
X102Y10925
X1062Y10975
X1069Y11085
X1073Y11125
X1081Y11045
X1089Y10985
X1091Y11175
X1099Y11085
X1136Y11155
X1151Y1097
X1155Y1101
X116Y11015
X11795Y11095
X1202Y11155
X1204Y11345
X1182Y11275
X1136Y11255
X1112Y11235
X11Y11235
X1093Y11325
X1087Y11295
X108Y11295
X1068Y11285
X1055Y11255
X1023Y1131
X1035Y11645
X1049Y11645
X1062Y11515
X1087Y11515
X1099Y11645
X1115Y11525
X1133Y11525
X1154Y11655
X1171Y11485
X1171Y1158
X1188Y11705
X1172Y11875
X11495Y11945
X1144Y11905
X11Y11745
T2C.035F197S55
X1022Y1023
X1032Y1023
X105Y10255
X105Y10355
X1064Y10235
X1064Y10335
X1064Y10435
X10785Y10245
X10885Y10245
X10985Y10245
X11095Y10245
X11195Y10245
X11295Y10245
X11395Y10245
X11495Y10245
X11585Y1088
X11585Y1078
X11245Y11385
X11145Y11385
X11045Y11385
X10945Y11385
X1023Y1183
X1023Y1193
X1033Y1183
X1033Y1193
X1043Y1183
X1043Y1193
X1053Y1183
X1053Y1193
X1063Y1183
X1063Y1193
X1073Y1183
X1073Y1193
X1083Y1183
X1083Y1193
X1093Y1193
X1093Y1183
X10945Y11685
X1103Y1193
X1103Y1183
X11045Y11685
X1113Y1183
X1113Y1193
X11145Y11685
X11245Y11685
X11995Y11605
X11995Y11705
T3C.039F197S55
X11615Y11161
X11615Y1126
X1193Y1186
X1193Y11959
T4C.04331F139S55
X1036Y11025
X1036Y112219
M30
