*
*
G04 PADS 9.5 Build Number: 522968 generated Gerber (RS-274-X) file*
G04 PC Version=2.1*
*
%IN "GDCS.pcb"*%
*
%MOIN*%
*
%FSLAX35Y35*%
*
*
*
*
G04 PC Standard Apertures*
*
*
G04 Thermal Relief Aperture macro.*
%AMTER*
1,1,$1,0,0*
1,0,$1-$2,0,0*
21,0,$3,$4,0,0,45*
21,0,$3,$4,0,0,135*
%
*
*
G04 Annular Aperture macro.*
%AMANN*
1,1,$1,0,0*
1,0,$2,0,0*
%
*
*
G04 Odd Aperture macro.*
%AMODD*
1,1,$1,0,0*
1,0,$1-0.005,0,0*
%
*
*
G04 PC Custom Aperture Macros*
*
*
*
*
*
*
G04 PC Aperture Table*
*
%ADD010C,0.001*%
%ADD027C,0.01*%
%ADD040R,0.043X0.035*%
%ADD041ANN,0.08374X0.0365*%
%ADD045ANN,0.06406X0.0365*%
%ADD046R,0.065X0.065*%
%ADD047C,0.065*%
%ADD050C,0.08374*%
%ADD055R,0.09555X0.06996*%
%ADD056R,0.09161X0.30815*%
*
*
*
*
G04 PC Circuitry*
G04 Layer Name GDCS.pcb - circuitry*
%LPD*%
*
*
G04 PC Custom Flashes*
G04 Layer Name GDCS.pcb - flashes*
%LPD*%
*
*
G04 PC Circuitry*
G04 Layer Name GDCS.pcb - circuitry*
%LPD*%
*
G54D10*
G54D27*
G01X1014000Y1205000D02*
X1208500D01*
Y1012500*
X1014000*
Y1205000*
G54D40*
X1196600Y1019000D03*
X1190400D03*
G54D41*
X1023000Y1183000D03*
Y1193000D03*
X1033000Y1183000D03*
Y1193000D03*
X1043000Y1183000D03*
Y1193000D03*
X1053000Y1183000D03*
Y1193000D03*
X1063000Y1183000D03*
Y1193000D03*
X1073000Y1183000D03*
Y1193000D03*
X1083000Y1183000D03*
Y1193000D03*
X1093000Y1183000D03*
Y1193000D03*
X1103000Y1183000D03*
Y1193000D03*
X1113000Y1183000D03*
Y1193000D03*
X1158500Y1088000D03*
Y1078000D03*
X1050000Y1025500D03*
Y1035500D03*
X1078500Y1024500D03*
X1088500D03*
X1098500D03*
X1109500D03*
X1119500D03*
X1129500D03*
X1139500D03*
X1149500D03*
X1199500Y1160500D03*
Y1170500D03*
X1022000Y1023000D03*
X1032000D03*
G54D45*
X1064000Y1023500D03*
Y1033500D03*
Y1043500D03*
G54D46*
X1124500Y1168500D03*
X1161500Y1126000D03*
X1193000Y1186000D03*
X1180250Y1057000D03*
X1166750D03*
G54D47*
X1114500Y1168500D03*
X1104500D03*
X1094500D03*
Y1138500D03*
X1104500D03*
X1114500D03*
X1124500D03*
X1161500Y1116100D03*
X1193000Y1195900D03*
G54D50*
X1036000Y1102500D03*
Y1122185D03*
G54D55*
X1183283Y1095500D03*
X1168717D03*
X1180217Y1073500D03*
X1194783D03*
G54D56*
X1194478Y1121750D03*
X1171522D03*
X0Y0D02*
M02*
