*
*
G04 PADS 9.5 Build Number: 522968 generated Gerber (RS-274-X) file*
G04 PC Version=2.1*
*
%IN "GDCS.pcb"*%
*
%MOIN*%
*
%FSLAX35Y35*%
*
*
*
*
G04 PC Standard Apertures*
*
*
G04 Thermal Relief Aperture macro.*
%AMTER*
1,1,$1,0,0*
1,0,$1-$2,0,0*
21,0,$3,$4,0,0,45*
21,0,$3,$4,0,0,135*
%
*
*
G04 Annular Aperture macro.*
%AMANN*
1,1,$1,0,0*
1,0,$2,0,0*
%
*
*
G04 Odd Aperture macro.*
%AMODD*
1,1,$1,0,0*
1,0,$1-0.005,0,0*
%
*
*
G04 PC Custom Aperture Macros*
*
*
*
*
*
*
G04 PC Aperture Table*
*
%ADD010C,0.001*%
%ADD027C,0.01*%
%ADD034C,0.00787*%
%ADD035C,0.007*%
%ADD036C,0.006*%
%ADD037C,0.005*%
%ADD038C,0.00591*%
*
*
*
*
G04 PC Circuitry*
G04 Layer Name GDCS.pcb - circuitry*
%LPD*%
*
*
G04 PC Custom Flashes*
G04 Layer Name GDCS.pcb - flashes*
%LPD*%
*
*
G04 PC Circuitry*
G04 Layer Name GDCS.pcb - circuitry*
%LPD*%
*
G54D10*
G01X1029890Y1142398D02*
X1031178Y1141109D01*
X1031336Y1145128D02*
X1032252Y1144211D01*
X1044457Y1144534D02*
X1046819Y1142172D01*
X1029890Y1163277D02*
X1030485Y1162681D01*
X1030643Y1166700D02*
X1032252Y1165090D01*
X1044457Y1165413D02*
X1046819Y1163051D01*
X1032252Y1165694D02*
X1029890Y1163331D01*
X1045786Y1166700D02*
X1044457Y1165371D01*
X1046819Y1163557D02*
X1045943Y1162681D01*
X1032252Y1144814D02*
X1029890Y1142452D01*
X1045093Y1145128D02*
X1044457Y1144492D01*
X1046819Y1142678D02*
X1045250Y1141109D01*
X1032252Y1145128D02*
Y1141109D01*
X1032055Y1145046D02*
Y1141306D01*
X1030087D02*
Y1147015D01*
X1029890Y1141109D02*
Y1145128D01*
X1032055Y1145046D02*
X1033433Y1143668D01*
X1032252Y1145128D02*
X1029890D01*
X1032055Y1141306D02*
X1030087D01*
X1032252Y1141109D02*
X1029890D01*
X1046819Y1145128D02*
Y1141109D01*
X1046622Y1147015D02*
Y1141306D01*
X1044654D02*
Y1145046D01*
X1044457Y1141109D02*
Y1145128D01*
X1043276Y1143668D02*
X1044654Y1145046D01*
X1046622Y1147015D02*
X1048591Y1148983D01*
X1044457Y1145128D02*
X1046819D01*
X1046622Y1141306D02*
X1044654D01*
X1046819Y1141109D02*
X1044457D01*
X1033433Y1143668D02*
X1043276D01*
X1028118Y1148983D02*
X1030087Y1147015D01*
X1032055Y1166503D02*
Y1162763D01*
X1030087Y1160794D02*
Y1166503D01*
X1033433Y1164141D02*
X1032055Y1162763D01*
X1030087Y1166503D02*
X1032055D01*
X1032252Y1162681D02*
X1029890D01*
X1046622Y1166503D02*
Y1160794D01*
X1044654Y1162763D02*
Y1166503D01*
X1048591Y1158826D02*
X1046622Y1160794D01*
X1044654Y1162763D02*
X1043276Y1164141D01*
X1044654Y1166503D02*
X1046622D01*
X1044457Y1162681D02*
X1046819D01*
X1043276Y1164141D02*
X1033433D01*
X1029890Y1166700D02*
X1032252D01*
X1044457D02*
X1046819D01*
Y1162681*
X1044457D02*
Y1166700D01*
X1032252D02*
Y1162681D01*
X1029890D02*
Y1166700D01*
X1030087Y1160794D02*
X1028118Y1158826D01*
X1048591Y1148983D02*
Y1158826D01*
X1028118D02*
Y1148983D01*
X1043275Y1153904D02*
G75*
G03X1043275I-4921J0D01*
G01X1047213D02*
G03X1047213I-8859J0D01*
G01X1183610Y1042602D02*
X1182322Y1043891D01*
X1182164Y1039872D02*
X1181248Y1040789D01*
X1169043Y1040466D02*
X1166681Y1042828D01*
X1183610Y1021723D02*
X1183015Y1022319D01*
X1182857Y1018300D02*
X1181248Y1019910D01*
X1169043Y1019587D02*
X1166681Y1021949D01*
X1181248Y1019306D02*
X1183610Y1021669D01*
X1167714Y1018300D02*
X1169043Y1019629D01*
X1166681Y1021443D02*
X1167557Y1022319D01*
X1181248Y1040186D02*
X1183610Y1042548D01*
X1168407Y1039872D02*
X1169043Y1040508D01*
X1166681Y1042322D02*
X1168250Y1043891D01*
X1181248Y1039872D02*
Y1043891D01*
X1181445Y1039954D02*
Y1043694D01*
X1183413D02*
Y1037985D01*
X1183610Y1043891D02*
Y1039872D01*
X1181445Y1039954D02*
X1180067Y1041332D01*
X1181248Y1039872D02*
X1183610D01*
X1181445Y1043694D02*
X1183413D01*
X1181248Y1043891D02*
X1183610D01*
X1166681Y1039872D02*
Y1043891D01*
X1166878Y1037985D02*
Y1043694D01*
X1168846D02*
Y1039954D01*
X1169043Y1043891D02*
Y1039872D01*
X1170224Y1041332D02*
X1168846Y1039954D01*
X1166878Y1037985D02*
X1164909Y1036017D01*
X1169043Y1039872D02*
X1166681D01*
X1166878Y1043694D02*
X1168846D01*
X1166681Y1043891D02*
X1169043D01*
X1180067Y1041332D02*
X1170224D01*
X1185382Y1036017D02*
X1183413Y1037985D01*
X1181445Y1018497D02*
Y1022237D01*
X1183413Y1024206D02*
Y1018497D01*
X1180067Y1020859D02*
X1181445Y1022237D01*
X1183413Y1018497D02*
X1181445D01*
X1181248Y1022319D02*
X1183610D01*
X1166878Y1018497D02*
Y1024206D01*
X1168846Y1022237D02*
Y1018497D01*
X1164909Y1026174D02*
X1166878Y1024206D01*
X1168846Y1022237D02*
X1170224Y1020859D01*
X1168846Y1018497D02*
X1166878D01*
X1169043Y1022319D02*
X1166681D01*
X1170224Y1020859D02*
X1180067D01*
X1183610Y1018300D02*
X1181248D01*
X1169043D02*
X1166681D01*
Y1022319*
X1169043D02*
Y1018300D01*
X1181248D02*
Y1022319D01*
X1183610D02*
Y1018300D01*
X1183413Y1024206D02*
X1185382Y1026174D01*
X1164909Y1036017D02*
Y1026174D01*
X1185382D02*
Y1036017D01*
X1180067Y1031096D02*
G03X1180067I-4921J0D01*
G01X1184004D02*
G03X1184004I-8858J0D01*
G54D27*
G01X1055000Y1123700D02*
Y1129500D01*
X1048000*
Y1123700*
X1055000Y1121300D02*
Y1115500D01*
X1048000*
Y1121300*
X1203000Y1094200D02*
Y1100000D01*
X1196000*
Y1094200*
X1203000Y1091800D02*
Y1086000D01*
X1196000*
Y1091800*
X1176000Y1116300D02*
Y1110500D01*
X1183000*
Y1116300*
X1176000Y1118700D02*
Y1124500D01*
X1183000*
Y1118700*
X1187800Y1060000D02*
X1182000D01*
Y1053000*
X1187800*
X1190200Y1060000D02*
X1196000D01*
Y1053000*
X1190200*
X1107500Y1047700D02*
Y1053500D01*
X1100500*
Y1047700*
X1107500Y1045300D02*
Y1039500D01*
X1100500*
Y1045300*
X1115500Y1047700D02*
Y1053500D01*
X1108500*
Y1047700*
X1115500Y1045300D02*
Y1039500D01*
X1108500*
Y1045300*
X1016500Y1100800D02*
Y1095000D01*
X1023500*
Y1100800*
X1016500Y1103200D02*
Y1109000D01*
X1023500*
Y1103200*
X1119000Y1087700D02*
Y1093500D01*
X1112000*
Y1087700*
X1119000Y1085300D02*
Y1079500D01*
X1112000*
Y1085300*
X1128500Y1087700D02*
Y1093500D01*
X1121500*
Y1087700*
X1128500Y1085300D02*
Y1079500D01*
X1121500*
Y1085300*
X1073500Y1100300D02*
Y1094500D01*
X1080500*
Y1100300*
X1073500Y1102700D02*
Y1108500D01*
X1080500*
Y1102700*
X1065000Y1099800D02*
Y1094000D01*
X1072000*
Y1099800*
X1065000Y1102200D02*
Y1108000D01*
X1072000*
Y1102200*
X1031500Y1077800D02*
Y1072000D01*
X1038500*
Y1077800*
X1031500Y1080200D02*
Y1086000D01*
X1038500*
Y1080200*
X1040000Y1078300D02*
Y1072500D01*
X1047000*
Y1078300*
X1040000Y1080700D02*
Y1086500D01*
X1047000*
Y1080700*
X1140000Y1125800D02*
Y1120000D01*
X1147000*
Y1125800*
X1140000Y1128200D02*
Y1134000D01*
X1147000*
Y1128200*
X1109800Y1113000D02*
X1104000D01*
Y1106000*
X1109800*
X1112200Y1113000D02*
X1118000D01*
Y1106000*
X1112200*
X1109800Y1132500D02*
X1104000D01*
Y1125500*
X1109800*
X1112200Y1132500D02*
X1118000D01*
Y1125500*
X1112200*
X1064300Y1116000D02*
X1058500D01*
Y1109000*
X1064300*
X1066700Y1116000D02*
X1072500D01*
Y1109000*
X1066700*
X1143700Y1168000D02*
X1149500D01*
Y1175000*
X1143700*
X1141300Y1168000D02*
X1135500D01*
Y1175000*
X1141300*
X1144000Y1154300D02*
Y1148500D01*
X1151000*
Y1154300*
X1144000Y1156700D02*
Y1162500D01*
X1151000*
Y1156700*
X1093500Y1122300D02*
Y1116500D01*
X1100500*
Y1122300*
X1093500Y1124700D02*
Y1130500D01*
X1100500*
Y1124700*
X1192300Y1043000D02*
X1186500D01*
Y1036000*
X1192300*
X1194700Y1043000D02*
X1200500D01*
Y1036000*
X1194700*
X1077200Y1033500D02*
X1083000D01*
Y1040500*
X1077200*
X1074800Y1033500D02*
X1069000D01*
Y1040500*
X1074800*
X1190200Y1062500D02*
X1196000D01*
Y1069500*
X1190200*
X1187800Y1062500D02*
X1182000D01*
Y1069500*
X1187800*
X1190300Y1124500D02*
X1184500D01*
Y1117500*
X1190300*
X1192700Y1124500D02*
X1198500D01*
Y1117500*
X1192700*
X1172300Y1085000D02*
X1166500D01*
Y1078000*
X1172300*
X1174700Y1085000D02*
X1180500D01*
Y1078000*
X1174700*
X1018500Y1046500D02*
Y1044000D01*
X1023500*
X1018500Y1052500D02*
Y1055000D01*
X1023500*
X1027500Y1049000D02*
Y1050000D01*
X1023500Y1120200D02*
Y1126000D01*
X1016500*
Y1120200*
X1023500Y1117800D02*
Y1112000D01*
X1016500*
Y1117800*
X1185800Y1106500D02*
X1180000D01*
Y1099500*
X1185800*
X1188200Y1106500D02*
X1194000D01*
Y1099500*
X1188200*
X1171800Y1074000D02*
X1166000D01*
Y1067000*
X1171800*
X1174200Y1074000D02*
X1180000D01*
Y1067000*
X1174200*
X1039700Y1062500D02*
X1045500D01*
Y1069500*
X1039700*
X1037300Y1062500D02*
X1031500D01*
Y1069500*
X1037300*
X1056500Y1080700D02*
Y1086500D01*
X1049500*
Y1080700*
X1056500Y1078300D02*
Y1072500D01*
X1049500*
Y1078300*
X1109800Y1102000D02*
X1104000D01*
Y1095000*
X1109800*
X1112200Y1102000D02*
X1118000D01*
Y1095000*
X1112200*
X1128300Y1132500D02*
X1122500D01*
Y1125500*
X1128300*
X1130700Y1132500D02*
X1136500D01*
Y1125500*
X1130700*
X1109800Y1122500D02*
X1104000D01*
Y1115500*
X1109800*
X1112200Y1122500D02*
X1118000D01*
Y1115500*
X1112200*
X1170800Y1185500D02*
X1165000D01*
Y1178500*
X1170800*
X1173200Y1185500D02*
X1179000D01*
Y1178500*
X1173200*
X1142000Y1156700D02*
Y1162500D01*
X1135000*
Y1156700*
X1142000Y1154300D02*
Y1148500D01*
X1135000*
Y1154300*
X1153000D02*
Y1148500D01*
X1160000*
Y1154300*
X1153000Y1156700D02*
Y1162500D01*
X1160000*
Y1156700*
X1048000Y1105300D02*
Y1099500D01*
X1055000*
Y1105300*
X1048000Y1107700D02*
Y1113500D01*
X1055000*
Y1107700*
X1138700Y1190500D02*
X1144500D01*
Y1197500*
X1138700*
X1136300Y1190500D02*
X1130500D01*
Y1197500*
X1136300*
X1172700Y1187500D02*
X1178500D01*
Y1194500*
X1172700*
X1170300Y1187500D02*
X1164500D01*
Y1194500*
X1170300*
X1127800Y1188500D02*
X1122000D01*
Y1181500*
X1127800*
X1130200Y1188500D02*
X1136000D01*
Y1181500*
X1130200*
X1143300Y1188500D02*
X1137500D01*
Y1181500*
X1143300*
X1145700Y1188500D02*
X1151500D01*
Y1181500*
X1145700*
X1155000Y1185800D02*
Y1180000D01*
X1162000*
Y1185800*
X1155000Y1188200D02*
Y1194000D01*
X1162000*
Y1188200*
X1066700Y1119000D02*
X1072500D01*
Y1126000*
X1066700*
X1064300Y1119000D02*
X1058500D01*
Y1126000*
X1064300*
X1194700Y1026500D02*
X1200500D01*
Y1033500*
X1194700*
X1192300Y1026500D02*
X1186500D01*
Y1033500*
X1192300*
X1074800Y1048500D02*
X1069000D01*
Y1041500*
X1074800*
X1077200Y1048500D02*
X1083000D01*
Y1041500*
X1077200*
X1039700Y1044500D02*
X1045500D01*
Y1051500*
X1039700*
X1037300Y1044500D02*
X1031500D01*
Y1051500*
X1037300*
X1055500Y1059700D02*
Y1065500D01*
X1048500*
Y1059700*
X1055500Y1057300D02*
Y1051500D01*
X1048500*
Y1057300*
X1036800Y1061000D02*
X1031000D01*
Y1054000*
X1036800*
X1039200Y1061000D02*
X1045000D01*
Y1054000*
X1039200*
X1171200Y1100000D02*
X1177000D01*
Y1107000*
X1171200*
X1168800Y1100000D02*
X1163000D01*
Y1107000*
X1168800*
X1193000Y1092500D02*
Y1088500D01*
X1182000*
Y1092500*
X1193000*
Y1091500D02*
G03X1193000I-1000J0D01*
G01X1177000Y1157500D02*
X1190000D01*
Y1132500*
X1177000*
Y1157500*
X1139200Y1137500D02*
X1145000D01*
Y1144500*
X1139200*
X1136800Y1137500D02*
X1131000D01*
Y1144500*
X1136800*
X1154700Y1137500D02*
X1160500D01*
Y1144500*
X1154700*
X1152300Y1137500D02*
X1146500D01*
Y1144500*
X1152300*
X1140000Y1109300D02*
Y1103500D01*
X1147000*
Y1109300*
X1140000Y1111700D02*
Y1117500D01*
X1147000*
Y1111700*
X1155000Y1055300D02*
Y1049500D01*
X1162000*
Y1055300*
X1155000Y1057700D02*
Y1063500D01*
X1162000*
Y1057700*
X1130200Y1103500D02*
X1136000D01*
Y1110500*
X1130200*
X1127800Y1103500D02*
X1122000D01*
Y1110500*
X1127800*
X1014000Y1205000D02*
X1208500D01*
Y1012500*
X1014000*
Y1205000*
G54D34*
X1016000Y1176000D02*
X1120000D01*
Y1200000*
X1016000*
Y1176000*
X1164500Y1095000D02*
Y1071000D01*
X1152500*
Y1095000*
X1164500*
X1044000Y1018500D02*
Y1042500D01*
X1056000*
Y1018500*
X1044000*
X1072500Y1031500D02*
Y1018500D01*
X1155500*
Y1031500*
X1072500*
X1193500Y1153500D02*
Y1177500D01*
X1205500*
Y1153500*
X1193500*
X1060000Y1018500D02*
Y1048500D01*
X1068000*
Y1018500*
X1060000*
X1032063Y1110374D02*
Y1114311D01*
X1039937*
Y1110374*
X1032063*
Y1116280D02*
X1039937D01*
X1032063Y1108406D02*
X1039937D01*
X1036000Y1116280D02*
Y1119823D01*
Y1108406D02*
Y1104862D01*
X1028126Y1108406D02*
Y1096988D01*
G03X1043874I7874J358*
G01Y1127697*
Y1127704D02*
G03X1028126Y1127690I-7874J-372D01*
G01Y1127697D02*
Y1108406D01*
X1026157D02*
Y1096988D01*
G03X1045843I9843J447*
G01Y1127697*
X1045842Y1127705D02*
G03X1026157Y1127688I-9842J-464D01*
G01Y1127697D02*
Y1108406D01*
X1126250Y1058250D02*
X1147000D01*
Y1037500*
X1126250*
Y1058250*
X1128809Y1056250D02*
G03X1128809I-559J0D01*
G01X1081414Y1081500D02*
G03X1081414I-1414J0D01*
G01X1077250Y1084250D02*
X1102250D01*
Y1059250*
X1077250*
Y1084250*
X1126854Y1122750D02*
G03X1126854I-354J0D01*
G54D35*
G01X1129500Y1156000D02*
X1129500D01*
G03Y1151000I0J-2500*
G01X1129500*
Y1163500D02*
X1089500D01*
Y1143500*
X1129500*
Y1163500*
G54D36*
X1173902Y1121050D02*
G03X1173902I-12402J0D01*
G01X1149500Y1121100D02*
X1173750D01*
X1149250Y1120100D02*
X1164500D01*
X1149500Y1119100D02*
X1159000D01*
X1149250Y1119600D02*
X1159750D01*
X1149500Y1118100D02*
X1158250D01*
X1149500Y1118600D02*
X1158500D01*
X1149750Y1117100D02*
X1157400D01*
X1149750Y1117600D02*
X1158000D01*
X1150000Y1116600D02*
X1157500D01*
X1150500Y1115600D02*
X1157500D01*
X1150250Y1116100D02*
X1157600D01*
X1150750Y1115100D02*
X1157500D01*
X1151000Y1114600D02*
X1157750D01*
X1153250Y1112100D02*
X1170000D01*
X1163600Y1120600D02*
X1173500D01*
X1166000Y1120100D02*
X1173500D01*
X1163500Y1119600D02*
X1173500D01*
X1164750Y1118600D02*
X1173250D01*
X1164250Y1119100D02*
X1173500D01*
X1165250Y1117600D02*
X1173250D01*
X1165000Y1118100D02*
X1173250D01*
X1165487Y1116600D02*
X1173000D01*
X1165600Y1117100D02*
X1173000D01*
X1165500Y1116100D02*
X1172500D01*
X1165500Y1115600D02*
X1172250D01*
X1165500Y1115100D02*
X1172000D01*
X1166000Y1113600D02*
X1167000D01*
X1152250Y1113100D02*
X1158750D01*
X1151750Y1113600D02*
X1158250D01*
X1151500Y1114100D02*
X1158000D01*
X1149250Y1120600D02*
X1163500D01*
X1164500Y1120100D02*
X1167000D01*
X1164250Y1113100D02*
X1170500D01*
X1164500Y1113600D02*
X1171000D01*
X1165500Y1114600D02*
X1171750D01*
X1165250Y1114100D02*
X1171500D01*
X1153750Y1111600D02*
X1169250D01*
X1155250Y1110600D02*
X1168000D01*
X1156500D02*
X1168000D01*
X1156000Y1110100D02*
X1167250D01*
X1157000Y1109600D02*
X1166000D01*
X1158500Y1109100D02*
X1164750D01*
X1154500Y1111100D02*
X1168750D01*
X1165389Y1116000D02*
G03X1165389I-3889J0D01*
G01X1163500Y1112600D02*
X1170250D01*
X1152750D02*
X1159250D01*
X1205402Y1190950D02*
G03X1205402I-12402J0D01*
G01X1205000Y1190900D02*
X1180750D01*
X1205250Y1191900D02*
X1190000D01*
X1205000Y1192900D02*
X1195500D01*
X1205250Y1192400D02*
X1194750D01*
X1205000Y1193900D02*
X1196250D01*
X1205000Y1193400D02*
X1196000D01*
X1204750Y1194900D02*
X1197100D01*
X1204750Y1194400D02*
X1196500D01*
X1204500Y1195400D02*
X1197000D01*
X1204000Y1196400D02*
X1197000D01*
X1204250Y1195900D02*
X1196900D01*
X1203750Y1196900D02*
X1197000D01*
X1203500Y1197400D02*
X1196750D01*
X1201250Y1199900D02*
X1184500D01*
X1190900Y1191400D02*
X1181000D01*
X1188500Y1191900D02*
X1181000D01*
X1191000Y1192400D02*
X1181000D01*
X1189750Y1193400D02*
X1181250D01*
X1190250Y1192900D02*
X1181000D01*
X1189250Y1194400D02*
X1181250D01*
X1189500Y1193900D02*
X1181250D01*
X1189013Y1195400D02*
X1181500D01*
X1188900Y1194900D02*
X1181500D01*
X1189000Y1195900D02*
X1182000D01*
X1189000Y1196400D02*
X1182250D01*
X1189000Y1196900D02*
X1182500D01*
X1188500Y1198400D02*
X1187500D01*
X1202250Y1198900D02*
X1195750D01*
X1202750Y1198400D02*
X1196250D01*
X1203000Y1197900D02*
X1196500D01*
X1205250Y1191400D02*
X1191000D01*
X1190000Y1191900D02*
X1187500D01*
X1190250Y1198900D02*
X1184000D01*
X1190000Y1198400D02*
X1183500D01*
X1189000Y1197400D02*
X1182750D01*
X1189250Y1197900D02*
X1183000D01*
X1200750Y1200400D02*
X1185250D01*
X1199250Y1201400D02*
X1186500D01*
X1198000D02*
X1186500D01*
X1198500Y1201900D02*
X1187250D01*
X1197500Y1202400D02*
X1188500D01*
X1196000Y1202900D02*
X1189750D01*
X1200000Y1200900D02*
X1185750D01*
X1196889Y1196000D02*
G03X1196889I-3889J0D01*
G01X1191000Y1199400D02*
X1184250D01*
X1201750D02*
X1195250D01*
X1133250Y1118500D02*
X1125750D01*
Y1123500*
X1133250*
Y1118500*
G54D37*
X1051161Y1132938D02*
X1051070Y1133188D01*
X1051070D02*
X1050888Y1133438D01*
X1050888D02*
X1050706Y1133563D01*
X1050706D02*
X1050342D01*
X1050342D02*
X1050161Y1133438D01*
X1050161D02*
X1049979Y1133188D01*
X1049979D02*
X1049888Y1132938D01*
X1049888D02*
X1049797Y1132563D01*
X1049797D02*
Y1131937D01*
X1049797D02*
X1049888Y1131562D01*
X1049888D02*
X1049979Y1131312D01*
X1049979D02*
X1050161Y1131062D01*
X1050161D02*
X1050342Y1130937D01*
X1050342D02*
X1050706D01*
X1050706D02*
X1050888Y1131062D01*
X1050888D02*
X1051070Y1131312D01*
X1051070D02*
X1051161Y1131562D01*
X1051979Y1133063D02*
X1052161Y1133188D01*
X1052161D02*
X1052433Y1133563D01*
X1052433D02*
Y1130937D01*
X1205875Y1094023D02*
X1206125Y1094114D01*
X1206375Y1094295*
X1206500Y1094477*
Y1094841*
X1206375Y1095023*
X1206125Y1095205*
X1205875Y1095295*
X1205500Y1095386*
X1204875*
X1204500Y1095295*
X1204250Y1095205*
X1204000Y1095023*
X1203875Y1094841*
Y1094477*
X1204000Y1094295*
X1204250Y1094114*
X1204500Y1094023*
X1206000Y1093205D02*
X1206125Y1093023D01*
X1206500Y1092750*
X1203875*
X1206000Y1091932D02*
X1206125Y1091750D01*
X1206500Y1091477*
X1203875*
X1178585Y1127937D02*
X1178494Y1128187D01*
X1178494D02*
X1178312Y1128437D01*
X1178312D02*
X1178131Y1128562D01*
X1178131D02*
X1177767D01*
X1177767D02*
X1177585Y1128437D01*
X1177585D02*
X1177403Y1128187D01*
X1177403D02*
X1177312Y1127937D01*
X1177312D02*
X1177222Y1127562D01*
X1177222D02*
Y1126937D01*
X1177312Y1126562*
X1177312D02*
X1177403Y1126312D01*
X1177585Y1126062*
X1177767Y1125937*
X1178131*
X1178312Y1126062*
X1178312D02*
X1178494Y1126312D01*
X1178585Y1126562*
X1179403Y1128062D02*
X1179585Y1128187D01*
X1179585D02*
X1179858Y1128562D01*
X1179858D02*
Y1125937D01*
X1181858Y1128562D02*
X1180949D01*
X1180949D02*
X1180858Y1127437D01*
X1180949Y1127562*
X1180949D02*
X1181222Y1127687D01*
X1181222D02*
X1181494D01*
X1181494D02*
X1181767Y1127562D01*
X1181767D02*
X1181949Y1127312D01*
X1182040Y1126937*
X1181949Y1126687*
X1181858Y1126312*
X1181676Y1126062*
X1181403Y1125937*
X1181131*
X1180858Y1126062*
X1180767Y1126187*
X1180676Y1126437*
X1198568Y1057375D02*
X1198477Y1057625D01*
X1198295Y1057875*
X1198114Y1058000*
X1197750*
X1197568Y1057875*
X1197386Y1057625*
X1197295Y1057375*
X1197205Y1057000*
Y1056375*
X1197295Y1056000*
X1197386Y1055750*
X1197568Y1055500*
X1197750Y1055375*
X1198114*
X1198295Y1055500*
X1198477Y1055750*
X1198568Y1056000*
X1199386Y1057500D02*
X1199568Y1057625D01*
X1199841Y1058000*
Y1055375*
X1201932Y1058000D02*
X1201023Y1055375D01*
X1200659Y1058000D02*
X1201932D01*
X1103318Y1056625D02*
X1103227Y1056875D01*
X1103045Y1057125*
X1102864Y1057250*
X1102500*
X1102318Y1057125*
X1102136Y1056875*
X1102045Y1056625*
X1101955Y1056250*
Y1055625*
X1102045Y1055250*
X1102136Y1055000*
X1102318Y1054750*
X1102500Y1054625*
X1102864*
X1103045Y1054750*
X1103227Y1055000*
X1103318Y1055250*
X1104136Y1056750D02*
X1104318Y1056875D01*
X1104591Y1057250*
Y1054625*
X1105864Y1057250D02*
X1105591Y1057125D01*
X1105500Y1056875*
Y1056625*
X1105591Y1056375*
X1105773Y1056250*
X1106136Y1056125*
X1106409Y1056000*
X1106591Y1055750*
X1106682Y1055500*
Y1055125*
X1106591Y1054875*
X1106500Y1054750*
X1106227Y1054625*
X1105864*
X1105591Y1054750*
X1105500Y1054875*
X1105409Y1055125*
Y1055500*
X1105500Y1055750*
X1105682Y1056000*
X1105955Y1056125*
X1106318Y1056250*
X1106500Y1056375*
X1106591Y1056625*
Y1056875*
X1106500Y1057125*
X1106227Y1057250*
X1105864*
X1110864Y1056625D02*
X1110773Y1056875D01*
X1110591Y1057125*
X1110409Y1057250*
X1110045*
X1109864Y1057125*
X1109682Y1056875*
X1109591Y1056625*
X1109500Y1056250*
Y1055625*
X1109591Y1055250*
X1109682Y1055000*
X1109864Y1054750*
X1110045Y1054625*
X1110409*
X1110591Y1054750*
X1110773Y1055000*
X1110864Y1055250*
X1111682Y1056750D02*
X1111864Y1056875D01*
X1112136Y1057250*
Y1054625*
X1114136Y1056375D02*
X1114045Y1056000D01*
X1113864Y1055750*
X1113591Y1055625*
X1113500*
X1113227Y1055750*
X1113045Y1056000*
X1112955Y1056375*
Y1056500*
X1113045Y1056875*
X1113227Y1057125*
X1113500Y1057250*
X1113591*
X1113864Y1057125*
X1114045Y1056875*
X1114136Y1056375*
Y1055750*
X1114045Y1055125*
X1113864Y1054750*
X1113591Y1054625*
X1113409*
X1113136Y1054750*
X1113045Y1055000*
X1019158Y1090437D02*
X1019067Y1090687D01*
X1019067D02*
X1018885Y1090937D01*
X1018885D02*
X1018703Y1091062D01*
X1018703D02*
X1018339D01*
X1018339D02*
X1018158Y1090937D01*
X1018158D02*
X1017976Y1090687D01*
X1017976D02*
X1017885Y1090437D01*
X1017885D02*
X1017794Y1090062D01*
X1017794D02*
Y1089437D01*
X1017885Y1089062*
X1017976Y1088812*
X1018158Y1088562*
X1018339Y1088437*
X1018703*
X1018885Y1088562*
X1019067Y1088812*
X1019158Y1089062*
X1020067Y1090437D02*
Y1090562D01*
X1020067D02*
X1020158Y1090812D01*
X1020158D02*
X1020249Y1090937D01*
X1020249D02*
X1020430Y1091062D01*
X1020430D02*
X1020794D01*
X1020794D02*
X1020976Y1090937D01*
X1020976D02*
X1021067Y1090812D01*
X1021067D02*
X1021158Y1090562D01*
X1021158D02*
Y1090312D01*
X1021158D02*
X1021067Y1090062D01*
X1021067D02*
X1020885Y1089687D01*
X1019976Y1088437*
X1021249*
X1113597Y1077438D02*
X1113506Y1077688D01*
X1113506D02*
X1113324Y1077938D01*
X1113324D02*
X1113142Y1078063D01*
X1113142D02*
X1112778D01*
X1112778D02*
X1112597Y1077938D01*
X1112597D02*
X1112415Y1077688D01*
X1112415D02*
X1112324Y1077438D01*
X1112324D02*
X1112233Y1077063D01*
X1112233D02*
Y1076437D01*
X1112233D02*
X1112324Y1076062D01*
X1112324D02*
X1112415Y1075812D01*
X1112415D02*
X1112597Y1075562D01*
X1112597D02*
X1112778Y1075437D01*
X1112778D02*
X1113142D01*
X1113142D02*
X1113324Y1075562D01*
X1113324D02*
X1113506Y1075812D01*
X1113506D02*
X1113597Y1076062D01*
X1114506Y1077438D02*
Y1077563D01*
X1114506D02*
X1114597Y1077813D01*
X1114597D02*
X1114688Y1077938D01*
X1114688D02*
X1114869Y1078063D01*
X1114869D02*
X1115233D01*
X1115233D02*
X1115415Y1077938D01*
X1115415D02*
X1115506Y1077813D01*
X1115506D02*
X1115597Y1077563D01*
X1115597D02*
Y1077313D01*
X1115597D02*
X1115506Y1077063D01*
X1115506D02*
X1115324Y1076687D01*
X1115324D02*
X1114415Y1075437D01*
X1114415D02*
X1115688D01*
X1117051Y1078063D02*
X1116778Y1077938D01*
X1116778D02*
X1116597Y1077563D01*
X1116597D02*
X1116506Y1076937D01*
X1116506D02*
Y1076562D01*
X1116506D02*
X1116597Y1075937D01*
X1116597D02*
X1116778Y1075562D01*
X1116778D02*
X1117051Y1075437D01*
X1117051D02*
X1117233D01*
X1117233D02*
X1117506Y1075562D01*
X1117506D02*
X1117688Y1075937D01*
X1117688D02*
X1117778Y1076562D01*
X1117778D02*
Y1076937D01*
X1117778D02*
X1117688Y1077563D01*
X1117688D02*
X1117506Y1077938D01*
X1117506D02*
X1117233Y1078063D01*
X1117233D02*
X1117051D01*
X1132375Y1086932D02*
X1132625Y1087023D01*
X1132875Y1087205*
X1133000Y1087386*
Y1087750*
X1132875Y1087932*
X1132625Y1088114*
X1132375Y1088205*
X1132000Y1088295*
X1131375*
X1131000Y1088205*
X1130750Y1088114*
X1130500Y1087932*
X1130375Y1087750*
Y1087386*
X1130500Y1087205*
X1130750Y1087023*
X1131000Y1086932*
X1132375Y1086023D02*
X1132500D01*
X1132750Y1085932*
X1132875Y1085841*
X1133000Y1085659*
Y1085295*
X1132875Y1085114*
X1132750Y1085023*
X1132500Y1084932*
X1132250*
X1132000Y1085023*
X1131625Y1085205*
X1130375Y1086114*
Y1084841*
X1132500Y1084023D02*
X1132625Y1083841D01*
X1133000Y1083568*
X1130375*
X1075112Y1092437D02*
X1075021Y1092687D01*
X1075021D02*
X1074839Y1092937D01*
X1074839D02*
X1074658Y1093062D01*
X1074658D02*
X1074294D01*
X1074294D02*
X1074112Y1092937D01*
X1074112D02*
X1073930Y1092687D01*
X1073930D02*
X1073839Y1092437D01*
X1073839D02*
X1073749Y1092062D01*
X1073749D02*
Y1091437D01*
X1073839Y1091062*
X1073930Y1090812*
X1074112Y1090562*
X1074294Y1090437*
X1074658*
X1074839Y1090562*
X1075021Y1090812*
X1075112Y1091062*
X1076021Y1092437D02*
Y1092562D01*
X1076021D02*
X1076112Y1092812D01*
X1076112D02*
X1076203Y1092937D01*
X1076203D02*
X1076385Y1093062D01*
X1076385D02*
X1076749D01*
X1076749D02*
X1076930Y1092937D01*
X1076930D02*
X1077021Y1092812D01*
X1077021D02*
X1077112Y1092562D01*
X1077112D02*
Y1092312D01*
X1077112D02*
X1077021Y1092062D01*
X1077021D02*
X1076839Y1091687D01*
X1075930Y1090437*
X1077203*
X1078112Y1092437D02*
Y1092562D01*
X1078112D02*
X1078203Y1092812D01*
X1078203D02*
X1078294Y1092937D01*
X1078294D02*
X1078476Y1093062D01*
X1078476D02*
X1078839D01*
X1078839D02*
X1079021Y1092937D01*
X1079021D02*
X1079112Y1092812D01*
X1079112D02*
X1079203Y1092562D01*
X1079203D02*
Y1092312D01*
X1079203D02*
X1079112Y1092062D01*
X1079112D02*
X1078930Y1091687D01*
X1078021Y1090437*
X1079294*
X1066112Y1091937D02*
X1066021Y1092187D01*
X1066021D02*
X1065839Y1092437D01*
X1065839D02*
X1065658Y1092562D01*
X1065658D02*
X1065294D01*
X1065294D02*
X1065112Y1092437D01*
X1065112D02*
X1064930Y1092187D01*
X1064930D02*
X1064839Y1091937D01*
X1064839D02*
X1064749Y1091562D01*
X1064749D02*
Y1090937D01*
X1064839Y1090562*
X1064930Y1090312*
X1065112Y1090062*
X1065294Y1089937*
X1065658*
X1065839Y1090062*
X1066021Y1090312*
X1066112Y1090562*
X1067021Y1091937D02*
Y1092062D01*
X1067021D02*
X1067112Y1092312D01*
X1067112D02*
X1067203Y1092437D01*
X1067203D02*
X1067385Y1092562D01*
X1067385D02*
X1067749D01*
X1067749D02*
X1067930Y1092437D01*
X1067930D02*
X1068021Y1092312D01*
X1068021D02*
X1068112Y1092062D01*
X1068112D02*
Y1091812D01*
X1068112D02*
X1068021Y1091562D01*
X1068021D02*
X1067839Y1091187D01*
X1066930Y1089937*
X1068203*
X1069203Y1092562D02*
X1070203D01*
X1070203D02*
X1069658Y1091562D01*
X1069658D02*
X1069930D01*
X1069930D02*
X1070112Y1091437D01*
X1070203Y1091312*
X1070294Y1090937*
Y1090687*
X1070203Y1090312*
X1070021Y1090062*
X1069749Y1089937*
X1069476*
X1069203Y1090062*
X1069112Y1090187*
X1069021Y1090437*
X1027016Y1080614D02*
X1026766Y1080523D01*
X1026516Y1080341*
X1026391Y1080159*
Y1079795*
X1026516Y1079614*
X1026766Y1079432*
X1027016Y1079341*
X1027391Y1079250*
X1028016*
X1028391Y1079341*
X1028641Y1079432*
X1028891Y1079614*
X1029016Y1079795*
Y1080159*
X1028891Y1080341*
X1028641Y1080523*
X1028391Y1080614*
X1027016Y1081523D02*
X1026891D01*
X1026641Y1081614*
X1026516Y1081705*
X1026391Y1081886*
Y1082250*
X1026516Y1082432*
X1026641Y1082523*
X1026891Y1082614*
X1027141*
X1027391Y1082523*
X1027766Y1082341*
X1029016Y1081432*
Y1082705*
X1026391Y1084432D02*
X1028141Y1083523D01*
Y1084886*
X1026391Y1084432D02*
X1029016D01*
X1045364Y1091234D02*
X1045273Y1091484D01*
X1045091Y1091734*
X1044909Y1091859*
X1044545*
X1044364Y1091734*
X1044182Y1091484*
X1044091Y1091234*
X1044000Y1090859*
Y1090234*
X1044091Y1089859*
X1044182Y1089609*
X1044364Y1089359*
X1044545Y1089234*
X1044909*
X1045091Y1089359*
X1045273Y1089609*
X1045364Y1089859*
X1046273Y1091234D02*
Y1091359D01*
X1046364Y1091609*
X1046455Y1091734*
X1046636Y1091859*
X1047000*
X1047182Y1091734*
X1047273Y1091609*
X1047364Y1091359*
Y1091109*
X1047273Y1090859*
X1047091Y1090484*
X1046182Y1089234*
X1047455*
X1049455Y1091859D02*
X1048545D01*
X1048455Y1090734*
X1048545Y1090859*
X1048818Y1090984*
X1049091*
X1049364Y1090859*
X1049545Y1090609*
X1049636Y1090234*
X1049545Y1089984*
X1049455Y1089609*
X1049273Y1089359*
X1049000Y1089234*
X1048727*
X1048455Y1089359*
X1048364Y1089484*
X1048273Y1089734*
X1149875Y1133341D02*
X1150125Y1133432D01*
X1150375Y1133614*
X1150500Y1133795*
Y1134159*
X1150375Y1134341*
X1150125Y1134523*
X1149875Y1134614*
X1149500Y1134705*
X1148875*
X1148500Y1134614*
X1148250Y1134523*
X1148000Y1134341*
X1147875Y1134159*
Y1133795*
X1148000Y1133614*
X1148250Y1133432*
X1148500Y1133341*
X1149875Y1132432D02*
X1150000D01*
X1150250Y1132341*
X1150375Y1132250*
X1150500Y1132068*
Y1131705*
X1150375Y1131523*
X1150250Y1131432*
X1150000Y1131341*
X1149750*
X1149500Y1131432*
X1149125Y1131614*
X1147875Y1132523*
Y1131250*
X1150500Y1129159D02*
X1147875Y1130068D01*
X1150500Y1130432D02*
Y1129159D01*
X1100375Y1107409D02*
X1100125Y1107318D01*
X1099875Y1107136*
X1099750Y1106955*
Y1106591*
X1099875Y1106409*
X1100125Y1106227*
X1100375Y1106136*
X1100750Y1106045*
X1101375*
X1101750Y1106136*
X1102000Y1106227*
X1102250Y1106409*
X1102375Y1106591*
Y1106955*
X1102250Y1107136*
X1102000Y1107318*
X1101750Y1107409*
X1100375Y1108318D02*
X1100250D01*
X1100000Y1108409*
X1099875Y1108500*
X1099750Y1108682*
Y1109045*
X1099875Y1109227*
X1100000Y1109318*
X1100250Y1109409*
X1100500*
X1100750Y1109318*
X1101125Y1109136*
X1102375Y1108227*
Y1109500*
X1099750Y1110773D02*
X1099875Y1110500D01*
X1100125Y1110409*
X1100375*
X1100625Y1110500*
X1100750Y1110682*
X1100875Y1111045*
X1101000Y1111318*
X1101250Y1111500*
X1101500Y1111591*
X1101875*
X1102125Y1111500*
X1102250Y1111409*
X1102375Y1111136*
Y1110773*
X1102250Y1110500*
X1102125Y1110409*
X1101875Y1110318*
X1101500*
X1101250Y1110409*
X1101000Y1110591*
X1100875Y1110864*
X1100750Y1111227*
X1100625Y1111409*
X1100375Y1111500*
X1100125*
X1099875Y1111409*
X1099750Y1111136*
Y1110773*
X1108205Y1135375D02*
X1108114Y1135625D01*
X1107932Y1135875*
X1107750Y1136000*
X1107386*
X1107205Y1135875*
X1107023Y1135625*
X1106932Y1135375*
X1106841Y1135000*
Y1134375*
X1106932Y1134000*
X1107023Y1133750*
X1107205Y1133500*
X1107386Y1133375*
X1107750*
X1107932Y1133500*
X1108114Y1133750*
X1108205Y1134000*
X1109114Y1135375D02*
Y1135500D01*
X1109205Y1135750*
X1109295Y1135875*
X1109477Y1136000*
X1109841*
X1110023Y1135875*
X1110114Y1135750*
X1110205Y1135500*
Y1135250*
X1110114Y1135000*
X1109932Y1134625*
X1109023Y1133375*
X1110295*
X1112295Y1135125D02*
X1112205Y1134750D01*
X1112023Y1134500*
X1111750Y1134375*
X1111659*
X1111386Y1134500*
X1111205Y1134750*
X1111114Y1135125*
Y1135250*
X1111205Y1135625*
X1111386Y1135875*
X1111659Y1136000*
X1111750*
X1112023Y1135875*
X1112205Y1135625*
X1112295Y1135125*
Y1134500*
X1112205Y1133875*
X1112023Y1133500*
X1111750Y1133375*
X1111568*
X1111295Y1133500*
X1111205Y1133750*
X1075205Y1113484D02*
X1075114Y1113734D01*
X1074932Y1113984*
X1074750Y1114109*
X1074386*
X1074205Y1113984*
X1074023Y1113734*
X1073932Y1113484*
X1073841Y1113109*
Y1112484*
X1073932Y1112109*
X1074023Y1111859*
X1074205Y1111609*
X1074386Y1111484*
X1074750*
X1074932Y1111609*
X1075114Y1111859*
X1075205Y1112109*
X1076205Y1114109D02*
X1077205D01*
X1076659Y1113109*
X1076932*
X1077114Y1112984*
X1077205Y1112859*
X1077295Y1112484*
Y1112234*
X1077205Y1111859*
X1077023Y1111609*
X1076750Y1111484*
X1076477*
X1076205Y1111609*
X1076114Y1111734*
X1076023Y1111984*
X1140659Y1178375D02*
X1140568Y1178625D01*
X1140386Y1178875*
X1140205Y1179000*
X1139841*
X1139659Y1178875*
X1139477Y1178625*
X1139386Y1178375*
X1139295Y1178000*
Y1177375*
X1139386Y1177000*
X1139477Y1176750*
X1139659Y1176500*
X1139841Y1176375*
X1140205*
X1140386Y1176500*
X1140568Y1176750*
X1140659Y1177000*
X1141659Y1179000D02*
X1142659D01*
X1142114Y1178000*
X1142386*
X1142568Y1177875*
X1142659Y1177750*
X1142750Y1177375*
Y1177125*
X1142659Y1176750*
X1142477Y1176500*
X1142205Y1176375*
X1141932*
X1141659Y1176500*
X1141568Y1176625*
X1141477Y1176875*
X1144114Y1179000D02*
X1143841Y1178875D01*
X1143659Y1178500*
X1143568Y1177875*
Y1177500*
X1143659Y1176875*
X1143841Y1176500*
X1144114Y1176375*
X1144295*
X1144568Y1176500*
X1144750Y1176875*
X1144841Y1177500*
Y1177875*
X1144750Y1178500*
X1144568Y1178875*
X1144295Y1179000*
X1144114*
X1145631Y1166438D02*
X1145540Y1166688D01*
X1145540D02*
X1145358Y1166938D01*
X1145358D02*
X1145176Y1167063D01*
X1145176D02*
X1144813D01*
X1144813D02*
X1144631Y1166938D01*
X1144631D02*
X1144449Y1166688D01*
X1144449D02*
X1144358Y1166438D01*
X1144358D02*
X1144267Y1166063D01*
X1144267D02*
Y1165437D01*
X1144267D02*
X1144358Y1165062D01*
X1144358D02*
X1144449Y1164812D01*
X1144449D02*
X1144631Y1164562D01*
X1144631D02*
X1144813Y1164437D01*
X1144813D02*
X1145176D01*
X1145176D02*
X1145358Y1164562D01*
X1145358D02*
X1145540Y1164812D01*
X1145540D02*
X1145631Y1165062D01*
X1146631Y1167063D02*
X1147631D01*
X1147631D02*
X1147085Y1166063D01*
X1147085D02*
X1147358D01*
X1147358D02*
X1147540Y1165937D01*
X1147540D02*
X1147631Y1165812D01*
X1147631D02*
X1147722Y1165437D01*
X1147722D02*
Y1165187D01*
X1147722D02*
X1147631Y1164812D01*
X1147631D02*
X1147449Y1164562D01*
X1147449D02*
X1147176Y1164437D01*
X1147176D02*
X1146903D01*
X1146903D02*
X1146631Y1164562D01*
X1146631D02*
X1146540Y1164687D01*
X1146540D02*
X1146449Y1164937D01*
X1148540Y1166563D02*
X1148722Y1166688D01*
X1148722D02*
X1148994Y1167063D01*
X1148994D02*
Y1164437D01*
X1089516Y1122159D02*
X1089266Y1122068D01*
X1089016Y1121886*
X1088891Y1121705*
Y1121341*
X1089016Y1121159*
X1089266Y1120977*
X1089516Y1120886*
X1089891Y1120795*
X1090516*
X1090891Y1120886*
X1091141Y1120977*
X1091391Y1121159*
X1091516Y1121341*
Y1121705*
X1091391Y1121886*
X1091141Y1122068*
X1090891Y1122159*
X1088891Y1123159D02*
Y1124159D01*
X1089891Y1123614*
Y1123886*
X1090016Y1124068*
X1090141Y1124159*
X1090516Y1124250*
X1090766*
X1091141Y1124159*
X1091391Y1123977*
X1091516Y1123705*
Y1123432*
X1091391Y1123159*
X1091266Y1123068*
X1091016Y1122977*
X1089516Y1125159D02*
X1089391D01*
X1089141Y1125250*
X1089016Y1125341*
X1088891Y1125523*
Y1125886*
X1089016Y1126068*
X1089141Y1126159*
X1089391Y1126250*
X1089641*
X1089891Y1126159*
X1090266Y1125977*
X1091516Y1125068*
Y1126341*
X1203159Y1040875D02*
X1203068Y1041125D01*
X1202886Y1041375*
X1202705Y1041500*
X1202341*
X1202159Y1041375*
X1201977Y1041125*
X1201886Y1040875*
X1201795Y1040500*
Y1039875*
X1201886Y1039500*
X1201977Y1039250*
X1202159Y1039000*
X1202341Y1038875*
X1202705*
X1202886Y1039000*
X1203068Y1039250*
X1203159Y1039500*
X1204886Y1041500D02*
X1203977Y1039750D01*
X1205341*
X1204886Y1041500D02*
Y1038875D01*
X1085159Y1035875D02*
X1085068Y1036125D01*
X1084886Y1036375*
X1084705Y1036500*
X1084341*
X1084159Y1036375*
X1083977Y1036125*
X1083886Y1035875*
X1083795Y1035500*
Y1034875*
X1083886Y1034500*
X1083977Y1034250*
X1084159Y1034000*
X1084341Y1033875*
X1084705*
X1084886Y1034000*
X1085068Y1034250*
X1085159Y1034500*
X1087159Y1036500D02*
X1086250D01*
X1086159Y1035375*
X1086250Y1035500*
X1086523Y1035625*
X1086795*
X1087068Y1035500*
X1087250Y1035250*
X1087341Y1034875*
X1087250Y1034625*
X1087159Y1034250*
X1086977Y1034000*
X1086705Y1033875*
X1086432*
X1086159Y1034000*
X1086068Y1034125*
X1085977Y1034375*
X1198250Y1066000D02*
X1198159Y1066250D01*
X1197977Y1066500*
X1197795Y1066625*
X1197432*
X1197250Y1066500*
X1197068Y1066250*
X1196977Y1066000*
X1196886Y1065625*
Y1065000*
X1196977Y1064625*
X1197068Y1064375*
X1197250Y1064125*
X1197432Y1064000*
X1197795*
X1197977Y1064125*
X1198159Y1064375*
X1198250Y1064625*
X1200159Y1066250D02*
X1200068Y1066500D01*
X1199795Y1066625*
X1199614*
X1199341Y1066500*
X1199159Y1066125*
X1199068Y1065500*
Y1064875*
X1199159Y1064375*
X1199341Y1064125*
X1199614Y1064000*
X1199705*
X1199977Y1064125*
X1200159Y1064375*
X1200250Y1064750*
Y1064875*
X1200159Y1065250*
X1199977Y1065500*
X1199705Y1065625*
X1199614*
X1199341Y1065500*
X1199159Y1065250*
X1199068Y1064875*
X1189705Y1127875D02*
X1189614Y1128125D01*
X1189432Y1128375*
X1189250Y1128500*
X1188886*
X1188705Y1128375*
X1188523Y1128125*
X1188432Y1127875*
X1188341Y1127500*
Y1126875*
X1188432Y1126500*
X1188523Y1126250*
X1188705Y1126000*
X1188886Y1125875*
X1189250*
X1189432Y1126000*
X1189614Y1126250*
X1189705Y1126500*
X1191795Y1128500D02*
X1190886Y1125875D01*
X1190523Y1128500D02*
X1191795D01*
X1170250Y1087375D02*
X1170159Y1087625D01*
X1169977Y1087875*
X1169795Y1088000*
X1169432*
X1169250Y1087875*
X1169068Y1087625*
X1168977Y1087375*
X1168886Y1087000*
Y1086375*
X1168977Y1086000*
X1169068Y1085750*
X1169250Y1085500*
X1169432Y1085375*
X1169795*
X1169977Y1085500*
X1170159Y1085750*
X1170250Y1086000*
X1172250Y1087125D02*
X1172159Y1086750D01*
X1171977Y1086500*
X1171705Y1086375*
X1171614*
X1171341Y1086500*
X1171159Y1086750*
X1171068Y1087125*
Y1087250*
X1171159Y1087625*
X1171341Y1087875*
X1171614Y1088000*
X1171705*
X1171977Y1087875*
X1172159Y1087625*
X1172250Y1087125*
Y1086500*
X1172159Y1085875*
X1171977Y1085500*
X1171705Y1085375*
X1171523*
X1171250Y1085500*
X1171159Y1085750*
X1068339Y1174063D02*
Y1172062D01*
X1068339D02*
X1068249Y1171687D01*
X1068249D02*
X1068158Y1171562D01*
X1068158D02*
X1067976Y1171437D01*
X1067976D02*
X1067794D01*
X1067794D02*
X1067612Y1171562D01*
X1067612D02*
X1067521Y1171687D01*
X1067521D02*
X1067430Y1172062D01*
X1067430D02*
Y1172312D01*
X1069158Y1173563D02*
X1069339Y1173688D01*
X1069339D02*
X1069612Y1174063D01*
X1069612D02*
Y1171437D01*
X1157415Y1098563D02*
Y1096562D01*
X1157415D02*
X1157324Y1096187D01*
X1157324D02*
X1157233Y1096062D01*
X1157233D02*
X1157051Y1095937D01*
X1157051D02*
X1156869D01*
X1156869D02*
X1156688Y1096062D01*
X1156688D02*
X1156597Y1096187D01*
X1156597D02*
X1156506Y1096562D01*
X1156506D02*
Y1096812D01*
X1158324Y1097938D02*
Y1098063D01*
X1158324D02*
X1158415Y1098313D01*
X1158415D02*
X1158506Y1098438D01*
X1158506D02*
X1158688Y1098563D01*
X1158688D02*
X1159051D01*
X1159051D02*
X1159233Y1098438D01*
X1159233D02*
X1159324Y1098313D01*
X1159324D02*
X1159415Y1098063D01*
X1159415D02*
Y1097813D01*
X1159415D02*
X1159324Y1097563D01*
X1159324D02*
X1159142Y1097187D01*
X1159142D02*
X1158233Y1095937D01*
X1158233D02*
X1159506D01*
X1050930Y1047063D02*
Y1045062D01*
X1050930D02*
X1050839Y1044687D01*
X1050839D02*
X1050749Y1044562D01*
X1050749D02*
X1050567Y1044437D01*
X1050567D02*
X1050385D01*
X1050385D02*
X1050203Y1044562D01*
X1050203D02*
X1050112Y1044687D01*
X1050112D02*
X1050021Y1045062D01*
X1050021D02*
Y1045312D01*
X1051930Y1047063D02*
X1052930D01*
X1052930D02*
X1052385Y1046063D01*
X1052385D02*
X1052658D01*
X1052658D02*
X1052839Y1045937D01*
X1052839D02*
X1052930Y1045812D01*
X1052930D02*
X1053021Y1045437D01*
X1053021D02*
Y1045187D01*
X1053021D02*
X1052930Y1044812D01*
X1052930D02*
X1052749Y1044562D01*
X1052749D02*
X1052476Y1044437D01*
X1052476D02*
X1052203D01*
X1052203D02*
X1051930Y1044562D01*
X1051930D02*
X1051839Y1044687D01*
X1051839D02*
X1051749Y1044937D01*
X1109932Y1036109D02*
Y1034109D01*
X1109841Y1033734*
X1109750Y1033609*
X1109568Y1033484*
X1109386*
X1109205Y1033609*
X1109114Y1033734*
X1109023Y1034109*
Y1034359*
X1111659Y1036109D02*
X1110750Y1034359D01*
X1112114*
X1111659Y1036109D02*
Y1033484D01*
X1189494Y1167563D02*
Y1165562D01*
X1189494D02*
X1189403Y1165187D01*
X1189403D02*
X1189313Y1165062D01*
X1189313D02*
X1189131Y1164937D01*
X1189131D02*
X1188949D01*
X1188949D02*
X1188767Y1165062D01*
X1188767D02*
X1188676Y1165187D01*
X1188676D02*
X1188585Y1165562D01*
X1188585D02*
Y1165812D01*
X1191494Y1167563D02*
X1190585D01*
X1190585D02*
X1190494Y1166437D01*
X1190494D02*
X1190585Y1166563D01*
X1190585D02*
X1190858Y1166688D01*
X1190858D02*
X1191131D01*
X1191131D02*
X1191403Y1166563D01*
X1191403D02*
X1191585Y1166312D01*
X1191585D02*
X1191676Y1165937D01*
X1191676D02*
X1191585Y1165687D01*
X1191585D02*
X1191494Y1165312D01*
X1191494D02*
X1191313Y1165062D01*
X1191313D02*
X1191040Y1164937D01*
X1191040D02*
X1190767D01*
X1190767D02*
X1190494Y1165062D01*
X1190494D02*
X1190403Y1165187D01*
X1190403D02*
X1190313Y1165437D01*
X1020703Y1042062D02*
X1020521Y1041937D01*
X1020521D02*
X1020339Y1041687D01*
X1020339D02*
X1020249Y1041437D01*
X1020249D02*
X1020158Y1041062D01*
X1020158D02*
Y1040437D01*
X1020249Y1040062*
X1020339Y1039812*
X1020521Y1039562*
X1020703Y1039437*
X1021067*
X1021249Y1039562*
X1021430Y1039812*
X1021521Y1040062*
X1021612Y1040437*
Y1041062*
X1021612D02*
X1021521Y1041437D01*
X1021521D02*
X1021430Y1041687D01*
X1021430D02*
X1021249Y1041937D01*
X1021249D02*
X1021067Y1042062D01*
X1021067D02*
X1020703D01*
X1020976Y1039937D02*
X1021521Y1039187D01*
X1022430Y1041562D02*
X1022612Y1041687D01*
X1022612D02*
X1022885Y1042062D01*
X1022885D02*
Y1039437D01*
X1018045Y1130859D02*
Y1128234D01*
Y1130859D02*
X1018864D01*
X1019136Y1130734*
X1019227Y1130609*
X1019318Y1130359*
Y1130109*
X1019227Y1129859*
X1019136Y1129734*
X1018864Y1129609*
X1018045*
X1018682D02*
X1019318Y1128234D01*
X1020136Y1130359D02*
X1020318Y1130484D01*
X1020591Y1130859*
Y1128234*
X1195750Y1106000D02*
Y1103375D01*
Y1106000D02*
X1196568D01*
X1196841Y1105875*
X1196932Y1105750*
X1197023Y1105500*
Y1105250*
X1196932Y1105000*
X1196841Y1104875*
X1196568Y1104750*
X1195750*
X1196386D02*
X1197023Y1103375D01*
X1197841Y1105500D02*
X1198023Y1105625D01*
X1198295Y1106000*
Y1103375*
X1199659Y1106000D02*
X1199386Y1105875D01*
X1199205Y1105500*
X1199114Y1104875*
Y1104500*
X1199205Y1103875*
X1199386Y1103500*
X1199659Y1103375*
X1199841*
X1200114Y1103500*
X1200295Y1103875*
X1200386Y1104500*
Y1104875*
X1200295Y1105500*
X1200114Y1105875*
X1199841Y1106000*
X1199659*
X1167159Y1077500D02*
Y1074875D01*
Y1077500D02*
X1167977D01*
X1168250Y1077375*
X1168341Y1077250*
X1168432Y1077000*
Y1076750*
X1168341Y1076500*
X1168250Y1076375*
X1167977Y1076250*
X1167159*
X1167795D02*
X1168432Y1074875D01*
X1169250Y1077000D02*
X1169432Y1077125D01*
X1169705Y1077500*
Y1074875*
X1170523Y1077000D02*
X1170705Y1077125D01*
X1170977Y1077500*
Y1074875*
X1024250Y1067516D02*
Y1064891D01*
Y1067516D02*
X1025068D01*
X1025341Y1067391*
X1025432Y1067266*
X1025523Y1067016*
Y1066766*
X1025432Y1066516*
X1025341Y1066391*
X1025068Y1066266*
X1024250*
X1024886D02*
X1025523Y1064891D01*
X1026341Y1067016D02*
X1026523Y1067141D01*
X1026795Y1067516*
Y1064891*
X1027705Y1066891D02*
Y1067016D01*
X1027795Y1067266*
X1027886Y1067391*
X1028068Y1067516*
X1028432*
X1028614Y1067391*
X1028705Y1067266*
X1028795Y1067016*
Y1066766*
X1028705Y1066516*
X1028523Y1066141*
X1027614Y1064891*
X1028886*
X1060609Y1082750D02*
X1057984D01*
X1060609D02*
Y1081932D01*
X1060484Y1081659*
X1060359Y1081568*
X1060109Y1081477*
X1059859*
X1059609Y1081568*
X1059484Y1081659*
X1059359Y1081932*
Y1082750*
Y1082114D02*
X1057984Y1081477D01*
X1060109Y1080659D02*
X1060234Y1080477D01*
X1060609Y1080205*
X1057984*
X1060609Y1079205D02*
Y1078205D01*
X1059609Y1078750*
Y1078477*
X1059484Y1078295*
X1059359Y1078205*
X1058984Y1078114*
X1058734*
X1058359Y1078205*
X1058109Y1078386*
X1057984Y1078659*
Y1078932*
X1058109Y1079205*
X1058234Y1079295*
X1058484Y1079386*
X1099437Y1095751D02*
X1102062D01*
X1099437D02*
Y1096570D01*
X1099562Y1096842*
X1099687Y1096933*
X1099937Y1097024*
X1100187*
X1100437Y1096933*
X1100562Y1096842*
X1100562D02*
X1100687Y1096570D01*
X1100687D02*
Y1095751D01*
Y1096388D02*
X1102062Y1097024D01*
X1099937Y1097842D02*
X1099812Y1098024D01*
X1099437Y1098297*
X1102062*
X1099437Y1100024D02*
X1101187Y1099115D01*
X1101187D02*
Y1100479D01*
X1099437Y1100024D02*
X1102062D01*
X1127205Y1136000D02*
Y1133375D01*
Y1136000D02*
X1128023D01*
X1128295Y1135875*
X1128386Y1135750*
X1128477Y1135500*
Y1135250*
X1128386Y1135000*
X1128295Y1134875*
X1128023Y1134750*
X1127205*
X1127841D02*
X1128477Y1133375D01*
X1129295Y1135500D02*
X1129477Y1135625D01*
X1129750Y1136000*
Y1133375*
X1131750Y1136000D02*
X1130841D01*
X1130750Y1134875*
X1130841Y1135000*
X1131114Y1135125*
X1131386*
X1131659Y1135000*
X1131841Y1134750*
X1131932Y1134375*
X1131841Y1134125*
X1131750Y1133750*
X1131568Y1133500*
X1131295Y1133375*
X1131023*
X1130750Y1133500*
X1130659Y1133625*
X1130568Y1133875*
X1101250Y1116545D02*
X1103875D01*
X1101250D02*
Y1117364D01*
X1101375Y1117636*
X1101500Y1117727*
X1101750Y1117818*
X1102000*
X1102250Y1117727*
X1102375Y1117636*
X1102500Y1117364*
Y1116545*
Y1117182D02*
X1103875Y1117818D01*
X1101750Y1118636D02*
X1101625Y1118818D01*
X1101250Y1119091*
X1103875*
X1101625Y1121000D02*
X1101375Y1120909D01*
X1101250Y1120636*
Y1120455*
X1101375Y1120182*
X1101750Y1120000*
X1102375Y1119909*
X1103000*
X1103500Y1120000*
X1103750Y1120182*
X1103875Y1120455*
Y1120545*
X1103750Y1120818*
X1103500Y1121000*
X1103125Y1121091*
X1103000*
X1102625Y1121000*
X1102375Y1120818*
X1102250Y1120545*
Y1120455*
X1102375Y1120182*
X1102625Y1120000*
X1103000Y1119909*
X1169750Y1176500D02*
Y1173875D01*
Y1176500D02*
X1170568D01*
X1170841Y1176375*
X1170932Y1176250*
X1171023Y1176000*
Y1175750*
X1170932Y1175500*
X1170841Y1175375*
X1170568Y1175250*
X1169750*
X1170386D02*
X1171023Y1173875D01*
X1171841Y1176000D02*
X1172023Y1176125D01*
X1172295Y1176500*
Y1173875*
X1174386Y1176500D02*
X1173477Y1173875D01*
X1173114Y1176500D02*
X1174386D01*
X1135187Y1166063D02*
Y1163437D01*
Y1166063D02*
X1136006D01*
X1136006D02*
X1136278Y1165938D01*
X1136278D02*
X1136369Y1165813D01*
X1136369D02*
X1136460Y1165563D01*
X1136460D02*
Y1165313D01*
X1136460D02*
X1136369Y1165063D01*
X1136369D02*
X1136278Y1164937D01*
X1136278D02*
X1136006Y1164812D01*
X1136006D02*
X1135187D01*
X1135824D02*
X1136460Y1163437D01*
X1137278Y1165563D02*
X1137460Y1165688D01*
X1137460D02*
X1137733Y1166063D01*
X1137733D02*
Y1163437D01*
X1139006Y1166063D02*
X1138733Y1165938D01*
X1138733D02*
X1138642Y1165688D01*
X1138642D02*
Y1165438D01*
X1138642D02*
X1138733Y1165188D01*
X1138733D02*
X1138915Y1165063D01*
X1138915D02*
X1139278Y1164937D01*
X1139278D02*
X1139551Y1164812D01*
X1139551D02*
X1139733Y1164562D01*
X1139733D02*
X1139824Y1164312D01*
X1139824D02*
Y1163937D01*
X1139824D02*
X1139733Y1163687D01*
X1139733D02*
X1139642Y1163562D01*
X1139642D02*
X1139369Y1163437D01*
X1139369D02*
X1139006D01*
X1139006D02*
X1138733Y1163562D01*
X1138733D02*
X1138642Y1163687D01*
X1138642D02*
X1138551Y1163937D01*
X1138551D02*
Y1164312D01*
X1138551D02*
X1138642Y1164562D01*
X1138642D02*
X1138824Y1164812D01*
X1138824D02*
X1139097Y1164937D01*
X1139097D02*
X1139460Y1165063D01*
X1139460D02*
X1139642Y1165188D01*
X1139642D02*
X1139733Y1165438D01*
X1139733D02*
Y1165688D01*
X1139733D02*
X1139642Y1165938D01*
X1139642D02*
X1139369Y1166063D01*
X1139369D02*
X1139006D01*
X1153358Y1167063D02*
Y1164437D01*
Y1167063D02*
X1154176D01*
X1154176D02*
X1154449Y1166938D01*
X1154449D02*
X1154540Y1166813D01*
X1154540D02*
X1154631Y1166563D01*
X1154631D02*
Y1166313D01*
X1154631D02*
X1154540Y1166063D01*
X1154540D02*
X1154449Y1165937D01*
X1154449D02*
X1154176Y1165812D01*
X1154176D02*
X1153358D01*
X1153994D02*
X1154631Y1164437D01*
X1155449Y1166563D02*
X1155631Y1166688D01*
X1155631D02*
X1155903Y1167063D01*
X1155903D02*
Y1164437D01*
X1157903Y1166188D02*
X1157813Y1165812D01*
X1157813D02*
X1157631Y1165562D01*
X1157631D02*
X1157358Y1165437D01*
X1157358D02*
X1157267D01*
X1157267D02*
X1156994Y1165562D01*
X1156994D02*
X1156813Y1165812D01*
X1156813D02*
X1156722Y1166188D01*
X1156722D02*
Y1166313D01*
X1156722D02*
X1156813Y1166688D01*
X1156813D02*
X1156994Y1166938D01*
X1156994D02*
X1157267Y1167063D01*
X1157267D02*
X1157358D01*
X1157358D02*
X1157631Y1166938D01*
X1157631D02*
X1157813Y1166688D01*
X1157813D02*
X1157903Y1166188D01*
X1157903D02*
Y1165562D01*
X1157903D02*
X1157813Y1164937D01*
X1157813D02*
X1157631Y1164562D01*
X1157631D02*
X1157358Y1164437D01*
X1157358D02*
X1157176D01*
X1157176D02*
X1156903Y1164562D01*
X1156903D02*
X1156813Y1164812D01*
X1049339Y1097563D02*
Y1094937D01*
Y1097563D02*
X1050158D01*
X1050158D02*
X1050430Y1097438D01*
X1050430D02*
X1050521Y1097313D01*
X1050521D02*
X1050612Y1097063D01*
X1050612D02*
Y1096813D01*
X1050612D02*
X1050521Y1096563D01*
X1050521D02*
X1050430Y1096437D01*
X1050430D02*
X1050158Y1096312D01*
X1050158D02*
X1049339D01*
X1049976D02*
X1050612Y1094937D01*
X1051521Y1096938D02*
Y1097063D01*
X1051521D02*
X1051612Y1097313D01*
X1051612D02*
X1051703Y1097438D01*
X1051703D02*
X1051885Y1097563D01*
X1051885D02*
X1052249D01*
X1052249D02*
X1052430Y1097438D01*
X1052430D02*
X1052521Y1097313D01*
X1052521D02*
X1052612Y1097063D01*
X1052612D02*
Y1096813D01*
X1052612D02*
X1052521Y1096563D01*
X1052521D02*
X1052339Y1096187D01*
X1052339D02*
X1051430Y1094937D01*
X1051430D02*
X1052703D01*
X1132341Y1201625D02*
Y1199000D01*
Y1201625D02*
X1133159D01*
X1133432Y1201500*
X1133523Y1201375*
X1133614Y1201125*
Y1200875*
X1133523Y1200625*
X1133432Y1200500*
X1133159Y1200375*
X1132341*
X1132977D02*
X1133614Y1199000D01*
X1134523Y1201000D02*
Y1201125D01*
X1134614Y1201375*
X1134705Y1201500*
X1134886Y1201625*
X1135250*
X1135432Y1201500*
X1135523Y1201375*
X1135614Y1201125*
Y1200875*
X1135523Y1200625*
X1135341Y1200250*
X1134432Y1199000*
X1135705*
X1137068Y1201625D02*
X1136795Y1201500D01*
X1136614Y1201125*
X1136523Y1200500*
Y1200125*
X1136614Y1199500*
X1136795Y1199125*
X1137068Y1199000*
X1137250*
X1137523Y1199125*
X1137705Y1199500*
X1137795Y1200125*
Y1200500*
X1137705Y1201125*
X1137523Y1201500*
X1137250Y1201625*
X1137068*
X1167250Y1198625D02*
Y1196000D01*
Y1198625D02*
X1168068D01*
X1168341Y1198500*
X1168432Y1198375*
X1168523Y1198125*
Y1197875*
X1168432Y1197625*
X1168341Y1197500*
X1168068Y1197375*
X1167250*
X1167886D02*
X1168523Y1196000D01*
X1169432Y1198000D02*
Y1198125D01*
X1169523Y1198375*
X1169614Y1198500*
X1169795Y1198625*
X1170159*
X1170341Y1198500*
X1170432Y1198375*
X1170523Y1198125*
Y1197875*
X1170432Y1197625*
X1170250Y1197250*
X1169341Y1196000*
X1170614*
X1171432Y1198125D02*
X1171614Y1198250D01*
X1171886Y1198625*
Y1196000*
X1123341Y1193000D02*
Y1190375D01*
Y1193000D02*
X1124159D01*
X1124432Y1192875*
X1124523Y1192750*
X1124614Y1192500*
Y1192250*
X1124523Y1192000*
X1124432Y1191875*
X1124159Y1191750*
X1123341*
X1123977D02*
X1124614Y1190375D01*
X1125523Y1192375D02*
Y1192500D01*
X1125614Y1192750*
X1125705Y1192875*
X1125886Y1193000*
X1126250*
X1126432Y1192875*
X1126523Y1192750*
X1126614Y1192500*
Y1192250*
X1126523Y1192000*
X1126341Y1191625*
X1125432Y1190375*
X1126705*
X1127614Y1192375D02*
Y1192500D01*
X1127705Y1192750*
X1127795Y1192875*
X1127977Y1193000*
X1128341*
X1128523Y1192875*
X1128614Y1192750*
X1128705Y1192500*
Y1192250*
X1128614Y1192000*
X1128432Y1191625*
X1127523Y1190375*
X1128795*
X1145841Y1192500D02*
Y1189875D01*
Y1192500D02*
X1146659D01*
X1146932Y1192375*
X1147023Y1192250*
X1147114Y1192000*
Y1191750*
X1147023Y1191500*
X1146932Y1191375*
X1146659Y1191250*
X1145841*
X1146477D02*
X1147114Y1189875D01*
X1148023Y1191875D02*
Y1192000D01*
X1148114Y1192250*
X1148205Y1192375*
X1148386Y1192500*
X1148750*
X1148932Y1192375*
X1149023Y1192250*
X1149114Y1192000*
Y1191750*
X1149023Y1191500*
X1148841Y1191125*
X1147932Y1189875*
X1149205*
X1150205Y1192500D02*
X1151205D01*
X1150659Y1191500*
X1150932*
X1151114Y1191375*
X1151205Y1191250*
X1151295Y1190875*
Y1190625*
X1151205Y1190250*
X1151023Y1190000*
X1150750Y1189875*
X1150477*
X1150205Y1190000*
X1150114Y1190125*
X1150023Y1190375*
X1155358Y1198063D02*
Y1195437D01*
Y1198063D02*
X1156176D01*
X1156176D02*
X1156449Y1197938D01*
X1156449D02*
X1156540Y1197813D01*
X1156540D02*
X1156631Y1197563D01*
X1156631D02*
Y1197313D01*
X1156631D02*
X1156540Y1197063D01*
X1156540D02*
X1156449Y1196937D01*
X1156449D02*
X1156176Y1196812D01*
X1156176D02*
X1155358D01*
X1155994D02*
X1156631Y1195437D01*
X1157540Y1197438D02*
Y1197563D01*
X1157540D02*
X1157631Y1197813D01*
X1157631D02*
X1157722Y1197938D01*
X1157722D02*
X1157903Y1198063D01*
X1157903D02*
X1158267D01*
X1158267D02*
X1158449Y1197938D01*
X1158449D02*
X1158540Y1197813D01*
X1158540D02*
X1158631Y1197563D01*
X1158631D02*
Y1197313D01*
X1158631D02*
X1158540Y1197063D01*
X1158540D02*
X1158358Y1196687D01*
X1158358D02*
X1157449Y1195437D01*
X1157449D02*
X1158722D01*
X1160449Y1198063D02*
X1159540Y1196312D01*
X1159540D02*
X1160903D01*
X1160449Y1198063D02*
Y1195437D01*
X1073886Y1123109D02*
Y1120484D01*
Y1123109D02*
X1074705D01*
X1074977Y1122984*
X1075068Y1122859*
X1075159Y1122609*
Y1122359*
X1075068Y1122109*
X1074977Y1121984*
X1074705Y1121859*
X1073886*
X1074523D02*
X1075159Y1120484D01*
X1076159Y1123109D02*
X1077159D01*
X1076614Y1122109*
X1076886*
X1077068Y1121984*
X1077159Y1121859*
X1077250Y1121484*
Y1121234*
X1077159Y1120859*
X1076977Y1120609*
X1076705Y1120484*
X1076432*
X1076159Y1120609*
X1076068Y1120734*
X1075977Y1120984*
X1192841Y1036625D02*
Y1034000D01*
Y1036625D02*
X1193659D01*
X1193932Y1036500*
X1194023Y1036375*
X1194114Y1036125*
Y1035875*
X1194023Y1035625*
X1193932Y1035500*
X1193659Y1035375*
X1192841*
X1193477D02*
X1194114Y1034000D01*
X1195841Y1036625D02*
X1194932Y1034875D01*
X1196295*
X1195841Y1036625D02*
Y1034000D01*
X1073841Y1052125D02*
Y1049500D01*
Y1052125D02*
X1074659D01*
X1074932Y1052000*
X1075023Y1051875*
X1075114Y1051625*
Y1051375*
X1075023Y1051125*
X1074932Y1051000*
X1074659Y1050875*
X1073841*
X1074477D02*
X1075114Y1049500D01*
X1077114Y1052125D02*
X1076205D01*
X1076114Y1051000*
X1076205Y1051125*
X1076477Y1051250*
X1076750*
X1077023Y1051125*
X1077205Y1050875*
X1077295Y1050500*
X1077205Y1050250*
X1077114Y1049875*
X1076932Y1049625*
X1076659Y1049500*
X1076386*
X1076114Y1049625*
X1076023Y1049750*
X1075932Y1050000*
X1036432Y1042500D02*
Y1039875D01*
Y1042500D02*
X1037250D01*
X1037523Y1042375*
X1037614Y1042250*
X1037705Y1042000*
Y1041750*
X1037614Y1041500*
X1037523Y1041375*
X1037250Y1041250*
X1036432*
X1037068D02*
X1037705Y1039875D01*
X1039614Y1042125D02*
X1039523Y1042375D01*
X1039250Y1042500*
X1039068*
X1038795Y1042375*
X1038614Y1042000*
X1038523Y1041375*
Y1040750*
X1038614Y1040250*
X1038795Y1040000*
X1039068Y1039875*
X1039159*
X1039432Y1040000*
X1039614Y1040250*
X1039705Y1040625*
Y1040750*
X1039614Y1041125*
X1039432Y1041375*
X1039159Y1041500*
X1039068*
X1038795Y1041375*
X1038614Y1041125*
X1038523Y1040750*
X1060109Y1059614D02*
X1057484D01*
X1060109D02*
Y1058795D01*
X1059984Y1058523*
X1059859Y1058432*
X1059609Y1058341*
X1059359*
X1059109Y1058432*
X1058984Y1058523*
X1058859Y1058795*
Y1059614*
Y1058977D02*
X1057484Y1058341D01*
X1060109Y1056250D02*
X1057484Y1057159D01*
X1060109Y1057523D02*
Y1056250D01*
X1024886Y1060109D02*
Y1057484D01*
Y1060109D02*
X1025705D01*
X1025977Y1059984*
X1026068Y1059859*
X1026159Y1059609*
Y1059359*
X1026068Y1059109*
X1025977Y1058984*
X1025705Y1058859*
X1024886*
X1025523D02*
X1026159Y1057484D01*
X1027432Y1060109D02*
X1027159Y1059984D01*
X1027068Y1059734*
Y1059484*
X1027159Y1059234*
X1027341Y1059109*
X1027705Y1058984*
X1027977Y1058859*
X1028159Y1058609*
X1028250Y1058359*
Y1057984*
X1028159Y1057734*
X1028068Y1057609*
X1027795Y1057484*
X1027432*
X1027159Y1057609*
X1027068Y1057734*
X1026977Y1057984*
Y1058359*
X1027068Y1058609*
X1027250Y1058859*
X1027523Y1058984*
X1027886Y1059109*
X1028068Y1059234*
X1028159Y1059484*
Y1059734*
X1028068Y1059984*
X1027795Y1060109*
X1027432*
X1157932Y1104125D02*
Y1101500D01*
Y1104125D02*
X1158750D01*
X1159023Y1104000*
X1159114Y1103875*
X1159205Y1103625*
Y1103375*
X1159114Y1103125*
X1159023Y1103000*
X1158750Y1102875*
X1157932*
X1158568D02*
X1159205Y1101500D01*
X1161205Y1103250D02*
X1161114Y1102875D01*
X1160932Y1102625*
X1160659Y1102500*
X1160568*
X1160295Y1102625*
X1160114Y1102875*
X1160023Y1103250*
Y1103375*
X1160114Y1103750*
X1160295Y1104000*
X1160568Y1104125*
X1160659*
X1160932Y1104000*
X1161114Y1103750*
X1161205Y1103250*
Y1102625*
X1161114Y1102000*
X1160932Y1101625*
X1160659Y1101500*
X1160477*
X1160205Y1101625*
X1160114Y1101875*
X1021250Y1154141D02*
X1021068Y1154391D01*
X1020795Y1154516*
X1020432*
X1020159Y1154391*
X1019977Y1154141*
Y1153891*
X1020068Y1153641*
X1020159Y1153516*
X1020341Y1153391*
X1020886Y1153141*
X1021068Y1153016*
X1021159Y1152891*
X1021250Y1152641*
Y1152266*
X1021068Y1152016*
X1020795Y1151891*
X1020432*
X1020159Y1152016*
X1019977Y1152266*
X1022068Y1154516D02*
X1022523Y1151891D01*
X1022977Y1154516D02*
X1022523Y1151891D01*
X1022977Y1154516D02*
X1023432Y1151891D01*
X1023886Y1154516D02*
X1023432Y1151891D01*
X1024705Y1154016D02*
X1024886Y1154141D01*
X1025159Y1154516*
Y1151891*
X1173341Y1045750D02*
X1173159Y1046000D01*
X1172886Y1046125*
X1172523*
X1172250Y1046000*
X1172068Y1045750*
Y1045500*
X1172159Y1045250*
X1172250Y1045125*
X1172432Y1045000*
X1172977Y1044750*
X1173159Y1044625*
X1173250Y1044500*
X1173341Y1044250*
Y1043875*
X1173159Y1043625*
X1172886Y1043500*
X1172523*
X1172250Y1043625*
X1172068Y1043875*
X1174159Y1046125D02*
X1174614Y1043500D01*
X1175068Y1046125D02*
X1174614Y1043500D01*
X1175068Y1046125D02*
X1175523Y1043500D01*
X1175977Y1046125D02*
X1175523Y1043500D01*
X1176886Y1045500D02*
Y1045625D01*
X1176977Y1045875*
X1177068Y1046000*
X1177250Y1046125*
X1177614*
X1177795Y1046000*
X1177886Y1045875*
X1177977Y1045625*
Y1045375*
X1177886Y1045125*
X1177705Y1044750*
X1176795Y1043500*
X1178068*
X1061339Y1053063D02*
Y1051187D01*
X1061339D02*
X1061430Y1050812D01*
X1061430D02*
X1061612Y1050562D01*
X1061612D02*
X1061885Y1050437D01*
X1061885D02*
X1062067D01*
X1062067D02*
X1062339Y1050562D01*
X1062339D02*
X1062521Y1050812D01*
X1062521D02*
X1062612Y1051187D01*
X1062612D02*
Y1053063D01*
X1063521Y1052438D02*
Y1052563D01*
X1063521D02*
X1063612Y1052813D01*
X1063612D02*
X1063703Y1052938D01*
X1063703D02*
X1063885Y1053063D01*
X1063885D02*
X1064249D01*
X1064249D02*
X1064430Y1052938D01*
X1064430D02*
X1064521Y1052813D01*
X1064521D02*
X1064612Y1052563D01*
X1064612D02*
Y1052313D01*
X1064612D02*
X1064521Y1052063D01*
X1064521D02*
X1064339Y1051687D01*
X1064339D02*
X1063430Y1050437D01*
X1063430D02*
X1064703D01*
X1128886Y1167500D02*
Y1165625D01*
X1128977Y1165250*
X1129159Y1165000*
X1129432Y1164875*
X1129614*
X1129886Y1165000*
X1130068Y1165250*
X1130159Y1165625*
Y1167500*
X1131159D02*
X1132159D01*
X1131614Y1166500*
X1131886*
X1132068Y1166375*
X1132159Y1166250*
X1132250Y1165875*
Y1165625*
X1132159Y1165250*
X1131977Y1165000*
X1131705Y1164875*
X1131432*
X1131159Y1165000*
X1131068Y1165125*
X1130977Y1165375*
X1196000Y1084659D02*
X1194125D01*
X1193750Y1084568*
X1193500Y1084386*
X1193375Y1084114*
Y1083932*
X1193500Y1083659*
X1193750Y1083477*
X1194125Y1083386*
X1196000*
Y1081659D02*
X1194250Y1082568D01*
Y1081205*
X1196000Y1081659D02*
X1193375D01*
X1200778Y1146563D02*
Y1144688D01*
X1200778D02*
X1200869Y1144313D01*
X1200869D02*
X1201051Y1144063D01*
X1201051D02*
X1201324Y1143938D01*
X1201324D02*
X1201506D01*
X1201506D02*
X1201778Y1144063D01*
X1201778D02*
X1201960Y1144313D01*
X1201960D02*
X1202051Y1144688D01*
X1202051D02*
Y1146563D01*
X1204051D02*
X1203142D01*
X1203051Y1145438*
X1203051D02*
X1203142Y1145563D01*
X1203415Y1145688*
X1203688*
X1203688D02*
X1203960Y1145563D01*
X1204142Y1145313*
X1204142D02*
X1204233Y1144938D01*
X1204233D02*
X1204142Y1144688D01*
X1204142D02*
X1204051Y1144313D01*
X1204051D02*
X1203869Y1144063D01*
X1203869D02*
X1203597Y1143938D01*
X1203597D02*
X1203324D01*
X1203324D02*
X1203051Y1144063D01*
X1203051D02*
X1202960Y1144188D01*
X1202960D02*
X1202869Y1144438D01*
X1024658Y1138562D02*
X1025385Y1137312D01*
Y1135937*
X1026112Y1138562D02*
X1025385Y1137312D01*
X1026930Y1138062D02*
X1027112Y1138187D01*
X1027112D02*
X1027385Y1138562D01*
X1027385D02*
Y1135937D01*
X1134659Y1135875D02*
X1134568Y1136125D01*
X1134386Y1136375*
X1134205Y1136500*
X1133841*
X1133659Y1136375*
X1133477Y1136125*
X1133386Y1135875*
X1133295Y1135500*
Y1134875*
X1133386Y1134500*
X1133477Y1134250*
X1133659Y1134000*
X1133841Y1133875*
X1134205*
X1134386Y1134000*
X1134568Y1134250*
X1134659Y1134500*
X1135659Y1136500D02*
X1136659D01*
X1136114Y1135500*
X1136386*
X1136568Y1135375*
X1136659Y1135250*
X1136750Y1134875*
Y1134625*
X1136659Y1134250*
X1136477Y1134000*
X1136205Y1133875*
X1135932*
X1135659Y1134000*
X1135568Y1134125*
X1135477Y1134375*
X1137750Y1136500D02*
X1138750D01*
X1138205Y1135500*
X1138477*
X1138659Y1135375*
X1138750Y1135250*
X1138841Y1134875*
Y1134625*
X1138750Y1134250*
X1138568Y1134000*
X1138295Y1133875*
X1138023*
X1137750Y1134000*
X1137659Y1134125*
X1137568Y1134375*
X1150114Y1147375D02*
X1150023Y1147625D01*
X1149841Y1147875*
X1149659Y1148000*
X1149295*
X1149114Y1147875*
X1148932Y1147625*
X1148841Y1147375*
X1148750Y1147000*
Y1146375*
X1148841Y1146000*
X1148932Y1145750*
X1149114Y1145500*
X1149295Y1145375*
X1149659*
X1149841Y1145500*
X1150023Y1145750*
X1150114Y1146000*
X1151114Y1148000D02*
X1152114D01*
X1151568Y1147000*
X1151841*
X1152023Y1146875*
X1152114Y1146750*
X1152205Y1146375*
Y1146125*
X1152114Y1145750*
X1151932Y1145500*
X1151659Y1145375*
X1151386*
X1151114Y1145500*
X1151023Y1145625*
X1150932Y1145875*
X1153932Y1148000D02*
X1153023Y1146250D01*
X1154386*
X1153932Y1148000D02*
Y1145375D01*
X1151125Y1112205D02*
X1148500D01*
X1151125D02*
Y1111386D01*
X1151000Y1111114*
X1150875Y1111023*
X1150625Y1110932*
X1150375*
X1150125Y1111023*
X1150000Y1111114*
X1149875Y1111386*
Y1112205*
Y1111568D02*
X1148500Y1110932D01*
X1150500Y1110023D02*
X1150625D01*
X1150875Y1109932*
X1151000Y1109841*
X1151125Y1109659*
Y1109295*
X1151000Y1109114*
X1150875Y1109023*
X1150625Y1108932*
X1150375*
X1150125Y1109023*
X1149750Y1109205*
X1148500Y1110114*
Y1108841*
X1151125Y1106841D02*
Y1107750D01*
X1150000Y1107841*
X1150125Y1107750*
X1150250Y1107477*
Y1107205*
X1150125Y1106932*
X1149875Y1106750*
X1149500Y1106659*
X1149250Y1106750*
X1148875Y1106841*
X1148625Y1107023*
X1148500Y1107295*
Y1107568*
X1148625Y1107841*
X1148750Y1107932*
X1149000Y1108023*
X1157989Y1047000D02*
X1157898Y1047250D01*
X1157716Y1047500*
X1157534Y1047625*
X1157170*
X1156989Y1047500*
X1156807Y1047250*
X1156716Y1047000*
X1156625Y1046625*
Y1046000*
X1156716Y1045625*
X1156807Y1045375*
X1156989Y1045125*
X1157170Y1045000*
X1157534*
X1157716Y1045125*
X1157898Y1045375*
X1157989Y1045625*
X1158989Y1047625D02*
X1159989D01*
X1159443Y1046625*
X1159716*
X1159898Y1046500*
X1159989Y1046375*
X1160080Y1046000*
Y1045750*
X1159989Y1045375*
X1159807Y1045125*
X1159534Y1045000*
X1159261*
X1158989Y1045125*
X1158898Y1045250*
X1158807Y1045500*
X1162080Y1047625D02*
X1161170D01*
X1161080Y1046500*
X1161170Y1046625*
X1161443Y1046750*
X1161716*
X1161989Y1046625*
X1162170Y1046375*
X1162261Y1046000*
X1162170Y1045750*
X1162080Y1045375*
X1161898Y1045125*
X1161625Y1045000*
X1161352*
X1161080Y1045125*
X1160989Y1045250*
X1160898Y1045500*
X1173455Y1131125D02*
X1173364Y1131375D01*
X1173182Y1131625*
X1173000Y1131750*
X1172636*
X1172455Y1131625*
X1172273Y1131375*
X1172182Y1131125*
X1172091Y1130750*
Y1130125*
X1172182Y1129750*
X1172273Y1129500*
X1172455Y1129250*
X1172636Y1129125*
X1173000*
X1173182Y1129250*
X1173364Y1129500*
X1173455Y1129750*
X1174727Y1131750D02*
X1174455Y1131625D01*
X1174364Y1131375*
Y1131125*
X1174455Y1130875*
X1174636Y1130750*
X1175000Y1130625*
X1175273Y1130500*
X1175455Y1130250*
X1175545Y1130000*
Y1129625*
X1175455Y1129375*
X1175364Y1129250*
X1175091Y1129125*
X1174727*
X1174455Y1129250*
X1174364Y1129375*
X1174273Y1129625*
Y1130000*
X1174364Y1130250*
X1174545Y1130500*
X1174818Y1130625*
X1175182Y1130750*
X1175364Y1130875*
X1175455Y1131125*
Y1131375*
X1175364Y1131625*
X1175091Y1131750*
X1174727*
X1203364Y1202125D02*
X1203273Y1202375D01*
X1203091Y1202625*
X1202909Y1202750*
X1202545*
X1202364Y1202625*
X1202182Y1202375*
X1202091Y1202125*
X1202000Y1201750*
Y1201125*
X1202091Y1200750*
X1202182Y1200500*
X1202364Y1200250*
X1202545Y1200125*
X1202909*
X1203091Y1200250*
X1203273Y1200500*
X1203364Y1200750*
X1204182Y1202250D02*
X1204364Y1202375D01*
X1204636Y1202750*
Y1200125*
X1206545Y1202375D02*
X1206455Y1202625D01*
X1206182Y1202750*
X1206000*
X1205727Y1202625*
X1205545Y1202250*
X1205455Y1201625*
Y1201000*
X1205545Y1200500*
X1205727Y1200250*
X1206000Y1200125*
X1206091*
X1206364Y1200250*
X1206545Y1200500*
X1206636Y1200875*
Y1201000*
X1206545Y1201375*
X1206364Y1201625*
X1206091Y1201750*
X1206000*
X1205727Y1201625*
X1205545Y1201375*
X1205455Y1201000*
X1127205Y1102500D02*
X1127114Y1102750D01*
X1126932Y1103000*
X1126750Y1103125*
X1126386*
X1126205Y1103000*
X1126023Y1102750*
X1125932Y1102500*
X1125841Y1102125*
Y1101500*
X1125932Y1101125*
X1126023Y1100875*
X1126205Y1100625*
X1126386Y1100500*
X1126750*
X1126932Y1100625*
X1127114Y1100875*
X1127205Y1101125*
X1128114Y1102500D02*
Y1102625D01*
X1128205Y1102875*
X1128295Y1103000*
X1128477Y1103125*
X1128841*
X1129023Y1103000*
X1129114Y1102875*
X1129205Y1102625*
Y1102375*
X1129114Y1102125*
X1128932Y1101750*
X1128023Y1100500*
X1129295*
X1131205Y1102750D02*
X1131114Y1103000D01*
X1130841Y1103125*
X1130659*
X1130386Y1103000*
X1130205Y1102625*
X1130114Y1102000*
Y1101375*
X1130205Y1100875*
X1130386Y1100625*
X1130659Y1100500*
X1130750*
X1131023Y1100625*
X1131205Y1100875*
X1131295Y1101250*
Y1101375*
X1131205Y1101750*
X1131023Y1102000*
X1130750Y1102125*
X1130659*
X1130386Y1102000*
X1130205Y1101750*
X1130114Y1101375*
X1127341Y1117125D02*
Y1114500D01*
Y1117125D02*
X1127977D01*
X1128250Y1117000*
X1128432Y1116750*
X1128523Y1116500*
X1128614Y1116125*
Y1115500*
X1128523Y1115125*
X1128432Y1114875*
X1128250Y1114625*
X1127977Y1114500*
X1127341*
X1130341Y1117125D02*
X1129432Y1115375D01*
X1130795*
X1130341Y1117125D02*
Y1114500D01*
G54D38*
X1089748Y1074257D02*
Y1072411D01*
X1089838Y1072042*
X1090016Y1071796*
X1090285Y1071673*
X1090464*
X1090732Y1071796*
X1090911Y1072042*
X1091001Y1072411*
Y1074257*
X1091806Y1073765D02*
X1091985Y1073888D01*
X1092253Y1074257*
Y1071673*
G74*
X0Y0D02*
M02*
