*
*
G04 PADS 9.5 Build Number: 522968 generated Gerber (RS-274-X) file*
G04 PC Version=2.1*
*
%IN "GDCS_test.pcb"*%
*
%MOIN*%
*
%FSLAX35Y35*%
*
*
*
*
G04 PC Standard Apertures*
*
*
G04 Thermal Relief Aperture macro.*
%AMTER*
1,1,$1,0,0*
1,0,$1-$2,0,0*
21,0,$3,$4,0,0,45*
21,0,$3,$4,0,0,135*
%
*
*
G04 Annular Aperture macro.*
%AMANN*
1,1,$1,0,0*
1,0,$2,0,0*
%
*
*
G04 Odd Aperture macro.*
%AMODD*
1,1,$1,0,0*
1,0,$1-0.005,0,0*
%
*
*
G04 PC Custom Aperture Macros*
*
*
*
*
*
*
G04 PC Aperture Table*
*
%ADD010C,0.001*%
%ADD027C,0.01*%
%ADD034C,0.00787*%
%ADD035C,0.007*%
%ADD036C,0.006*%
%ADD037C,0.005*%
%ADD038C,0.00591*%
%ADD062C,0.00787*%
*
*
*
*
G04 PC Circuitry*
G04 Layer Name GDCS_test.pcb - circuitry*
%LPD*%
*
G54D10*
G01X1152841Y1029124D02*
X1152704Y1029673D01*
X1152567Y1030085*
X1152365Y1030488*
X1151897Y1030823*
X1151291Y1030958*
X1150616Y1030823*
X1150148Y1030488*
X1149946Y1030085*
X1149809Y1029673*
X1149672Y1029124*
Y1027815*
X1149809Y1027266*
X1149946Y1026856*
X1150150Y1026515*
X1150350Y1026248*
X1150616Y1026115*
X1150953Y1025980*
X1151286*
X1151897Y1026116*
X1152367Y1026452*
X1152567Y1026785*
X1152704Y1027265*
X1152841Y1027815*
Y1029124*
X1151967Y1029200D02*
Y1027739D01*
X1151965Y1027725*
X1151826Y1027238*
Y1027236*
X1151756Y1027028*
X1151750Y1027016*
X1151611Y1026807*
X1151582Y1026786*
X1151303Y1026717*
X1151281Y1026716*
X1151281D02*
X1150934Y1026786D01*
X1150902Y1026807*
X1150763Y1027016*
X1150760Y1027021*
X1150620Y1027299*
X1150616Y1027314*
X1150546Y1027731*
Y1027739*
Y1029200*
X1150548Y1029214*
X1150687Y1029701*
Y1029703*
X1150757Y1029911*
X1150769Y1029931*
X1150908Y1030070*
X1150925Y1030081*
X1151273Y1030220*
X1151314Y1030219*
X1151592Y1030080*
X1151605Y1030070*
X1151744Y1029931*
X1151753Y1029918*
X1151893Y1029640*
X1151897Y1029626*
X1151967Y1029208*
Y1029200*
X1148807Y1026924D02*
X1147933D01*
Y1026050*
X1148807*
Y1026924*
X1146233Y1030959D02*
X1145544D01*
X1145281Y1030564*
X1145274Y1030556*
X1144927Y1030208*
X1144923Y1030205*
X1144506Y1029857*
X1144490Y1029848*
X1144107Y1029720*
Y1028864*
X1144724Y1029172*
X1145276Y1029655*
X1145359Y1029617*
Y1026050*
X1146233*
Y1030959*
X1143520Y1025185D02*
X1139585D01*
Y1024659*
X1143520*
Y1025185*
X1139206Y1027461D02*
X1139139Y1027865D01*
X1139004Y1028201*
X1138803Y1028469*
X1138467Y1028738*
X1137434Y1029082*
X1136879Y1029221*
X1136866Y1029227*
X1136518Y1029435*
X1136499Y1029456*
X1136360Y1029734*
Y1029779*
X1136499Y1030057*
X1136521Y1030080*
X1136799Y1030219*
X1136814Y1030223*
X1137231Y1030293*
X1137249*
X1137597Y1030223*
X1137603Y1030221*
X1137811Y1030152*
X1137836Y1030134*
X1138044Y1029856*
X1138053Y1029838*
X1138112Y1029601*
X1138985Y1029663*
X1138862Y1030153*
X1138527Y1030622*
X1137989Y1030891*
X1137169Y1031028*
X1136694Y1030960*
X1136286Y1030824*
X1135948Y1030621*
X1135682Y1030355*
X1135548Y1030020*
X1135482Y1029688*
X1135616Y1029152*
X1135953Y1028680*
X1136356Y1028411*
X1137045Y1028204*
X1137530Y1028066*
X1137808Y1027996*
X1137818Y1027993*
X1138235Y1027784*
X1138262Y1027749*
X1138332Y1027401*
X1138330Y1027375*
X1138260Y1027167*
X1138248Y1027147*
X1138040Y1026939*
X1138027Y1026929*
X1137748Y1026790*
X1137734Y1026785*
X1137317Y1026716*
X1137300*
X1136883Y1026785*
X1136873Y1026788*
X1136525Y1026927*
X1136503Y1026944*
X1136295Y1027222*
X1136287Y1027236*
X1136160Y1027617*
X1135288Y1027555*
X1135476Y1026927*
X1135881Y1026386*
X1136489Y1026049*
X1137239Y1025981*
X1137856Y1026049*
X1138334Y1026186*
X1138740Y1026389*
X1139004Y1026653*
X1139138Y1027056*
X1139206Y1027461*
X1134529Y1027567D02*
X1133656Y1027816D01*
X1133531Y1027378*
X1133518Y1027356*
X1133240Y1027078*
X1133230Y1027070*
X1132882Y1026861*
X1132865Y1026855*
X1132447Y1026785*
X1132432*
X1131945Y1026855*
X1131920Y1026866*
X1131503Y1027214*
X1131493Y1027224*
X1131354Y1027433*
X1131351Y1027439*
X1131212Y1027717*
X1131207Y1027735*
X1131137Y1028570*
Y1028574*
Y1028578*
X1131207Y1029344*
X1131213Y1029364*
X1131491Y1029851*
X1131507Y1029868*
X1131924Y1030146*
X1131938Y1030152*
X1132425Y1030292*
X1132447Y1030293*
X1132865Y1030223*
X1132875Y1030220*
X1133223Y1030081*
X1133244Y1030065*
X1133453Y1029787*
X1133459Y1029775*
X1133583Y1029466*
X1134456Y1029654*
X1134273Y1030080*
X1134004Y1030485*
X1133326Y1030891*
X1132508Y1031028*
X1132033Y1030960*
X1131624Y1030823*
X1131214Y1030619*
X1130875Y1030347*
X1130604Y1030009*
X1130401Y1029534*
X1130332Y1029054*
X1130263Y1028504*
X1130332Y1027955*
X1130401Y1027476*
X1130603Y1027071*
X1130876Y1026729*
X1131217Y1026389*
X1131620Y1026187*
X1132029Y1026119*
X1132510Y1026050*
X1133258Y1026118*
X1133799Y1026457*
X1134275Y1026932*
X1134529Y1027567*
X1129606Y1028435D02*
X1129537Y1029124D01*
X1129469Y1029604*
X1129265Y1030078*
X1128995Y1030417*
X1128656Y1030688*
X1128250Y1030891*
X1127844Y1030959*
X1125463*
Y1026050*
X1127844*
X1128250Y1026118*
X1128656Y1026321*
X1128924Y1026522*
X1129197Y1026931*
X1129469Y1027408*
X1129537Y1027885*
X1129606Y1028435*
X1128733Y1028991D02*
Y1027948D01*
X1128729Y1027929*
X1128592Y1027586*
X1128523Y1027242*
X1128502Y1027211*
X1128293Y1027071*
X1128288Y1027068*
X1127870Y1026860*
X1127860Y1026856*
X1127582Y1026786*
X1127570Y1026785*
X1126387*
X1126337Y1026835*
Y1030174*
X1126387Y1030224*
X1127430*
X1127440Y1030223*
X1127788Y1030153*
X1127798Y1030150*
X1128285Y1029942*
X1128301Y1029931*
X1128509Y1029722*
X1128522Y1029699*
X1128592Y1029423*
X1128730Y1029007*
X1128733Y1028991*
X1124389Y1028663D02*
X1122333D01*
Y1027928*
X1123465*
X1123515Y1027878*
Y1027183*
X1123488Y1027138*
X1122931Y1026860*
X1122927Y1026858*
X1122579Y1026719*
X1122561Y1026715*
X1122213*
X1122201Y1026717*
X1121644Y1026856*
X1121632Y1026861*
X1121145Y1027139*
X1121125Y1027160*
X1120847Y1027717*
X1120842Y1027731*
X1120703Y1028566*
X1120702Y1028574*
Y1028579*
X1120772Y1029275*
X1120779Y1029296*
X1121127Y1029853*
X1121145Y1029869*
X1121145D02*
X1121632Y1030148D01*
X1121644Y1030153*
X1122201Y1030292*
X1122221Y1030293*
X1122639Y1030223*
X1122649Y1030220*
X1122997Y1030081*
X1123014Y1030070*
X1123292Y1029792*
X1123303Y1029775*
X1123426Y1029466*
X1124304Y1029655*
X1124118Y1030215*
X1123645Y1030620*
X1123033Y1030960*
X1122283Y1031028*
X1121598Y1030960*
X1121053Y1030755*
X1120510Y1030416*
X1120170Y1029872*
X1119897Y1029257*
X1119828Y1028505*
X1119897Y1027819*
X1120102Y1027204*
X1120441Y1026662*
X1120984Y1026323*
X1121600Y1026049*
X1122282Y1025981*
X1122900Y1026049*
X1123517Y1026186*
X1123995Y1026460*
X1124389Y1026722*
Y1028663*
X1119900Y1027810D02*
Y1029264D01*
X1120000Y1027510D02*
Y1029489D01*
X1120100Y1027210D02*
Y1029714D01*
X1120200Y1027047D02*
Y1029920D01*
X1120300Y1026887D02*
Y1030080D01*
X1120400Y1026727D02*
Y1030240D01*
X1120500Y1026625D02*
Y1030400D01*
X1120600Y1026563D02*
Y1030472D01*
X1120700Y1026500D02*
Y1030535D01*
X1120800Y1026438D02*
Y1027983D01*
Y1029329D02*
Y1030597D01*
X1120900Y1026375D02*
Y1027610D01*
Y1029489D02*
Y1030660D01*
X1121000Y1026316D02*
Y1027410D01*
Y1029649D02*
Y1030722D01*
X1121100Y1026271D02*
Y1027210D01*
Y1029809D02*
Y1030773D01*
X1121200Y1026227D02*
Y1027108D01*
Y1029901D02*
Y1030810D01*
X1121300Y1026182D02*
Y1027050D01*
Y1029958D02*
Y1030848D01*
X1121400Y1026138D02*
Y1026993D01*
Y1030015D02*
Y1030885D01*
X1121500Y1026093D02*
Y1026936D01*
Y1030072D02*
Y1030923D01*
X1121600Y1026049D02*
Y1026879D01*
Y1030130D02*
Y1030960D01*
X1121700Y1026039D02*
Y1026842D01*
Y1030167D02*
Y1030970D01*
X1121800Y1026029D02*
Y1026817D01*
Y1030192D02*
Y1030980D01*
X1121900Y1026019D02*
Y1026792D01*
Y1030217D02*
Y1030990D01*
X1122000Y1026009D02*
Y1026767D01*
Y1030242D02*
Y1031000D01*
X1122100Y1025999D02*
Y1026742D01*
Y1030267D02*
Y1031010D01*
X1122200Y1025989D02*
Y1026717D01*
Y1030292D02*
Y1031020D01*
X1122300Y1025983D02*
Y1026715D01*
Y1030280D02*
Y1031026D01*
X1122400Y1025994D02*
Y1026715D01*
Y1027928D02*
Y1028663D01*
Y1030263D02*
Y1031017D01*
X1122500Y1026005D02*
Y1026715D01*
Y1027928D02*
Y1028663D01*
Y1030246D02*
Y1031008D01*
X1122600Y1026016D02*
Y1026727D01*
Y1027928D02*
Y1028663D01*
Y1030230D02*
Y1030999D01*
X1122700Y1026027D02*
Y1026767D01*
Y1027928D02*
Y1028663D01*
Y1030200D02*
Y1030990D01*
X1122800Y1026038D02*
Y1026807D01*
Y1027928D02*
Y1028663D01*
Y1030160D02*
Y1030981D01*
X1122900Y1026049D02*
Y1026847D01*
Y1027928D02*
Y1028663D01*
Y1030120D02*
Y1030972D01*
X1123000Y1026072D02*
Y1026894D01*
Y1027928D02*
Y1028663D01*
Y1030080D02*
Y1030963D01*
X1123100Y1026094D02*
Y1026944D01*
Y1027928D02*
Y1028663D01*
Y1029984D02*
Y1030923D01*
X1123200Y1026116D02*
Y1026994D01*
Y1027928D02*
Y1028663D01*
Y1029884D02*
Y1030867D01*
X1123300Y1026138D02*
Y1027044D01*
Y1027928D02*
Y1028663D01*
Y1029781D02*
Y1030811D01*
X1123400Y1026160D02*
Y1027094D01*
Y1027928D02*
Y1028663D01*
Y1029532D02*
Y1030756D01*
X1123500Y1026183D02*
Y1027147D01*
Y1027914D02*
Y1028663D01*
Y1029482D02*
Y1030700D01*
X1123600Y1026234D02*
Y1028663D01*
Y1029504D02*
Y1030645D01*
X1123700Y1026291D02*
Y1028663D01*
Y1029525D02*
Y1030573D01*
X1123800Y1026348D02*
Y1028663D01*
Y1029546D02*
Y1030487D01*
X1123900Y1026405D02*
Y1028663D01*
Y1029568D02*
Y1030401D01*
X1124000Y1026463D02*
Y1028663D01*
Y1029589D02*
Y1030316D01*
X1124100Y1026530D02*
Y1028663D01*
Y1029611D02*
Y1030230D01*
X1124200Y1026596D02*
Y1028663D01*
Y1029632D02*
Y1029968D01*
X1124300Y1026663D02*
Y1028663D01*
Y1029654D02*
Y1029668D01*
X1125500Y1026050D02*
Y1030959D01*
X1125600Y1026050D02*
Y1030959D01*
X1125700Y1026050D02*
Y1030959D01*
X1125800Y1026050D02*
Y1030959D01*
X1125900Y1026050D02*
Y1030959D01*
X1126000Y1026050D02*
Y1030959D01*
X1126100Y1026050D02*
Y1030959D01*
X1126200Y1026050D02*
Y1030959D01*
X1126300Y1026050D02*
Y1030959D01*
X1126400Y1026050D02*
Y1026785D01*
Y1030224D02*
Y1030959D01*
X1126500Y1026050D02*
Y1026785D01*
Y1030224D02*
Y1030959D01*
X1126600Y1026050D02*
Y1026785D01*
Y1030224D02*
Y1030959D01*
X1126700Y1026050D02*
Y1026785D01*
Y1030224D02*
Y1030959D01*
X1126800Y1026050D02*
Y1026785D01*
Y1030224D02*
Y1030959D01*
X1126900Y1026050D02*
Y1026785D01*
Y1030224D02*
Y1030959D01*
X1127000Y1026050D02*
Y1026785D01*
Y1030224D02*
Y1030959D01*
X1127100Y1026050D02*
Y1026785D01*
Y1030224D02*
Y1030959D01*
X1127200Y1026050D02*
Y1026785D01*
Y1030224D02*
Y1030959D01*
X1127300Y1026050D02*
Y1026785D01*
Y1030224D02*
Y1030959D01*
X1127400Y1026050D02*
Y1026785D01*
Y1030224D02*
Y1030959D01*
X1127500Y1026050D02*
Y1026785D01*
Y1030211D02*
Y1030959D01*
X1127600Y1026050D02*
Y1026791D01*
Y1030191D02*
Y1030959D01*
X1127700Y1026050D02*
Y1026816D01*
Y1030171D02*
Y1030959D01*
X1127800Y1026050D02*
Y1026841D01*
Y1030149D02*
Y1030959D01*
X1127900Y1026059D02*
Y1026875D01*
Y1030107D02*
Y1030949D01*
X1128000Y1026076D02*
Y1026925D01*
Y1030064D02*
Y1030933D01*
X1128100Y1026093D02*
Y1026975D01*
Y1030021D02*
Y1030916D01*
X1128200Y1026109D02*
Y1027025D01*
Y1029978D02*
Y1030899D01*
X1128300Y1026143D02*
Y1027076D01*
Y1029932D02*
Y1030866D01*
X1128400Y1026193D02*
Y1027143D01*
Y1029832D02*
Y1030816D01*
X1128500Y1026243D02*
Y1027209D01*
Y1029732D02*
Y1030766D01*
X1128600Y1026293D02*
Y1027607D01*
Y1029397D02*
Y1030716D01*
X1128700Y1026354D02*
Y1027857D01*
Y1029097D02*
Y1030652D01*
X1128800Y1026429D02*
Y1030572D01*
X1128900Y1026504D02*
Y1030492D01*
X1129000Y1026636D02*
Y1030410D01*
X1129100Y1026786D02*
Y1030285D01*
X1129200Y1026937D02*
Y1030160D01*
X1129300Y1027112D02*
Y1029998D01*
X1129400Y1027287D02*
Y1029764D01*
X1129500Y1027623D02*
Y1029386D01*
X1129600Y1028386D02*
Y1028498D01*
X1130300Y1028212D02*
Y1028797D01*
X1130400Y1027480D02*
Y1029529D01*
X1130500Y1027277D02*
Y1029766D01*
X1130600Y1027077D02*
Y1029999D01*
X1130700Y1026950D02*
Y1030129D01*
X1130800Y1026825D02*
Y1030254D01*
X1130900Y1026705D02*
Y1030367D01*
X1131000Y1026605D02*
Y1030447D01*
X1131100Y1026505D02*
Y1030527D01*
X1131200Y1026405D02*
Y1027815D01*
Y1029270D02*
Y1030607D01*
X1131300Y1026347D02*
Y1027540D01*
Y1029516D02*
Y1030661D01*
X1131400Y1026297D02*
Y1027364D01*
Y1029691D02*
Y1030711D01*
X1131500Y1026247D02*
Y1027216D01*
Y1029862D02*
Y1030761D01*
X1131600Y1026197D02*
Y1027133D01*
Y1029930D02*
Y1030811D01*
X1131700Y1026174D02*
Y1027049D01*
Y1029996D02*
Y1030849D01*
X1131800Y1026157D02*
Y1026966D01*
Y1030063D02*
Y1030882D01*
X1131900Y1026141D02*
Y1026883D01*
Y1030130D02*
Y1030915D01*
X1132000Y1026124D02*
Y1026847D01*
Y1030170D02*
Y1030949D01*
X1132100Y1026109D02*
Y1026833D01*
Y1030199D02*
Y1030969D01*
X1132200Y1026095D02*
Y1026818D01*
Y1030227D02*
Y1030984D01*
X1132300Y1026080D02*
Y1026804D01*
Y1030256D02*
Y1030998D01*
X1132400Y1026066D02*
Y1026790D01*
Y1030284D02*
Y1031012D01*
X1132500Y1026052D02*
Y1026794D01*
Y1030284D02*
Y1031027D01*
X1132600Y1026059D02*
Y1026811D01*
Y1030267D02*
Y1031012D01*
X1132700Y1026068D02*
Y1026828D01*
Y1030251D02*
Y1030996D01*
X1132800Y1026077D02*
Y1026844D01*
Y1030234D02*
Y1030979D01*
X1132900Y1026086D02*
Y1026872D01*
Y1030210D02*
Y1030962D01*
X1133000Y1026095D02*
Y1026932D01*
Y1030170D02*
Y1030946D01*
X1133100Y1026104D02*
Y1026992D01*
Y1030130D02*
Y1030929D01*
X1133200Y1026113D02*
Y1027052D01*
Y1030090D02*
Y1030912D01*
X1133300Y1026145D02*
Y1027138D01*
Y1029991D02*
Y1030896D01*
X1133400Y1026207D02*
Y1027238D01*
Y1029857D02*
Y1030847D01*
X1133500Y1026270D02*
Y1027338D01*
Y1029674D02*
Y1030787D01*
X1133600Y1026332D02*
Y1027620D01*
Y1029470D02*
Y1030727D01*
X1133700Y1026395D02*
Y1027804D01*
Y1029492D02*
Y1030667D01*
X1133800Y1026458D02*
Y1027775D01*
Y1029513D02*
Y1030607D01*
X1133900Y1026558D02*
Y1027747D01*
Y1029534D02*
Y1030547D01*
X1134000Y1026658D02*
Y1027718D01*
Y1029556D02*
Y1030487D01*
X1134100Y1026758D02*
Y1027690D01*
Y1029577D02*
Y1030340D01*
X1134200Y1026858D02*
Y1027661D01*
Y1029599D02*
Y1030190D01*
X1134300Y1026995D02*
Y1027632D01*
Y1029620D02*
Y1030018D01*
X1134400Y1027245D02*
Y1027604D01*
Y1029642D02*
Y1029785D01*
X1134500Y1027496D02*
Y1027575D01*
X1135300Y1027513D02*
Y1027555D01*
X1135400Y1027180D02*
Y1027563D01*
X1135500Y1026895D02*
Y1027570D01*
Y1029615D02*
Y1029780D01*
X1135600Y1026762D02*
Y1027577D01*
Y1029215D02*
Y1030150D01*
X1135700Y1026628D02*
Y1027584D01*
Y1029034D02*
Y1030373D01*
X1135800Y1026495D02*
Y1027591D01*
Y1028894D02*
Y1030473D01*
X1135900Y1026376D02*
Y1027598D01*
Y1028754D02*
Y1030573D01*
X1136000Y1026320D02*
Y1027605D01*
Y1028648D02*
Y1030652D01*
X1136100Y1026265D02*
Y1027613D01*
Y1028582D02*
Y1030712D01*
X1136200Y1026209D02*
Y1027498D01*
Y1028515D02*
Y1030772D01*
X1136300Y1026154D02*
Y1027215D01*
Y1028448D02*
Y1030828D01*
X1136400Y1026098D02*
Y1027082D01*
Y1028398D02*
Y1029653D01*
Y1029860D02*
Y1030862D01*
X1136500Y1026048D02*
Y1026949D01*
Y1028368D02*
Y1029454D01*
Y1030059D02*
Y1030895D01*
X1136600Y1026039D02*
Y1026897D01*
Y1028338D02*
Y1029386D01*
Y1030119D02*
Y1030928D01*
X1136700Y1026030D02*
Y1026857D01*
Y1028308D02*
Y1029326D01*
Y1030169D02*
Y1030961D01*
X1136800Y1026021D02*
Y1026817D01*
Y1028278D02*
Y1029266D01*
Y1030219D02*
Y1030975D01*
X1136900Y1026011D02*
Y1026783D01*
Y1028248D02*
Y1029216D01*
Y1030238D02*
Y1030989D01*
X1137000Y1026002D02*
Y1026766D01*
Y1028218D02*
Y1029191D01*
Y1030254D02*
Y1031004D01*
X1137100Y1025993D02*
Y1026749D01*
Y1028189D02*
Y1029166D01*
Y1030271D02*
Y1031018D01*
X1137200Y1025984D02*
Y1026733D01*
Y1028160D02*
Y1029141D01*
Y1030288D02*
Y1031022D01*
X1137300Y1025988D02*
Y1026716D01*
Y1028132D02*
Y1029116D01*
Y1030282D02*
Y1031006D01*
X1137400Y1025999D02*
Y1026730D01*
Y1028103D02*
Y1029091D01*
Y1030262D02*
Y1030989D01*
X1137500Y1026010D02*
Y1026746D01*
Y1028074D02*
Y1029060D01*
Y1030242D02*
Y1030972D01*
X1137600Y1026021D02*
Y1026763D01*
Y1028048D02*
Y1029027D01*
Y1030222D02*
Y1030956D01*
X1137700Y1026032D02*
Y1026780D01*
Y1028023D02*
Y1028994D01*
Y1030189D02*
Y1030939D01*
X1137800Y1026043D02*
Y1026816D01*
Y1027998D02*
Y1028960D01*
Y1030156D02*
Y1030922D01*
X1137900Y1026062D02*
Y1026866D01*
Y1027952D02*
Y1028927D01*
Y1030049D02*
Y1030906D01*
X1138000Y1026091D02*
Y1026916D01*
Y1027902D02*
Y1028894D01*
Y1029915D02*
Y1030885D01*
X1138100Y1026119D02*
Y1026999D01*
Y1027852D02*
Y1028860D01*
Y1029650D02*
Y1030835D01*
X1138200Y1026148D02*
Y1027099D01*
Y1027802D02*
Y1028827D01*
Y1029607D02*
Y1030785D01*
X1138300Y1026176D02*
Y1027285D01*
Y1027559D02*
Y1028794D01*
Y1029614D02*
Y1030735D01*
X1138400Y1026219D02*
Y1028760D01*
Y1029621D02*
Y1030685D01*
X1138500Y1026269D02*
Y1028712D01*
Y1029628D02*
Y1030635D01*
X1138600Y1026319D02*
Y1028632D01*
Y1029636D02*
Y1030520D01*
X1138700Y1026369D02*
Y1028552D01*
Y1029643D02*
Y1030380D01*
X1138800Y1026449D02*
Y1028472D01*
Y1029650D02*
Y1030240D01*
X1138900Y1026549D02*
Y1028340D01*
Y1029657D02*
Y1030003D01*
X1139000Y1026649D02*
Y1028207D01*
X1139100Y1026941D02*
Y1027961D01*
X1139200Y1027426D02*
Y1027496D01*
X1139600Y1024659D02*
Y1025185D01*
X1139700Y1024659D02*
Y1025185D01*
X1139800Y1024659D02*
Y1025185D01*
X1139900Y1024659D02*
Y1025185D01*
X1140000Y1024659D02*
Y1025185D01*
X1140100Y1024659D02*
Y1025185D01*
X1140200Y1024659D02*
Y1025185D01*
X1140300Y1024659D02*
Y1025185D01*
X1140400Y1024659D02*
Y1025185D01*
X1140500Y1024659D02*
Y1025185D01*
X1140600Y1024659D02*
Y1025185D01*
X1140700Y1024659D02*
Y1025185D01*
X1140800Y1024659D02*
Y1025185D01*
X1140900Y1024659D02*
Y1025185D01*
X1141000Y1024659D02*
Y1025185D01*
X1141100Y1024659D02*
Y1025185D01*
X1141200Y1024659D02*
Y1025185D01*
X1141300Y1024659D02*
Y1025185D01*
X1141400Y1024659D02*
Y1025185D01*
X1141500Y1024659D02*
Y1025185D01*
X1141600Y1024659D02*
Y1025185D01*
X1141700Y1024659D02*
Y1025185D01*
X1141800Y1024659D02*
Y1025185D01*
X1141900Y1024659D02*
Y1025185D01*
X1142000Y1024659D02*
Y1025185D01*
X1142100Y1024659D02*
Y1025185D01*
X1142200Y1024659D02*
Y1025185D01*
X1142300Y1024659D02*
Y1025185D01*
X1142400Y1024659D02*
Y1025185D01*
X1142500Y1024659D02*
Y1025185D01*
X1142600Y1024659D02*
Y1025185D01*
X1142700Y1024659D02*
Y1025185D01*
X1142800Y1024659D02*
Y1025185D01*
X1142900Y1024659D02*
Y1025185D01*
X1143000Y1024659D02*
Y1025185D01*
X1143100Y1024659D02*
Y1025185D01*
X1143200Y1024659D02*
Y1025185D01*
X1143300Y1024659D02*
Y1025185D01*
X1143400Y1024659D02*
Y1025185D01*
X1143500Y1024659D02*
Y1025185D01*
X1144200Y1028910D02*
Y1029752D01*
X1144300Y1028960D02*
Y1029785D01*
X1144400Y1029010D02*
Y1029818D01*
X1144500Y1029060D02*
Y1029853D01*
X1144600Y1029110D02*
Y1029936D01*
X1144700Y1029160D02*
Y1030019D01*
X1144800Y1029239D02*
Y1030102D01*
X1144900Y1029326D02*
Y1030186D01*
X1145000Y1029414D02*
Y1030281D01*
X1145100Y1029501D02*
Y1030381D01*
X1145200Y1029589D02*
Y1030481D01*
X1145300Y1029667D02*
Y1030592D01*
X1145400Y1026050D02*
Y1030742D01*
X1145500Y1026050D02*
Y1030892D01*
X1145600Y1026050D02*
Y1030959D01*
X1145700Y1026050D02*
Y1030959D01*
X1145800Y1026050D02*
Y1030959D01*
X1145900Y1026050D02*
Y1030959D01*
X1146000Y1026050D02*
Y1030959D01*
X1146100Y1026050D02*
Y1030959D01*
X1146200Y1026050D02*
Y1030959D01*
X1148000Y1026050D02*
Y1026924D01*
X1148100Y1026050D02*
Y1026924D01*
X1148200Y1026050D02*
Y1026924D01*
X1148300Y1026050D02*
Y1026924D01*
X1148400Y1026050D02*
Y1026924D01*
X1148500Y1026050D02*
Y1026924D01*
X1148600Y1026050D02*
Y1026924D01*
X1148700Y1026050D02*
Y1026924D01*
X1148800Y1026050D02*
Y1026924D01*
X1149700Y1027702D02*
Y1029237D01*
X1149800Y1027302D02*
Y1029637D01*
X1149900Y1026993D02*
Y1029946D01*
X1150000Y1026765D02*
Y1030193D01*
X1150100Y1026599D02*
Y1030393D01*
X1150200Y1026449D02*
Y1030526D01*
X1150300Y1026315D02*
Y1030597D01*
X1150400Y1026223D02*
Y1030668D01*
X1150500Y1026173D02*
Y1030740D01*
X1150600Y1026123D02*
Y1027409D01*
Y1029397D02*
Y1030811D01*
X1150700Y1026082D02*
Y1027140D01*
Y1029741D02*
Y1030839D01*
X1150800Y1026042D02*
Y1026960D01*
Y1029962D02*
Y1030859D01*
X1150900Y1026002D02*
Y1026810D01*
Y1030062D02*
Y1030879D01*
X1151000Y1025980D02*
Y1026772D01*
Y1030111D02*
Y1030899D01*
X1151100Y1025980D02*
Y1026752D01*
Y1030151D02*
Y1030919D01*
X1151200Y1025980D02*
Y1026732D01*
Y1030191D02*
Y1030939D01*
X1151300Y1025984D02*
Y1026716D01*
Y1030223D02*
Y1030956D01*
X1151400Y1026006D02*
Y1026741D01*
Y1030175D02*
Y1030933D01*
X1151500Y1026028D02*
Y1026766D01*
Y1030125D02*
Y1030911D01*
X1151600Y1026050D02*
Y1026795D01*
Y1030074D02*
Y1030889D01*
X1151700Y1026072D02*
Y1026940D01*
Y1029975D02*
Y1030867D01*
X1151800Y1026095D02*
Y1027159D01*
Y1029825D02*
Y1030844D01*
X1151900Y1026119D02*
Y1027496D01*
Y1029608D02*
Y1030821D01*
X1152000Y1026190D02*
Y1030749D01*
X1152100Y1026261D02*
Y1030678D01*
X1152200Y1026333D02*
Y1030606D01*
X1152300Y1026404D02*
Y1030535D01*
X1152400Y1026507D02*
Y1030419D01*
X1152500Y1026674D02*
Y1030219D01*
X1152600Y1026902D02*
Y1029985D01*
X1152700Y1027252D02*
Y1029685D01*
X1152800Y1027650D02*
Y1029289D01*
*
G04 PC Custom Flashes*
G04 Layer Name GDCS_test.pcb - flashes*
%LPD*%
*
*
G04 PC Circuitry*
G04 Layer Name GDCS_test.pcb - circuitry*
%LPD*%
*
G54D10*
X1029890Y1142398D02*
X1031178Y1141109D01*
X1031336Y1145128D02*
X1032252Y1144211D01*
X1044457Y1144534D02*
X1046819Y1142172D01*
X1029890Y1163277D02*
X1030485Y1162681D01*
X1030643Y1166700D02*
X1032252Y1165090D01*
X1044457Y1165413D02*
X1046819Y1163051D01*
X1032252Y1165694D02*
X1029890Y1163331D01*
X1045786Y1166700D02*
X1044457Y1165371D01*
X1046819Y1163557D02*
X1045943Y1162681D01*
X1032252Y1144814D02*
X1029890Y1142452D01*
X1045093Y1145128D02*
X1044457Y1144492D01*
X1046819Y1142678D02*
X1045250Y1141109D01*
X1032252Y1145128D02*
Y1141109D01*
X1032055Y1145046D02*
Y1141306D01*
X1030087D02*
Y1147015D01*
X1029890Y1141109D02*
Y1145128D01*
X1032055Y1145046D02*
X1033433Y1143668D01*
X1032252Y1145128D02*
X1029890D01*
X1032055Y1141306D02*
X1030087D01*
X1032252Y1141109D02*
X1029890D01*
X1046819Y1145128D02*
Y1141109D01*
X1046622Y1147015D02*
Y1141306D01*
X1044654D02*
Y1145046D01*
X1044457Y1141109D02*
Y1145128D01*
X1043276Y1143668D02*
X1044654Y1145046D01*
X1046622Y1147015D02*
X1048591Y1148983D01*
X1044457Y1145128D02*
X1046819D01*
X1046622Y1141306D02*
X1044654D01*
X1046819Y1141109D02*
X1044457D01*
X1033433Y1143668D02*
X1043276D01*
X1028118Y1148983D02*
X1030087Y1147015D01*
X1032055Y1166503D02*
Y1162763D01*
X1030087Y1160794D02*
Y1166503D01*
X1033433Y1164141D02*
X1032055Y1162763D01*
X1030087Y1166503D02*
X1032055D01*
X1032252Y1162681D02*
X1029890D01*
X1046622Y1166503D02*
Y1160794D01*
X1044654Y1162763D02*
Y1166503D01*
X1048591Y1158826D02*
X1046622Y1160794D01*
X1044654Y1162763D02*
X1043276Y1164141D01*
X1044654Y1166503D02*
X1046622D01*
X1044457Y1162681D02*
X1046819D01*
X1043276Y1164141D02*
X1033433D01*
X1029890Y1166700D02*
X1032252D01*
X1044457D02*
X1046819D01*
Y1162681*
X1044457D02*
Y1166700D01*
X1032252D02*
Y1162681D01*
X1029890D02*
Y1166700D01*
X1030087Y1160794D02*
X1028118Y1158826D01*
X1048591Y1148983D02*
Y1158826D01*
X1028118D02*
Y1148983D01*
X1043275Y1153904D02*
G75*
G03X1043275I-4921J0D01*
G01X1047213D02*
G03X1047213I-8859J0D01*
G01X1183610Y1042602D02*
X1182322Y1043891D01*
X1182164Y1039872D02*
X1181248Y1040789D01*
X1169043Y1040466D02*
X1166681Y1042828D01*
X1183610Y1021723D02*
X1183015Y1022319D01*
X1182857Y1018300D02*
X1181248Y1019910D01*
X1169043Y1019587D02*
X1166681Y1021949D01*
X1181248Y1019306D02*
X1183610Y1021669D01*
X1167714Y1018300D02*
X1169043Y1019629D01*
X1166681Y1021443D02*
X1167557Y1022319D01*
X1181248Y1040186D02*
X1183610Y1042548D01*
X1168407Y1039872D02*
X1169043Y1040508D01*
X1166681Y1042322D02*
X1168250Y1043891D01*
X1181248Y1039872D02*
Y1043891D01*
X1181445Y1039954D02*
Y1043694D01*
X1183413D02*
Y1037985D01*
X1183610Y1043891D02*
Y1039872D01*
X1181445Y1039954D02*
X1180067Y1041332D01*
X1181248Y1039872D02*
X1183610D01*
X1181445Y1043694D02*
X1183413D01*
X1181248Y1043891D02*
X1183610D01*
X1166681Y1039872D02*
Y1043891D01*
X1166878Y1037985D02*
Y1043694D01*
X1168846D02*
Y1039954D01*
X1169043Y1043891D02*
Y1039872D01*
X1170224Y1041332D02*
X1168846Y1039954D01*
X1166878Y1037985D02*
X1164909Y1036017D01*
X1169043Y1039872D02*
X1166681D01*
X1166878Y1043694D02*
X1168846D01*
X1166681Y1043891D02*
X1169043D01*
X1180067Y1041332D02*
X1170224D01*
X1185382Y1036017D02*
X1183413Y1037985D01*
X1181445Y1018497D02*
Y1022237D01*
X1183413Y1024206D02*
Y1018497D01*
X1180067Y1020859D02*
X1181445Y1022237D01*
X1183413Y1018497D02*
X1181445D01*
X1181248Y1022319D02*
X1183610D01*
X1166878Y1018497D02*
Y1024206D01*
X1168846Y1022237D02*
Y1018497D01*
X1164909Y1026174D02*
X1166878Y1024206D01*
X1168846Y1022237D02*
X1170224Y1020859D01*
X1168846Y1018497D02*
X1166878D01*
X1169043Y1022319D02*
X1166681D01*
X1170224Y1020859D02*
X1180067D01*
X1183610Y1018300D02*
X1181248D01*
X1169043D02*
X1166681D01*
Y1022319*
X1169043D02*
Y1018300D01*
X1181248D02*
Y1022319D01*
X1183610D02*
Y1018300D01*
X1183413Y1024206D02*
X1185382Y1026174D01*
X1164909Y1036017D02*
Y1026174D01*
X1185382D02*
Y1036017D01*
X1180067Y1031096D02*
G03X1180067I-4921J0D01*
G01X1184004D02*
G03X1184004I-8858J0D01*
G54D27*
G01X1055000Y1123700D02*
Y1129500D01*
X1048000*
Y1123700*
X1055000Y1121300D02*
Y1115500D01*
X1048000*
Y1121300*
X1203000Y1094200D02*
Y1100000D01*
X1196000*
Y1094200*
X1203000Y1091800D02*
Y1086000D01*
X1196000*
Y1091800*
X1176000Y1116300D02*
Y1110500D01*
X1183000*
Y1116300*
X1176000Y1118700D02*
Y1124500D01*
X1183000*
Y1118700*
X1187800Y1060000D02*
X1182000D01*
Y1053000*
X1187800*
X1190200Y1060000D02*
X1196000D01*
Y1053000*
X1190200*
X1107500Y1047700D02*
Y1053500D01*
X1100500*
Y1047700*
X1107500Y1045300D02*
Y1039500D01*
X1100500*
Y1045300*
X1115500Y1047700D02*
Y1053500D01*
X1108500*
Y1047700*
X1115500Y1045300D02*
Y1039500D01*
X1108500*
Y1045300*
X1016500Y1100800D02*
Y1095000D01*
X1023500*
Y1100800*
X1016500Y1103200D02*
Y1109000D01*
X1023500*
Y1103200*
X1119000Y1087700D02*
Y1093500D01*
X1112000*
Y1087700*
X1119000Y1085300D02*
Y1079500D01*
X1112000*
Y1085300*
X1128500Y1087700D02*
Y1093500D01*
X1121500*
Y1087700*
X1128500Y1085300D02*
Y1079500D01*
X1121500*
Y1085300*
X1073500Y1100300D02*
Y1094500D01*
X1080500*
Y1100300*
X1073500Y1102700D02*
Y1108500D01*
X1080500*
Y1102700*
X1065000Y1099800D02*
Y1094000D01*
X1072000*
Y1099800*
X1065000Y1102200D02*
Y1108000D01*
X1072000*
Y1102200*
X1031500Y1077800D02*
Y1072000D01*
X1038500*
Y1077800*
X1031500Y1080200D02*
Y1086000D01*
X1038500*
Y1080200*
X1040000Y1078300D02*
Y1072500D01*
X1047000*
Y1078300*
X1040000Y1080700D02*
Y1086500D01*
X1047000*
Y1080700*
X1140000Y1125800D02*
Y1120000D01*
X1147000*
Y1125800*
X1140000Y1128200D02*
Y1134000D01*
X1147000*
Y1128200*
X1109800Y1113000D02*
X1104000D01*
Y1106000*
X1109800*
X1112200Y1113000D02*
X1118000D01*
Y1106000*
X1112200*
X1109800Y1132500D02*
X1104000D01*
Y1125500*
X1109800*
X1112200Y1132500D02*
X1118000D01*
Y1125500*
X1112200*
X1064300Y1116000D02*
X1058500D01*
Y1109000*
X1064300*
X1066700Y1116000D02*
X1072500D01*
Y1109000*
X1066700*
X1143700Y1168000D02*
X1149500D01*
Y1175000*
X1143700*
X1141300Y1168000D02*
X1135500D01*
Y1175000*
X1141300*
X1144000Y1154300D02*
Y1148500D01*
X1151000*
Y1154300*
X1144000Y1156700D02*
Y1162500D01*
X1151000*
Y1156700*
X1093500Y1122300D02*
Y1116500D01*
X1100500*
Y1122300*
X1093500Y1124700D02*
Y1130500D01*
X1100500*
Y1124700*
X1198300Y1046000D02*
X1192500D01*
Y1039000*
X1198300*
X1200700Y1046000D02*
X1206500D01*
Y1039000*
X1200700*
X1077200Y1033500D02*
X1083000D01*
Y1040500*
X1077200*
X1074800Y1033500D02*
X1069000D01*
Y1040500*
X1074800*
X1190200Y1062500D02*
X1196000D01*
Y1069500*
X1190200*
X1187800Y1062500D02*
X1182000D01*
Y1069500*
X1187800*
X1190300Y1124500D02*
X1184500D01*
Y1117500*
X1190300*
X1192700Y1124500D02*
X1198500D01*
Y1117500*
X1192700*
X1172300Y1085000D02*
X1166500D01*
Y1078000*
X1172300*
X1174700Y1085000D02*
X1180500D01*
Y1078000*
X1174700*
X1018500Y1046500D02*
Y1044000D01*
X1023500*
X1018500Y1052500D02*
Y1055000D01*
X1023500*
X1027500Y1049000D02*
Y1050000D01*
X1023500Y1120200D02*
Y1126000D01*
X1016500*
Y1120200*
X1023500Y1117800D02*
Y1112000D01*
X1016500*
Y1117800*
X1185800Y1106500D02*
X1180000D01*
Y1099500*
X1185800*
X1188200Y1106500D02*
X1194000D01*
Y1099500*
X1188200*
X1171800Y1074000D02*
X1166000D01*
Y1067000*
X1171800*
X1174200Y1074000D02*
X1180000D01*
Y1067000*
X1174200*
X1039700Y1062500D02*
X1045500D01*
Y1069500*
X1039700*
X1037300Y1062500D02*
X1031500D01*
Y1069500*
X1037300*
X1056500Y1080700D02*
Y1086500D01*
X1049500*
Y1080700*
X1056500Y1078300D02*
Y1072500D01*
X1049500*
Y1078300*
X1109800Y1102000D02*
X1104000D01*
Y1095000*
X1109800*
X1112200Y1102000D02*
X1118000D01*
Y1095000*
X1112200*
X1128300Y1132500D02*
X1122500D01*
Y1125500*
X1128300*
X1130700Y1132500D02*
X1136500D01*
Y1125500*
X1130700*
X1109800Y1122500D02*
X1104000D01*
Y1115500*
X1109800*
X1112200Y1122500D02*
X1118000D01*
Y1115500*
X1112200*
X1170800Y1185500D02*
X1165000D01*
Y1178500*
X1170800*
X1173200Y1185500D02*
X1179000D01*
Y1178500*
X1173200*
X1142000Y1156700D02*
Y1162500D01*
X1135000*
Y1156700*
X1142000Y1154300D02*
Y1148500D01*
X1135000*
Y1154300*
X1153000D02*
Y1148500D01*
X1160000*
Y1154300*
X1153000Y1156700D02*
Y1162500D01*
X1160000*
Y1156700*
X1048000Y1105300D02*
Y1099500D01*
X1055000*
Y1105300*
X1048000Y1107700D02*
Y1113500D01*
X1055000*
Y1107700*
X1138700Y1190500D02*
X1144500D01*
Y1197500*
X1138700*
X1136300Y1190500D02*
X1130500D01*
Y1197500*
X1136300*
X1172700Y1187500D02*
X1178500D01*
Y1194500*
X1172700*
X1170300Y1187500D02*
X1164500D01*
Y1194500*
X1170300*
X1127800Y1188500D02*
X1122000D01*
Y1181500*
X1127800*
X1130200Y1188500D02*
X1136000D01*
Y1181500*
X1130200*
X1143300Y1188500D02*
X1137500D01*
Y1181500*
X1143300*
X1145700Y1188500D02*
X1151500D01*
Y1181500*
X1145700*
X1155000Y1185800D02*
Y1180000D01*
X1162000*
Y1185800*
X1155000Y1188200D02*
Y1194000D01*
X1162000*
Y1188200*
X1066700Y1119000D02*
X1072500D01*
Y1126000*
X1066700*
X1064300Y1119000D02*
X1058500D01*
Y1126000*
X1064300*
X1200700Y1027000D02*
X1206500D01*
Y1034000*
X1200700*
X1198300Y1027000D02*
X1192500D01*
Y1034000*
X1198300*
X1074800Y1048500D02*
X1069000D01*
Y1041500*
X1074800*
X1077200Y1048500D02*
X1083000D01*
Y1041500*
X1077200*
X1039700Y1044500D02*
X1045500D01*
Y1051500*
X1039700*
X1037300Y1044500D02*
X1031500D01*
Y1051500*
X1037300*
X1055500Y1059700D02*
Y1065500D01*
X1048500*
Y1059700*
X1055500Y1057300D02*
Y1051500D01*
X1048500*
Y1057300*
X1036800Y1061000D02*
X1031000D01*
Y1054000*
X1036800*
X1039200Y1061000D02*
X1045000D01*
Y1054000*
X1039200*
X1171200Y1100000D02*
X1177000D01*
Y1107000*
X1171200*
X1168800Y1100000D02*
X1163000D01*
Y1107000*
X1168800*
X1193000Y1092500D02*
Y1088500D01*
X1182000*
Y1092500*
X1193000*
Y1091500D02*
G03X1193000I-1000J0D01*
G01X1177000Y1157500D02*
X1190000D01*
Y1132500*
X1177000*
Y1157500*
X1139200Y1137500D02*
X1145000D01*
Y1144500*
X1139200*
X1136800Y1137500D02*
X1131000D01*
Y1144500*
X1136800*
X1154700Y1137500D02*
X1160500D01*
Y1144500*
X1154700*
X1152300Y1137500D02*
X1146500D01*
Y1144500*
X1152300*
X1140000Y1109300D02*
Y1103500D01*
X1147000*
Y1109300*
X1140000Y1111700D02*
Y1117500D01*
X1147000*
Y1111700*
X1155000Y1055300D02*
Y1049500D01*
X1162000*
Y1055300*
X1155000Y1057700D02*
Y1063500D01*
X1162000*
Y1057700*
X1130200Y1103500D02*
X1136000D01*
Y1110500*
X1130200*
X1127800Y1103500D02*
X1122000D01*
Y1110500*
X1127800*
X1011000Y1142000D02*
Y1134000D01*
X1020000*
Y1142000*
X1011000Y1145000D02*
Y1153000D01*
X1020000*
Y1145000*
X1068000Y1147500D02*
Y1139500D01*
X1077000*
Y1147500*
X1068000Y1150500D02*
Y1158500D01*
X1077000*
Y1150500*
X1063200Y1160500D02*
X1069000D01*
Y1167500*
X1063200*
X1060800Y1160500D02*
X1055000D01*
Y1167500*
X1060800*
X1012000Y1162300D02*
Y1156500D01*
X1019000*
Y1162300*
X1012000Y1164700D02*
Y1170500D01*
X1019000*
Y1164700*
X1007500Y1205000D02*
X1208500D01*
Y1010000*
X1007500*
Y1205000*
G54D34*
X1016000Y1176000D02*
X1120000D01*
Y1200000*
X1016000*
Y1176000*
X1164500Y1095000D02*
Y1071000D01*
X1152500*
Y1095000*
X1164500*
X1048000Y1026000D02*
Y1050000D01*
X1060000*
Y1026000*
X1048000*
X1193500Y1153500D02*
Y1177500D01*
X1205500*
Y1153500*
X1193500*
X1076000Y1013500D02*
X1046000D01*
Y1021500*
X1076000*
Y1013500*
X1032063Y1110374D02*
Y1114311D01*
X1039937*
Y1110374*
X1032063*
Y1116280D02*
X1039937D01*
X1032063Y1108406D02*
X1039937D01*
X1036000Y1116280D02*
Y1119823D01*
Y1108406D02*
Y1104862D01*
X1028126Y1108406D02*
Y1096988D01*
G03X1043874I7874J358*
G01Y1127697*
Y1127704D02*
G03X1028126Y1127690I-7874J-372D01*
G01Y1127697D02*
Y1108406D01*
X1026157D02*
Y1096988D01*
G03X1045843I9843J447*
G01Y1127697*
X1045842Y1127705D02*
G03X1026157Y1127688I-9842J-464D01*
G01Y1127697D02*
Y1108406D01*
X1126250Y1058250D02*
X1147000D01*
Y1037500*
X1126250*
Y1058250*
X1128809Y1056250D02*
G03X1128809I-559J0D01*
G01X1081414Y1081500D02*
G03X1081414I-1414J0D01*
G01X1077250Y1084250D02*
X1102250D01*
Y1059250*
X1077250*
Y1084250*
X1126854Y1122750D02*
G03X1126854I-354J0D01*
G01X1043000Y1011500D02*
X1009000D01*
Y1023500*
X1043000*
Y1011500*
G54D35*
X1129500Y1156000D02*
X1129500D01*
G03Y1151000I0J-2500*
G01X1129500*
Y1163500D02*
X1089500D01*
Y1143500*
X1129500*
Y1163500*
G54D36*
X1173902Y1121050D02*
G03X1173902I-12402J0D01*
G01X1149500Y1121100D02*
X1173750D01*
X1149250Y1120100D02*
X1164500D01*
X1149500Y1119100D02*
X1159000D01*
X1149250Y1119600D02*
X1159750D01*
X1149500Y1118100D02*
X1158250D01*
X1149500Y1118600D02*
X1158500D01*
X1149750Y1117100D02*
X1157400D01*
X1149750Y1117600D02*
X1158000D01*
X1150000Y1116600D02*
X1157500D01*
X1150500Y1115600D02*
X1157500D01*
X1150250Y1116100D02*
X1157600D01*
X1150750Y1115100D02*
X1157500D01*
X1151000Y1114600D02*
X1157750D01*
X1153250Y1112100D02*
X1170000D01*
X1163600Y1120600D02*
X1173500D01*
X1166000Y1120100D02*
X1173500D01*
X1163500Y1119600D02*
X1173500D01*
X1164750Y1118600D02*
X1173250D01*
X1164250Y1119100D02*
X1173500D01*
X1165250Y1117600D02*
X1173250D01*
X1165000Y1118100D02*
X1173250D01*
X1165487Y1116600D02*
X1173000D01*
X1165600Y1117100D02*
X1173000D01*
X1165500Y1116100D02*
X1172500D01*
X1165500Y1115600D02*
X1172250D01*
X1165500Y1115100D02*
X1172000D01*
X1166000Y1113600D02*
X1167000D01*
X1152250Y1113100D02*
X1158750D01*
X1151750Y1113600D02*
X1158250D01*
X1151500Y1114100D02*
X1158000D01*
X1149250Y1120600D02*
X1163500D01*
X1164500Y1120100D02*
X1167000D01*
X1164250Y1113100D02*
X1170500D01*
X1164500Y1113600D02*
X1171000D01*
X1165500Y1114600D02*
X1171750D01*
X1165250Y1114100D02*
X1171500D01*
X1153750Y1111600D02*
X1169250D01*
X1155250Y1110600D02*
X1168000D01*
X1156500D02*
X1168000D01*
X1156000Y1110100D02*
X1167250D01*
X1157000Y1109600D02*
X1166000D01*
X1158500Y1109100D02*
X1164750D01*
X1154500Y1111100D02*
X1168750D01*
X1165389Y1116000D02*
G03X1165389I-3889J0D01*
G01X1163500Y1112600D02*
X1170250D01*
X1152750D02*
X1159250D01*
X1205402Y1190950D02*
G03X1205402I-12402J0D01*
G01X1205000Y1190900D02*
X1180750D01*
X1205250Y1191900D02*
X1190000D01*
X1205000Y1192900D02*
X1195500D01*
X1205250Y1192400D02*
X1194750D01*
X1205000Y1193900D02*
X1196250D01*
X1205000Y1193400D02*
X1196000D01*
X1204750Y1194900D02*
X1197100D01*
X1204750Y1194400D02*
X1196500D01*
X1204500Y1195400D02*
X1197000D01*
X1204000Y1196400D02*
X1197000D01*
X1204250Y1195900D02*
X1196900D01*
X1203750Y1196900D02*
X1197000D01*
X1203500Y1197400D02*
X1196750D01*
X1201250Y1199900D02*
X1184500D01*
X1190900Y1191400D02*
X1181000D01*
X1188500Y1191900D02*
X1181000D01*
X1191000Y1192400D02*
X1181000D01*
X1189750Y1193400D02*
X1181250D01*
X1190250Y1192900D02*
X1181000D01*
X1189250Y1194400D02*
X1181250D01*
X1189500Y1193900D02*
X1181250D01*
X1189013Y1195400D02*
X1181500D01*
X1188900Y1194900D02*
X1181500D01*
X1189000Y1195900D02*
X1182000D01*
X1189000Y1196400D02*
X1182250D01*
X1189000Y1196900D02*
X1182500D01*
X1188500Y1198400D02*
X1187500D01*
X1202250Y1198900D02*
X1195750D01*
X1202750Y1198400D02*
X1196250D01*
X1203000Y1197900D02*
X1196500D01*
X1205250Y1191400D02*
X1191000D01*
X1190000Y1191900D02*
X1187500D01*
X1190250Y1198900D02*
X1184000D01*
X1190000Y1198400D02*
X1183500D01*
X1189000Y1197400D02*
X1182750D01*
X1189250Y1197900D02*
X1183000D01*
X1200750Y1200400D02*
X1185250D01*
X1199250Y1201400D02*
X1186500D01*
X1198000D02*
X1186500D01*
X1198500Y1201900D02*
X1187250D01*
X1197500Y1202400D02*
X1188500D01*
X1196000Y1202900D02*
X1189750D01*
X1200000Y1200900D02*
X1185750D01*
X1196889Y1196000D02*
G03X1196889I-3889J0D01*
G01X1191000Y1199400D02*
X1184250D01*
X1201750D02*
X1195250D01*
X1133250Y1118500D02*
X1125750D01*
Y1123500*
X1133250*
Y1118500*
G54D37*
X1051161Y1132938D02*
X1051070Y1133188D01*
X1051070D02*
X1050888Y1133438D01*
X1050888D02*
X1050706Y1133563D01*
X1050706D02*
X1050342D01*
X1050342D02*
X1050161Y1133438D01*
X1050161D02*
X1049979Y1133188D01*
X1049979D02*
X1049888Y1132938D01*
X1049888D02*
X1049797Y1132563D01*
X1049797D02*
Y1131937D01*
X1049797D02*
X1049888Y1131562D01*
X1049888D02*
X1049979Y1131312D01*
X1049979D02*
X1050161Y1131062D01*
X1050161D02*
X1050342Y1130937D01*
X1050342D02*
X1050706D01*
X1050706D02*
X1050888Y1131062D01*
X1050888D02*
X1051070Y1131312D01*
X1051070D02*
X1051161Y1131562D01*
X1051979Y1133063D02*
X1052161Y1133188D01*
X1052161D02*
X1052433Y1133563D01*
X1052433D02*
Y1130937D01*
X1205875Y1094023D02*
X1206125Y1094114D01*
X1206375Y1094295*
X1206500Y1094477*
Y1094841*
X1206375Y1095023*
X1206125Y1095205*
X1205875Y1095295*
X1205500Y1095386*
X1204875*
X1204500Y1095295*
X1204250Y1095205*
X1204000Y1095023*
X1203875Y1094841*
Y1094477*
X1204000Y1094295*
X1204250Y1094114*
X1204500Y1094023*
X1206000Y1093205D02*
X1206125Y1093023D01*
X1206500Y1092750*
X1203875*
X1206000Y1091932D02*
X1206125Y1091750D01*
X1206500Y1091477*
X1203875*
X1178585Y1127937D02*
X1178494Y1128187D01*
X1178494D02*
X1178312Y1128437D01*
X1178312D02*
X1178131Y1128562D01*
X1178131D02*
X1177767D01*
X1177767D02*
X1177585Y1128437D01*
X1177585D02*
X1177403Y1128187D01*
X1177403D02*
X1177312Y1127937D01*
X1177312D02*
X1177222Y1127562D01*
X1177222D02*
Y1126937D01*
X1177312Y1126562*
X1177312D02*
X1177403Y1126312D01*
X1177585Y1126062*
X1177767Y1125937*
X1178131*
X1178312Y1126062*
X1178312D02*
X1178494Y1126312D01*
X1178585Y1126562*
X1179403Y1128062D02*
X1179585Y1128187D01*
X1179585D02*
X1179858Y1128562D01*
X1179858D02*
Y1125937D01*
X1181858Y1128562D02*
X1180949D01*
X1180949D02*
X1180858Y1127437D01*
X1180949Y1127562*
X1180949D02*
X1181222Y1127687D01*
X1181222D02*
X1181494D01*
X1181494D02*
X1181767Y1127562D01*
X1181767D02*
X1181949Y1127312D01*
X1182040Y1126937*
X1181949Y1126687*
X1181858Y1126312*
X1181676Y1126062*
X1181403Y1125937*
X1181131*
X1180858Y1126062*
X1180767Y1126187*
X1180676Y1126437*
X1198568Y1057375D02*
X1198477Y1057625D01*
X1198295Y1057875*
X1198114Y1058000*
X1197750*
X1197568Y1057875*
X1197386Y1057625*
X1197295Y1057375*
X1197205Y1057000*
Y1056375*
X1197295Y1056000*
X1197386Y1055750*
X1197568Y1055500*
X1197750Y1055375*
X1198114*
X1198295Y1055500*
X1198477Y1055750*
X1198568Y1056000*
X1199386Y1057500D02*
X1199568Y1057625D01*
X1199841Y1058000*
Y1055375*
X1201932Y1058000D02*
X1201023Y1055375D01*
X1200659Y1058000D02*
X1201932D01*
X1103318Y1056625D02*
X1103227Y1056875D01*
X1103045Y1057125*
X1102864Y1057250*
X1102500*
X1102318Y1057125*
X1102136Y1056875*
X1102045Y1056625*
X1101955Y1056250*
Y1055625*
X1102045Y1055250*
X1102136Y1055000*
X1102318Y1054750*
X1102500Y1054625*
X1102864*
X1103045Y1054750*
X1103227Y1055000*
X1103318Y1055250*
X1104136Y1056750D02*
X1104318Y1056875D01*
X1104591Y1057250*
Y1054625*
X1105864Y1057250D02*
X1105591Y1057125D01*
X1105500Y1056875*
Y1056625*
X1105591Y1056375*
X1105773Y1056250*
X1106136Y1056125*
X1106409Y1056000*
X1106591Y1055750*
X1106682Y1055500*
Y1055125*
X1106591Y1054875*
X1106500Y1054750*
X1106227Y1054625*
X1105864*
X1105591Y1054750*
X1105500Y1054875*
X1105409Y1055125*
Y1055500*
X1105500Y1055750*
X1105682Y1056000*
X1105955Y1056125*
X1106318Y1056250*
X1106500Y1056375*
X1106591Y1056625*
Y1056875*
X1106500Y1057125*
X1106227Y1057250*
X1105864*
X1110864Y1056625D02*
X1110773Y1056875D01*
X1110591Y1057125*
X1110409Y1057250*
X1110045*
X1109864Y1057125*
X1109682Y1056875*
X1109591Y1056625*
X1109500Y1056250*
Y1055625*
X1109591Y1055250*
X1109682Y1055000*
X1109864Y1054750*
X1110045Y1054625*
X1110409*
X1110591Y1054750*
X1110773Y1055000*
X1110864Y1055250*
X1111682Y1056750D02*
X1111864Y1056875D01*
X1112136Y1057250*
Y1054625*
X1114136Y1056375D02*
X1114045Y1056000D01*
X1113864Y1055750*
X1113591Y1055625*
X1113500*
X1113227Y1055750*
X1113045Y1056000*
X1112955Y1056375*
Y1056500*
X1113045Y1056875*
X1113227Y1057125*
X1113500Y1057250*
X1113591*
X1113864Y1057125*
X1114045Y1056875*
X1114136Y1056375*
Y1055750*
X1114045Y1055125*
X1113864Y1054750*
X1113591Y1054625*
X1113409*
X1113136Y1054750*
X1113045Y1055000*
X1019158Y1090437D02*
X1019067Y1090687D01*
X1019067D02*
X1018885Y1090937D01*
X1018885D02*
X1018703Y1091062D01*
X1018703D02*
X1018339D01*
X1018339D02*
X1018158Y1090937D01*
X1018158D02*
X1017976Y1090687D01*
X1017976D02*
X1017885Y1090437D01*
X1017885D02*
X1017794Y1090062D01*
X1017794D02*
Y1089437D01*
X1017885Y1089062*
X1017976Y1088812*
X1018158Y1088562*
X1018339Y1088437*
X1018703*
X1018885Y1088562*
X1019067Y1088812*
X1019158Y1089062*
X1020067Y1090437D02*
Y1090562D01*
X1020067D02*
X1020158Y1090812D01*
X1020158D02*
X1020249Y1090937D01*
X1020249D02*
X1020430Y1091062D01*
X1020430D02*
X1020794D01*
X1020794D02*
X1020976Y1090937D01*
X1020976D02*
X1021067Y1090812D01*
X1021067D02*
X1021158Y1090562D01*
X1021158D02*
Y1090312D01*
X1021158D02*
X1021067Y1090062D01*
X1021067D02*
X1020885Y1089687D01*
X1019976Y1088437*
X1021249*
X1113597Y1077438D02*
X1113506Y1077688D01*
X1113506D02*
X1113324Y1077938D01*
X1113324D02*
X1113142Y1078063D01*
X1113142D02*
X1112778D01*
X1112778D02*
X1112597Y1077938D01*
X1112597D02*
X1112415Y1077688D01*
X1112415D02*
X1112324Y1077438D01*
X1112324D02*
X1112233Y1077063D01*
X1112233D02*
Y1076437D01*
X1112233D02*
X1112324Y1076062D01*
X1112324D02*
X1112415Y1075812D01*
X1112415D02*
X1112597Y1075562D01*
X1112597D02*
X1112778Y1075437D01*
X1112778D02*
X1113142D01*
X1113142D02*
X1113324Y1075562D01*
X1113324D02*
X1113506Y1075812D01*
X1113506D02*
X1113597Y1076062D01*
X1114506Y1077438D02*
Y1077563D01*
X1114506D02*
X1114597Y1077813D01*
X1114597D02*
X1114688Y1077938D01*
X1114688D02*
X1114869Y1078063D01*
X1114869D02*
X1115233D01*
X1115233D02*
X1115415Y1077938D01*
X1115415D02*
X1115506Y1077813D01*
X1115506D02*
X1115597Y1077563D01*
X1115597D02*
Y1077313D01*
X1115597D02*
X1115506Y1077063D01*
X1115506D02*
X1115324Y1076687D01*
X1115324D02*
X1114415Y1075437D01*
X1114415D02*
X1115688D01*
X1117051Y1078063D02*
X1116778Y1077938D01*
X1116778D02*
X1116597Y1077563D01*
X1116597D02*
X1116506Y1076937D01*
X1116506D02*
Y1076562D01*
X1116506D02*
X1116597Y1075937D01*
X1116597D02*
X1116778Y1075562D01*
X1116778D02*
X1117051Y1075437D01*
X1117051D02*
X1117233D01*
X1117233D02*
X1117506Y1075562D01*
X1117506D02*
X1117688Y1075937D01*
X1117688D02*
X1117778Y1076562D01*
X1117778D02*
Y1076937D01*
X1117778D02*
X1117688Y1077563D01*
X1117688D02*
X1117506Y1077938D01*
X1117506D02*
X1117233Y1078063D01*
X1117233D02*
X1117051D01*
X1132375Y1086932D02*
X1132625Y1087023D01*
X1132875Y1087205*
X1133000Y1087386*
Y1087750*
X1132875Y1087932*
X1132625Y1088114*
X1132375Y1088205*
X1132000Y1088295*
X1131375*
X1131000Y1088205*
X1130750Y1088114*
X1130500Y1087932*
X1130375Y1087750*
Y1087386*
X1130500Y1087205*
X1130750Y1087023*
X1131000Y1086932*
X1132375Y1086023D02*
X1132500D01*
X1132750Y1085932*
X1132875Y1085841*
X1133000Y1085659*
Y1085295*
X1132875Y1085114*
X1132750Y1085023*
X1132500Y1084932*
X1132250*
X1132000Y1085023*
X1131625Y1085205*
X1130375Y1086114*
Y1084841*
X1132500Y1084023D02*
X1132625Y1083841D01*
X1133000Y1083568*
X1130375*
X1075112Y1092437D02*
X1075021Y1092687D01*
X1075021D02*
X1074839Y1092937D01*
X1074839D02*
X1074658Y1093062D01*
X1074658D02*
X1074294D01*
X1074294D02*
X1074112Y1092937D01*
X1074112D02*
X1073930Y1092687D01*
X1073930D02*
X1073839Y1092437D01*
X1073839D02*
X1073749Y1092062D01*
X1073749D02*
Y1091437D01*
X1073839Y1091062*
X1073930Y1090812*
X1074112Y1090562*
X1074294Y1090437*
X1074658*
X1074839Y1090562*
X1075021Y1090812*
X1075112Y1091062*
X1076021Y1092437D02*
Y1092562D01*
X1076021D02*
X1076112Y1092812D01*
X1076112D02*
X1076203Y1092937D01*
X1076203D02*
X1076385Y1093062D01*
X1076385D02*
X1076749D01*
X1076749D02*
X1076930Y1092937D01*
X1076930D02*
X1077021Y1092812D01*
X1077021D02*
X1077112Y1092562D01*
X1077112D02*
Y1092312D01*
X1077112D02*
X1077021Y1092062D01*
X1077021D02*
X1076839Y1091687D01*
X1075930Y1090437*
X1077203*
X1078112Y1092437D02*
Y1092562D01*
X1078112D02*
X1078203Y1092812D01*
X1078203D02*
X1078294Y1092937D01*
X1078294D02*
X1078476Y1093062D01*
X1078476D02*
X1078839D01*
X1078839D02*
X1079021Y1092937D01*
X1079021D02*
X1079112Y1092812D01*
X1079112D02*
X1079203Y1092562D01*
X1079203D02*
Y1092312D01*
X1079203D02*
X1079112Y1092062D01*
X1079112D02*
X1078930Y1091687D01*
X1078021Y1090437*
X1079294*
X1066112Y1091937D02*
X1066021Y1092187D01*
X1066021D02*
X1065839Y1092437D01*
X1065839D02*
X1065658Y1092562D01*
X1065658D02*
X1065294D01*
X1065294D02*
X1065112Y1092437D01*
X1065112D02*
X1064930Y1092187D01*
X1064930D02*
X1064839Y1091937D01*
X1064839D02*
X1064749Y1091562D01*
X1064749D02*
Y1090937D01*
X1064839Y1090562*
X1064930Y1090312*
X1065112Y1090062*
X1065294Y1089937*
X1065658*
X1065839Y1090062*
X1066021Y1090312*
X1066112Y1090562*
X1067021Y1091937D02*
Y1092062D01*
X1067021D02*
X1067112Y1092312D01*
X1067112D02*
X1067203Y1092437D01*
X1067203D02*
X1067385Y1092562D01*
X1067385D02*
X1067749D01*
X1067749D02*
X1067930Y1092437D01*
X1067930D02*
X1068021Y1092312D01*
X1068021D02*
X1068112Y1092062D01*
X1068112D02*
Y1091812D01*
X1068112D02*
X1068021Y1091562D01*
X1068021D02*
X1067839Y1091187D01*
X1066930Y1089937*
X1068203*
X1069203Y1092562D02*
X1070203D01*
X1070203D02*
X1069658Y1091562D01*
X1069658D02*
X1069930D01*
X1069930D02*
X1070112Y1091437D01*
X1070203Y1091312*
X1070294Y1090937*
Y1090687*
X1070203Y1090312*
X1070021Y1090062*
X1069749Y1089937*
X1069476*
X1069203Y1090062*
X1069112Y1090187*
X1069021Y1090437*
X1027016Y1080614D02*
X1026766Y1080523D01*
X1026516Y1080341*
X1026391Y1080159*
Y1079795*
X1026516Y1079614*
X1026766Y1079432*
X1027016Y1079341*
X1027391Y1079250*
X1028016*
X1028391Y1079341*
X1028641Y1079432*
X1028891Y1079614*
X1029016Y1079795*
Y1080159*
X1028891Y1080341*
X1028641Y1080523*
X1028391Y1080614*
X1027016Y1081523D02*
X1026891D01*
X1026641Y1081614*
X1026516Y1081705*
X1026391Y1081886*
Y1082250*
X1026516Y1082432*
X1026641Y1082523*
X1026891Y1082614*
X1027141*
X1027391Y1082523*
X1027766Y1082341*
X1029016Y1081432*
Y1082705*
X1026391Y1084432D02*
X1028141Y1083523D01*
Y1084886*
X1026391Y1084432D02*
X1029016D01*
X1045364Y1091234D02*
X1045273Y1091484D01*
X1045091Y1091734*
X1044909Y1091859*
X1044545*
X1044364Y1091734*
X1044182Y1091484*
X1044091Y1091234*
X1044000Y1090859*
Y1090234*
X1044091Y1089859*
X1044182Y1089609*
X1044364Y1089359*
X1044545Y1089234*
X1044909*
X1045091Y1089359*
X1045273Y1089609*
X1045364Y1089859*
X1046273Y1091234D02*
Y1091359D01*
X1046364Y1091609*
X1046455Y1091734*
X1046636Y1091859*
X1047000*
X1047182Y1091734*
X1047273Y1091609*
X1047364Y1091359*
Y1091109*
X1047273Y1090859*
X1047091Y1090484*
X1046182Y1089234*
X1047455*
X1049455Y1091859D02*
X1048545D01*
X1048455Y1090734*
X1048545Y1090859*
X1048818Y1090984*
X1049091*
X1049364Y1090859*
X1049545Y1090609*
X1049636Y1090234*
X1049545Y1089984*
X1049455Y1089609*
X1049273Y1089359*
X1049000Y1089234*
X1048727*
X1048455Y1089359*
X1048364Y1089484*
X1048273Y1089734*
X1149875Y1133341D02*
X1150125Y1133432D01*
X1150375Y1133614*
X1150500Y1133795*
Y1134159*
X1150375Y1134341*
X1150125Y1134523*
X1149875Y1134614*
X1149500Y1134705*
X1148875*
X1148500Y1134614*
X1148250Y1134523*
X1148000Y1134341*
X1147875Y1134159*
Y1133795*
X1148000Y1133614*
X1148250Y1133432*
X1148500Y1133341*
X1149875Y1132432D02*
X1150000D01*
X1150250Y1132341*
X1150375Y1132250*
X1150500Y1132068*
Y1131705*
X1150375Y1131523*
X1150250Y1131432*
X1150000Y1131341*
X1149750*
X1149500Y1131432*
X1149125Y1131614*
X1147875Y1132523*
Y1131250*
X1150500Y1129159D02*
X1147875Y1130068D01*
X1150500Y1130432D02*
Y1129159D01*
X1100375Y1107409D02*
X1100125Y1107318D01*
X1099875Y1107136*
X1099750Y1106955*
Y1106591*
X1099875Y1106409*
X1100125Y1106227*
X1100375Y1106136*
X1100750Y1106045*
X1101375*
X1101750Y1106136*
X1102000Y1106227*
X1102250Y1106409*
X1102375Y1106591*
Y1106955*
X1102250Y1107136*
X1102000Y1107318*
X1101750Y1107409*
X1100375Y1108318D02*
X1100250D01*
X1100000Y1108409*
X1099875Y1108500*
X1099750Y1108682*
Y1109045*
X1099875Y1109227*
X1100000Y1109318*
X1100250Y1109409*
X1100500*
X1100750Y1109318*
X1101125Y1109136*
X1102375Y1108227*
Y1109500*
X1099750Y1110773D02*
X1099875Y1110500D01*
X1100125Y1110409*
X1100375*
X1100625Y1110500*
X1100750Y1110682*
X1100875Y1111045*
X1101000Y1111318*
X1101250Y1111500*
X1101500Y1111591*
X1101875*
X1102125Y1111500*
X1102250Y1111409*
X1102375Y1111136*
Y1110773*
X1102250Y1110500*
X1102125Y1110409*
X1101875Y1110318*
X1101500*
X1101250Y1110409*
X1101000Y1110591*
X1100875Y1110864*
X1100750Y1111227*
X1100625Y1111409*
X1100375Y1111500*
X1100125*
X1099875Y1111409*
X1099750Y1111136*
Y1110773*
X1108205Y1135375D02*
X1108114Y1135625D01*
X1107932Y1135875*
X1107750Y1136000*
X1107386*
X1107205Y1135875*
X1107023Y1135625*
X1106932Y1135375*
X1106841Y1135000*
Y1134375*
X1106932Y1134000*
X1107023Y1133750*
X1107205Y1133500*
X1107386Y1133375*
X1107750*
X1107932Y1133500*
X1108114Y1133750*
X1108205Y1134000*
X1109114Y1135375D02*
Y1135500D01*
X1109205Y1135750*
X1109295Y1135875*
X1109477Y1136000*
X1109841*
X1110023Y1135875*
X1110114Y1135750*
X1110205Y1135500*
Y1135250*
X1110114Y1135000*
X1109932Y1134625*
X1109023Y1133375*
X1110295*
X1112295Y1135125D02*
X1112205Y1134750D01*
X1112023Y1134500*
X1111750Y1134375*
X1111659*
X1111386Y1134500*
X1111205Y1134750*
X1111114Y1135125*
Y1135250*
X1111205Y1135625*
X1111386Y1135875*
X1111659Y1136000*
X1111750*
X1112023Y1135875*
X1112205Y1135625*
X1112295Y1135125*
Y1134500*
X1112205Y1133875*
X1112023Y1133500*
X1111750Y1133375*
X1111568*
X1111295Y1133500*
X1111205Y1133750*
X1075205Y1113484D02*
X1075114Y1113734D01*
X1074932Y1113984*
X1074750Y1114109*
X1074386*
X1074205Y1113984*
X1074023Y1113734*
X1073932Y1113484*
X1073841Y1113109*
Y1112484*
X1073932Y1112109*
X1074023Y1111859*
X1074205Y1111609*
X1074386Y1111484*
X1074750*
X1074932Y1111609*
X1075114Y1111859*
X1075205Y1112109*
X1076205Y1114109D02*
X1077205D01*
X1076659Y1113109*
X1076932*
X1077114Y1112984*
X1077205Y1112859*
X1077295Y1112484*
Y1112234*
X1077205Y1111859*
X1077023Y1111609*
X1076750Y1111484*
X1076477*
X1076205Y1111609*
X1076114Y1111734*
X1076023Y1111984*
X1140659Y1178375D02*
X1140568Y1178625D01*
X1140386Y1178875*
X1140205Y1179000*
X1139841*
X1139659Y1178875*
X1139477Y1178625*
X1139386Y1178375*
X1139295Y1178000*
Y1177375*
X1139386Y1177000*
X1139477Y1176750*
X1139659Y1176500*
X1139841Y1176375*
X1140205*
X1140386Y1176500*
X1140568Y1176750*
X1140659Y1177000*
X1141659Y1179000D02*
X1142659D01*
X1142114Y1178000*
X1142386*
X1142568Y1177875*
X1142659Y1177750*
X1142750Y1177375*
Y1177125*
X1142659Y1176750*
X1142477Y1176500*
X1142205Y1176375*
X1141932*
X1141659Y1176500*
X1141568Y1176625*
X1141477Y1176875*
X1144114Y1179000D02*
X1143841Y1178875D01*
X1143659Y1178500*
X1143568Y1177875*
Y1177500*
X1143659Y1176875*
X1143841Y1176500*
X1144114Y1176375*
X1144295*
X1144568Y1176500*
X1144750Y1176875*
X1144841Y1177500*
Y1177875*
X1144750Y1178500*
X1144568Y1178875*
X1144295Y1179000*
X1144114*
X1145631Y1166438D02*
X1145540Y1166688D01*
X1145540D02*
X1145358Y1166938D01*
X1145358D02*
X1145176Y1167063D01*
X1145176D02*
X1144813D01*
X1144813D02*
X1144631Y1166938D01*
X1144631D02*
X1144449Y1166688D01*
X1144449D02*
X1144358Y1166438D01*
X1144358D02*
X1144267Y1166063D01*
X1144267D02*
Y1165437D01*
X1144267D02*
X1144358Y1165062D01*
X1144358D02*
X1144449Y1164812D01*
X1144449D02*
X1144631Y1164562D01*
X1144631D02*
X1144813Y1164437D01*
X1144813D02*
X1145176D01*
X1145176D02*
X1145358Y1164562D01*
X1145358D02*
X1145540Y1164812D01*
X1145540D02*
X1145631Y1165062D01*
X1146631Y1167063D02*
X1147631D01*
X1147631D02*
X1147085Y1166063D01*
X1147085D02*
X1147358D01*
X1147358D02*
X1147540Y1165937D01*
X1147540D02*
X1147631Y1165812D01*
X1147631D02*
X1147722Y1165437D01*
X1147722D02*
Y1165187D01*
X1147722D02*
X1147631Y1164812D01*
X1147631D02*
X1147449Y1164562D01*
X1147449D02*
X1147176Y1164437D01*
X1147176D02*
X1146903D01*
X1146903D02*
X1146631Y1164562D01*
X1146631D02*
X1146540Y1164687D01*
X1146540D02*
X1146449Y1164937D01*
X1148540Y1166563D02*
X1148722Y1166688D01*
X1148722D02*
X1148994Y1167063D01*
X1148994D02*
Y1164437D01*
X1089516Y1122159D02*
X1089266Y1122068D01*
X1089016Y1121886*
X1088891Y1121705*
Y1121341*
X1089016Y1121159*
X1089266Y1120977*
X1089516Y1120886*
X1089891Y1120795*
X1090516*
X1090891Y1120886*
X1091141Y1120977*
X1091391Y1121159*
X1091516Y1121341*
Y1121705*
X1091391Y1121886*
X1091141Y1122068*
X1090891Y1122159*
X1088891Y1123159D02*
Y1124159D01*
X1089891Y1123614*
Y1123886*
X1090016Y1124068*
X1090141Y1124159*
X1090516Y1124250*
X1090766*
X1091141Y1124159*
X1091391Y1123977*
X1091516Y1123705*
Y1123432*
X1091391Y1123159*
X1091266Y1123068*
X1091016Y1122977*
X1089516Y1125159D02*
X1089391D01*
X1089141Y1125250*
X1089016Y1125341*
X1088891Y1125523*
Y1125886*
X1089016Y1126068*
X1089141Y1126159*
X1089391Y1126250*
X1089641*
X1089891Y1126159*
X1090266Y1125977*
X1091516Y1125068*
Y1126341*
X1198159Y1049375D02*
X1198068Y1049625D01*
X1197886Y1049875*
X1197705Y1050000*
X1197341*
X1197159Y1049875*
X1196977Y1049625*
X1196886Y1049375*
X1196795Y1049000*
Y1048375*
X1196886Y1048000*
X1196977Y1047750*
X1197159Y1047500*
X1197341Y1047375*
X1197705*
X1197886Y1047500*
X1198068Y1047750*
X1198159Y1048000*
X1199886Y1050000D02*
X1198977Y1048250D01*
X1200341*
X1199886Y1050000D02*
Y1047375D01*
X1085159Y1035875D02*
X1085068Y1036125D01*
X1084886Y1036375*
X1084705Y1036500*
X1084341*
X1084159Y1036375*
X1083977Y1036125*
X1083886Y1035875*
X1083795Y1035500*
Y1034875*
X1083886Y1034500*
X1083977Y1034250*
X1084159Y1034000*
X1084341Y1033875*
X1084705*
X1084886Y1034000*
X1085068Y1034250*
X1085159Y1034500*
X1087159Y1036500D02*
X1086250D01*
X1086159Y1035375*
X1086250Y1035500*
X1086523Y1035625*
X1086795*
X1087068Y1035500*
X1087250Y1035250*
X1087341Y1034875*
X1087250Y1034625*
X1087159Y1034250*
X1086977Y1034000*
X1086705Y1033875*
X1086432*
X1086159Y1034000*
X1086068Y1034125*
X1085977Y1034375*
X1198250Y1066000D02*
X1198159Y1066250D01*
X1197977Y1066500*
X1197795Y1066625*
X1197432*
X1197250Y1066500*
X1197068Y1066250*
X1196977Y1066000*
X1196886Y1065625*
Y1065000*
X1196977Y1064625*
X1197068Y1064375*
X1197250Y1064125*
X1197432Y1064000*
X1197795*
X1197977Y1064125*
X1198159Y1064375*
X1198250Y1064625*
X1200159Y1066250D02*
X1200068Y1066500D01*
X1199795Y1066625*
X1199614*
X1199341Y1066500*
X1199159Y1066125*
X1199068Y1065500*
Y1064875*
X1199159Y1064375*
X1199341Y1064125*
X1199614Y1064000*
X1199705*
X1199977Y1064125*
X1200159Y1064375*
X1200250Y1064750*
Y1064875*
X1200159Y1065250*
X1199977Y1065500*
X1199705Y1065625*
X1199614*
X1199341Y1065500*
X1199159Y1065250*
X1199068Y1064875*
X1189705Y1127875D02*
X1189614Y1128125D01*
X1189432Y1128375*
X1189250Y1128500*
X1188886*
X1188705Y1128375*
X1188523Y1128125*
X1188432Y1127875*
X1188341Y1127500*
Y1126875*
X1188432Y1126500*
X1188523Y1126250*
X1188705Y1126000*
X1188886Y1125875*
X1189250*
X1189432Y1126000*
X1189614Y1126250*
X1189705Y1126500*
X1191795Y1128500D02*
X1190886Y1125875D01*
X1190523Y1128500D02*
X1191795D01*
X1170250Y1087375D02*
X1170159Y1087625D01*
X1169977Y1087875*
X1169795Y1088000*
X1169432*
X1169250Y1087875*
X1169068Y1087625*
X1168977Y1087375*
X1168886Y1087000*
Y1086375*
X1168977Y1086000*
X1169068Y1085750*
X1169250Y1085500*
X1169432Y1085375*
X1169795*
X1169977Y1085500*
X1170159Y1085750*
X1170250Y1086000*
X1172250Y1087125D02*
X1172159Y1086750D01*
X1171977Y1086500*
X1171705Y1086375*
X1171614*
X1171341Y1086500*
X1171159Y1086750*
X1171068Y1087125*
Y1087250*
X1171159Y1087625*
X1171341Y1087875*
X1171614Y1088000*
X1171705*
X1171977Y1087875*
X1172159Y1087625*
X1172250Y1087125*
Y1086500*
X1172159Y1085875*
X1171977Y1085500*
X1171705Y1085375*
X1171523*
X1171250Y1085500*
X1171159Y1085750*
X1068339Y1174063D02*
Y1172062D01*
X1068339D02*
X1068249Y1171687D01*
X1068249D02*
X1068158Y1171562D01*
X1068158D02*
X1067976Y1171437D01*
X1067976D02*
X1067794D01*
X1067794D02*
X1067612Y1171562D01*
X1067612D02*
X1067521Y1171687D01*
X1067521D02*
X1067430Y1172062D01*
X1067430D02*
Y1172312D01*
X1069158Y1173563D02*
X1069339Y1173688D01*
X1069339D02*
X1069612Y1174063D01*
X1069612D02*
Y1171437D01*
X1157415Y1098563D02*
Y1096562D01*
X1157415D02*
X1157324Y1096187D01*
X1157324D02*
X1157233Y1096062D01*
X1157233D02*
X1157051Y1095937D01*
X1157051D02*
X1156869D01*
X1156869D02*
X1156688Y1096062D01*
X1156688D02*
X1156597Y1096187D01*
X1156597D02*
X1156506Y1096562D01*
X1156506D02*
Y1096812D01*
X1158324Y1097938D02*
Y1098063D01*
X1158324D02*
X1158415Y1098313D01*
X1158415D02*
X1158506Y1098438D01*
X1158506D02*
X1158688Y1098563D01*
X1158688D02*
X1159051D01*
X1159051D02*
X1159233Y1098438D01*
X1159233D02*
X1159324Y1098313D01*
X1159324D02*
X1159415Y1098063D01*
X1159415D02*
Y1097813D01*
X1159415D02*
X1159324Y1097563D01*
X1159324D02*
X1159142Y1097187D01*
X1159142D02*
X1158233Y1095937D01*
X1158233D02*
X1159506D01*
X1062227Y1042750D02*
Y1040750D01*
X1062136Y1040375*
X1062045Y1040250*
X1061864Y1040125*
X1061682*
X1061500Y1040250*
X1061409Y1040375*
X1061318Y1040750*
Y1041000*
X1063227Y1042750D02*
X1064227D01*
X1063682Y1041750*
X1063955*
X1064136Y1041625*
X1064227Y1041500*
X1064318Y1041125*
Y1040875*
X1064227Y1040500*
X1064045Y1040250*
X1063773Y1040125*
X1063500*
X1063227Y1040250*
X1063136Y1040375*
X1063045Y1040625*
X1189494Y1167563D02*
Y1165562D01*
X1189494D02*
X1189403Y1165187D01*
X1189403D02*
X1189313Y1165062D01*
X1189313D02*
X1189131Y1164937D01*
X1189131D02*
X1188949D01*
X1188949D02*
X1188767Y1165062D01*
X1188767D02*
X1188676Y1165187D01*
X1188676D02*
X1188585Y1165562D01*
X1188585D02*
Y1165812D01*
X1191494Y1167563D02*
X1190585D01*
X1190585D02*
X1190494Y1166437D01*
X1190494D02*
X1190585Y1166563D01*
X1190585D02*
X1190858Y1166688D01*
X1190858D02*
X1191131D01*
X1191131D02*
X1191403Y1166563D01*
X1191403D02*
X1191585Y1166312D01*
X1191585D02*
X1191676Y1165937D01*
X1191676D02*
X1191585Y1165687D01*
X1191585D02*
X1191494Y1165312D01*
X1191494D02*
X1191313Y1165062D01*
X1191313D02*
X1191040Y1164937D01*
X1191040D02*
X1190767D01*
X1190767D02*
X1190494Y1165062D01*
X1190494D02*
X1190403Y1165187D01*
X1190403D02*
X1190313Y1165437D01*
X1011000Y1051750D02*
X1010818Y1051625D01*
X1010636Y1051375*
X1010545Y1051125*
X1010455Y1050750*
Y1050125*
X1010545Y1049750*
X1010636Y1049500*
X1010818Y1049250*
X1011000Y1049125*
X1011364*
X1011545Y1049250*
X1011727Y1049500*
X1011818Y1049750*
X1011909Y1050125*
Y1050750*
X1011818Y1051125*
X1011727Y1051375*
X1011545Y1051625*
X1011364Y1051750*
X1011000*
X1011273Y1049625D02*
X1011818Y1048875D01*
X1012727Y1051250D02*
X1012909Y1051375D01*
X1013182Y1051750*
Y1049125*
X1018045Y1130859D02*
Y1128234D01*
Y1130859D02*
X1018864D01*
X1019136Y1130734*
X1019227Y1130609*
X1019318Y1130359*
Y1130109*
X1019227Y1129859*
X1019136Y1129734*
X1018864Y1129609*
X1018045*
X1018682D02*
X1019318Y1128234D01*
X1020136Y1130359D02*
X1020318Y1130484D01*
X1020591Y1130859*
Y1128234*
X1195750Y1106000D02*
Y1103375D01*
Y1106000D02*
X1196568D01*
X1196841Y1105875*
X1196932Y1105750*
X1197023Y1105500*
Y1105250*
X1196932Y1105000*
X1196841Y1104875*
X1196568Y1104750*
X1195750*
X1196386D02*
X1197023Y1103375D01*
X1197841Y1105500D02*
X1198023Y1105625D01*
X1198295Y1106000*
Y1103375*
X1199659Y1106000D02*
X1199386Y1105875D01*
X1199205Y1105500*
X1199114Y1104875*
Y1104500*
X1199205Y1103875*
X1199386Y1103500*
X1199659Y1103375*
X1199841*
X1200114Y1103500*
X1200295Y1103875*
X1200386Y1104500*
Y1104875*
X1200295Y1105500*
X1200114Y1105875*
X1199841Y1106000*
X1199659*
X1167159Y1077500D02*
Y1074875D01*
Y1077500D02*
X1167977D01*
X1168250Y1077375*
X1168341Y1077250*
X1168432Y1077000*
Y1076750*
X1168341Y1076500*
X1168250Y1076375*
X1167977Y1076250*
X1167159*
X1167795D02*
X1168432Y1074875D01*
X1169250Y1077000D02*
X1169432Y1077125D01*
X1169705Y1077500*
Y1074875*
X1170523Y1077000D02*
X1170705Y1077125D01*
X1170977Y1077500*
Y1074875*
X1024250Y1067516D02*
Y1064891D01*
Y1067516D02*
X1025068D01*
X1025341Y1067391*
X1025432Y1067266*
X1025523Y1067016*
Y1066766*
X1025432Y1066516*
X1025341Y1066391*
X1025068Y1066266*
X1024250*
X1024886D02*
X1025523Y1064891D01*
X1026341Y1067016D02*
X1026523Y1067141D01*
X1026795Y1067516*
Y1064891*
X1027705Y1066891D02*
Y1067016D01*
X1027795Y1067266*
X1027886Y1067391*
X1028068Y1067516*
X1028432*
X1028614Y1067391*
X1028705Y1067266*
X1028795Y1067016*
Y1066766*
X1028705Y1066516*
X1028523Y1066141*
X1027614Y1064891*
X1028886*
X1060609Y1082750D02*
X1057984D01*
X1060609D02*
Y1081932D01*
X1060484Y1081659*
X1060359Y1081568*
X1060109Y1081477*
X1059859*
X1059609Y1081568*
X1059484Y1081659*
X1059359Y1081932*
Y1082750*
Y1082114D02*
X1057984Y1081477D01*
X1060109Y1080659D02*
X1060234Y1080477D01*
X1060609Y1080205*
X1057984*
X1060609Y1079205D02*
Y1078205D01*
X1059609Y1078750*
Y1078477*
X1059484Y1078295*
X1059359Y1078205*
X1058984Y1078114*
X1058734*
X1058359Y1078205*
X1058109Y1078386*
X1057984Y1078659*
Y1078932*
X1058109Y1079205*
X1058234Y1079295*
X1058484Y1079386*
X1099437Y1095751D02*
X1102062D01*
X1099437D02*
Y1096570D01*
X1099562Y1096842*
X1099687Y1096933*
X1099937Y1097024*
X1100187*
X1100437Y1096933*
X1100562Y1096842*
X1100562D02*
X1100687Y1096570D01*
X1100687D02*
Y1095751D01*
Y1096388D02*
X1102062Y1097024D01*
X1099937Y1097842D02*
X1099812Y1098024D01*
X1099437Y1098297*
X1102062*
X1099437Y1100024D02*
X1101187Y1099115D01*
X1101187D02*
Y1100479D01*
X1099437Y1100024D02*
X1102062D01*
X1127205Y1136000D02*
Y1133375D01*
Y1136000D02*
X1128023D01*
X1128295Y1135875*
X1128386Y1135750*
X1128477Y1135500*
Y1135250*
X1128386Y1135000*
X1128295Y1134875*
X1128023Y1134750*
X1127205*
X1127841D02*
X1128477Y1133375D01*
X1129295Y1135500D02*
X1129477Y1135625D01*
X1129750Y1136000*
Y1133375*
X1131750Y1136000D02*
X1130841D01*
X1130750Y1134875*
X1130841Y1135000*
X1131114Y1135125*
X1131386*
X1131659Y1135000*
X1131841Y1134750*
X1131932Y1134375*
X1131841Y1134125*
X1131750Y1133750*
X1131568Y1133500*
X1131295Y1133375*
X1131023*
X1130750Y1133500*
X1130659Y1133625*
X1130568Y1133875*
X1101250Y1116545D02*
X1103875D01*
X1101250D02*
Y1117364D01*
X1101375Y1117636*
X1101500Y1117727*
X1101750Y1117818*
X1102000*
X1102250Y1117727*
X1102375Y1117636*
X1102500Y1117364*
Y1116545*
Y1117182D02*
X1103875Y1117818D01*
X1101750Y1118636D02*
X1101625Y1118818D01*
X1101250Y1119091*
X1103875*
X1101625Y1121000D02*
X1101375Y1120909D01*
X1101250Y1120636*
Y1120455*
X1101375Y1120182*
X1101750Y1120000*
X1102375Y1119909*
X1103000*
X1103500Y1120000*
X1103750Y1120182*
X1103875Y1120455*
Y1120545*
X1103750Y1120818*
X1103500Y1121000*
X1103125Y1121091*
X1103000*
X1102625Y1121000*
X1102375Y1120818*
X1102250Y1120545*
Y1120455*
X1102375Y1120182*
X1102625Y1120000*
X1103000Y1119909*
X1169750Y1176500D02*
Y1173875D01*
Y1176500D02*
X1170568D01*
X1170841Y1176375*
X1170932Y1176250*
X1171023Y1176000*
Y1175750*
X1170932Y1175500*
X1170841Y1175375*
X1170568Y1175250*
X1169750*
X1170386D02*
X1171023Y1173875D01*
X1171841Y1176000D02*
X1172023Y1176125D01*
X1172295Y1176500*
Y1173875*
X1174386Y1176500D02*
X1173477Y1173875D01*
X1173114Y1176500D02*
X1174386D01*
X1135187Y1166063D02*
Y1163437D01*
Y1166063D02*
X1136006D01*
X1136006D02*
X1136278Y1165938D01*
X1136278D02*
X1136369Y1165813D01*
X1136369D02*
X1136460Y1165563D01*
X1136460D02*
Y1165313D01*
X1136460D02*
X1136369Y1165063D01*
X1136369D02*
X1136278Y1164937D01*
X1136278D02*
X1136006Y1164812D01*
X1136006D02*
X1135187D01*
X1135824D02*
X1136460Y1163437D01*
X1137278Y1165563D02*
X1137460Y1165688D01*
X1137460D02*
X1137733Y1166063D01*
X1137733D02*
Y1163437D01*
X1139006Y1166063D02*
X1138733Y1165938D01*
X1138733D02*
X1138642Y1165688D01*
X1138642D02*
Y1165438D01*
X1138642D02*
X1138733Y1165188D01*
X1138733D02*
X1138915Y1165063D01*
X1138915D02*
X1139278Y1164937D01*
X1139278D02*
X1139551Y1164812D01*
X1139551D02*
X1139733Y1164562D01*
X1139733D02*
X1139824Y1164312D01*
X1139824D02*
Y1163937D01*
X1139824D02*
X1139733Y1163687D01*
X1139733D02*
X1139642Y1163562D01*
X1139642D02*
X1139369Y1163437D01*
X1139369D02*
X1139006D01*
X1139006D02*
X1138733Y1163562D01*
X1138733D02*
X1138642Y1163687D01*
X1138642D02*
X1138551Y1163937D01*
X1138551D02*
Y1164312D01*
X1138551D02*
X1138642Y1164562D01*
X1138642D02*
X1138824Y1164812D01*
X1138824D02*
X1139097Y1164937D01*
X1139097D02*
X1139460Y1165063D01*
X1139460D02*
X1139642Y1165188D01*
X1139642D02*
X1139733Y1165438D01*
X1139733D02*
Y1165688D01*
X1139733D02*
X1139642Y1165938D01*
X1139642D02*
X1139369Y1166063D01*
X1139369D02*
X1139006D01*
X1153358Y1167063D02*
Y1164437D01*
Y1167063D02*
X1154176D01*
X1154176D02*
X1154449Y1166938D01*
X1154449D02*
X1154540Y1166813D01*
X1154540D02*
X1154631Y1166563D01*
X1154631D02*
Y1166313D01*
X1154631D02*
X1154540Y1166063D01*
X1154540D02*
X1154449Y1165937D01*
X1154449D02*
X1154176Y1165812D01*
X1154176D02*
X1153358D01*
X1153994D02*
X1154631Y1164437D01*
X1155449Y1166563D02*
X1155631Y1166688D01*
X1155631D02*
X1155903Y1167063D01*
X1155903D02*
Y1164437D01*
X1157903Y1166188D02*
X1157813Y1165812D01*
X1157813D02*
X1157631Y1165562D01*
X1157631D02*
X1157358Y1165437D01*
X1157358D02*
X1157267D01*
X1157267D02*
X1156994Y1165562D01*
X1156994D02*
X1156813Y1165812D01*
X1156813D02*
X1156722Y1166188D01*
X1156722D02*
Y1166313D01*
X1156722D02*
X1156813Y1166688D01*
X1156813D02*
X1156994Y1166938D01*
X1156994D02*
X1157267Y1167063D01*
X1157267D02*
X1157358D01*
X1157358D02*
X1157631Y1166938D01*
X1157631D02*
X1157813Y1166688D01*
X1157813D02*
X1157903Y1166188D01*
X1157903D02*
Y1165562D01*
X1157903D02*
X1157813Y1164937D01*
X1157813D02*
X1157631Y1164562D01*
X1157631D02*
X1157358Y1164437D01*
X1157358D02*
X1157176D01*
X1157176D02*
X1156903Y1164562D01*
X1156903D02*
X1156813Y1164812D01*
X1049339Y1097563D02*
Y1094937D01*
Y1097563D02*
X1050158D01*
X1050158D02*
X1050430Y1097438D01*
X1050430D02*
X1050521Y1097313D01*
X1050521D02*
X1050612Y1097063D01*
X1050612D02*
Y1096813D01*
X1050612D02*
X1050521Y1096563D01*
X1050521D02*
X1050430Y1096437D01*
X1050430D02*
X1050158Y1096312D01*
X1050158D02*
X1049339D01*
X1049976D02*
X1050612Y1094937D01*
X1051521Y1096938D02*
Y1097063D01*
X1051521D02*
X1051612Y1097313D01*
X1051612D02*
X1051703Y1097438D01*
X1051703D02*
X1051885Y1097563D01*
X1051885D02*
X1052249D01*
X1052249D02*
X1052430Y1097438D01*
X1052430D02*
X1052521Y1097313D01*
X1052521D02*
X1052612Y1097063D01*
X1052612D02*
Y1096813D01*
X1052612D02*
X1052521Y1096563D01*
X1052521D02*
X1052339Y1096187D01*
X1052339D02*
X1051430Y1094937D01*
X1051430D02*
X1052703D01*
X1132341Y1201625D02*
Y1199000D01*
Y1201625D02*
X1133159D01*
X1133432Y1201500*
X1133523Y1201375*
X1133614Y1201125*
Y1200875*
X1133523Y1200625*
X1133432Y1200500*
X1133159Y1200375*
X1132341*
X1132977D02*
X1133614Y1199000D01*
X1134523Y1201000D02*
Y1201125D01*
X1134614Y1201375*
X1134705Y1201500*
X1134886Y1201625*
X1135250*
X1135432Y1201500*
X1135523Y1201375*
X1135614Y1201125*
Y1200875*
X1135523Y1200625*
X1135341Y1200250*
X1134432Y1199000*
X1135705*
X1137068Y1201625D02*
X1136795Y1201500D01*
X1136614Y1201125*
X1136523Y1200500*
Y1200125*
X1136614Y1199500*
X1136795Y1199125*
X1137068Y1199000*
X1137250*
X1137523Y1199125*
X1137705Y1199500*
X1137795Y1200125*
Y1200500*
X1137705Y1201125*
X1137523Y1201500*
X1137250Y1201625*
X1137068*
X1167250Y1198625D02*
Y1196000D01*
Y1198625D02*
X1168068D01*
X1168341Y1198500*
X1168432Y1198375*
X1168523Y1198125*
Y1197875*
X1168432Y1197625*
X1168341Y1197500*
X1168068Y1197375*
X1167250*
X1167886D02*
X1168523Y1196000D01*
X1169432Y1198000D02*
Y1198125D01*
X1169523Y1198375*
X1169614Y1198500*
X1169795Y1198625*
X1170159*
X1170341Y1198500*
X1170432Y1198375*
X1170523Y1198125*
Y1197875*
X1170432Y1197625*
X1170250Y1197250*
X1169341Y1196000*
X1170614*
X1171432Y1198125D02*
X1171614Y1198250D01*
X1171886Y1198625*
Y1196000*
X1123341Y1193000D02*
Y1190375D01*
Y1193000D02*
X1124159D01*
X1124432Y1192875*
X1124523Y1192750*
X1124614Y1192500*
Y1192250*
X1124523Y1192000*
X1124432Y1191875*
X1124159Y1191750*
X1123341*
X1123977D02*
X1124614Y1190375D01*
X1125523Y1192375D02*
Y1192500D01*
X1125614Y1192750*
X1125705Y1192875*
X1125886Y1193000*
X1126250*
X1126432Y1192875*
X1126523Y1192750*
X1126614Y1192500*
Y1192250*
X1126523Y1192000*
X1126341Y1191625*
X1125432Y1190375*
X1126705*
X1127614Y1192375D02*
Y1192500D01*
X1127705Y1192750*
X1127795Y1192875*
X1127977Y1193000*
X1128341*
X1128523Y1192875*
X1128614Y1192750*
X1128705Y1192500*
Y1192250*
X1128614Y1192000*
X1128432Y1191625*
X1127523Y1190375*
X1128795*
X1145841Y1192500D02*
Y1189875D01*
Y1192500D02*
X1146659D01*
X1146932Y1192375*
X1147023Y1192250*
X1147114Y1192000*
Y1191750*
X1147023Y1191500*
X1146932Y1191375*
X1146659Y1191250*
X1145841*
X1146477D02*
X1147114Y1189875D01*
X1148023Y1191875D02*
Y1192000D01*
X1148114Y1192250*
X1148205Y1192375*
X1148386Y1192500*
X1148750*
X1148932Y1192375*
X1149023Y1192250*
X1149114Y1192000*
Y1191750*
X1149023Y1191500*
X1148841Y1191125*
X1147932Y1189875*
X1149205*
X1150205Y1192500D02*
X1151205D01*
X1150659Y1191500*
X1150932*
X1151114Y1191375*
X1151205Y1191250*
X1151295Y1190875*
Y1190625*
X1151205Y1190250*
X1151023Y1190000*
X1150750Y1189875*
X1150477*
X1150205Y1190000*
X1150114Y1190125*
X1150023Y1190375*
X1155358Y1198063D02*
Y1195437D01*
Y1198063D02*
X1156176D01*
X1156176D02*
X1156449Y1197938D01*
X1156449D02*
X1156540Y1197813D01*
X1156540D02*
X1156631Y1197563D01*
X1156631D02*
Y1197313D01*
X1156631D02*
X1156540Y1197063D01*
X1156540D02*
X1156449Y1196937D01*
X1156449D02*
X1156176Y1196812D01*
X1156176D02*
X1155358D01*
X1155994D02*
X1156631Y1195437D01*
X1157540Y1197438D02*
Y1197563D01*
X1157540D02*
X1157631Y1197813D01*
X1157631D02*
X1157722Y1197938D01*
X1157722D02*
X1157903Y1198063D01*
X1157903D02*
X1158267D01*
X1158267D02*
X1158449Y1197938D01*
X1158449D02*
X1158540Y1197813D01*
X1158540D02*
X1158631Y1197563D01*
X1158631D02*
Y1197313D01*
X1158631D02*
X1158540Y1197063D01*
X1158540D02*
X1158358Y1196687D01*
X1158358D02*
X1157449Y1195437D01*
X1157449D02*
X1158722D01*
X1160449Y1198063D02*
X1159540Y1196312D01*
X1159540D02*
X1160903D01*
X1160449Y1198063D02*
Y1195437D01*
X1073886Y1123109D02*
Y1120484D01*
Y1123109D02*
X1074705D01*
X1074977Y1122984*
X1075068Y1122859*
X1075159Y1122609*
Y1122359*
X1075068Y1122109*
X1074977Y1121984*
X1074705Y1121859*
X1073886*
X1074523D02*
X1075159Y1120484D01*
X1076159Y1123109D02*
X1077159D01*
X1076614Y1122109*
X1076886*
X1077068Y1121984*
X1077159Y1121859*
X1077250Y1121484*
Y1121234*
X1077159Y1120859*
X1076977Y1120609*
X1076705Y1120484*
X1076432*
X1076159Y1120609*
X1076068Y1120734*
X1075977Y1120984*
X1198841Y1037125D02*
Y1034500D01*
Y1037125D02*
X1199659D01*
X1199932Y1037000*
X1200023Y1036875*
X1200114Y1036625*
Y1036375*
X1200023Y1036125*
X1199932Y1036000*
X1199659Y1035875*
X1198841*
X1199477D02*
X1200114Y1034500D01*
X1201841Y1037125D02*
X1200932Y1035375D01*
X1202295*
X1201841Y1037125D02*
Y1034500D01*
X1073841Y1052125D02*
Y1049500D01*
Y1052125D02*
X1074659D01*
X1074932Y1052000*
X1075023Y1051875*
X1075114Y1051625*
Y1051375*
X1075023Y1051125*
X1074932Y1051000*
X1074659Y1050875*
X1073841*
X1074477D02*
X1075114Y1049500D01*
X1077114Y1052125D02*
X1076205D01*
X1076114Y1051000*
X1076205Y1051125*
X1076477Y1051250*
X1076750*
X1077023Y1051125*
X1077205Y1050875*
X1077295Y1050500*
X1077205Y1050250*
X1077114Y1049875*
X1076932Y1049625*
X1076659Y1049500*
X1076386*
X1076114Y1049625*
X1076023Y1049750*
X1075932Y1050000*
X1036432Y1042500D02*
Y1039875D01*
Y1042500D02*
X1037250D01*
X1037523Y1042375*
X1037614Y1042250*
X1037705Y1042000*
Y1041750*
X1037614Y1041500*
X1037523Y1041375*
X1037250Y1041250*
X1036432*
X1037068D02*
X1037705Y1039875D01*
X1039614Y1042125D02*
X1039523Y1042375D01*
X1039250Y1042500*
X1039068*
X1038795Y1042375*
X1038614Y1042000*
X1038523Y1041375*
Y1040750*
X1038614Y1040250*
X1038795Y1040000*
X1039068Y1039875*
X1039159*
X1039432Y1040000*
X1039614Y1040250*
X1039705Y1040625*
Y1040750*
X1039614Y1041125*
X1039432Y1041375*
X1039159Y1041500*
X1039068*
X1038795Y1041375*
X1038614Y1041125*
X1038523Y1040750*
X1060109Y1059614D02*
X1057484D01*
X1060109D02*
Y1058795D01*
X1059984Y1058523*
X1059859Y1058432*
X1059609Y1058341*
X1059359*
X1059109Y1058432*
X1058984Y1058523*
X1058859Y1058795*
Y1059614*
Y1058977D02*
X1057484Y1058341D01*
X1060109Y1056250D02*
X1057484Y1057159D01*
X1060109Y1057523D02*
Y1056250D01*
X1024886Y1060109D02*
Y1057484D01*
Y1060109D02*
X1025705D01*
X1025977Y1059984*
X1026068Y1059859*
X1026159Y1059609*
Y1059359*
X1026068Y1059109*
X1025977Y1058984*
X1025705Y1058859*
X1024886*
X1025523D02*
X1026159Y1057484D01*
X1027432Y1060109D02*
X1027159Y1059984D01*
X1027068Y1059734*
Y1059484*
X1027159Y1059234*
X1027341Y1059109*
X1027705Y1058984*
X1027977Y1058859*
X1028159Y1058609*
X1028250Y1058359*
Y1057984*
X1028159Y1057734*
X1028068Y1057609*
X1027795Y1057484*
X1027432*
X1027159Y1057609*
X1027068Y1057734*
X1026977Y1057984*
Y1058359*
X1027068Y1058609*
X1027250Y1058859*
X1027523Y1058984*
X1027886Y1059109*
X1028068Y1059234*
X1028159Y1059484*
Y1059734*
X1028068Y1059984*
X1027795Y1060109*
X1027432*
X1157932Y1104125D02*
Y1101500D01*
Y1104125D02*
X1158750D01*
X1159023Y1104000*
X1159114Y1103875*
X1159205Y1103625*
Y1103375*
X1159114Y1103125*
X1159023Y1103000*
X1158750Y1102875*
X1157932*
X1158568D02*
X1159205Y1101500D01*
X1161205Y1103250D02*
X1161114Y1102875D01*
X1160932Y1102625*
X1160659Y1102500*
X1160568*
X1160295Y1102625*
X1160114Y1102875*
X1160023Y1103250*
Y1103375*
X1160114Y1103750*
X1160295Y1104000*
X1160568Y1104125*
X1160659*
X1160932Y1104000*
X1161114Y1103750*
X1161205Y1103250*
Y1102625*
X1161114Y1102000*
X1160932Y1101625*
X1160659Y1101500*
X1160477*
X1160205Y1101625*
X1160114Y1101875*
X1036250Y1170625D02*
X1036068Y1170875D01*
X1035795Y1171000*
X1035432*
X1035159Y1170875*
X1034977Y1170625*
Y1170375*
X1035068Y1170125*
X1035159Y1170000*
X1035341Y1169875*
X1035886Y1169625*
X1036068Y1169500*
X1036159Y1169375*
X1036250Y1169125*
Y1168750*
X1036068Y1168500*
X1035795Y1168375*
X1035432*
X1035159Y1168500*
X1034977Y1168750*
X1037068Y1171000D02*
X1037523Y1168375D01*
X1037977Y1171000D02*
X1037523Y1168375D01*
X1037977Y1171000D02*
X1038432Y1168375D01*
X1038886Y1171000D02*
X1038432Y1168375D01*
X1039705Y1170500D02*
X1039886Y1170625D01*
X1040159Y1171000*
Y1168375*
X1173341Y1045750D02*
X1173159Y1046000D01*
X1172886Y1046125*
X1172523*
X1172250Y1046000*
X1172068Y1045750*
Y1045500*
X1172159Y1045250*
X1172250Y1045125*
X1172432Y1045000*
X1172977Y1044750*
X1173159Y1044625*
X1173250Y1044500*
X1173341Y1044250*
Y1043875*
X1173159Y1043625*
X1172886Y1043500*
X1172523*
X1172250Y1043625*
X1172068Y1043875*
X1174159Y1046125D02*
X1174614Y1043500D01*
X1175068Y1046125D02*
X1174614Y1043500D01*
X1175068Y1046125D02*
X1175523Y1043500D01*
X1175977Y1046125D02*
X1175523Y1043500D01*
X1176886Y1045500D02*
Y1045625D01*
X1176977Y1045875*
X1177068Y1046000*
X1177250Y1046125*
X1177614*
X1177795Y1046000*
X1177886Y1045875*
X1177977Y1045625*
Y1045375*
X1177886Y1045125*
X1177705Y1044750*
X1176795Y1043500*
X1178068*
X1053199Y1024812D02*
Y1022937D01*
X1053290Y1022562*
X1053472Y1022312*
X1053744Y1022187*
X1053926*
X1054199Y1022312*
X1054381Y1022562*
X1054472Y1022937*
Y1024812*
X1055381Y1024187D02*
Y1024312D01*
X1055472Y1024562*
X1055563Y1024687*
X1055563D02*
X1055744Y1024812D01*
X1056108*
X1056290Y1024687*
X1056381Y1024562*
X1056472Y1024312*
Y1024062*
X1056381Y1023812*
X1056199Y1023437*
X1055290Y1022187*
X1056563*
X1128886Y1167500D02*
Y1165625D01*
X1128977Y1165250*
X1129159Y1165000*
X1129432Y1164875*
X1129614*
X1129886Y1165000*
X1130068Y1165250*
X1130159Y1165625*
Y1167500*
X1131159D02*
X1132159D01*
X1131614Y1166500*
X1131886*
X1132068Y1166375*
X1132159Y1166250*
X1132250Y1165875*
Y1165625*
X1132159Y1165250*
X1131977Y1165000*
X1131705Y1164875*
X1131432*
X1131159Y1165000*
X1131068Y1165125*
X1130977Y1165375*
X1196000Y1084659D02*
X1194125D01*
X1193750Y1084568*
X1193500Y1084386*
X1193375Y1084114*
Y1083932*
X1193500Y1083659*
X1193750Y1083477*
X1194125Y1083386*
X1196000*
Y1081659D02*
X1194250Y1082568D01*
Y1081205*
X1196000Y1081659D02*
X1193375D01*
X1200778Y1146563D02*
Y1144688D01*
X1200778D02*
X1200869Y1144313D01*
X1200869D02*
X1201051Y1144063D01*
X1201051D02*
X1201324Y1143938D01*
X1201324D02*
X1201506D01*
X1201506D02*
X1201778Y1144063D01*
X1201778D02*
X1201960Y1144313D01*
X1201960D02*
X1202051Y1144688D01*
X1202051D02*
Y1146563D01*
X1204051D02*
X1203142D01*
X1203051Y1145438*
X1203051D02*
X1203142Y1145563D01*
X1203415Y1145688*
X1203688*
X1203688D02*
X1203960Y1145563D01*
X1204142Y1145313*
X1204142D02*
X1204233Y1144938D01*
X1204233D02*
X1204142Y1144688D01*
X1204142D02*
X1204051Y1144313D01*
X1204051D02*
X1203869Y1144063D01*
X1203869D02*
X1203597Y1143938D01*
X1203597D02*
X1203324D01*
X1203324D02*
X1203051Y1144063D01*
X1203051D02*
X1202960Y1144188D01*
X1202960D02*
X1202869Y1144438D01*
X1024658Y1138562D02*
X1025385Y1137312D01*
Y1135937*
X1026112Y1138562D02*
X1025385Y1137312D01*
X1026930Y1138062D02*
X1027112Y1138187D01*
X1027112D02*
X1027385Y1138562D01*
X1027385D02*
Y1135937D01*
X1136159Y1146875D02*
X1136068Y1147125D01*
X1135886Y1147375*
X1135705Y1147500*
X1135341*
X1135159Y1147375*
X1134977Y1147125*
X1134886Y1146875*
X1134795Y1146500*
Y1145875*
X1134886Y1145500*
X1134977Y1145250*
X1135159Y1145000*
X1135341Y1144875*
X1135705*
X1135886Y1145000*
X1136068Y1145250*
X1136159Y1145500*
X1137159Y1147500D02*
X1138159D01*
X1137614Y1146500*
X1137886*
X1138068Y1146375*
X1138159Y1146250*
X1138250Y1145875*
Y1145625*
X1138159Y1145250*
X1137977Y1145000*
X1137705Y1144875*
X1137432*
X1137159Y1145000*
X1137068Y1145125*
X1136977Y1145375*
X1139250Y1147500D02*
X1140250D01*
X1139705Y1146500*
X1139977*
X1140159Y1146375*
X1140250Y1146250*
X1140341Y1145875*
Y1145625*
X1140250Y1145250*
X1140068Y1145000*
X1139795Y1144875*
X1139523*
X1139250Y1145000*
X1139159Y1145125*
X1139068Y1145375*
X1150114Y1147375D02*
X1150023Y1147625D01*
X1149841Y1147875*
X1149659Y1148000*
X1149295*
X1149114Y1147875*
X1148932Y1147625*
X1148841Y1147375*
X1148750Y1147000*
Y1146375*
X1148841Y1146000*
X1148932Y1145750*
X1149114Y1145500*
X1149295Y1145375*
X1149659*
X1149841Y1145500*
X1150023Y1145750*
X1150114Y1146000*
X1151114Y1148000D02*
X1152114D01*
X1151568Y1147000*
X1151841*
X1152023Y1146875*
X1152114Y1146750*
X1152205Y1146375*
Y1146125*
X1152114Y1145750*
X1151932Y1145500*
X1151659Y1145375*
X1151386*
X1151114Y1145500*
X1151023Y1145625*
X1150932Y1145875*
X1153932Y1148000D02*
X1153023Y1146250D01*
X1154386*
X1153932Y1148000D02*
Y1145375D01*
X1151125Y1112205D02*
X1148500D01*
X1151125D02*
Y1111386D01*
X1151000Y1111114*
X1150875Y1111023*
X1150625Y1110932*
X1150375*
X1150125Y1111023*
X1150000Y1111114*
X1149875Y1111386*
Y1112205*
Y1111568D02*
X1148500Y1110932D01*
X1150500Y1110023D02*
X1150625D01*
X1150875Y1109932*
X1151000Y1109841*
X1151125Y1109659*
Y1109295*
X1151000Y1109114*
X1150875Y1109023*
X1150625Y1108932*
X1150375*
X1150125Y1109023*
X1149750Y1109205*
X1148500Y1110114*
Y1108841*
X1151125Y1106841D02*
Y1107750D01*
X1150000Y1107841*
X1150125Y1107750*
X1150250Y1107477*
Y1107205*
X1150125Y1106932*
X1149875Y1106750*
X1149500Y1106659*
X1149250Y1106750*
X1148875Y1106841*
X1148625Y1107023*
X1148500Y1107295*
Y1107568*
X1148625Y1107841*
X1148750Y1107932*
X1149000Y1108023*
X1157989Y1047000D02*
X1157898Y1047250D01*
X1157716Y1047500*
X1157534Y1047625*
X1157170*
X1156989Y1047500*
X1156807Y1047250*
X1156716Y1047000*
X1156625Y1046625*
Y1046000*
X1156716Y1045625*
X1156807Y1045375*
X1156989Y1045125*
X1157170Y1045000*
X1157534*
X1157716Y1045125*
X1157898Y1045375*
X1157989Y1045625*
X1158989Y1047625D02*
X1159989D01*
X1159443Y1046625*
X1159716*
X1159898Y1046500*
X1159989Y1046375*
X1160080Y1046000*
Y1045750*
X1159989Y1045375*
X1159807Y1045125*
X1159534Y1045000*
X1159261*
X1158989Y1045125*
X1158898Y1045250*
X1158807Y1045500*
X1162080Y1047625D02*
X1161170D01*
X1161080Y1046500*
X1161170Y1046625*
X1161443Y1046750*
X1161716*
X1161989Y1046625*
X1162170Y1046375*
X1162261Y1046000*
X1162170Y1045750*
X1162080Y1045375*
X1161898Y1045125*
X1161625Y1045000*
X1161352*
X1161080Y1045125*
X1160989Y1045250*
X1160898Y1045500*
X1173455Y1131125D02*
X1173364Y1131375D01*
X1173182Y1131625*
X1173000Y1131750*
X1172636*
X1172455Y1131625*
X1172273Y1131375*
X1172182Y1131125*
X1172091Y1130750*
Y1130125*
X1172182Y1129750*
X1172273Y1129500*
X1172455Y1129250*
X1172636Y1129125*
X1173000*
X1173182Y1129250*
X1173364Y1129500*
X1173455Y1129750*
X1174727Y1131750D02*
X1174455Y1131625D01*
X1174364Y1131375*
Y1131125*
X1174455Y1130875*
X1174636Y1130750*
X1175000Y1130625*
X1175273Y1130500*
X1175455Y1130250*
X1175545Y1130000*
Y1129625*
X1175455Y1129375*
X1175364Y1129250*
X1175091Y1129125*
X1174727*
X1174455Y1129250*
X1174364Y1129375*
X1174273Y1129625*
Y1130000*
X1174364Y1130250*
X1174545Y1130500*
X1174818Y1130625*
X1175182Y1130750*
X1175364Y1130875*
X1175455Y1131125*
Y1131375*
X1175364Y1131625*
X1175091Y1131750*
X1174727*
X1203364Y1202125D02*
X1203273Y1202375D01*
X1203091Y1202625*
X1202909Y1202750*
X1202545*
X1202364Y1202625*
X1202182Y1202375*
X1202091Y1202125*
X1202000Y1201750*
Y1201125*
X1202091Y1200750*
X1202182Y1200500*
X1202364Y1200250*
X1202545Y1200125*
X1202909*
X1203091Y1200250*
X1203273Y1200500*
X1203364Y1200750*
X1204182Y1202250D02*
X1204364Y1202375D01*
X1204636Y1202750*
Y1200125*
X1206545Y1202375D02*
X1206455Y1202625D01*
X1206182Y1202750*
X1206000*
X1205727Y1202625*
X1205545Y1202250*
X1205455Y1201625*
Y1201000*
X1205545Y1200500*
X1205727Y1200250*
X1206000Y1200125*
X1206091*
X1206364Y1200250*
X1206545Y1200500*
X1206636Y1200875*
Y1201000*
X1206545Y1201375*
X1206364Y1201625*
X1206091Y1201750*
X1206000*
X1205727Y1201625*
X1205545Y1201375*
X1205455Y1201000*
X1127205Y1102500D02*
X1127114Y1102750D01*
X1126932Y1103000*
X1126750Y1103125*
X1126386*
X1126205Y1103000*
X1126023Y1102750*
X1125932Y1102500*
X1125841Y1102125*
Y1101500*
X1125932Y1101125*
X1126023Y1100875*
X1126205Y1100625*
X1126386Y1100500*
X1126750*
X1126932Y1100625*
X1127114Y1100875*
X1127205Y1101125*
X1128114Y1102500D02*
Y1102625D01*
X1128205Y1102875*
X1128295Y1103000*
X1128477Y1103125*
X1128841*
X1129023Y1103000*
X1129114Y1102875*
X1129205Y1102625*
Y1102375*
X1129114Y1102125*
X1128932Y1101750*
X1128023Y1100500*
X1129295*
X1131205Y1102750D02*
X1131114Y1103000D01*
X1130841Y1103125*
X1130659*
X1130386Y1103000*
X1130205Y1102625*
X1130114Y1102000*
Y1101375*
X1130205Y1100875*
X1130386Y1100625*
X1130659Y1100500*
X1130750*
X1131023Y1100625*
X1131205Y1100875*
X1131295Y1101250*
Y1101375*
X1131205Y1101750*
X1131023Y1102000*
X1130750Y1102125*
X1130659*
X1130386Y1102000*
X1130205Y1101750*
X1130114Y1101375*
X1127341Y1117125D02*
Y1114500D01*
Y1117125D02*
X1127977D01*
X1128250Y1117000*
X1128432Y1116750*
X1128523Y1116500*
X1128614Y1116125*
Y1115500*
X1128523Y1115125*
X1128432Y1114875*
X1128250Y1114625*
X1127977Y1114500*
X1127341*
X1130341Y1117125D02*
X1129432Y1115375D01*
X1130795*
X1130341Y1117125D02*
Y1114500D01*
X1024750Y1146636D02*
X1022125D01*
X1024750D02*
Y1146000D01*
X1024625Y1145727*
X1024375Y1145545*
X1024125Y1145455*
X1023750Y1145364*
X1023125*
X1022750Y1145455*
X1022500Y1145545*
X1022250Y1145727*
X1022125Y1146000*
Y1146636*
X1024750Y1143273D02*
X1022125Y1144182D01*
X1024750Y1144545D02*
Y1143273D01*
X1012045Y1027250D02*
Y1025250D01*
X1011955Y1024875*
X1011864Y1024750*
X1011682Y1024625*
X1011500*
X1011318Y1024750*
X1011227Y1024875*
X1011136Y1025250*
Y1025500*
X1013955Y1026875D02*
X1013864Y1027125D01*
X1013591Y1027250*
X1013409*
X1013136Y1027125*
X1012955Y1026750*
X1012864Y1026125*
Y1025500*
X1012955Y1025000*
X1013136Y1024750*
X1013409Y1024625*
X1013500*
X1013773Y1024750*
X1013955Y1025000*
X1014045Y1025375*
Y1025500*
X1013955Y1025875*
X1013773Y1026125*
X1013500Y1026250*
X1013409*
X1013136Y1026125*
X1012955Y1025875*
X1012864Y1025500*
X1073125Y1162807D02*
Y1160182D01*
Y1162807D02*
X1073761D01*
X1074034Y1162682*
X1074216Y1162432*
X1074307Y1162182*
X1074398Y1161807*
Y1161182*
X1074307Y1160807*
X1074216Y1160557*
X1074034Y1160307*
X1073761Y1160182*
X1073125*
X1076307Y1162432D02*
X1076216Y1162682D01*
X1075943Y1162807*
X1075761*
X1075489Y1162682*
X1075307Y1162307*
X1075216Y1161682*
Y1161057*
X1075307Y1160557*
X1075489Y1160307*
X1075761Y1160182*
X1075852*
X1076125Y1160307*
X1076307Y1160557*
X1076398Y1160932*
Y1161057*
X1076307Y1161432*
X1076125Y1161682*
X1075852Y1161807*
X1075761*
X1075489Y1161682*
X1075307Y1161432*
X1075216Y1161057*
X1058364Y1172250D02*
Y1169625D01*
Y1172250D02*
X1059182D01*
X1059455Y1172125*
X1059545Y1172000*
X1059636Y1171750*
Y1171500*
X1059545Y1171250*
X1059455Y1171125*
X1059182Y1171000*
X1058364*
X1059000D02*
X1059636Y1169625D01*
X1060545Y1171625D02*
Y1171750D01*
X1060636Y1172000*
X1060727Y1172125*
X1060909Y1172250*
X1061273*
X1061455Y1172125*
X1061545Y1172000*
X1061636Y1171750*
Y1171500*
X1061545Y1171250*
X1061364Y1170875*
X1060455Y1169625*
X1061727*
X1063636Y1171875D02*
X1063545Y1172125D01*
X1063273Y1172250*
X1063091*
X1062818Y1172125*
X1062636Y1171750*
X1062545Y1171125*
Y1170500*
X1062636Y1170000*
X1062818Y1169750*
X1063091Y1169625*
X1063182*
X1063455Y1169750*
X1063636Y1170000*
X1063727Y1170375*
Y1170500*
X1063636Y1170875*
X1063455Y1171125*
X1063182Y1171250*
X1063091*
X1062818Y1171125*
X1062636Y1170875*
X1062545Y1170500*
X1024250Y1167591D02*
X1021625D01*
X1024250D02*
Y1166773D01*
X1024125Y1166500*
X1024000Y1166409*
X1023750Y1166318*
X1023500*
X1023250Y1166409*
X1023125Y1166500*
X1023000Y1166773*
Y1167591*
Y1166955D02*
X1021625Y1166318D01*
X1023625Y1165409D02*
X1023750D01*
X1024000Y1165318*
X1024125Y1165227*
X1024250Y1165045*
Y1164682*
X1024125Y1164500*
X1024000Y1164409*
X1023750Y1164318*
X1023500*
X1023250Y1164409*
X1022875Y1164591*
X1021625Y1165500*
Y1164227*
X1024250Y1162136D02*
X1021625Y1163045D01*
X1024250Y1163409D02*
Y1162136D01*
X1103932Y1024500D02*
Y1022500D01*
X1103841Y1022125*
X1103750Y1022000*
X1103568Y1021875*
X1103386*
X1103205Y1022000*
X1103114Y1022125*
X1103023Y1022500*
Y1022750*
X1105659Y1024500D02*
X1104750Y1022750D01*
X1106114*
X1105659Y1024500D02*
Y1021875D01*
G54D38*
X1089748Y1074257D02*
Y1072411D01*
X1089838Y1072042*
X1090016Y1071796*
X1090285Y1071673*
X1090464*
X1090732Y1071796*
X1090911Y1072042*
X1091001Y1072411*
Y1074257*
X1091806Y1073765D02*
X1091985Y1073888D01*
X1092253Y1074257*
Y1071673*
G54D62*
X1085500Y1019500D02*
X1126500D01*
Y1013500*
X1085500*
Y1019500*
G74*
X0Y0D02*
M02*
