*
*
G04 PADS 9.5 Build Number: 522968 generated Gerber (RS-274-X) file*
G04 PC Version=2.1*
*
%IN "GDCS_test.pcb"*%
*
%MOIN*%
*
%FSLAX35Y35*%
*
*
*
*
G04 PC Standard Apertures*
*
*
G04 Thermal Relief Aperture macro.*
%AMTER*
1,1,$1,0,0*
1,0,$1-$2,0,0*
21,0,$3,$4,0,0,45*
21,0,$3,$4,0,0,135*
%
*
*
G04 Annular Aperture macro.*
%AMANN*
1,1,$1,0,0*
1,0,$2,0,0*
%
*
*
G04 Odd Aperture macro.*
%AMODD*
1,1,$1,0,0*
1,0,$1-0.005,0,0*
%
*
*
G04 PC Custom Aperture Macros*
*
*
*
*
*
*
G04 PC Aperture Table*
*
%ADD010C,0.001*%
%ADD027C,0.01*%
%ADD034C,0.00787*%
%ADD037C,0.005*%
*
*
*
*
G04 PC Circuitry*
G04 Layer Name GDCS_test.pcb - circuitry*
%LPD*%
*
*
G04 PC Custom Flashes*
G04 Layer Name GDCS_test.pcb - flashes*
%LPD*%
*
*
G04 PC Circuitry*
G04 Layer Name GDCS_test.pcb - circuitry*
%LPD*%
*
G54D10*
G54D27*
G01X1177250Y1062000D02*
X1185300D01*
Y1052000*
X1177250*
X1169750Y1062000D02*
X1161700D01*
Y1052000*
X1169750*
X1195700Y1023500D02*
X1201500D01*
Y1016500*
X1195700*
X1193300Y1023500D02*
X1187500D01*
Y1016500*
X1193300*
X1007500Y1205000D02*
X1208500D01*
Y1010000*
X1007500*
Y1205000*
G54D34*
X1010000Y1028500D02*
X1034000D01*
Y1040500*
X1010000*
Y1028500*
X1184500Y1100750D02*
X1167500D01*
Y1090250*
X1184500*
Y1100750*
X1177750Y1098000D02*
Y1093000D01*
X1177500Y1095500D02*
X1174500Y1098500D01*
Y1092500*
X1177500Y1095500*
X1179000Y1068250D02*
X1196000D01*
Y1078750*
X1179000*
Y1068250*
X1185750Y1071000D02*
Y1076000D01*
X1186000Y1073500D02*
X1189000Y1070500D01*
Y1076500*
X1186000Y1073500*
X1198250Y1137500D02*
X1167750D01*
Y1106250*
X1198250*
Y1137500*
G54D37*
X1017159Y1045125D02*
Y1042500D01*
Y1045125D02*
X1016523D01*
X1016250Y1045000*
X1016068Y1044750*
X1015977Y1044500*
X1015886Y1044125*
Y1043500*
X1015977Y1043125*
X1016068Y1042875*
X1016250Y1042625*
X1016523Y1042500*
X1017159*
X1013886Y1045125D02*
X1014795D01*
X1014886Y1044000*
X1014795Y1044125*
X1014523Y1044250*
X1014250*
X1013977Y1044125*
X1013795Y1043875*
X1013705Y1043500*
X1013795Y1043250*
X1013886Y1042875*
X1014068Y1042625*
X1014341Y1042500*
X1014614*
X1014886Y1042625*
X1014977Y1042750*
X1015068Y1043000*
X1174432Y1050000D02*
X1174523Y1050250D01*
X1174705Y1050500*
X1174886Y1050625*
X1175250*
X1175432Y1050500*
X1175614Y1050250*
X1175705Y1050000*
X1175795Y1049625*
Y1049000*
X1175705Y1048625*
X1175614Y1048375*
X1175432Y1048125*
X1175250Y1048000*
X1174886*
X1174705Y1048125*
X1174523Y1048375*
X1174432Y1048625*
X1173614Y1050125D02*
X1173432Y1050250D01*
X1173159Y1050625*
Y1048000*
X1171795Y1050625D02*
X1172068Y1050500D01*
X1172250Y1050125*
X1172341Y1049500*
Y1049125*
X1172250Y1048500*
X1172068Y1048125*
X1171795Y1048000*
X1171614*
X1171341Y1048125*
X1171159Y1048500*
X1171068Y1049125*
Y1049500*
X1171159Y1050125*
X1171341Y1050500*
X1171614Y1050625*
X1171795*
X1163114Y1099500D02*
Y1096875D01*
Y1099500D02*
X1162477D01*
X1162205Y1099375*
X1162023Y1099125*
X1161932Y1098875*
X1161841Y1098500*
Y1097875*
X1161932Y1097500*
X1162023Y1097250*
X1162205Y1097000*
X1162477Y1096875*
X1163114*
X1160932Y1098875D02*
Y1099000D01*
X1160841Y1099250*
X1160750Y1099375*
X1160568Y1099500*
X1160205*
X1160023Y1099375*
X1159932Y1099250*
X1159841Y1099000*
Y1098750*
X1159932Y1098500*
X1160114Y1098125*
X1161023Y1096875*
X1159750*
X1201614Y1081500D02*
Y1078875D01*
Y1081500D02*
X1200977D01*
X1200705Y1081375*
X1200523Y1081125*
X1200432Y1080875*
X1200341Y1080500*
Y1079875*
X1200432Y1079500*
X1200523Y1079250*
X1200705Y1079000*
X1200977Y1078875*
X1201614*
X1199341Y1081500D02*
X1198341D01*
X1198886Y1080500*
X1198614*
X1198432Y1080375*
X1198341Y1080250*
X1198250Y1079875*
Y1079625*
X1198341Y1079250*
X1198523Y1079000*
X1198795Y1078875*
X1199068*
X1199341Y1079000*
X1199432Y1079125*
X1199523Y1079375*
X1184614Y1141625D02*
Y1139000D01*
X1183523*
X1182705Y1141125D02*
X1182523Y1141250D01*
X1182250Y1141625*
Y1139000*
X1201023Y1027500D02*
Y1024875D01*
X1199932*
X1199023Y1026875D02*
Y1027000D01*
X1198932Y1027250*
X1198841Y1027375*
X1198659Y1027500*
X1198295*
X1198114Y1027375*
X1198023Y1027250*
X1197932Y1027000*
Y1026750*
X1198023Y1026500*
X1198205Y1026125*
X1199114Y1024875*
X1197841*
X0Y0D02*
M02*
