*
*
G04 PADS 9.5 Build Number: 522968 generated Gerber (RS-274-X) file*
G04 PC Version=2.1*
*
%IN "GDCS.pcb"*%
*
%MOIN*%
*
%FSLAX35Y35*%
*
*
*
*
G04 PC Standard Apertures*
*
*
G04 Thermal Relief Aperture macro.*
%AMTER*
1,1,$1,0,0*
1,0,$1-$2,0,0*
21,0,$3,$4,0,0,45*
21,0,$3,$4,0,0,135*
%
*
*
G04 Annular Aperture macro.*
%AMANN*
1,1,$1,0,0*
1,0,$2,0,0*
%
*
*
G04 Odd Aperture macro.*
%AMODD*
1,1,$1,0,0*
1,0,$1-0.005,0,0*
%
*
*
G04 PC Custom Aperture Macros*
*
*
*
*
*
*
G04 PC Aperture Table*
*
%ADD010C,0.001*%
%ADD011R,0.03X0.038*%
%ADD012R,0.038X0.03*%
%ADD013ANN,0.07874X0.0315*%
%ADD014R,0.036X0.036*%
%ADD015R,0.05X0.036*%
%ADD016R,0.02362X0.04724*%
%ADD017ANN,0.05906X0.0315*%
%ADD018R,0.06X0.06*%
%ADD019C,0.06*%
%ADD020R,0.065X0.045*%
%ADD021R,0.065X0.118*%
%ADD022C,0.07874*%
%ADD023R,0.06299X0.02362*%
%ADD026R,0.04921X0.01772*%
%ADD027C,0.01*%
%ADD028C,0.012*%
%ADD029C,0.015*%
%ADD030C,0.022*%
%ADD031C,0.008*%
%ADD057R,0.05906X0.00984*%
%ADD058R,0.00984X0.05906*%
%ADD059R,0.05X0.06*%
*
*
*
*
G04 PC Circuitry*
G04 Layer Name GDCS.pcb - circuitry*
%LPD*%
*
*
G04 PC Custom Flashes*
G04 Layer Name GDCS.pcb - flashes*
%LPD*%
*
*
G04 PC Circuitry*
G04 Layer Name GDCS.pcb - circuitry*
%LPD*%
*
G54D10*
G54D11*
G01X1051500Y1125600D03*
Y1119400D03*
X1199500Y1096100D03*
Y1089900D03*
X1179500Y1114400D03*
Y1120600D03*
X1104000Y1049600D03*
Y1043400D03*
X1112000Y1049600D03*
Y1043400D03*
X1020000Y1098900D03*
Y1105100D03*
X1115500Y1089600D03*
Y1083400D03*
X1125000Y1089600D03*
Y1083400D03*
X1077000Y1098400D03*
Y1104600D03*
X1068500Y1097900D03*
Y1104100D03*
X1035000Y1075900D03*
Y1082100D03*
X1043500Y1076400D03*
Y1082600D03*
X1143500Y1123900D03*
Y1130100D03*
X1147500Y1152400D03*
Y1158600D03*
X1097000Y1120400D03*
Y1126600D03*
X1020000Y1122100D03*
Y1115900D03*
X1053000Y1082600D03*
Y1076400D03*
X1138500Y1158600D03*
Y1152400D03*
X1156500D03*
Y1158600D03*
X1051500Y1103400D03*
Y1109600D03*
X1158500Y1183900D03*
Y1190100D03*
X1052000Y1061600D03*
Y1055400D03*
X1143500Y1107400D03*
Y1113600D03*
X1158500Y1053400D03*
Y1059600D03*
X1015500Y1160400D03*
Y1166600D03*
G54D12*
X1185900Y1056500D03*
X1192100D03*
X1107900Y1109500D03*
X1114100D03*
X1107900Y1129000D03*
X1114100D03*
X1062400Y1112500D03*
X1068600D03*
X1145600Y1171500D03*
X1139400D03*
X1196400Y1042500D03*
X1202600D03*
X1079100Y1037000D03*
X1072900D03*
X1192100Y1066000D03*
X1185900D03*
X1188400Y1121000D03*
X1194600D03*
X1170400Y1081500D03*
X1176600D03*
X1183900Y1103000D03*
X1190100D03*
X1169900Y1070500D03*
X1176100D03*
X1041600Y1066000D03*
X1035400D03*
X1107900Y1098500D03*
X1114100D03*
X1126400Y1129000D03*
X1132600D03*
X1107900Y1119000D03*
X1114100D03*
X1168900Y1182000D03*
X1175100D03*
X1140600Y1194000D03*
X1134400D03*
X1174600Y1191000D03*
X1168400D03*
X1125900Y1185000D03*
X1132100D03*
X1141400D03*
X1147600D03*
X1068600Y1122500D03*
X1062400D03*
X1202600Y1030500D03*
X1196400D03*
X1072900Y1045000D03*
X1079100D03*
X1041600Y1048000D03*
X1035400D03*
X1034900Y1057500D03*
X1041100D03*
X1173100Y1103500D03*
X1166900D03*
X1141100Y1141000D03*
X1134900D03*
X1156600D03*
X1150400D03*
X1132100Y1107000D03*
X1125900D03*
X1065100Y1164000D03*
X1058900D03*
G54D13*
X1023000Y1183000D03*
Y1193000D03*
X1033000Y1183000D03*
Y1193000D03*
X1043000Y1183000D03*
Y1193000D03*
X1053000Y1183000D03*
Y1193000D03*
X1063000Y1183000D03*
Y1193000D03*
X1073000Y1183000D03*
Y1193000D03*
X1083000Y1183000D03*
Y1193000D03*
X1093000Y1183000D03*
Y1193000D03*
X1103000Y1183000D03*
Y1193000D03*
X1113000Y1183000D03*
Y1193000D03*
X1158500Y1088000D03*
Y1078000D03*
X1051500Y1025000D03*
Y1035000D03*
X1078500Y1024500D03*
X1088500D03*
X1098500D03*
X1109500D03*
X1119500D03*
X1129500D03*
X1139500D03*
X1149500D03*
X1199500Y1160500D03*
Y1170500D03*
X1023500Y1033000D03*
X1033500D03*
X1036000Y1017500D03*
X1026000D03*
X1016000D03*
G54D14*
X1026400Y1045750D03*
Y1053250D03*
G54D15*
X1018400Y1049500D03*
G54D16*
X1045638Y1142791D03*
X1030992D03*
X1045598Y1164996D03*
X1030992D03*
X1167862Y1042209D03*
X1182508D03*
X1167902Y1020004D03*
X1182508D03*
X1191000Y1095500D03*
X1187260D03*
X1183520D03*
Y1085264D03*
X1187260D03*
X1191000D03*
G54D17*
X1064000Y1023500D03*
Y1033500D03*
Y1043500D03*
G54D18*
X1124500Y1168500D03*
X1161500Y1126000D03*
X1193000Y1186000D03*
G54D19*
X1114500Y1168500D03*
X1104500D03*
X1094500D03*
Y1138500D03*
X1104500D03*
X1114500D03*
X1124500D03*
X1161500Y1116100D03*
X1193000Y1195900D03*
G54D20*
X1171000Y1154100D03*
Y1145000D03*
Y1135900D03*
G54D21*
X1196000Y1145000D03*
G54D22*
X1036000Y1102500D03*
Y1122185D03*
G54D23*
X1122130Y1055500D03*
Y1050500D03*
Y1045500D03*
Y1040500D03*
X1150870D03*
Y1045500D03*
Y1050500D03*
Y1055500D03*
G54D26*
X1133831Y1121000D03*
X1125169D03*
G54D27*
X1053084Y1026340D02*
X1057000Y1029654D01*
Y1047425*
X1062768Y1053193*
X1077614*
X1078921Y1054500*
Y1055925*
X1033500Y1035075D02*
Y1040500D01*
X1035000Y1042000*
Y1047600*
X1035400Y1048000*
X1026400Y1045750D02*
X1034000Y1053350D01*
X1038500*
X1041150Y1056000*
X1051500Y1037075D02*
Y1048346D01*
X1064000Y1060846*
X1074000*
X1059500Y1047000D02*
Y1028000D01*
X1062533Y1024967*
X1059500Y1047000D02*
X1064000Y1051500D01*
X1074000*
X1079000Y1046500*
Y1045100*
X1079100Y1045000*
X1140000Y1045500D02*
X1150870D01*
Y1040500D02*
X1158500D01*
X1164000Y1046000*
X1182508Y1042209D02*
X1167862D01*
X1168000Y1042346*
X1182508Y1042209D02*
X1196109D01*
X1196400Y1042500*
Y1030500*
X1018400Y1049500D02*
X1018500Y1049400D01*
Y1041000*
X1023500Y1036000*
Y1035075*
X1041100Y1057500D02*
X1049900D01*
X1052000Y1055400*
X1041100Y1057500D02*
X1041150Y1057450D01*
Y1056000*
X1052000Y1061600D02*
X1053215Y1062815D01*
X1074000*
X1080000Y1050000D02*
X1080890Y1050890D01*
Y1055925*
X1082000Y1064000D02*
X1093138D01*
X1096638Y1060500*
Y1055925*
X1092701D02*
Y1049299D01*
X1106000Y1036000*
X1132500*
X1139500Y1029000*
Y1026575*
X1090732Y1055925D02*
Y1048268D01*
X1105000Y1034000*
X1122500*
X1129500Y1027000*
Y1026575*
X1088764Y1055925D02*
Y1046736D01*
X1103500Y1032000*
X1116500*
X1119500Y1029000*
Y1026575*
X1086795Y1055925D02*
Y1045500D01*
X1107795Y1024500*
X1109500*
X1084827Y1055925D02*
Y1044673D01*
X1098327Y1031173*
Y1024673*
X1098500Y1024500*
X1082858Y1055925D02*
Y1042642D01*
X1088500Y1037000*
Y1026575*
X1105496Y1066752D02*
X1160748D01*
X1164000Y1063500*
Y1046000*
X1105496Y1064783D02*
X1126000D01*
X1130000Y1060783*
X1105496Y1062815D02*
X1122685D01*
X1123000Y1062500*
X1105496Y1060846D02*
X1112654D01*
X1117500Y1056000*
X1121630*
X1122130Y1055500*
Y1050500D02*
X1126500D01*
X1130000Y1054000*
Y1060783*
X1053000Y1076400D02*
X1060680Y1068720D01*
X1074000*
X1043500Y1082600D02*
X1047000D01*
Y1082400*
X1053000Y1076400*
X1035000Y1082100D02*
X1035500Y1082600D01*
X1043500*
X1062000Y1075500D02*
X1066811Y1070689D01*
X1074000*
X1088764Y1087421D02*
Y1098264D01*
X1089000Y1098500*
X1090732Y1087421D02*
Y1094732D01*
X1091000Y1095000*
X1105496Y1078563D02*
X1121937D01*
X1139000Y1078500*
X1155000Y1094500*
Y1101000*
X1105496Y1072657D02*
X1137000D01*
X1152343Y1088000*
X1156425*
X1105496Y1070689D02*
X1138500D01*
X1145811Y1078000*
X1156425*
X1105496Y1068720D02*
X1163000D01*
X1166500Y1065220*
Y1053500*
X1168000Y1052000*
Y1042346*
X1169900Y1070500D02*
X1176500Y1077100D01*
Y1081400*
X1176600Y1081500*
X1169900Y1070500D02*
X1170000Y1070400D01*
Y1064500*
X1186000Y1081500D02*
X1187500Y1083000D01*
Y1085024*
X1187000Y1075500D02*
X1190831Y1079331D01*
X1191000*
Y1085264*
X1195000*
Y1085400*
X1199500Y1089900*
X1187260Y1085264D02*
X1187500Y1085024D01*
X1176100Y1070500D02*
X1183520Y1077920D01*
Y1085264*
X1181000Y1081500D02*
X1176600D01*
X1177000*
Y1088500*
X1020000Y1105100D02*
X1033500D01*
Y1105000*
X1036000Y1102500*
X1036900Y1103400*
X1051500*
X1062000Y1097500D02*
Y1112100D01*
X1062400Y1112500*
X1103500Y1098500D02*
X1107900D01*
X1114100D02*
X1142000D01*
X1146500Y1094000*
X1132100Y1107000D02*
X1143100D01*
X1143500Y1107400*
X1143600*
X1151000Y1100000*
Y1097000*
X1166900Y1103500D02*
X1174900Y1095500D01*
X1183520*
X1183900Y1095880*
Y1103000*
X1187260Y1095500D02*
Y1100160D01*
X1190100Y1103000*
X1191000Y1095500D02*
X1191600Y1096100D01*
X1199500*
Y1089900D02*
X1202500Y1092900D01*
Y1114500*
X1020000Y1115900D02*
Y1105100D01*
Y1122100D02*
X1035915D01*
X1036000Y1122185*
X1049500*
X1051500Y1120185*
Y1119400*
Y1109600D02*
X1055000Y1106100D01*
Y1094000*
X1063500Y1085500*
Y1077500*
X1068343Y1072657*
X1074000*
X1051500Y1119400D02*
X1058500Y1112400D01*
Y1094000*
X1067000Y1085500*
Y1077000*
X1069374Y1074626*
X1074000*
X1062400Y1122500D02*
X1062429Y1122529D01*
Y1126000*
X1062400Y1112500D02*
Y1122500D01*
X1089500Y1127900D02*
Y1145500D01*
X1094000Y1150000*
X1107500*
X1124500Y1167000*
Y1168500*
X1089500Y1127900D02*
X1097000Y1120400D01*
X1093000Y1117000D02*
X1100575Y1109425D01*
Y1087421*
X1097000Y1120400D02*
X1102500Y1114900D01*
X1103000Y1114400*
Y1112000*
X1107900Y1109500D02*
Y1119000D01*
X1125169Y1121000D02*
X1129400Y1118000D01*
X1137500*
X1142000Y1113500*
X1143400*
X1143500Y1113600*
X1133831Y1121000D02*
X1140600D01*
X1143500Y1123900*
X1148900Y1122900D02*
Y1112500D01*
X1149000*
X1160000Y1101500*
X1148900Y1122900D02*
X1164400Y1138400D01*
Y1155400*
X1169500Y1160500*
X1197425*
X1202000Y1115500D02*
X1202500Y1115000D01*
Y1114500*
X1015500Y1139000D02*
X1016000D01*
X1020000Y1143000*
X1030992Y1142791D02*
X1045638D01*
X1045846Y1143000*
X1053500*
X1062000Y1151500*
X1045638Y1142791D02*
X1062429Y1126000D01*
X1072500Y1144500D02*
X1073000D01*
X1077500Y1140000*
Y1119327*
X1084827Y1112000*
Y1087421*
X1087000Y1129500D02*
Y1119000D01*
X1098606Y1107394*
Y1087421*
X1094500Y1138500D02*
X1098400D01*
X1107900Y1129000*
X1114500Y1138500D02*
Y1147000D01*
X1126000Y1158500*
X1138400*
X1138500Y1158600*
X1104500Y1138500D02*
Y1142500D01*
X1114500Y1152500*
X1115000*
X1114100Y1129000D02*
X1126400D01*
X1107900D02*
Y1119000D01*
X1126400Y1129000D02*
X1132400Y1123000D01*
Y1121200*
X1133831Y1121000*
X1028000Y1158000D02*
X1061358D01*
X1064858Y1154500*
Y1140500*
X1075858Y1129500*
Y1117500*
X1082858Y1110500*
Y1087421*
X1015500Y1148000D02*
Y1160400D01*
X1065100Y1164000D02*
X1072500Y1156600D01*
Y1153500*
X1087000Y1151500D02*
Y1169000D01*
X1093000Y1175000*
Y1180925*
X1133000Y1152500D02*
X1138400D01*
X1138500Y1152400*
X1147500*
Y1158600D02*
X1138500D01*
Y1170600*
X1139400Y1171500*
X1147500Y1152400D02*
X1156500D01*
X1033000Y1183000D02*
Y1182594D01*
X1041094Y1174500*
X1064500*
X1079500Y1159500*
Y1120500*
X1094669Y1105331*
Y1087421*
X1064546Y1181617D02*
X1082000Y1166000D01*
Y1128000*
X1084467Y1181533D02*
X1084500Y1181500D01*
Y1118500*
X1096638Y1106362*
Y1087421*
X1104500Y1168500D02*
X1108000D01*
X1124500Y1185000*
X1125900*
X1114500Y1168500D02*
X1120000Y1174000D01*
X1124500*
X1132000Y1181500*
Y1184900*
X1132100Y1185000*
X1124500Y1168500D02*
X1134500Y1178500D01*
X1153100*
X1158500Y1183900*
X1132100Y1185000D02*
Y1192500D01*
X1133600Y1194000*
X1134400*
X1132100Y1185000D02*
X1141400D01*
X1125900D02*
Y1196500D01*
X1128900Y1199500*
X1149100*
X1158500Y1190100*
X1145600Y1171500D02*
X1166500D01*
X1175000Y1180000*
Y1181900*
X1175100Y1182000*
X1168900D02*
Y1190100D01*
X1158500*
X1168900D02*
Y1182000D01*
X1168400Y1191000D02*
X1168900Y1190500D01*
Y1190100*
X1068600Y1110000D02*
Y1111000D01*
X1071500Y1112500D02*
X1070500D01*
X1068600Y1115000D02*
Y1114000D01*
X1110433Y1080531D02*
X1109433D01*
X1102528D02*
X1103528D01*
X1086795Y1092358D02*
Y1091358D01*
Y1084453D02*
Y1085453D01*
X1029200Y1053250D02*
X1028200D01*
X1026400Y1056050D02*
Y1055050D01*
X1023600Y1053250D02*
X1024600D01*
X1026400Y1050450D02*
Y1051450D01*
X1187260Y1092138D02*
Y1093138D01*
Y1098862D02*
Y1097862D01*
X1125900Y1109500D02*
Y1108500D01*
X1123000Y1107000D02*
X1124000D01*
X1125900Y1104500D02*
Y1105500D01*
X1182000Y1114400D02*
X1181000D01*
X1179500Y1111500D02*
Y1112500D01*
X1122130Y1038319D02*
Y1039319D01*
X1126280Y1040500D02*
X1125280D01*
X1117980D02*
X1118980D01*
X1113000Y1083400D02*
X1114000D01*
X1118000D02*
X1117000D01*
X1079100Y1039500D02*
Y1038500D01*
Y1034500D02*
Y1035500D01*
X1082000Y1037000D02*
X1081000D01*
X1043417Y1164996D02*
X1044417D01*
X1045598Y1161634D02*
Y1162634D01*
X1047780Y1164996D02*
X1046780D01*
X1045598Y1168358D02*
Y1167358D01*
X1049000Y1125600D02*
X1050000D01*
X1054000D02*
X1053000D01*
X1051500Y1128500D02*
Y1127500D01*
X1050500Y1082600D02*
X1051500D01*
X1055500D02*
X1054500D01*
X1053000Y1085500D02*
Y1084500D01*
X1032000Y1057500D02*
X1033000D01*
X1170400Y1079000D02*
Y1080000D01*
Y1084000D02*
Y1083000D01*
X1167500Y1081500D02*
X1168500D01*
X1161000Y1059600D02*
X1160000D01*
X1158500Y1062500D02*
Y1061500D01*
X1156000Y1059600D02*
X1157000D01*
X1028811Y1164996D02*
X1029811D01*
X1030992Y1161634D02*
Y1162634D01*
X1033173Y1164996D02*
X1032173D01*
X1030992Y1168358D02*
Y1167358D01*
X1101500Y1043400D02*
X1102500D01*
X1104000Y1040500D02*
Y1041500D01*
X1106500Y1043400D02*
X1105500D01*
X1080890Y1092358D02*
Y1091358D01*
Y1084453D02*
Y1085453D01*
X1071000Y1104100D02*
X1070000D01*
X1068500Y1107000D02*
Y1106000D01*
X1066000Y1104100D02*
X1067000D01*
X1098606Y1050988D02*
Y1051988D01*
X1170083Y1020004D02*
X1169083D01*
X1167902Y1023366D02*
Y1022366D01*
X1165720Y1020004D02*
X1166720D01*
X1184689D02*
X1183689D01*
X1182508Y1023366D02*
Y1022366D01*
X1180327Y1020004D02*
X1181327D01*
X1171000Y1150850D02*
Y1151850D01*
X1175250Y1154100D02*
X1174250D01*
X1171000Y1157350D02*
Y1156350D01*
X1166750Y1154100D02*
X1167750D01*
X1194600Y1118500D02*
Y1119500D01*
X1197500Y1121000D02*
X1196500D01*
X1194600Y1123500D02*
Y1122500D01*
X1192100Y1068500D02*
Y1067500D01*
Y1063500D02*
Y1064500D01*
X1195000Y1066000D02*
X1194000D01*
X1202600Y1040000D02*
Y1041000D01*
Y1045000D02*
Y1044000D01*
X1192100Y1054000D02*
Y1055000D01*
X1195000Y1056500D02*
X1194000D01*
X1192100Y1059000D02*
Y1058000D01*
X1079500Y1104600D02*
X1078500D01*
X1077000Y1107500D02*
Y1106500D01*
X1074500Y1104600D02*
X1075500D01*
X1122500Y1083400D02*
X1123500D01*
X1127500D02*
X1126500D01*
X1022500Y1098900D02*
X1021500D01*
X1017500D02*
X1018500D01*
X1020000Y1096000D02*
Y1097000D01*
X1109500Y1043400D02*
X1110500D01*
X1112000Y1040500D02*
Y1041500D01*
X1114500Y1043400D02*
X1113500D01*
X1132600Y1126500D02*
Y1127500D01*
X1135500Y1129000D02*
X1134500D01*
X1132600Y1131500D02*
Y1130500D01*
X1147500Y1141000D02*
X1148500D01*
X1150400Y1138500D02*
Y1139500D01*
X1146000Y1130100D02*
X1145000D01*
X1143500Y1133000D02*
Y1132000D01*
X1141000Y1130100D02*
X1142000D01*
X1132000Y1141000D02*
X1133000D01*
X1134900Y1138500D02*
Y1139500D01*
X1099500Y1126600D02*
X1098500D01*
X1097000Y1129500D02*
Y1128500D01*
X1094500Y1126600D02*
X1095500D01*
X1174600Y1193500D02*
Y1192500D01*
Y1188500D02*
Y1189500D01*
X1177500Y1191000D02*
X1176500D01*
X1159000Y1158600D02*
X1158000D01*
X1156500Y1161500D02*
Y1160500D01*
X1154000Y1158600D02*
X1155000D01*
X1140600Y1196500D02*
Y1195500D01*
Y1191500D02*
Y1192500D01*
X1143500Y1194000D02*
X1142500D01*
X1114100Y1107000D02*
Y1108000D01*
X1117000Y1109500D02*
X1116000D01*
X1114100Y1112000D02*
Y1111000D01*
Y1116500D02*
Y1117500D01*
X1117000Y1119000D02*
X1116000D01*
X1114100Y1121500D02*
Y1120500D01*
X1190100Y1100500D02*
Y1101500D01*
X1193000Y1103000D02*
X1192000D01*
X1190100Y1105500D02*
Y1104500D01*
X1007500Y1205000D02*
X1208500D01*
Y1010000*
X1007500*
Y1205000*
G54D28*
X1027538Y1015962D02*
X1031500Y1012000D01*
X1069000*
X1075500Y1018500*
X1078500Y1021500*
Y1022325*
X1080038Y1022962D02*
X1087500Y1015500D01*
X1189000*
X1202500Y1029000*
Y1030400*
X1202600Y1030500*
X1151675Y1024500D02*
X1157000D01*
X1162000Y1020500D02*
X1162496Y1020004D01*
X1167902*
X1182508*
X1066175Y1043500D02*
X1071500D01*
Y1043600*
X1072900Y1045000*
X1065538Y1041962D02*
X1070500Y1037000D01*
X1072900*
Y1030100*
X1076962Y1026038*
X1079100Y1037000D02*
X1079600Y1037500D01*
X1084000*
X1112000Y1043400D02*
X1115900D01*
X1116000Y1043500*
X1104000Y1043400D02*
X1112000D01*
X1122130Y1045500D02*
X1133500D01*
X1143500Y1055500*
X1150870*
X1202600Y1030500D02*
X1206000Y1033900D01*
Y1048000*
X1202600Y1042500D02*
Y1039400D01*
X1203000Y1039000*
X1023000Y1066500D02*
X1027500Y1062000D01*
X1037600*
X1041600Y1066000*
X1031000Y1057500D02*
X1034900D01*
X1026400Y1053250D02*
X1026750D01*
X1031000Y1057500*
X1041600Y1048000D02*
X1044000D01*
X1047000Y1051000*
X1041600Y1048000D02*
Y1044500D01*
X1043000Y1043100*
Y1021000*
X1045500Y1018500*
X1075500*
X1041600Y1066000D02*
X1045000D01*
X1047000Y1064000*
X1100575Y1055925D02*
Y1050425D01*
X1101425Y1049575*
X1103975*
X1104000Y1049600*
X1098606Y1055925D02*
Y1048794D01*
X1104000Y1043400*
X1112000Y1049600D02*
X1116000D01*
X1120100Y1045500*
X1122130*
X1104000Y1049600D02*
X1112000D01*
X1150870Y1055500D02*
Y1050500D01*
X1155600*
X1158500Y1053400*
Y1059600D02*
Y1063000D01*
X1159000Y1063500*
X1158500Y1053400D02*
X1158600D01*
X1161500Y1050500*
X1192000Y1056400D02*
X1192100Y1056500D01*
X1178000Y1050500D02*
X1184000Y1056500D01*
X1185900*
X1192100Y1066000D02*
X1192600Y1066500D01*
X1197000*
X1192100Y1056500D02*
X1197000D01*
X1185900Y1066000D02*
Y1056500D01*
X1186000Y1056400*
Y1052000*
X1190000Y1048000*
X1206000*
X1053000Y1082600D02*
Y1087500D01*
X1089711Y1071711D02*
X1100500Y1082500D01*
X1105496*
X1089711Y1071711D02*
X1100500Y1060921D01*
Y1056000*
X1100575Y1055925*
X1078921Y1087421D02*
Y1082500D01*
X1100500Y1060921*
Y1056000*
X1100575Y1055925*
X1086795Y1087421D02*
Y1081705D01*
X1087000Y1081500*
X1105496Y1082500D02*
Y1086500D01*
X1108496Y1089500*
X1115400*
X1115500Y1089600*
X1105496Y1080531D02*
X1110500D01*
X1113369Y1083400*
X1115500*
X1125000D02*
X1129900D01*
X1130000Y1083500*
X1115500Y1083400D02*
X1125000D01*
X1166000Y1081500D02*
X1170400D01*
X1020000Y1092500D02*
Y1098900D01*
X1068500Y1104100D02*
X1077000D01*
X1077250Y1104350*
X1068500Y1104100D02*
Y1108000D01*
X1069000Y1108500*
Y1104600D02*
X1068500Y1104100D01*
X1077000*
X1077250Y1104350*
X1080890Y1100710*
Y1087421*
X1068500Y1097900D02*
X1069000Y1098400D01*
X1077000*
Y1104600D02*
X1077250Y1104350D01*
X1077000Y1098400D02*
X1078921Y1096479D01*
Y1087421*
X1125900Y1107000D02*
X1134400Y1115500D01*
X1136000*
X1115500Y1089600D02*
X1125000D01*
X1173100Y1103500D02*
X1176000Y1106400D01*
Y1117100*
X1179500Y1120600*
X1051500Y1125600D02*
X1054900D01*
X1055000Y1125500*
X1068500Y1115500D02*
X1068600D01*
Y1112500*
X1112000Y1123500D02*
X1114000Y1121500D01*
Y1119100*
X1114100Y1119000*
X1097000Y1126600D02*
X1100000Y1123600D01*
Y1123500*
X1114100Y1109500D02*
X1124000D01*
X1125900Y1107600*
Y1107000*
X1114100Y1109500D02*
Y1119000D01*
X1161500Y1126000D02*
Y1129500D01*
X1168000Y1136000*
X1170900*
X1171000Y1135900*
X1161500Y1126000D02*
X1174100D01*
X1179500Y1120600*
X1182000Y1127500D02*
X1188400Y1121100D01*
Y1121000*
X1179500Y1109500D02*
Y1114400D01*
X1179600Y1114500*
X1188100*
X1194600Y1121000*
X1023000Y1131000D02*
Y1180825D01*
X1068000Y1128500D02*
X1068600Y1127900D01*
Y1122500*
X1093000Y1132500D02*
X1097000Y1128500D01*
Y1126600*
X1124500Y1138500D02*
Y1140500D01*
X1129500Y1145500*
X1136600*
X1141100Y1141000*
X1132600Y1129000D02*
X1137500D01*
X1138600Y1130100*
X1143500*
X1132600Y1129000D02*
X1136000Y1125600D01*
Y1125500*
X1150400Y1141000D02*
X1150500Y1140900D01*
X1134900Y1141000D02*
X1139900Y1136000D01*
X1143500*
Y1130100*
X1141100Y1141000D02*
X1145500Y1145400D01*
X1153000*
X1156500Y1141900*
Y1141100*
X1156600Y1141000*
X1143500Y1130100D02*
Y1136000D01*
X1146000*
X1150500Y1140500*
Y1140900*
X1156600Y1141000D02*
X1161500Y1145900D01*
Y1156500*
X1192000Y1187000*
X1193000Y1186000*
X1171000Y1145000D02*
X1196000D01*
X1204000Y1134500D02*
X1195000Y1143500D01*
X1196000Y1145000*
X1205000Y1154000*
Y1175000*
X1015500Y1166600D02*
Y1177000D01*
X1021500Y1183000*
X1023000*
X1030992Y1164996D02*
X1034504D01*
X1035000Y1164500*
X1045598Y1164996D02*
X1048504D01*
X1049000Y1164500*
X1058900Y1164000D02*
X1059000Y1164100D01*
Y1165000*
X1154000Y1165500D02*
X1156500Y1163000D01*
Y1158600*
X1171000Y1154100D02*
Y1158000D01*
X1156500Y1158600D02*
X1156600Y1158500D01*
X1158000*
X1181100Y1181600*
Y1184500*
X1024538Y1181462D02*
X1035000Y1171000D01*
X1053000*
X1059000Y1165000*
X1094500Y1168500D02*
Y1169000D01*
X1100000Y1174500*
X1094500Y1168500D02*
X1095000D01*
X1099000Y1164500*
X1147600Y1185000D02*
Y1192500D01*
X1149600Y1194500*
X1172000Y1187500D02*
X1174500Y1190000D01*
Y1190900*
X1174600Y1191000*
X1188000Y1170500D02*
X1197325D01*
X1193000Y1186000D02*
X1205000Y1175000D01*
X1023000Y1190825D02*
Y1185175D01*
X1149500Y1194500D02*
X1149600D01*
X1140600Y1194000D02*
X1144000Y1190600D01*
Y1190500*
X1174600Y1191000D02*
X1181100Y1184500D01*
X1197600Y1194900D02*
X1198000Y1194500D01*
G54D29*
X1035400Y1066000D02*
X1039900Y1070500D01*
X1055252*
X1059000Y1066752*
X1074000*
X1035000Y1075900D02*
X1035500Y1076400D01*
X1043500*
X1035000Y1075900D02*
Y1066400D01*
X1035400Y1066000*
X1179500Y1120600D02*
X1188000D01*
X1188400Y1121000*
X1011063Y1017500D02*
X1012063D01*
X1016000Y1012563D02*
Y1013563D01*
Y1022437D02*
Y1021437D01*
X1193000Y1191900D02*
Y1192900D01*
X1197000Y1195900D02*
X1196000D01*
X1193000Y1199900D02*
Y1198900D01*
X1189000Y1195900D02*
X1190000D01*
X1161500Y1120100D02*
Y1119100D01*
X1157500Y1116100D02*
X1158500D01*
X1161500Y1112100D02*
Y1113100D01*
X1165500Y1116100D02*
X1164500D01*
X1064000Y1037453D02*
Y1036453D01*
Y1029547D02*
Y1030547D01*
X1067953Y1033500D02*
X1066953D01*
X1113000Y1197937D02*
Y1196937D01*
X1117937Y1193000D02*
X1116937D01*
X1103000Y1197937D02*
Y1196937D01*
X1093000Y1197937D02*
Y1196937D01*
X1083000Y1197937D02*
Y1196937D01*
X1073000Y1197937D02*
Y1196937D01*
X1063000Y1197937D02*
Y1196937D01*
X1053000Y1197937D02*
Y1196937D01*
X1043000Y1197937D02*
Y1196937D01*
X1033000Y1197937D02*
Y1196937D01*
X1199500Y1175437D02*
Y1174437D01*
X1194563Y1170500D02*
X1195563D01*
X1154437Y1024500D02*
X1153437D01*
X1149500Y1029437D02*
Y1028437D01*
Y1019563D02*
Y1020563D01*
X1090500Y1168500D02*
X1091500D01*
X1094500Y1164500D02*
Y1165500D01*
X1098500Y1168500D02*
X1097500D01*
X1094500Y1172500D02*
Y1171500D01*
G54D30*
X1162000Y1020500D03*
X1157000Y1024500D03*
X1084000Y1037500D03*
X1116000Y1043500D03*
X1140000Y1045500D03*
X1203000Y1039000D03*
X1023000Y1066500D03*
X1031000Y1057500D03*
X1047000Y1064000D03*
Y1051000D03*
X1080000Y1050000D03*
X1082000Y1064000D03*
X1123000Y1062500D03*
X1161500Y1050500D03*
X1170000Y1064500D03*
X1159000Y1063500D03*
X1175000Y1057500D03*
X1178000Y1050500D03*
X1206000Y1048000D03*
X1197000Y1066500D03*
Y1056500D03*
X1053000Y1087500D03*
X1062000Y1075500D03*
X1087000Y1081500D03*
X1130000Y1083500D03*
X1166000Y1081500D03*
X1186000D03*
X1181000D03*
X1187000Y1075500D03*
X1201000Y1074000D03*
X1198000Y1073500D03*
X1020000Y1092500D03*
X1062000Y1097500D03*
X1089000Y1098500D03*
X1091000Y1095000D03*
X1103500Y1098500D03*
X1151000Y1097000D03*
X1146500Y1094000D03*
X1155000Y1101000D03*
X1160000Y1101500D03*
X1177000Y1088500D03*
X1055000Y1125500D03*
X1069000Y1108500D03*
X1068500Y1115500D03*
X1093000Y1117000D03*
X1103000Y1112000D03*
X1100000Y1123500D03*
X1112000D03*
X1136000Y1115500D03*
Y1125500D03*
X1182000Y1127500D03*
X1179500Y1109500D03*
X1202000Y1115500D03*
X1020000Y1143000D03*
X1023000Y1131000D03*
X1068000Y1128500D03*
X1087000Y1129500D03*
X1082000Y1128000D03*
X1093000Y1132500D03*
X1204000Y1134500D03*
X1028000Y1158000D03*
X1035000Y1164500D03*
X1049000D03*
X1062000Y1151500D03*
X1087000D03*
X1099000Y1164500D03*
X1115000Y1152500D03*
X1133000D03*
X1154000Y1165500D03*
X1171000Y1158000D03*
X1100000Y1174500D03*
X1172000Y1187500D03*
X1188000Y1170500D03*
X1149500Y1194500D03*
X1144000Y1190500D03*
G54D31*
X1197000Y1195900D02*
G75*
G03X1197000I-4000J0D01*
G01X1165500Y1116100D02*
G03X1165500I-4000J0D01*
G01X1198554Y1027317D02*
G03X1198272Y1028000I-282J283D01*
G01X1194500*
X1193500Y1029000D02*
G03X1194500Y1028000I1000J0D01*
G01X1193500Y1029000D02*
Y1032000D01*
X1194500Y1033000D02*
G03X1193500Y1032000I0J-1000D01*
G01X1194500Y1033000D02*
G03X1194900Y1033400I-0J400D01*
G01Y1039600*
G03X1194500Y1040000I-400J-0*
G01X1193630Y1040506D02*
G03X1194500Y1040000I870J494D01*
G01X1193630Y1040506D02*
G03X1193283Y1040709I-347J-197D01*
G01X1185089*
G03X1184689Y1040309I-0J-400*
G01Y1039846*
X1183689Y1038846D02*
G03X1184689Y1039846I-0J1000D01*
G01X1183689Y1038846D02*
X1181327D01*
X1180327Y1039846D02*
G03X1181327Y1038846I1000J0D01*
G01X1180327Y1039846D02*
Y1040309D01*
G03X1179927Y1040709I-400J-0*
G01X1170443*
G03X1170043Y1040309I0J-400*
G01Y1039846*
X1169043Y1038846D02*
G03X1170043Y1039846I0J1000D01*
G01X1169043Y1038846D02*
X1166681D01*
X1165681Y1039846D02*
G03X1166681Y1038846I1000J0D01*
G01X1165681Y1039846D02*
Y1044571D01*
Y1044588D02*
G03Y1044571I1000J-17D01*
G01Y1044588D02*
G03X1164998Y1044877I-400J6D01*
G01X1159561Y1039439*
X1158500Y1039000D02*
G03X1159561Y1039439I0J1500D01*
G01X1158500Y1039000D02*
X1155221D01*
G03X1154878Y1038805I0J-400*
G01X1154020Y1038319D02*
G03X1154878Y1038805I-0J1000D01*
G01X1154020Y1038319D02*
X1147720D01*
X1146720Y1039319D02*
G03X1147720Y1038319I1000J-0D01*
G01X1146720Y1039319D02*
Y1041681D01*
X1147385Y1042623D02*
G03X1146720Y1041681I335J-942D01*
G01X1147385Y1042623D02*
G03Y1043377I-134J377D01*
G01X1146862Y1043805D02*
G03X1147385Y1043377I858J514D01*
G01X1146862Y1043805D02*
G03X1146519Y1044000I-343J-205D01*
G01X1141625*
G03X1141365Y1043904I-0J-400*
G01Y1047096D02*
G03Y1043904I-1365J-1596D01*
G01Y1047096D02*
G03X1141625Y1047000I260J304D01*
G01X1146519*
G03X1146862Y1047195I0J400*
G01X1147385Y1047623D02*
G03X1146862Y1047195I335J-942D01*
G01X1147385Y1047623D02*
G03Y1048377I-134J377D01*
G01X1146720Y1049319D02*
G03X1147385Y1048377I1000J-0D01*
G01X1146720Y1049319D02*
Y1051681D01*
X1147385Y1052623D02*
G03X1146720Y1051681I335J-942D01*
G01X1147385Y1052623D02*
G03Y1053377I-134J377D01*
G01X1146909Y1053734D02*
G03X1147385Y1053377I811J585D01*
G01X1146909Y1053734D02*
G03X1146585Y1053900I-324J-234D01*
G01X1144328*
G03X1144046Y1053783I0J-400*
G01X1134631Y1044369*
X1133500Y1043900D02*
G03X1134631Y1044369I0J1600D01*
G01X1133500Y1043900D02*
X1126415D01*
G03X1126091Y1043734I0J-400*
G01X1125615Y1043377D02*
G03X1126091Y1043734I-335J942D01*
G01X1125615Y1043377D02*
G03Y1042623I134J-377D01*
G01X1126280Y1041681D02*
G03X1125615Y1042623I-1000J0D01*
G01X1126280Y1041681D02*
Y1039319D01*
X1125280Y1038319D02*
G03X1126280Y1039319I-0J1000D01*
G01X1125280Y1038319D02*
X1118980D01*
X1117980Y1039319D02*
G03X1118980Y1038319I1000J-0D01*
G01X1117980Y1039319D02*
Y1041681D01*
X1118645Y1042623D02*
G03X1117980Y1041681I335J-942D01*
G01X1118645Y1042623D02*
G03Y1043377I-134J377D01*
G01X1117980Y1044319D02*
G03X1118645Y1043377I1000J-0D01*
G01X1117980Y1044319D02*
Y1045191D01*
G03X1117863Y1045474I-400J0*
G01X1115454Y1047883*
G03X1115172Y1048000I-282J-283*
G01X1114896*
G03X1114497Y1047629I0J-400*
G01X1114015Y1046843D02*
G03X1114497Y1047629I-515J857D01*
G01X1114015Y1046843D02*
G03Y1046157I206J-343D01*
G01X1114500Y1045300D02*
G03X1114015Y1046157I-1000J0D01*
G01X1114500Y1045300D02*
Y1041500D01*
X1113500Y1040500D02*
G03X1114500Y1041500I0J1000D01*
G01X1113500Y1040500D02*
X1110500D01*
X1109500Y1041500D02*
G03X1110500Y1040500I1000J0D01*
G01X1109500Y1041500D02*
Y1045300D01*
X1109985Y1046157D02*
G03X1109500Y1045300I515J-857D01*
G01X1109985Y1046157D02*
G03Y1046843I-206J343D01*
G01X1109503Y1047629D02*
G03X1109985Y1046843I997J71D01*
G01X1109503Y1047629D02*
G03X1109104Y1048000I-399J-29D01*
G01X1106896*
G03X1106497Y1047629I0J-400*
G01X1106015Y1046843D02*
G03X1106497Y1047629I-515J857D01*
G01X1106015Y1046843D02*
G03Y1046157I206J-343D01*
G01X1106500Y1045300D02*
G03X1106015Y1046157I-1000J0D01*
G01X1106500Y1045300D02*
Y1041500D01*
X1105500Y1040500D02*
G03X1106500Y1041500I0J1000D01*
G01X1105500Y1040500D02*
X1104587D01*
G03X1104304Y1039817I0J-400*
G01X1106504Y1037617*
G03X1106787Y1037500I283J283*
G01X1132500*
X1133561Y1037061D02*
G03X1132500Y1037500I-1061J-1061D01*
G01X1133561Y1037061D02*
X1140561Y1030061D01*
X1140944Y1029406D02*
G03X1140561Y1030061I-1444J-406D01*
G01X1140944Y1029406D02*
G03X1141192Y1029138I385J108D01*
G01X1144125Y1026227D02*
G03X1141192Y1029138I-4625J-1727D01*
G01X1144125Y1026227D02*
G03X1144875I375J140D01*
G01Y1022773D02*
G03Y1026227I4625J1727D01*
G01Y1022773D02*
G03X1144125I-375J-140D01*
G01X1134875D02*
G03X1144125I4625J1727D01*
G01X1134875D02*
G03X1134125I-375J-140D01*
G01X1124875D02*
G03X1134125I4625J1727D01*
G01X1124875D02*
G03X1124125I-375J-140D01*
G01X1114875D02*
G03X1124125I4625J1727D01*
G01X1114875D02*
G03X1114125I-375J-140D01*
G01X1104630Y1025308D02*
G03X1114125Y1022773I4870J-808D01*
G01X1104630Y1025308D02*
G03X1104518Y1025656I-395J65D01*
G01X1103910Y1026264*
G03X1103243Y1025870I-282J-283*
G01X1093875Y1022773D02*
G03X1103243Y1025870I4625J1727D01*
G01X1093875Y1022773D02*
G03X1093125I-375J-140D01*
G01X1086271Y1020095D02*
G03X1093125Y1022773I2229J4405D01*
G01X1086271Y1020095D02*
G03X1085808Y1019455I-180J-357D01*
G01X1088046Y1017217*
G03X1088328Y1017100I282J283*
G01X1165328*
G03X1165726Y1017541I-0J400*
G01X1165720Y1017642D02*
G03X1165726Y1017541I1000J-0D01*
G01X1165720Y1017642D02*
Y1022366D01*
X1166720Y1023366D02*
G03X1165720Y1022366I0J-1000D01*
G01X1166720Y1023366D02*
X1169083D01*
X1170083Y1022366D02*
G03X1169083Y1023366I-1000J0D01*
G01X1170083Y1022366D02*
Y1017642D01*
X1170078Y1017541D02*
G03X1170083Y1017642I-995J101D01*
G01X1170078Y1017541D02*
G03X1170476Y1017100I398J-41D01*
G01X1179934*
G03X1180332Y1017541I-0J400*
G01X1180327Y1017642D02*
G03X1180332Y1017541I1000J-0D01*
G01X1180327Y1017642D02*
Y1022366D01*
X1181327Y1023366D02*
G03X1180327Y1022366I-0J-1000D01*
G01X1181327Y1023366D02*
X1183689D01*
X1184689Y1022366D02*
G03X1183689Y1023366I-1000J0D01*
G01X1184689Y1022366D02*
Y1017642D01*
X1184684Y1017541D02*
G03X1184689Y1017642I-995J101D01*
G01X1184684Y1017541D02*
G03X1185082Y1017100I398J-41D01*
G01X1188172*
G03X1188454Y1017217I-0J400*
G01X1198554Y1027317*
X1204400Y1034728D02*
Y1039600D01*
G03X1204000Y1040000I-400J-0*
G01X1200700*
X1199843Y1040485D02*
G03X1200700Y1040000I857J515D01*
G01X1199843Y1040485D02*
G03X1199157I-343J-206D01*
G01X1198300Y1040000D02*
G03X1199157Y1040485I0J1000D01*
G01X1198300Y1040000D02*
G03X1197900Y1039600I0J-400D01*
G01Y1033400*
G03X1198300Y1033000I400J0*
G01X1199157Y1032515D02*
G03X1198300Y1033000I-857J-515D01*
G01X1199157Y1032515D02*
G03X1199843I343J206D01*
G01X1200700Y1033000D02*
G03X1199843Y1032515I0J-1000D01*
G01X1200700Y1033000D02*
X1202672D01*
G03X1202954Y1033117I-0J400*
G01X1204283Y1034446*
G03X1204400Y1034728I-283J282*
G01X1207500Y1050245D02*
Y1203600D01*
G03X1207100Y1204000I-400J-0*
G01X1010400*
G03X1010000Y1203600I0J-400*
G01Y1011400*
G03X1010400Y1011000I400J0*
G01X1029272*
G03X1029554Y1011683I-0J400*
G01X1028367Y1012870*
G03X1027928Y1012955I-282J-283*
G01X1021375Y1015773D02*
G03X1027928Y1012955I4625J1727D01*
G01X1021375Y1015773D02*
G03X1020625I-375J-140D01*
G01Y1019227D02*
G03Y1015773I-4625J-1727D01*
G01Y1019227D02*
G03X1021375I375J140D01*
G01X1030625D02*
G03X1021375I-4625J-1727D01*
G01X1030625D02*
G03X1031375I375J140D01*
G01X1039727Y1014262D02*
G03X1031375Y1019227I-3727J3238D01*
G01X1039727Y1014262D02*
G03X1040029Y1013600I302J-262D01*
G01X1068172*
G03X1068454Y1013717I-0J400*
G01X1070954Y1016217*
G03X1070672Y1016900I-282J283*
G01X1045500*
X1044369Y1017369D02*
G03X1045500Y1016900I1131J1131D01*
G01X1044369Y1017369D02*
X1041869Y1019869D01*
X1041400Y1021000D02*
G03X1041869Y1019869I1600J0D01*
G01X1041400Y1021000D02*
Y1042272D01*
G03X1041283Y1042554I-400J-0*
G01X1040469Y1043369*
X1040000Y1044500D02*
G03X1040469Y1043369I1600J0D01*
G01X1040000Y1044500D02*
Y1045104D01*
G03X1039629Y1045503I-400J-0*
G01X1038843Y1045985D02*
G03X1039629Y1045503I857J515D01*
G01X1038843Y1045985D02*
G03X1038157I-343J-206D01*
G01X1037300Y1045500D02*
G03X1038157Y1045985I0J1000D01*
G01X1037300Y1045500D02*
X1036900D01*
G03X1036500Y1045100I0J-400*
G01Y1042000*
X1036061Y1040939D02*
G03X1036500Y1042000I-1061J1061D01*
G01X1036061Y1040939D02*
X1035117Y1039996D01*
G03X1035000Y1039713I283J-283*
G01Y1037987*
G03X1035258Y1037614I400J0*
G01X1028875Y1031273D02*
G03X1035258Y1037614I4625J1727D01*
G01X1028875Y1031273D02*
G03X1028125I-375J-140D01*
G01X1020157Y1036633D02*
G03X1028125Y1031273I3343J-3633D01*
G01X1020157Y1036633D02*
G03X1020169Y1037210I-271J294D01*
G01X1017439Y1039939*
X1017000Y1041000D02*
G03X1017439Y1039939I1500J0D01*
G01X1017000Y1041000D02*
Y1046300D01*
G03X1016600Y1046700I-400J-0*
G01X1015900*
X1014900Y1047700D02*
G03X1015900Y1046700I1000J0D01*
G01X1014900Y1047700D02*
Y1051300D01*
X1015900Y1052300D02*
G03X1014900Y1051300I0J-1000D01*
G01X1015900Y1052300D02*
X1020900D01*
X1021900Y1051300D02*
G03X1020900Y1052300I-1000J0D01*
G01X1021900Y1051300D02*
Y1047700D01*
X1020900Y1046700D02*
G03X1021900Y1047700I0J1000D01*
G01X1020900Y1046700D02*
X1020400D01*
G03X1020000Y1046300I0J-400*
G01Y1041787*
G03X1020117Y1041504I400J0*
G01X1023579Y1038042*
G03X1023835Y1037926I283J283*
G01X1028125Y1034727D02*
G03X1023835Y1037926I-4625J-1727D01*
G01X1028125Y1034727D02*
G03X1028875I375J140D01*
G01X1031742Y1037614D02*
G03X1028875Y1034727I1758J-4614D01*
G01X1031742Y1037614D02*
G03X1032000Y1037987I-142J373D01*
G01Y1040500*
X1032439Y1041561D02*
G03X1032000Y1040500I1061J-1061D01*
G01X1032439Y1041561D02*
X1033383Y1042504D01*
G03X1033500Y1042787I-283J283*
G01Y1045158*
G03X1033214Y1045542I-400J0*
G01X1032500Y1046500D02*
G03X1033214Y1045542I1000J0D01*
G01X1032500Y1046500D02*
Y1048763D01*
G03X1031817Y1049046I-400J-0*
G01X1029317Y1046546*
G03X1029200Y1046263I283J-283*
G01Y1043950*
X1028200Y1042950D02*
G03X1029200Y1043950I0J1000D01*
G01X1028200Y1042950D02*
X1024600D01*
X1023600Y1043950D02*
G03X1024600Y1042950I1000J0D01*
G01X1023600Y1043950D02*
Y1047550D01*
X1024600Y1048550D02*
G03X1023600Y1047550I0J-1000D01*
G01X1024600Y1048550D02*
X1026913D01*
G03X1027196Y1048667I-0J400*
G01X1028296Y1049767*
G03X1028013Y1050450I-283J283*
G01X1024600*
X1023600Y1051450D02*
G03X1024600Y1050450I1000J0D01*
G01X1023600Y1051450D02*
Y1055050D01*
X1024600Y1056050D02*
G03X1023600Y1055050I0J-1000D01*
G01X1024600Y1056050D02*
X1028200D01*
X1029200Y1055050D02*
G03X1028200Y1056050I-1000J0D01*
G01X1029200Y1055050D02*
Y1051637D01*
G03X1029883Y1051354I400J0*
G01X1032899Y1054371*
G03X1032726Y1055038I-283J283*
G01X1032000Y1056000D02*
G03X1032726Y1055038I1000J0D01*
G01X1032000Y1056000D02*
Y1059000D01*
X1032300Y1059714D02*
G03X1032000Y1059000I700J-714D01*
G01X1032300Y1059714D02*
G03X1032020Y1060400I-280J286D01*
G01X1027500*
X1026369Y1060869D02*
G03X1027500Y1060400I1131J1131D01*
G01X1026369Y1060869D02*
X1022929Y1064308D01*
G03X1022703Y1064421I-283J-283*
G01X1025079Y1066797D02*
G03X1022703Y1064421I-2079J-297D01*
G01X1025079Y1066797D02*
G03X1025192Y1066571I396J57D01*
G01X1028046Y1063717*
G03X1028328Y1063600I282J283*
G01X1032192*
G03X1032566Y1064143I0J400*
G01X1032500Y1064500D02*
G03X1032566Y1064143I1000J0D01*
G01X1032500Y1064500D02*
Y1067500D01*
X1033036Y1068386D02*
G03X1032500Y1067500I464J-886D01*
G01X1033036Y1068386D02*
G03X1033250Y1068740I-186J354D01*
G01Y1072760*
G03X1033036Y1073114I-400J0*
G01X1032500Y1074000D02*
G03X1033036Y1073114I1000J0D01*
G01X1032500Y1074000D02*
Y1077800D01*
X1032985Y1078657D02*
G03X1032500Y1077800I515J-857D01*
G01X1032985Y1078657D02*
G03Y1079343I-206J343D01*
G01X1032500Y1080200D02*
G03X1032985Y1079343I1000J0D01*
G01X1032500Y1080200D02*
Y1084000D01*
X1033500Y1085000D02*
G03X1032500Y1084000I0J-1000D01*
G01X1033500Y1085000D02*
X1036500D01*
X1037434Y1084357D02*
G03X1036500Y1085000I-934J-357D01*
G01X1037434Y1084357D02*
G03X1037808Y1084100I374J143D01*
G01X1040600*
G03X1041000Y1084500I-0J400*
G01X1042000Y1085500D02*
G03X1041000Y1084500I0J-1000D01*
G01X1042000Y1085500D02*
X1045000D01*
X1046000Y1084500D02*
G03X1045000Y1085500I-1000J0D01*
G01X1046000Y1084500D02*
G03X1046400Y1084100I400J0D01*
G01X1047000*
X1048383Y1083180D02*
G03X1047000Y1084100I-1383J-580D01*
G01X1048383Y1083180D02*
G03X1048469Y1083052I369J155D01*
G01X1049817Y1081704*
G03X1050500Y1081987I283J283*
G01Y1084500*
X1051500Y1085500D02*
G03X1050500Y1084500I0J-1000D01*
G01X1051500Y1085500D02*
X1054500D01*
X1055500Y1084500D02*
G03X1054500Y1085500I-1000J0D01*
G01X1055500Y1084500D02*
Y1080700D01*
X1055015Y1079843D02*
G03X1055500Y1080700I-515J857D01*
G01X1055015Y1079843D02*
G03Y1079157I206J-343D01*
G01X1055500Y1078300D02*
G03X1055015Y1079157I-1000J0D01*
G01X1055500Y1078300D02*
Y1076187D01*
G03X1055617Y1075904I400J0*
G01X1061184Y1070338*
G03X1061467Y1070220I283J282*
G01X1064192*
G03X1064475Y1070903I0J400*
G01X1062088Y1073290*
G03X1061837Y1073406I-283J-282*
G01X1061664Y1077573D02*
G03X1061837Y1073406I336J-2073D01*
G01X1061664Y1077573D02*
G03X1062000Y1077968I-64J395D01*
G01Y1084713*
G03X1061883Y1084996I-400J-0*
G01X1053939Y1092939*
X1053500Y1094000D02*
G03X1053939Y1092939I1500J0D01*
G01X1053500Y1094000D02*
Y1100104D01*
G03X1053071Y1100503I-400J-0*
G01X1053000Y1100500D02*
G03X1053071Y1100503I0J1000D01*
G01X1053000Y1100500D02*
X1050000D01*
X1049000Y1101500D02*
G03X1050000Y1100500I1000J0D01*
G01X1049000Y1101500D02*
G03X1048600Y1101900I-400J-0D01*
G01X1041243*
G03X1040850Y1101575I-0J-400*
G01X1031106Y1103148D02*
G03X1040850Y1101575I4894J-648D01*
G01X1031106Y1103148D02*
G03X1030709Y1103600I-397J52D01*
G01X1022900*
G03X1022500Y1103200I0J-400*
G01X1022015Y1102343D02*
G03X1022500Y1103200I-515J857D01*
G01X1022015Y1102343D02*
G03Y1101657I206J-343D01*
G01X1022500Y1100800D02*
G03X1022015Y1101657I-1000J0D01*
G01X1022500Y1100800D02*
Y1097000D01*
X1021500Y1096000D02*
G03X1022500Y1097000I0J1000D01*
G01X1021500Y1096000D02*
X1018500D01*
X1017500Y1097000D02*
G03X1018500Y1096000I1000J0D01*
G01X1017500Y1097000D02*
Y1100800D01*
X1017985Y1101657D02*
G03X1017500Y1100800I515J-857D01*
G01X1017985Y1101657D02*
G03Y1102343I-206J343D01*
G01X1017500Y1103200D02*
G03X1017985Y1102343I1000J0D01*
G01X1017500Y1103200D02*
Y1107000D01*
X1018214Y1107958D02*
G03X1017500Y1107000I286J-958D01*
G01X1018214Y1107958D02*
G03X1018500Y1108342I-114J384D01*
G01Y1112658*
G03X1018214Y1113042I-400J0*
G01X1017500Y1114000D02*
G03X1018214Y1113042I1000J0D01*
G01X1017500Y1114000D02*
Y1117800D01*
X1017985Y1118657D02*
G03X1017500Y1117800I515J-857D01*
G01X1017985Y1118657D02*
G03Y1119343I-206J343D01*
G01X1017500Y1120200D02*
G03X1017985Y1119343I1000J0D01*
G01X1017500Y1120200D02*
Y1124000D01*
X1018500Y1125000D02*
G03X1017500Y1124000I0J-1000D01*
G01X1018500Y1125000D02*
X1021500D01*
X1022500Y1124000D02*
G03X1021500Y1125000I-1000J0D01*
G01X1022500Y1124000D02*
G03X1022900Y1123600I400J0D01*
G01X1030981*
G03X1031357Y1123864I0J400*
G01X1040614Y1123943D02*
G03X1031357Y1123864I-4614J-1758D01*
G01X1040614Y1123943D02*
G03X1040987Y1123685I373J142D01*
G01X1048600*
G03X1049000Y1124085I-0J400*
G01Y1127500*
X1050000Y1128500D02*
G03X1049000Y1127500I0J-1000D01*
G01X1050000Y1128500D02*
X1053000D01*
X1054000Y1127500D02*
G03X1053000Y1128500I-1000J0D01*
G01X1054000Y1127500D02*
Y1123700D01*
X1053515Y1122843D02*
G03X1054000Y1123700I-515J857D01*
G01X1053515Y1122843D02*
G03Y1122157I206J-343D01*
G01X1054000Y1121300D02*
G03X1053515Y1122157I-1000J0D01*
G01X1054000Y1121300D02*
Y1119187D01*
G03X1054117Y1118904I400J0*
G01X1058882Y1114139*
G03X1059546Y1114301I283J283*
G01X1060500Y1115000D02*
G03X1059546Y1114301I0J-1000D01*
G01X1060500Y1115000D02*
G03X1060900Y1115400I-0J400D01*
G01Y1119600*
G03X1060500Y1120000I-400J-0*
G01X1059500Y1121000D02*
G03X1060500Y1120000I1000J0D01*
G01X1059500Y1121000D02*
Y1124000D01*
X1060393Y1124994D02*
G03X1059500Y1124000I107J-994D01*
G01X1060393Y1124994D02*
G03X1060633Y1125675I-43J398D01*
G01X1046996Y1139312*
G03X1046713Y1139429I-283J-283*
G01X1044457*
X1043457Y1140429D02*
G03X1044457Y1139429I1000J0D01*
G01X1043457Y1140429D02*
Y1140891D01*
G03X1043057Y1141291I-400J0*
G01X1033573*
G03X1033173Y1140891I0J-400*
G01Y1140429*
X1032173Y1139429D02*
G03X1033173Y1140429I0J1000D01*
G01X1032173Y1139429D02*
X1029811D01*
X1028811Y1140429D02*
G03X1029811Y1139429I1000J0D01*
G01X1028811Y1140429D02*
Y1145154D01*
X1029811Y1146154D02*
G03X1028811Y1145154I0J-1000D01*
G01X1029811Y1146154D02*
X1032173D01*
X1033173Y1145154D02*
G03X1032173Y1146154I-1000J-0D01*
G01X1033173Y1145154D02*
Y1144691D01*
G03X1033573Y1144291I400J0*
G01X1043057*
G03X1043457Y1144691I-0J400*
G01Y1145154*
X1044457Y1146154D02*
G03X1043457Y1145154I-0J-1000D01*
G01X1044457Y1146154D02*
X1046819D01*
X1047819Y1145154D02*
G03X1046819Y1146154I-1000J-0D01*
G01X1047819Y1145154D02*
Y1144900D01*
G03X1048219Y1144500I400J0*
G01X1052713*
G03X1052996Y1144617I-0J400*
G01X1059790Y1151412*
G03X1059906Y1151663I-282J283*
G01X1062675Y1153488D02*
G03X1059906Y1151663I-675J-1988D01*
G01X1062675Y1153488D02*
G03X1063087Y1154150I129J379D01*
G01X1060854Y1156383*
G03X1060571Y1156500I-283J-283*
G01X1029625*
G03X1029365Y1156404I-0J-400*
G01Y1159596D02*
G03Y1156404I-1365J-1596D01*
G01Y1159596D02*
G03X1029625Y1159500I260J304D01*
G01X1061358*
X1062419Y1159061D02*
G03X1061358Y1159500I-1061J-1061D01*
G01X1062419Y1159061D02*
X1065919Y1155561D01*
X1066358Y1154500D02*
G03X1065919Y1155561I-1500J0D01*
G01X1066358Y1154500D02*
Y1141287D01*
G03X1066475Y1141004I400J0*
G01X1075317Y1132162*
G03X1076000Y1132445I283J283*
G01Y1139213*
G03X1075883Y1139496I-400J-0*
G01X1074996Y1140383*
G03X1074713Y1140500I-283J-283*
G01X1070000*
X1069000Y1141500D02*
G03X1070000Y1140500I1000J0D01*
G01X1069000Y1141500D02*
Y1147500D01*
X1070000Y1148500D02*
G03X1069000Y1147500I0J-1000D01*
G01X1070000Y1148500D02*
X1075000D01*
X1076000Y1147500D02*
G03X1075000Y1148500I-1000J0D01*
G01X1076000Y1147500D02*
Y1143787D01*
G03X1076117Y1143504I400J0*
G01X1077317Y1142304*
G03X1078000Y1142587I283J283*
G01Y1158713*
G03X1077883Y1158996I-400J-0*
G01X1063996Y1172883*
G03X1063713Y1173000I-283J-283*
G01X1054200*
G03X1053960Y1172280I0J-400*
G01X1054131Y1172131D02*
G03X1053960Y1172280I-1131J-1131D01*
G01X1054131Y1172131D02*
X1059646Y1166617D01*
G03X1059928Y1166500I282J283*
G01X1060800*
X1061657Y1166015D02*
G03X1060800Y1166500I-857J-515D01*
G01X1061657Y1166015D02*
G03X1062343I343J206D01*
G01X1063200Y1166500D02*
G03X1062343Y1166015I0J-1000D01*
G01X1063200Y1166500D02*
X1067000D01*
X1068000Y1165500D02*
G03X1067000Y1166500I-1000J0D01*
G01X1068000Y1165500D02*
Y1163387D01*
G03X1068117Y1163104I400J0*
G01X1073561Y1157661*
X1073594Y1157626D02*
G03X1073561Y1157661I-1094J-1026D01*
G01X1073594Y1157626D02*
G03X1073886Y1157500I292J274D01*
G01X1075000*
X1076000Y1156500D02*
G03X1075000Y1157500I-1000J0D01*
G01X1076000Y1156500D02*
Y1150500D01*
X1075000Y1149500D02*
G03X1076000Y1150500I0J1000D01*
G01X1075000Y1149500D02*
X1070000D01*
X1069000Y1150500D02*
G03X1070000Y1149500I1000J0D01*
G01X1069000Y1150500D02*
Y1156500D01*
X1069262Y1157175D02*
G03X1069000Y1156500I738J-675D01*
G01X1069262Y1157175D02*
G03X1069250Y1157728I-295J270D01*
G01X1065596Y1161383*
G03X1065313Y1161500I-283J-283*
G01X1063200*
X1062343Y1161985D02*
G03X1063200Y1161500I857J515D01*
G01X1062343Y1161985D02*
G03X1061657I-343J-206D01*
G01X1060800Y1161500D02*
G03X1061657Y1161985I0J1000D01*
G01X1060800Y1161500D02*
X1057000D01*
X1056000Y1162500D02*
G03X1057000Y1161500I1000J0D01*
G01X1056000Y1162500D02*
Y1165500D01*
X1056001Y1165550D02*
G03X1056000Y1165500I999J-50D01*
G01X1056001Y1165550D02*
G03X1055885Y1165853I-399J20D01*
G01X1052454Y1169283*
G03X1052172Y1169400I-282J-283*
G01X1035000*
X1033869Y1169869D02*
G03X1035000Y1169400I1131J1131D01*
G01X1033869Y1169869D02*
X1025367Y1178370D01*
G03X1024928Y1178455I-282J-283*
G01X1024850Y1178423D02*
G03X1024928Y1178455I-1850J4577D01*
G01X1024850Y1178423D02*
G03X1024600Y1178052I150J-371D01*
G01Y1132500*
G03X1024680Y1132260I400J0*
G01X1021320D02*
G03X1024680I1680J-1260D01*
G01X1021320D02*
G03X1021400Y1132500I-320J240D01*
G01Y1140709*
G03X1020840Y1141075I-400J-0*
G01X1020163Y1140906D02*
G03X1020840Y1141075I-163J2094D01*
G01X1020163Y1140906D02*
G03X1019912Y1140790I32J-398D01*
G01X1019117Y1139996*
G03X1019000Y1139713I283J-283*
G01Y1136000*
X1018000Y1135000D02*
G03X1019000Y1136000I0J1000D01*
G01X1018000Y1135000D02*
X1013000D01*
X1012000Y1136000D02*
G03X1013000Y1135000I1000J0D01*
G01X1012000Y1136000D02*
Y1142000D01*
X1013000Y1143000D02*
G03X1012000Y1142000I0J-1000D01*
G01X1013000Y1143000D02*
X1017532D01*
G03X1017927Y1143336I0J400*
G01X1017961Y1143504D02*
G03X1017927Y1143336I2039J-504D01*
G01X1017961Y1143504D02*
G03X1017573Y1144000I-388J96D01*
G01X1013000*
X1012000Y1145000D02*
G03X1013000Y1144000I1000J0D01*
G01X1012000Y1145000D02*
Y1151000D01*
X1013000Y1152000D02*
G03X1012000Y1151000I0J-1000D01*
G01X1013000Y1152000D02*
X1013600D01*
G03X1014000Y1152400I-0J400*
G01Y1157158*
G03X1013714Y1157542I-400J0*
G01X1013000Y1158500D02*
G03X1013714Y1157542I1000J0D01*
G01X1013000Y1158500D02*
Y1162300D01*
X1013485Y1163157D02*
G03X1013000Y1162300I515J-857D01*
G01X1013485Y1163157D02*
G03Y1163843I-206J343D01*
G01X1013000Y1164700D02*
G03X1013485Y1163843I1000J0D01*
G01X1013000Y1164700D02*
Y1168500D01*
X1013643Y1169434D02*
G03X1013000Y1168500I357J-934D01*
G01X1013643Y1169434D02*
G03X1013900Y1169808I-143J374D01*
G01Y1177000*
X1014369Y1178131D02*
G03X1013900Y1177000I1131J-1131D01*
G01X1014369Y1178131D02*
X1018027Y1181790D01*
G03X1018138Y1182142I-283J283*
G01X1021150Y1187577D02*
G03X1018138Y1182142I1850J-4577D01*
G01X1021150Y1187577D02*
G03X1021400Y1187948I-150J371D01*
G01Y1188052*
G03X1021150Y1188423I-400J-0*
G01X1027625Y1194727D02*
G03X1021150Y1188423I-4625J-1727D01*
G01X1027625Y1194727D02*
G03X1028375I375J140D01*
G01X1037625D02*
G03X1028375I-4625J-1727D01*
G01X1037625D02*
G03X1038375I375J140D01*
G01X1047625D02*
G03X1038375I-4625J-1727D01*
G01X1047625D02*
G03X1048375I375J140D01*
G01X1057625D02*
G03X1048375I-4625J-1727D01*
G01X1057625D02*
G03X1058375I375J140D01*
G01X1067625D02*
G03X1058375I-4625J-1727D01*
G01X1067625D02*
G03X1068375I375J140D01*
G01X1077625D02*
G03X1068375I-4625J-1727D01*
G01X1077625D02*
G03X1078375I375J140D01*
G01X1087625D02*
G03X1078375I-4625J-1727D01*
G01X1087625D02*
G03X1088375I375J140D01*
G01X1097625D02*
G03X1088375I-4625J-1727D01*
G01X1097625D02*
G03X1098375I375J140D01*
G01X1107625D02*
G03X1098375I-4625J-1727D01*
G01X1107625D02*
G03X1108375I375J140D01*
G01X1114727Y1188375D02*
G03X1108375Y1194727I-1727J4625D01*
G01X1114727Y1188375D02*
G03Y1187625I140J-375D01*
G01X1117654Y1181351D02*
G03X1114727Y1187625I-4654J1649D01*
G01X1117654Y1181351D02*
G03X1118313Y1180935I377J-133D01*
G01X1122883Y1185504*
G03X1123000Y1185787I-283J283*
G01Y1186500*
X1124000Y1187500D02*
G03X1123000Y1186500I0J-1000D01*
G01X1124000Y1187500D02*
G03X1124400Y1187900I-0J400D01*
G01Y1196500*
X1124839Y1197561D02*
G03X1124400Y1196500I1061J-1061D01*
G01X1124839Y1197561D02*
X1127839Y1200561D01*
X1128900Y1201000D02*
G03X1127839Y1200561I0J-1500D01*
G01X1128900Y1201000D02*
X1149100D01*
X1150161Y1200561D02*
G03X1149100Y1201000I-1061J-1061D01*
G01X1150161Y1200561D02*
X1157604Y1193117D01*
G03X1157887Y1193000I283J283*
G01X1160000*
X1161000Y1192000D02*
G03X1160000Y1193000I-1000J0D01*
G01X1161000Y1192000D02*
G03X1161400Y1191600I400J0D01*
G01X1165100*
G03X1165500Y1192000I-0J400*
G01Y1192500*
X1166500Y1193500D02*
G03X1165500Y1192500I0J-1000D01*
G01X1166500Y1193500D02*
X1170300D01*
X1171157Y1193015D02*
G03X1170300Y1193500I-857J-515D01*
G01X1171157Y1193015D02*
G03X1171843I343J206D01*
G01X1172700Y1193500D02*
G03X1171843Y1193015I0J-1000D01*
G01X1172700Y1193500D02*
X1176500D01*
X1177500Y1192500D02*
G03X1176500Y1193500I-1000J0D01*
G01X1177500Y1192500D02*
Y1189500D01*
X1176500Y1188500D02*
G03X1177500Y1189500I0J1000D01*
G01X1176500Y1188500D02*
X1172700D01*
X1171843Y1188985D02*
G03X1172700Y1188500I857J515D01*
G01X1171843Y1188985D02*
G03X1171157I-343J-206D01*
G01X1170657Y1188566D02*
G03X1171157Y1188985I-357J934D01*
G01X1170657Y1188566D02*
G03X1170400Y1188192I143J-374D01*
G01Y1184900*
G03X1170800Y1184500I400J0*
G01X1171657Y1184015D02*
G03X1170800Y1184500I-857J-515D01*
G01X1171657Y1184015D02*
G03X1172343I343J206D01*
G01X1173200Y1184500D02*
G03X1172343Y1184015I0J-1000D01*
G01X1173200Y1184500D02*
X1177000D01*
X1178000Y1183500D02*
G03X1177000Y1184500I-1000J0D01*
G01X1178000Y1183500D02*
Y1180500D01*
X1177000Y1179500D02*
G03X1178000Y1180500I0J1000D01*
G01X1177000Y1179500D02*
X1176673D01*
G03X1176321Y1179289I0J-400*
G01X1176061Y1178939D02*
G03X1176321Y1179289I-1061J1061D01*
G01X1176061Y1178939D02*
X1167561Y1170439D01*
X1166500Y1170000D02*
G03X1167561Y1170439I0J1500D01*
G01X1166500Y1170000D02*
X1148842D01*
G03X1148458Y1169714I-0J-400*
G01X1147500Y1169000D02*
G03X1148458Y1169714I0J1000D01*
G01X1147500Y1169000D02*
X1143700D01*
X1142843Y1169485D02*
G03X1143700Y1169000I857J515D01*
G01X1142843Y1169485D02*
G03X1142157I-343J-206D01*
G01X1141300Y1169000D02*
G03X1142157Y1169485I0J1000D01*
G01X1141300Y1169000D02*
X1140400D01*
G03X1140000Y1168600I0J-400*
G01Y1161842*
G03X1140286Y1161458I400J-0*
G01X1141000Y1160500D02*
G03X1140286Y1161458I-1000J0D01*
G01X1141000Y1160500D02*
G03X1141400Y1160100I400J0D01*
G01X1144600*
G03X1145000Y1160500I-0J400*
G01X1146000Y1161500D02*
G03X1145000Y1160500I0J-1000D01*
G01X1146000Y1161500D02*
X1149000D01*
X1150000Y1160500D02*
G03X1149000Y1161500I-1000J0D01*
G01X1150000Y1160500D02*
Y1156700D01*
X1149515Y1155843D02*
G03X1150000Y1156700I-515J857D01*
G01X1149515Y1155843D02*
G03Y1155157I206J-343D01*
G01X1150000Y1154300D02*
G03X1149515Y1155157I-1000J0D01*
G01X1150000Y1154300D02*
G03X1150400Y1153900I400J0D01*
G01X1153600*
G03X1154000Y1154300I-0J400*
G01X1154485Y1155157D02*
G03X1154000Y1154300I515J-857D01*
G01X1154485Y1155157D02*
G03Y1155843I-206J343D01*
G01X1154000Y1156700D02*
G03X1154485Y1155843I1000J0D01*
G01X1154000Y1156700D02*
Y1160500D01*
X1155000Y1161500D02*
G03X1154000Y1160500I0J-1000D01*
G01X1155000Y1161500D02*
X1158000D01*
X1159000Y1160500D02*
G03X1158000Y1161500I-1000J0D01*
G01X1159000Y1160500D02*
Y1156700D01*
X1158515Y1155843D02*
G03X1159000Y1156700I-515J857D01*
G01X1158515Y1155843D02*
G03Y1155157I206J-343D01*
G01X1159000Y1154300D02*
G03X1158515Y1155157I-1000J0D01*
G01X1159000Y1154300D02*
Y1150500D01*
X1158000Y1149500D02*
G03X1159000Y1150500I0J1000D01*
G01X1158000Y1149500D02*
X1155000D01*
X1154000Y1150500D02*
G03X1155000Y1149500I1000J0D01*
G01X1154000Y1150500D02*
G03X1153600Y1150900I-400J-0D01*
G01X1150400*
G03X1150000Y1150500I0J-400*
G01X1149000Y1149500D02*
G03X1150000Y1150500I0J1000D01*
G01X1149000Y1149500D02*
X1146000D01*
X1145000Y1150500D02*
G03X1146000Y1149500I1000J0D01*
G01X1145000Y1150500D02*
G03X1144600Y1150900I-400J-0D01*
G01X1141400*
G03X1141000Y1150500I0J-400*
G01X1140000Y1149500D02*
G03X1141000Y1150500I0J1000D01*
G01X1140000Y1149500D02*
X1137000D01*
X1136000Y1150500D02*
G03X1137000Y1149500I1000J0D01*
G01X1136000Y1150500D02*
Y1150600D01*
G03X1135600Y1151000I-400J-0*
G01X1134625*
G03X1134365Y1150904I-0J-400*
G01Y1154096D02*
G03Y1150904I-1365J-1596D01*
G01Y1154096D02*
G03X1134625Y1154000I260J304D01*
G01X1135604*
G03X1136003Y1154371I-0J400*
G01X1136485Y1155157D02*
G03X1136003Y1154371I515J-857D01*
G01X1136485Y1155157D02*
G03Y1155843I-206J343D01*
G01X1136003Y1156629D02*
G03X1136485Y1155843I997J71D01*
G01X1136003Y1156629D02*
G03X1135604Y1157000I-399J-29D01*
G01X1126787*
G03X1126504Y1156883I0J-400*
G01X1116117Y1146496*
G03X1116000Y1146213I283J-283*
G01Y1142469*
G03X1116227Y1142108I400J-0*
G01X1112773D02*
G03X1116227I1727J-3608D01*
G01X1112773D02*
G03X1113000Y1142469I-173J361D01*
G01Y1147000*
X1113439Y1148061D02*
G03X1113000Y1147000I1061J-1061D01*
G01X1113439Y1148061D02*
X1115102Y1149724D01*
G03X1114848Y1150405I-283J283*
G01X1114752Y1150415D02*
G03X1114848Y1150405I248J2085D01*
G01X1114752Y1150415D02*
G03X1114422Y1150300I-47J-397D01*
G01X1106602Y1142481*
G03X1106668Y1141862I283J-283*
G01X1105314Y1134584D02*
G03X1106668Y1141862I-814J3916D01*
G01X1105314Y1134584D02*
G03X1105112Y1133909I81J-392D01*
G01X1107404Y1131617*
G03X1107687Y1131500I283J283*
G01X1109800*
X1110657Y1131015D02*
G03X1109800Y1131500I-857J-515D01*
G01X1110657Y1131015D02*
G03X1111343I343J206D01*
G01X1112200Y1131500D02*
G03X1111343Y1131015I0J-1000D01*
G01X1112200Y1131500D02*
X1116000D01*
X1116958Y1130786D02*
G03X1116000Y1131500I-958J-286D01*
G01X1116958Y1130786D02*
G03X1117342Y1130500I384J114D01*
G01X1123158*
G03X1123542Y1130786I0J400*
G01X1124500Y1131500D02*
G03X1123542Y1130786I0J-1000D01*
G01X1124500Y1131500D02*
X1128300D01*
X1129157Y1131015D02*
G03X1128300Y1131500I-857J-515D01*
G01X1129157Y1131015D02*
G03X1129843I343J206D01*
G01X1130700Y1131500D02*
G03X1129843Y1131015I0J-1000D01*
G01X1130700Y1131500D02*
X1134500D01*
X1135500Y1130500D02*
G03X1134500Y1131500I-1000J0D01*
G01X1135500Y1130500D02*
Y1127500D01*
X1134500Y1126500D02*
G03X1135500Y1127500I0J1000D01*
G01X1134500Y1126500D02*
X1131987D01*
G03X1131704Y1125817I0J-400*
G01X1133461Y1124061*
X1133883Y1123226D02*
G03X1133461Y1124061I-1483J-226D01*
G01X1133883Y1123226D02*
G03X1134278Y1122886I395J60D01*
G01X1136291*
X1136981Y1122610D02*
G03X1136291Y1122886I-690J-724D01*
G01X1136981Y1122610D02*
G03X1137256Y1122500I275J290D01*
G01X1139813*
G03X1140096Y1122617I-0J400*
G01X1140883Y1123404*
G03X1141000Y1123687I-283J283*
G01Y1125800*
X1141485Y1126657D02*
G03X1141000Y1125800I515J-857D01*
G01X1141485Y1126657D02*
G03Y1127343I-206J343D01*
G01X1141000Y1128200D02*
G03X1141485Y1127343I1000J0D01*
G01X1141000Y1128200D02*
Y1132000D01*
X1142000Y1133000D02*
G03X1141000Y1132000I0J-1000D01*
G01X1142000Y1133000D02*
X1145000D01*
X1146000Y1132000D02*
G03X1145000Y1133000I-1000J0D01*
G01X1146000Y1132000D02*
Y1128200D01*
X1145515Y1127343D02*
G03X1146000Y1128200I-515J857D01*
G01X1145515Y1127343D02*
G03Y1126657I206J-343D01*
G01X1146000Y1125800D02*
G03X1145515Y1126657I-1000J0D01*
G01X1146000Y1125800D02*
Y1122000D01*
X1145000Y1121000D02*
G03X1146000Y1122000I0J1000D01*
G01X1145000Y1121000D02*
X1142887D01*
G03X1142604Y1120883I0J-400*
G01X1141661Y1119939*
X1140600Y1119500D02*
G03X1141661Y1119939I0J1500D01*
G01X1140600Y1119500D02*
X1139087D01*
G03X1138804Y1118817I0J-400*
G01X1141132Y1116489*
G03X1141582Y1116409I283J283*
G01X1142000Y1116500D02*
G03X1141582Y1116409I0J-1000D01*
G01X1142000Y1116500D02*
X1145000D01*
X1146000Y1115500D02*
G03X1145000Y1116500I-1000J0D01*
G01X1146000Y1115500D02*
Y1111700D01*
X1145515Y1110843D02*
G03X1146000Y1111700I-515J857D01*
G01X1145515Y1110843D02*
G03Y1110157I206J-343D01*
G01X1146000Y1109300D02*
G03X1145515Y1110157I-1000J0D01*
G01X1146000Y1109300D02*
Y1107287D01*
G03X1146117Y1107004I400J0*
G01X1152061Y1101061*
X1152188Y1100916D02*
G03X1152061Y1101061I-1188J-916D01*
G01X1152188Y1100916D02*
G03X1152904Y1101134I317J244D01*
G01X1155282Y1103081D02*
G03X1152904Y1101134I-282J-2081D01*
G01X1155282Y1103081D02*
G03X1155618Y1103760I54J396D01*
G01X1148252Y1111126*
G03X1148165Y1111192I-282J-283*
G01X1147400Y1112500D02*
G03X1148165Y1111192I1500J0D01*
G01X1147400Y1112500D02*
Y1122900D01*
X1147839Y1123961D02*
G03X1147400Y1122900I1061J-1061D01*
G01X1147839Y1123961D02*
X1162783Y1138904D01*
G03X1162900Y1139187I-283J283*
G01Y1144072*
G03X1162217Y1144354I-400J-0*
G01X1159617Y1141754*
G03X1159500Y1141472I283J-282*
G01Y1139500*
X1158500Y1138500D02*
G03X1159500Y1139500I0J1000D01*
G01X1158500Y1138500D02*
X1154700D01*
X1153843Y1138985D02*
G03X1154700Y1138500I857J515D01*
G01X1153843Y1138985D02*
G03X1153157I-343J-206D01*
G01X1152300Y1138500D02*
G03X1153157Y1138985I0J1000D01*
G01X1152300Y1138500D02*
X1148500D01*
X1147500Y1139500D02*
G03X1148500Y1138500I1000J0D01*
G01X1147500Y1139500D02*
Y1142500D01*
X1147734Y1143143D02*
G03X1147500Y1142500I766J-643D01*
G01X1147734Y1143143D02*
G03X1147428Y1143800I-306J257D01*
G01X1146328*
G03X1146046Y1143683I0J-400*
G01X1144117Y1141754*
G03X1144000Y1141472I283J-282*
G01Y1139500*
X1143000Y1138500D02*
G03X1144000Y1139500I0J1000D01*
G01X1143000Y1138500D02*
X1139200D01*
X1138343Y1138985D02*
G03X1139200Y1138500I857J515D01*
G01X1138343Y1138985D02*
G03X1137657I-343J-206D01*
G01X1136800Y1138500D02*
G03X1137657Y1138985I0J1000D01*
G01X1136800Y1138500D02*
X1133000D01*
X1132000Y1139500D02*
G03X1133000Y1138500I1000J0D01*
G01X1132000Y1139500D02*
Y1142500D01*
X1132300Y1143214D02*
G03X1132000Y1142500I700J-714D01*
G01X1132300Y1143214D02*
G03X1132020Y1143900I-280J286D01*
G01X1130328*
G03X1130046Y1143783I0J-400*
G01X1127715Y1141452*
G03X1127680Y1140927I283J-283*
G01X1124089Y1142479D02*
G03X1127680Y1140927I411J-3979D01*
G01X1124089Y1142479D02*
G03X1124331Y1142594I-41J398D01*
G01X1128369Y1146631*
X1129500Y1147100D02*
G03X1128369Y1146631I0J-1600D01*
G01X1129500Y1147100D02*
X1136600D01*
X1137731Y1146631D02*
G03X1136600Y1147100I-1131J-1131D01*
G01X1137731Y1146631D02*
X1140746Y1143617D01*
G03X1141028Y1143500I282J283*
G01X1141172*
G03X1141454Y1143617I-0J400*
G01X1144369Y1146531*
X1145500Y1147000D02*
G03X1144369Y1146531I0J-1600D01*
G01X1145500Y1147000D02*
X1153000D01*
X1154131Y1146531D02*
G03X1153000Y1147000I-1131J-1131D01*
G01X1154131Y1146531D02*
X1156717Y1143946D01*
G03X1157283I283J282*
G01X1159783Y1146446*
G03X1159900Y1146728I-283J282*
G01Y1156500*
X1160369Y1157631D02*
G03X1159900Y1156500I1131J-1131D01*
G01X1160369Y1157631D02*
X1188883Y1186146D01*
G03X1189000Y1186428I-283J282*
G01Y1189000*
X1190000Y1190000D02*
G03X1189000Y1189000I0J-1000D01*
G01X1190000Y1190000D02*
X1196000D01*
X1197000Y1189000D02*
G03X1196000Y1190000I-1000J0D01*
G01X1197000Y1189000D02*
Y1184680D01*
G03X1197130Y1184385I400J-0*
G01X1206081Y1176179*
X1206600Y1175000D02*
G03X1206081Y1176179I-1600J0D01*
G01X1206600Y1175000D02*
Y1154000D01*
X1206131Y1152869D02*
G03X1206600Y1154000I-1131J1131D01*
G01X1206131Y1152869D02*
X1200367Y1147104D01*
G03X1200250Y1146822I283J-282*
G01Y1140678*
G03X1200367Y1140396I400J0*
G01X1204071Y1136692*
G03X1204297Y1136579I283J283*
G01X1201921Y1134203D02*
G03X1204297Y1136579I2079J297D01*
G01X1201921Y1134203D02*
G03X1201808Y1134429I-396J-57D01*
G01X1198254Y1137983*
G03X1197972Y1138100I-282J-283*
G01X1192750*
X1191750Y1139100D02*
G03X1192750Y1138100I1000J0D01*
G01X1191750Y1139100D02*
Y1143000D01*
G03X1191350Y1143400I-400J-0*
G01X1175650*
G03X1175250Y1143000I0J-400*
G01Y1142750*
X1174250Y1141750D02*
G03X1175250Y1142750I0J1000D01*
G01X1174250Y1141750D02*
X1167750D01*
X1166750Y1142750D02*
G03X1167750Y1141750I1000J0D01*
G01X1166750Y1142750D02*
Y1147250D01*
X1167750Y1148250D02*
G03X1166750Y1147250I0J-1000D01*
G01X1167750Y1148250D02*
X1174250D01*
X1175250Y1147250D02*
G03X1174250Y1148250I-1000J0D01*
G01X1175250Y1147250D02*
Y1147000D01*
G03X1175650Y1146600I400J0*
G01X1191350*
G03X1191750Y1147000I-0J400*
G01Y1150900*
X1192750Y1151900D02*
G03X1191750Y1150900I0J-1000D01*
G01X1192750Y1151900D02*
X1199250D01*
X1199891Y1151668D02*
G03X1199250Y1151900I-641J-768D01*
G01X1199891Y1151668D02*
G03X1200430Y1151692I256J307D01*
G01X1203283Y1154546*
G03X1203400Y1154828I-283J282*
G01Y1156471*
G03X1202738Y1156773I-400J-0*
G01X1194886Y1158742D02*
G03X1202738Y1156773I4614J1758D01*
G01X1194886Y1158742D02*
G03X1194513Y1159000I-373J-142D01*
G01X1170287*
G03X1170004Y1158883I0J-400*
G01X1169154Y1158033*
G03X1169437Y1157350I283J-283*
G01X1174250*
X1175250Y1156350D02*
G03X1174250Y1157350I-1000J0D01*
G01X1175250Y1156350D02*
Y1151850D01*
X1174250Y1150850D02*
G03X1175250Y1151850I0J1000D01*
G01X1174250Y1150850D02*
X1167750D01*
X1166750Y1151850D02*
G03X1167750Y1150850I1000J0D01*
G01X1166750Y1151850D02*
Y1154663D01*
G03X1166067Y1154946I-400J-0*
G01X1166017Y1154896*
G03X1165900Y1154613I283J-283*
G01Y1138400*
X1165461Y1137339D02*
G03X1165900Y1138400I-1061J1061D01*
G01X1165461Y1137339D02*
X1158804Y1130683D01*
G03X1159087Y1130000I283J-283*
G01X1159714*
G03X1160071Y1130220I-0J400*
G01X1160369Y1130631D02*
G03X1160071Y1130220I1131J-1131D01*
G01X1160369Y1130631D02*
X1166633Y1136896D01*
G03X1166750Y1137178I-283J282*
G01Y1138150*
X1167750Y1139150D02*
G03X1166750Y1138150I0J-1000D01*
G01X1167750Y1139150D02*
X1174250D01*
X1175250Y1138150D02*
G03X1174250Y1139150I-1000J0D01*
G01X1175250Y1138150D02*
Y1133650D01*
X1174250Y1132650D02*
G03X1175250Y1133650I0J1000D01*
G01X1174250Y1132650D02*
X1167750D01*
X1167353Y1132732D02*
G03X1167750Y1132650I397J918D01*
G01X1167353Y1132732D02*
G03X1166911Y1132648I-159J-367D01*
G01X1164813Y1130550*
G03X1164925Y1129905I283J-283*
G01X1165500Y1129000D02*
G03X1164925Y1129905I-1000J0D01*
G01X1165500Y1129000D02*
Y1128000D01*
G03X1165900Y1127600I400J0*
G01X1174100*
X1175231Y1127131D02*
G03X1174100Y1127600I-1131J-1131D01*
G01X1175231Y1127131D02*
X1178746Y1123617D01*
G03X1179028Y1123500I282J283*
G01X1181000*
X1181984Y1122679D02*
G03X1181000Y1123500I-984J-179D01*
G01X1181984Y1122679D02*
G03X1182378Y1122350I394J71D01*
G01X1183922*
G03X1184204Y1123033I-0J400*
G01X1181929Y1125308*
G03X1181703Y1125421I-283J-283*
G01X1184079Y1127797D02*
G03X1181703Y1125421I-2079J-297D01*
G01X1184079Y1127797D02*
G03X1184192Y1127571I396J57D01*
G01X1188146Y1123617*
G03X1188428Y1123500I282J283*
G01X1190300*
X1191157Y1123015D02*
G03X1190300Y1123500I-857J-515D01*
G01X1191157Y1123015D02*
G03X1191843I343J206D01*
G01X1192700Y1123500D02*
G03X1191843Y1123015I0J-1000D01*
G01X1192700Y1123500D02*
X1196500D01*
X1197500Y1122500D02*
G03X1196500Y1123500I-1000J0D01*
G01X1197500Y1122500D02*
Y1119500D01*
X1196500Y1118500D02*
G03X1197500Y1119500I0J1000D01*
G01X1196500Y1118500D02*
X1192700D01*
X1191843Y1118985D02*
G03X1192700Y1118500I857J515D01*
G01X1191843Y1118985D02*
G03X1191157I-343J-206D01*
G01X1190300Y1118500D02*
G03X1191157Y1118985I0J1000D01*
G01X1190300Y1118500D02*
X1186500D01*
X1185839Y1118750D02*
G03X1186500Y1118500I661J750D01*
G01X1185839Y1118750D02*
G03X1185574Y1118850I-265J-300D01*
G01X1182378*
G03X1181984Y1118521I-0J-400*
G01X1181515Y1117843D02*
G03X1181984Y1118521I-515J857D01*
G01X1181515Y1117843D02*
G03Y1117157I206J-343D01*
G01X1182000Y1116300D02*
G03X1181515Y1117157I-1000J0D01*
G01X1182000Y1116300D02*
Y1112500D01*
X1181000Y1111500D02*
G03X1182000Y1112500I0J1000D01*
G01X1181000Y1111500D02*
X1178000D01*
G03X1177600Y1111100I0J-400*
G01Y1106400*
X1177131Y1105269D02*
G03X1177600Y1106400I-1131J1131D01*
G01X1177131Y1105269D02*
X1176117Y1104254D01*
G03X1176000Y1103972I283J-282*
G01Y1102000*
X1175000Y1101000D02*
G03X1176000Y1102000I0J1000D01*
G01X1175000Y1101000D02*
X1172487D01*
G03X1172204Y1100317I0J-400*
G01X1175404Y1097117*
G03X1175687Y1097000I283J283*
G01X1180939*
G03X1181339Y1097400I-0J400*
G01Y1097862*
X1182097Y1098833D02*
G03X1181339Y1097862I242J-971D01*
G01X1182097Y1098833D02*
G03X1182400Y1099221I-97J388D01*
G01Y1100100*
G03X1182000Y1100500I-400J-0*
G01X1181000Y1101500D02*
G03X1182000Y1100500I1000J0D01*
G01X1181000Y1101500D02*
Y1104500D01*
X1182000Y1105500D02*
G03X1181000Y1104500I0J-1000D01*
G01X1182000Y1105500D02*
X1185800D01*
X1186657Y1105015D02*
G03X1185800Y1105500I-857J-515D01*
G01X1186657Y1105015D02*
G03X1187343I343J206D01*
G01X1188200Y1105500D02*
G03X1187343Y1105015I0J-1000D01*
G01X1188200Y1105500D02*
X1192000D01*
X1193000Y1104500D02*
G03X1192000Y1105500I-1000J0D01*
G01X1193000Y1104500D02*
Y1101500D01*
X1192000Y1100500D02*
G03X1193000Y1101500I0J1000D01*
G01X1192000Y1100500D02*
X1188200D01*
X1187343Y1100985D02*
G03X1188200Y1100500I857J515D01*
G01X1187343Y1100985D02*
G03X1186657I-343J-206D01*
G01X1185800Y1100500D02*
G03X1186657Y1100985I0J1000D01*
G01X1185800Y1100500D02*
G03X1185400Y1100100I0J-400D01*
G01Y1099234*
G03X1185880Y1098842I400J0*
G01X1186079Y1098862D02*
G03X1185880Y1098842I-0J-1000D01*
G01X1186079Y1098862D02*
X1188441D01*
X1188933Y1098733D02*
G03X1188441Y1098862I-492J-871D01*
G01X1188933Y1098733D02*
G03X1189327I197J348D01*
G01X1189819Y1098862D02*
G03X1189327Y1098733I-0J-1000D01*
G01X1189819Y1098862D02*
X1192181D01*
X1193176Y1097961D02*
G03X1192181Y1098862I-995J-99D01*
G01X1193176Y1097961D02*
G03X1193574Y1097600I398J39D01*
G01X1196600*
G03X1197000Y1098000I-0J400*
G01X1198000Y1099000D02*
G03X1197000Y1098000I0J-1000D01*
G01X1198000Y1099000D02*
X1200600D01*
G03X1201000Y1099400I-0J400*
G01Y1113429*
G03X1200824Y1113760I-400J-0*
G01X1204016Y1114912D02*
G03X1200824Y1113760I-2016J588D01*
G01X1204016Y1114912D02*
G03X1204000Y1114800I384J-112D01*
G01Y1114500*
Y1092900*
X1203561Y1091839D02*
G03X1204000Y1092900I-1061J1061D01*
G01X1203561Y1091839D02*
X1202117Y1090396D01*
G03X1202000Y1090113I283J-283*
G01Y1088000*
X1201000Y1087000D02*
G03X1202000Y1088000I0J1000D01*
G01X1201000Y1087000D02*
X1198887D01*
G03X1198604Y1086883I0J-400*
G01X1196415Y1084694*
G03X1196340Y1084590I283J-283*
G01X1195000Y1083764D02*
G03X1196340Y1084590I0J1500D01*
G01X1195000Y1083764D02*
X1193581D01*
G03X1193181Y1083364I0J-400*
G01Y1082902*
X1192695Y1082043D02*
G03X1193181Y1082902I-514J859D01*
G01X1192695Y1082043D02*
G03X1192500Y1081700I205J-343D01*
G01Y1079331*
X1191623Y1077966D02*
G03X1192500Y1079331I-623J1365D01*
G01X1191623Y1077966D02*
G03X1191507Y1077885I167J-364D01*
G01X1189210Y1075588*
G03X1189094Y1075337I282J-283*
G01X1185031Y1076230D02*
G03X1189094Y1075337I1969J-730D01*
G01X1185031Y1076230D02*
G03X1184373Y1076652I-375J139D01*
G01X1179117Y1071396*
G03X1179000Y1071113I283J-283*
G01Y1069000*
X1178000Y1068000D02*
G03X1179000Y1069000I0J1000D01*
G01X1178000Y1068000D02*
X1174200D01*
X1173343Y1068485D02*
G03X1174200Y1068000I857J515D01*
G01X1173343Y1068485D02*
G03X1172657I-343J-206D01*
G01X1171871Y1068003D02*
G03X1172657Y1068485I-71J997D01*
G01X1171871Y1068003D02*
G03X1171500Y1067604I29J-399D01*
G01Y1066125*
G03X1171596Y1065865I400J-0*
G01X1168656Y1062886D02*
G03X1171596Y1065865I1344J1614D01*
G01X1168656Y1062886D02*
G03X1168000Y1062579I-256J-307D01*
G01Y1054287*
G03X1168117Y1054004I400J0*
G01X1169061Y1053061*
X1169500Y1052000D02*
G03X1169061Y1053061I-1500J0D01*
G01X1169500Y1052000D02*
Y1045678D01*
G03X1169655Y1045362I400J0*
G01X1170043Y1044571D02*
G03X1169655Y1045362I-1000J-0D01*
G01X1170043Y1044571D02*
Y1044109D01*
G03X1170443Y1043709I400J-0*
G01X1179927*
G03X1180327Y1044109I-0J400*
G01Y1044571*
X1181327Y1045571D02*
G03X1180327Y1044571I-0J-1000D01*
G01X1181327Y1045571D02*
X1183689D01*
X1184689Y1044571D02*
G03X1183689Y1045571I-1000J-0D01*
G01X1184689Y1044571D02*
Y1044109D01*
G03X1185089Y1043709I400J-0*
G01X1193104*
G03X1193503Y1044078I0J400*
G01X1194500Y1045000D02*
G03X1193503Y1044078I0J-1000D01*
G01X1194500Y1045000D02*
X1198300D01*
X1199157Y1044515D02*
G03X1198300Y1045000I-857J-515D01*
G01X1199157Y1044515D02*
G03X1199843I343J206D01*
G01X1200700Y1045000D02*
G03X1199843Y1044515I0J-1000D01*
G01X1200700Y1045000D02*
X1204000D01*
G03X1204400Y1045400I-0J400*
G01Y1046000*
G03X1204000Y1046400I-400J-0*
G01X1190000*
X1188869Y1046869D02*
G03X1190000Y1046400I1131J1131D01*
G01X1188869Y1046869D02*
X1184869Y1050869D01*
X1184400Y1052000D02*
G03X1184869Y1050869I1600J0D01*
G01X1184400Y1052000D02*
Y1053600D01*
G03X1184000Y1054000I-400J-0*
G01X1183950Y1054001D02*
G03X1184000Y1054000I50J999D01*
G01X1183950Y1054001D02*
G03X1183647Y1053885I-20J-399D01*
G01X1180192Y1050429*
G03X1180079Y1050203I283J-283*
G01X1177703Y1052579D02*
G03X1180079Y1050203I297J-2079D01*
G01X1177703Y1052579D02*
G03X1177929Y1052692I-57J396D01*
G01X1182869Y1057631*
X1182880Y1057643D02*
G03X1182869Y1057631I1120J-1143D01*
G01X1182880Y1057643D02*
G03X1183000Y1057928I-280J285D01*
G01Y1058000*
X1183929Y1058997D02*
G03X1183000Y1058000I71J-997D01*
G01X1183929Y1058997D02*
G03X1184300Y1059396I-29J399D01*
G01Y1063104*
G03X1183929Y1063503I-400J-0*
G01X1183000Y1064500D02*
G03X1183929Y1063503I1000J0D01*
G01X1183000Y1064500D02*
Y1067500D01*
X1184000Y1068500D02*
G03X1183000Y1067500I0J-1000D01*
G01X1184000Y1068500D02*
X1187800D01*
X1188657Y1068015D02*
G03X1187800Y1068500I-857J-515D01*
G01X1188657Y1068015D02*
G03X1189343I343J206D01*
G01X1190200Y1068500D02*
G03X1189343Y1068015I0J-1000D01*
G01X1190200Y1068500D02*
X1194000D01*
X1195000Y1067500D02*
G03X1194000Y1068500I-1000J0D01*
G01X1195000Y1067500D02*
Y1064500D01*
X1194000Y1063500D02*
G03X1195000Y1064500I0J1000D01*
G01X1194000Y1063500D02*
X1190200D01*
X1189343Y1063985D02*
G03X1190200Y1063500I857J515D01*
G01X1189343Y1063985D02*
G03X1188657I-343J-206D01*
G01X1187871Y1063503D02*
G03X1188657Y1063985I-71J997D01*
G01X1187871Y1063503D02*
G03X1187500Y1063104I29J-399D01*
G01Y1059396*
G03X1187871Y1058997I400J0*
G01X1188657Y1058515D02*
G03X1187871Y1058997I-857J-515D01*
G01X1188657Y1058515D02*
G03X1189343I343J206D01*
G01X1190200Y1059000D02*
G03X1189343Y1058515I0J-1000D01*
G01X1190200Y1059000D02*
X1194000D01*
X1195000Y1058000D02*
G03X1194000Y1059000I-1000J0D01*
G01X1195000Y1058000D02*
Y1055000D01*
X1194000Y1054000D02*
G03X1195000Y1055000I0J1000D01*
G01X1194000Y1054000D02*
X1190200D01*
X1189343Y1054485D02*
G03X1190200Y1054000I857J515D01*
G01X1189343Y1054485D02*
G03X1188657I-343J-206D01*
G01X1187943Y1054010D02*
G03X1188657Y1054485I-143J990D01*
G01X1187943Y1054010D02*
G03X1187600Y1053614I57J-396D01*
G01Y1052828*
G03X1187717Y1052546I400J0*
G01X1190546Y1049717*
G03X1190828Y1049600I282J283*
G01X1204500*
G03X1204740Y1049680I-0J400*
G01X1206924Y1049886D02*
G03X1204740Y1049680I-924J-1886D01*
G01X1206924Y1049886D02*
G03X1207500Y1050245I176J359D01*
G01X1087264Y1092758D02*
Y1097201D01*
G03X1087206Y1097409I-400J0*
G01X1087091Y1097626D02*
G03X1087206Y1097409I1909J874D01*
G01X1087091Y1097626D02*
G03X1086327Y1097460I-364J-166D01*
G01Y1092758*
G03X1086727Y1092358I400J0*
G01X1086864*
G03X1087264Y1092758I-0J400*
G01X1099500Y1083749D02*
G03X1099206Y1084459I-250J312D01*
G01X1099098Y1084453D02*
G03X1099206Y1084459I0J1000D01*
G01X1099098Y1084453D02*
X1098114D01*
X1097763Y1084517D02*
G03X1098114Y1084453I351J936D01*
G01X1097763Y1084517D02*
G03X1097481I-141J-375D01*
G01X1097130Y1084453D02*
G03X1097481Y1084517I-0J1000D01*
G01X1097130Y1084453D02*
X1096146D01*
X1095794Y1084517D02*
G03X1096146Y1084453I352J936D01*
G01X1095794Y1084517D02*
G03X1095513I-140J-375D01*
G01X1095161Y1084453D02*
G03X1095513Y1084517I0J1000D01*
G01X1095161Y1084453D02*
X1094177D01*
X1093826Y1084517D02*
G03X1094177Y1084453I351J936D01*
G01X1093826Y1084517D02*
G03X1093544I-141J-375D01*
G01X1093193Y1084453D02*
G03X1093544Y1084517I-0J1000D01*
G01X1093193Y1084453D02*
X1092209D01*
X1091857Y1084517D02*
G03X1092209Y1084453I352J936D01*
G01X1091857Y1084517D02*
G03X1091576I-140J-375D01*
G01X1091224Y1084453D02*
G03X1091576Y1084517I0J1000D01*
G01X1091224Y1084453D02*
X1090240D01*
X1089889Y1084517D02*
G03X1090240Y1084453I351J936D01*
G01X1089889Y1084517D02*
G03X1089607I-141J-375D01*
G01X1089256Y1084453D02*
G03X1089607Y1084517I-0J1000D01*
G01X1089256Y1084453D02*
X1088272D01*
X1087920Y1084517D02*
G03X1088272Y1084453I352J936D01*
G01X1087920Y1084517D02*
G03X1087639I-140J-375D01*
G01X1087287Y1084453D02*
G03X1087639Y1084517I0J1000D01*
G01X1087287Y1084453D02*
X1086303D01*
X1085952Y1084517D02*
G03X1086303Y1084453I351J936D01*
G01X1085952Y1084517D02*
G03X1085670I-141J-375D01*
G01X1085319Y1084453D02*
G03X1085670Y1084517I-0J1000D01*
G01X1085319Y1084453D02*
X1084335D01*
X1083983Y1084517D02*
G03X1084335Y1084453I352J936D01*
G01X1083983Y1084517D02*
G03X1083702I-140J-375D01*
G01X1083350Y1084453D02*
G03X1083702Y1084517I0J1000D01*
G01X1083350Y1084453D02*
X1082366D01*
X1082015Y1084517D02*
G03X1082366Y1084453I351J936D01*
G01X1082015Y1084517D02*
G03X1081733I-141J-375D01*
G01X1081382Y1084453D02*
G03X1081733Y1084517I-0J1000D01*
G01X1081382Y1084453D02*
X1080921D01*
G03X1080521Y1084053I0J-400*
G01Y1083328*
G03X1080638Y1083046I400J0*
G01X1089428Y1074256*
G03X1089993I283J283*
G01X1099369Y1083631*
X1099500Y1083749D02*
G03X1099369Y1083631I1000J-1249D01*
G01X1081358Y1092758D02*
Y1109713D01*
G03X1081241Y1109996I-400J-0*
G01X1074798Y1116439*
X1074358Y1117500D02*
G03X1074798Y1116439I1500J0D01*
G01X1074358Y1117500D02*
Y1128713D01*
G03X1074241Y1128996I-400J-0*
G01X1063798Y1139439*
X1063358Y1140500D02*
G03X1063798Y1139439I1500J0D01*
G01X1063358Y1140500D02*
Y1149191D01*
G03X1062805Y1149560I-400J-0*
G01X1062163Y1149406D02*
G03X1062805Y1149560I-163J2094D01*
G01X1062163Y1149406D02*
G03X1061912Y1149290I32J-398D01*
G01X1054561Y1141939*
X1053500Y1141500D02*
G03X1054561Y1141939I0J1500D01*
G01X1053500Y1141500D02*
X1050016D01*
G03X1049733Y1140817I0J-400*
G01X1063490Y1127061*
X1063929Y1126000D02*
G03X1063490Y1127061I-1500J0D01*
G01X1063929Y1126000D02*
Y1125400D01*
G03X1064321Y1125000I400J-0*
G01X1065157Y1124515D02*
G03X1064321Y1125000I-857J-515D01*
G01X1065157Y1124515D02*
G03X1065843I343J206D01*
G01X1066629Y1124997D02*
G03X1065843Y1124515I71J-997D01*
G01X1066629Y1124997D02*
G03X1067000Y1125396I-29J399D01*
G01Y1126429*
G03X1066824Y1126760I-400J-0*
G01X1070100Y1128521D02*
G03X1066824Y1126760I-2100J-21D01*
G01X1070100Y1128521D02*
G03X1070120Y1128400I400J4D01*
G01X1070200Y1127900D02*
G03X1070120Y1128400I-1600J0D01*
G01X1070200Y1127900D02*
Y1125396D01*
G03X1070571Y1124997I400J0*
G01X1071500Y1124000D02*
G03X1070571Y1124997I-1000J0D01*
G01X1071500Y1124000D02*
Y1121000D01*
X1070500Y1120000D02*
G03X1071500Y1121000I0J1000D01*
G01X1070500Y1120000D02*
X1066700D01*
X1065843Y1120485D02*
G03X1066700Y1120000I857J515D01*
G01X1065843Y1120485D02*
G03X1065157I-343J-206D01*
G01X1064300Y1120000D02*
G03X1065157Y1120485I0J1000D01*
G01X1064300Y1120000D02*
G03X1063900Y1119600I0J-400D01*
G01Y1115400*
G03X1064300Y1115000I400J0*
G01X1065157Y1114515D02*
G03X1064300Y1115000I-857J-515D01*
G01X1065157Y1114515D02*
G03X1065843I343J206D01*
G01X1066700Y1115000D02*
G03X1065843Y1114515I0J-1000D01*
G01X1066700Y1115000D02*
X1070500D01*
X1071500Y1114000D02*
G03X1070500Y1115000I-1000J0D01*
G01X1071500Y1114000D02*
Y1111000D01*
X1070500Y1110000D02*
G03X1071500Y1111000I0J1000D01*
G01X1070500Y1110000D02*
X1066700D01*
X1065843Y1110485D02*
G03X1066700Y1110000I857J515D01*
G01X1065843Y1110485D02*
G03X1065157I-343J-206D01*
G01X1064300Y1110000D02*
G03X1065157Y1110485I0J1000D01*
G01X1064300Y1110000D02*
X1063900D01*
G03X1063500Y1109600I0J-400*
G01Y1099125*
G03X1063596Y1098865I400J-0*
G01X1060656Y1095886D02*
G03X1063596Y1098865I1344J1614D01*
G01X1060656Y1095886D02*
G03X1060000Y1095579I-256J-307D01*
G01Y1094787*
G03X1060117Y1094504I400J0*
G01X1068061Y1086561*
X1068500Y1085500D02*
G03X1068061Y1086561I-1500J0D01*
G01X1068500Y1085500D02*
Y1083772D01*
G03X1069232Y1083549I400J-0*
G01X1070063Y1083992D02*
G03X1069232Y1083549I-0J-1000D01*
G01X1070063Y1083992D02*
X1075969D01*
X1076649Y1083725D02*
G03X1075969Y1083992I-680J-733D01*
G01X1076649Y1083725D02*
G03X1077321Y1084018I272J293D01*
G01Y1087421*
Y1095100*
G03X1076921Y1095500I-400J-0*
G01X1075500*
X1074503Y1096429D02*
G03X1075500Y1095500I997J71D01*
G01X1074503Y1096429D02*
G03X1074104Y1096800I-399J-29D01*
G01X1071400*
G03X1071000Y1096400I0J-400*
G01Y1096000*
X1070000Y1095000D02*
G03X1071000Y1096000I0J1000D01*
G01X1070000Y1095000D02*
X1067000D01*
X1066000Y1096000D02*
G03X1067000Y1095000I1000J0D01*
G01X1066000Y1096000D02*
Y1099800D01*
X1066485Y1100657D02*
G03X1066000Y1099800I515J-857D01*
G01X1066485Y1100657D02*
G03Y1101343I-206J343D01*
G01X1066000Y1102200D02*
G03X1066485Y1101343I1000J0D01*
G01X1066000Y1102200D02*
Y1106000D01*
X1067000Y1107000D02*
G03X1066000Y1106000I0J-1000D01*
G01X1067000Y1107000D02*
X1070000D01*
X1071000Y1106000D02*
G03X1070000Y1107000I-1000J0D01*
G01X1071000Y1106000D02*
Y1102200D01*
X1070515Y1101343D02*
G03X1071000Y1102200I-515J857D01*
G01X1070515Y1101343D02*
G03Y1100657I206J-343D01*
G01X1070904Y1100229D02*
G03X1070515Y1100657I-904J-429D01*
G01X1070904Y1100229D02*
G03X1071265Y1100000I361J171D01*
G01X1074104*
G03X1074503Y1100371I-0J400*
G01X1074985Y1101157D02*
G03X1074503Y1100371I515J-857D01*
G01X1074985Y1101157D02*
G03Y1101843I-206J343D01*
G01X1074500Y1102700D02*
G03X1074985Y1101843I1000J0D01*
G01X1074500Y1102700D02*
Y1106500D01*
X1075500Y1107500D02*
G03X1074500Y1106500I0J-1000D01*
G01X1075500Y1107500D02*
X1078500D01*
X1079500Y1106500D02*
G03X1078500Y1107500I-1000J0D01*
G01X1079500Y1106500D02*
Y1102700D01*
X1079015Y1101843D02*
G03X1079500Y1102700I-515J857D01*
G01X1079015Y1101843D02*
G03Y1101157I206J-343D01*
G01X1079500Y1100300D02*
G03X1079015Y1101157I-1000J0D01*
G01X1079500Y1100300D02*
Y1098328D01*
G03X1079617Y1098046I400J0*
G01X1080053Y1097610*
X1080521Y1096479D02*
G03X1080053Y1097610I-1600J-0D01*
G01X1080521Y1096479D02*
Y1092758D01*
G03X1080921Y1092358I400J0*
G01X1080958*
G03X1081358Y1092758I0J400*
G01X1101985Y1046157D02*
G03Y1046843I-206J343D01*
G01X1101502Y1047629D02*
G03X1101985Y1046843I998J71D01*
G01X1101502Y1047629D02*
G03X1101168Y1047996I-399J-28D01*
G01X1100294Y1048443D02*
G03X1101168Y1047996I1131J1132D01*
G01X1100294Y1048443D02*
X1099443Y1049294D01*
X1098975Y1050425D02*
G03X1099443Y1049294I1600J0D01*
G01X1098975Y1050425D02*
Y1050588D01*
G03X1098575Y1050988I-400J0*
G01X1098114*
X1097763Y1051052D02*
G03X1098114Y1050988I351J936D01*
G01X1097763Y1051052D02*
G03X1097481I-141J-374D01*
G01X1097130Y1050988D02*
G03X1097481Y1051052I-0J1000D01*
G01X1097130Y1050988D02*
X1096146D01*
X1095794Y1051052D02*
G03X1096146Y1050988I352J936D01*
G01X1095794Y1051052D02*
G03X1095513I-140J-374D01*
G01X1095161Y1050988D02*
G03X1095513Y1051052I0J1000D01*
G01X1095161Y1050988D02*
X1094601D01*
G03X1094201Y1050588I-0J-400*
G01Y1050086*
G03X1094318Y1049803I400J0*
G01X1100817Y1043304*
G03X1101500Y1043587I283J283*
G01Y1045300*
X1101985Y1046157D02*
G03X1101500Y1045300I515J-857D01*
G01X1122985Y1086157D02*
G03Y1086843I-206J343D01*
G01X1122503Y1087629D02*
G03X1122985Y1086843I997J71D01*
G01X1122503Y1087629D02*
G03X1122104Y1088000I-399J-29D01*
G01X1118396*
G03X1117997Y1087629I0J-400*
G01X1117515Y1086843D02*
G03X1117997Y1087629I-515J857D01*
G01X1117515Y1086843D02*
G03Y1086157I206J-343D01*
G01X1118000Y1085300D02*
G03X1117515Y1086157I-1000J0D01*
G01X1118000Y1085300D02*
Y1081500D01*
X1117672Y1080759D02*
G03X1118000Y1081500I-672J741D01*
G01X1117672Y1080759D02*
G03X1117941Y1080063I269J-296D01*
G01X1121937*
X1121943*
X1122560Y1080061*
G03X1122830Y1080758I2J400*
G01X1122500Y1081500D02*
G03X1122830Y1080758I1000J0D01*
G01X1122500Y1081500D02*
Y1085300D01*
X1122985Y1086157D02*
G03X1122500Y1085300I515J-857D01*
G01X1113485Y1086157D02*
G03Y1086843I-206J343D01*
G01X1113010Y1087557D02*
G03X1113485Y1086843I990J143D01*
G01X1113010Y1087557D02*
G03X1112614Y1087900I-396J-57D01*
G01X1109324*
X1109324D02*
G03X1109042Y1087783I0J-400D01*
G01X1107213Y1085954*
G03X1107096Y1085672I283J-282*
G01Y1084392*
G03X1107496Y1083992I400J0*
G01X1109433*
X1110433Y1082992D02*
G03X1109433Y1083992I-1000J0D01*
G01X1110433Y1082992D02*
Y1082008D01*
X1110369Y1081656D02*
G03X1110433Y1082008I-936J352D01*
G01X1110369Y1081656D02*
G03Y1081375I375J-140D01*
G01X1110433Y1081024D02*
G03X1110369Y1081375I-1000J-0D01*
G01X1110433Y1081024D02*
Y1080463D01*
G03X1110833Y1080063I400J0*
G01X1113059*
G03X1113328Y1080759I0J400*
G01X1113000Y1081500D02*
G03X1113328Y1080759I1000J0D01*
G01X1113000Y1081500D02*
Y1085300D01*
X1113485Y1086157D02*
G03X1113000Y1085300I515J-857D01*
G01X1075096Y1020359D02*
G03X1075089Y1020931I-283J282D01*
G01X1073955Y1026428D02*
G03X1075089Y1020931I4545J-1928D01*
G01X1073955Y1026428D02*
G03X1073870Y1026867I-368J157D01*
G01X1071769Y1028969*
X1071300Y1030100D02*
G03X1071769Y1028969I1600J0D01*
G01X1071300Y1030100D02*
Y1034104D01*
G03X1070929Y1034503I-400J-0*
G01X1070024Y1035284D02*
G03X1070929Y1034503I976J216D01*
G01X1070024Y1035284D02*
G03X1069806Y1035558I-391J-86D01*
G01X1069369Y1035869D02*
G03X1069806Y1035558I1131J1131D01*
G01X1069369Y1035869D02*
X1065602Y1039635D01*
G03X1065198Y1039733I-282J-283*
G01X1061639Y1040330D02*
G03X1065198Y1039733I2361J3170D01*
G01X1061639Y1040330D02*
G03X1061000Y1040009I-239J-321D01*
G01Y1036991*
G03X1061639Y1036670I400J-0*
G01Y1030330D02*
G03Y1036670I2361J3170D01*
G01Y1030330D02*
G03X1061000Y1030009I-239J-321D01*
G01Y1028787*
G03X1061117Y1028504I400J0*
G01X1062292Y1027330*
G03X1062705Y1027235I282J283*
G01X1066864Y1020776D02*
G03X1062705Y1027235I-2864J2724D01*
G01X1066864Y1020776D02*
G03X1067154Y1020100I290J-276D01*
G01X1074672*
G03X1074954Y1020217I-0J400*
G01X1075096Y1020359*
X1087000Y1029487D02*
Y1036213D01*
G03X1086883Y1036496I-400J-0*
G01X1081798Y1041581*
X1081420Y1042214D02*
G03X1081798Y1041581I1438J428D01*
G01X1081420Y1042214D02*
G03X1081026Y1042500I-383J-114D01*
G01X1081000D02*
G03X1081026I0J1000D01*
G01X1081000D02*
X1077200D01*
X1076343Y1042985D02*
G03X1077200Y1042500I857J515D01*
G01X1076343Y1042985D02*
G03X1075657I-343J-206D01*
G01X1074800Y1042500D02*
G03X1075657Y1042985I0J1000D01*
G01X1074800Y1042500D02*
X1072928D01*
G03X1072643Y1042380I0J-400*
G01X1071500Y1041900D02*
G03X1072643Y1042380I0J1600D01*
G01X1071500Y1041900D02*
X1068828D01*
G03X1068546Y1041217I0J-400*
G01X1070232Y1039531*
G03X1070654Y1039438I283J282*
G01X1071000Y1039500D02*
G03X1070654Y1039438I0J-1000D01*
G01X1071000Y1039500D02*
X1074800D01*
X1075657Y1039015D02*
G03X1074800Y1039500I-857J-515D01*
G01X1075657Y1039015D02*
G03X1076343I343J206D01*
G01X1077200Y1039500D02*
G03X1076343Y1039015I0J-1000D01*
G01X1077200Y1039500D02*
X1081000D01*
X1082000Y1038500D02*
G03X1081000Y1039500I-1000J0D01*
G01X1082000Y1038500D02*
Y1035500D01*
X1081000Y1034500D02*
G03X1082000Y1035500I0J1000D01*
G01X1081000Y1034500D02*
X1077200D01*
X1076343Y1034985D02*
G03X1077200Y1034500I857J515D01*
G01X1076343Y1034985D02*
G03X1075657I-343J-206D01*
G01X1074871Y1034503D02*
G03X1075657Y1034985I-71J997D01*
G01X1074871Y1034503D02*
G03X1074500Y1034104I29J-399D01*
G01Y1030928*
G03X1074617Y1030646I400J0*
G01X1076133Y1029130*
G03X1076572Y1029045I282J283*
G01X1083125Y1026227D02*
G03X1076572Y1029045I-4625J-1727D01*
G01X1083125Y1026227D02*
G03X1083875I375J140D01*
G01X1086742Y1029114D02*
G03X1083875Y1026227I1758J-4614D01*
G01X1086742Y1029114D02*
G03X1087000Y1029487I-142J373D01*
G01X1102591Y1079407D02*
G03Y1079688I-374J140D01*
G01X1102528Y1080039D02*
G03X1102591Y1079688I1000J0D01*
G01X1102528Y1080039D02*
Y1080500D01*
G03X1102128Y1080900I-400J-0*
G01X1101328*
G03X1101046Y1080783I0J-400*
G01X1092256Y1071993*
G03Y1071428I283J-282*
G01X1101631Y1062053*
X1101825Y1061819D02*
G03X1101631Y1062053I-1325J-898D01*
G01X1101825Y1061819D02*
G03X1102548Y1062123I331J224D01*
G01X1102528Y1062323D02*
G03X1102548Y1062123I1000J-0D01*
G01X1102528Y1062323D02*
Y1063307D01*
X1102591Y1063659D02*
G03X1102528Y1063307I937J-352D01*
G01X1102591Y1063659D02*
G03Y1063940I-374J140D01*
G01X1102528Y1064291D02*
G03X1102591Y1063940I1000J0D01*
G01X1102528Y1064291D02*
Y1065276D01*
X1102591Y1065627D02*
G03X1102528Y1065276I937J-351D01*
G01X1102591Y1065627D02*
G03Y1065908I-374J141D01*
G01X1102528Y1066260D02*
G03X1102591Y1065908I1000J-0D01*
G01X1102528Y1066260D02*
Y1067244D01*
X1102591Y1067596D02*
G03X1102528Y1067244I937J-352D01*
G01X1102591Y1067596D02*
G03Y1067877I-374J140D01*
G01X1102528Y1068228D02*
G03X1102591Y1067877I1000J0D01*
G01X1102528Y1068228D02*
Y1069213D01*
X1102591Y1069564D02*
G03X1102528Y1069213I937J-351D01*
G01X1102591Y1069564D02*
G03Y1069845I-374J141D01*
G01X1102528Y1070197D02*
G03X1102591Y1069845I1000J-0D01*
G01X1102528Y1070197D02*
Y1071181D01*
X1102591Y1071533D02*
G03X1102528Y1071181I937J-352D01*
G01X1102591Y1071533D02*
G03Y1071814I-374J140D01*
G01X1102528Y1072165D02*
G03X1102591Y1071814I1000J0D01*
G01X1102528Y1072165D02*
Y1073150D01*
X1102591Y1073501D02*
G03X1102528Y1073150I937J-351D01*
G01X1102591Y1073501D02*
G03Y1073782I-374J141D01*
G01X1102528Y1074134D02*
G03X1102591Y1073782I1000J-0D01*
G01X1102528Y1074134D02*
Y1075118D01*
X1102591Y1075470D02*
G03X1102528Y1075118I937J-352D01*
G01X1102591Y1075470D02*
G03Y1075751I-374J140D01*
G01X1102528Y1076102D02*
G03X1102591Y1075751I1000J0D01*
G01X1102528Y1076102D02*
Y1077087D01*
X1102591Y1077438D02*
G03X1102528Y1077087I937J-351D01*
G01X1102591Y1077438D02*
G03Y1077719I-374J141D01*
G01X1102528Y1078071D02*
G03X1102591Y1077719I1000J-0D01*
G01X1102528Y1078071D02*
Y1079055D01*
X1102591Y1079407D02*
G03X1102528Y1079055I937J-352D01*
G01X1106400Y1121900D02*
Y1126100D01*
G03X1106000Y1126500I-400J-0*
G01X1105000Y1127500D02*
G03X1106000Y1126500I1000J0D01*
G01X1105000Y1127500D02*
Y1129613D01*
G03X1104883Y1129896I-400J-0*
G01X1098441Y1136338*
G03X1097826Y1136277I-283J-283*
G01X1091682Y1135661D02*
G03X1097826Y1136277I2818J2839D01*
G01X1091682Y1135661D02*
G03X1091000Y1135377I-282J-284D01*
G01Y1128687*
G03X1091117Y1128404I400J0*
G01X1093817Y1125704*
G03X1094500Y1125987I283J283*
G01Y1128500*
X1095500Y1129500D02*
G03X1094500Y1128500I0J-1000D01*
G01X1095500Y1129500D02*
X1098500D01*
X1099500Y1128500D02*
G03X1098500Y1129500I-1000J0D01*
G01X1099500Y1128500D02*
Y1124700D01*
X1099015Y1123843D02*
G03X1099500Y1124700I-515J857D01*
G01X1099015Y1123843D02*
G03Y1123157I206J-343D01*
G01X1099500Y1122300D02*
G03X1099015Y1123157I-1000J0D01*
G01X1099500Y1122300D02*
Y1120187D01*
G03X1099617Y1119904I400J0*
G01X1103561Y1115961*
X1104061Y1115461*
X1104500Y1114400D02*
G03X1104061Y1115461I-1500J0D01*
G01X1104500Y1114400D02*
Y1113625D01*
G03X1104596Y1113365I400J-0*
G01X1105085Y1112253D02*
G03X1104596Y1113365I-2085J-253D01*
G01X1105085Y1112253D02*
G03X1105630Y1111929I397J48D01*
G01X1106000Y1112000D02*
G03X1105630Y1111929I0J-1000D01*
G01X1106000Y1112000D02*
G03X1106400Y1112400I-0J400D01*
G01Y1116100*
G03X1106000Y1116500I-400J-0*
G01X1105000Y1117500D02*
G03X1106000Y1116500I1000J0D01*
G01X1105000Y1117500D02*
Y1120500D01*
X1106000Y1121500D02*
G03X1105000Y1120500I0J-1000D01*
G01X1106000Y1121500D02*
G03X1106400Y1121900I-0J400D01*
G01X1120397Y1165018D02*
G03X1120510Y1165358I-283J283D01*
G01X1120500Y1165500D02*
G03X1120510Y1165358I1000J0D01*
G01X1120500Y1165500D02*
Y1171413D01*
G03X1119817Y1171696I-400J-0*
G01X1118367Y1170246*
G03X1118273Y1169830I283J-283*
G01X1110532Y1167998D02*
G03X1118273Y1169830I3968J502D01*
G01X1110532Y1167998D02*
G03X1109852Y1168231I-397J-50D01*
G01X1109061Y1167439*
X1108395Y1167053D02*
G03X1109061Y1167439I-395J1447D01*
G01X1108395Y1167053D02*
G03X1108136Y1166834I105J-386D01*
G01X1107674Y1170935D02*
G03X1108136Y1166834I-3174J-2435D01*
G01X1107674Y1170935D02*
G03X1108274Y1170895I317J243D01*
G01X1115065Y1177687*
G03X1114649Y1178346I-283J282*
G01X1108375Y1181273D02*
G03X1114649Y1178346I4625J1727D01*
G01X1108375Y1181273D02*
G03X1107625I-375J-140D01*
G01X1098375D02*
G03X1107625I4625J1727D01*
G01X1098375D02*
G03X1097625I-375J-140D01*
G01X1094758Y1178386D02*
G03X1097625Y1181273I-1758J4614D01*
G01X1094758Y1178386D02*
G03X1094500Y1178013I142J-373D01*
G01Y1175000*
X1094061Y1173939D02*
G03X1094500Y1175000I-1061J1061D01*
G01X1094061Y1173939D02*
X1093180Y1173059D01*
G03X1093557Y1172387I283J-283*
G01X1090613Y1169443D02*
G03X1093557Y1172387I3887J-943D01*
G01X1090613Y1169443D02*
G03X1089941Y1169820I-389J94D01*
G01X1088617Y1168496*
G03X1088500Y1168213I283J-283*
G01Y1153125*
G03X1088596Y1152865I400J-0*
G01X1086496Y1149461D02*
G03X1088596Y1152865I504J2039D01*
G01X1086496Y1149461D02*
G03X1086000Y1149073I-96J-388D01*
G01Y1131927*
G03X1086496Y1131539I400J-0*
G01X1087504D02*
G03X1086496I-504J-2039D01*
G01X1087504D02*
G03X1088000Y1131927I96J388D01*
G01Y1145500*
X1088439Y1146561D02*
G03X1088000Y1145500I1061J-1061D01*
G01X1088439Y1146561D02*
X1092939Y1151061D01*
X1094000Y1151500D02*
G03X1092939Y1151061I0J-1500D01*
G01X1094000Y1151500D02*
X1106713D01*
G03X1106996Y1151617I-0J400*
G01X1120397Y1165018*
X1153500Y1095287D02*
Y1095643D01*
G03X1152764Y1095861I-400J0*
G01X1149404Y1098365D02*
G03X1152764Y1095861I1596J-1365D01*
G01X1149404Y1098365D02*
G03X1149500Y1098625I-304J260D01*
G01Y1099213*
G03X1149383Y1099496I-400J-0*
G01X1144496Y1104383*
G03X1144213Y1104500I-283J-283*
G01X1142000*
X1141042Y1105214D02*
G03X1142000Y1104500I958J286D01*
G01X1141042Y1105214D02*
G03X1140658Y1105500I-384J-114D01*
G01X1135342*
G03X1134958Y1105214I-0J-400*
G01X1134000Y1104500D02*
G03X1134958Y1105214I0J1000D01*
G01X1134000Y1104500D02*
X1130200D01*
X1129343Y1104985D02*
G03X1130200Y1104500I857J515D01*
G01X1129343Y1104985D02*
G03X1128657I-343J-206D01*
G01X1127800Y1104500D02*
G03X1128657Y1104985I0J1000D01*
G01X1127800Y1104500D02*
X1124000D01*
X1123000Y1105500D02*
G03X1124000Y1104500I1000J0D01*
G01X1123000Y1105500D02*
Y1108500D01*
X1124000Y1109500D02*
G03X1123000Y1108500I0J-1000D01*
G01X1124000Y1109500D02*
X1127800D01*
X1128657Y1109015D02*
G03X1127800Y1109500I-857J-515D01*
G01X1128657Y1109015D02*
G03X1129343I343J206D01*
G01X1130200Y1109500D02*
G03X1129343Y1109015I0J-1000D01*
G01X1130200Y1109500D02*
X1134000D01*
X1134958Y1108786D02*
G03X1134000Y1109500I-958J-286D01*
G01X1134958Y1108786D02*
G03X1135342Y1108500I384J114D01*
G01X1140600*
G03X1141000Y1108900I-0J400*
G01Y1109300*
X1141485Y1110157D02*
G03X1141000Y1109300I515J-857D01*
G01X1141485Y1110157D02*
G03Y1110843I-206J343D01*
G01X1141000Y1111700D02*
G03X1141485Y1110843I1000J0D01*
G01X1141000Y1111700D02*
Y1112213D01*
G03X1140883Y1112496I-400J-0*
G01X1136996Y1116383*
G03X1136713Y1116500I-283J-283*
G01X1129400*
X1128532Y1116776D02*
G03X1129400Y1116500I868J1224D01*
G01X1128532Y1116776D02*
X1125339Y1119040D01*
G03X1125108Y1119114I-231J-326*
G01X1122709*
X1121709Y1120114D02*
G03X1122709Y1119114I1000J0D01*
G01X1121709Y1120114D02*
Y1121886D01*
X1122709Y1122886D02*
G03X1121709Y1121886I-0J-1000D01*
G01X1122709Y1122886D02*
X1127630D01*
X1128630Y1121886D02*
G03X1127630Y1122886I-1000J-0D01*
G01X1128630Y1121886D02*
Y1120592D01*
G03X1128799Y1120265I400J-0*
G01X1129753Y1119589*
G03X1130380Y1119972I231J326*
G01X1130370Y1120114D02*
G03X1130380Y1119972I1000J0D01*
G01X1130370Y1120114D02*
Y1121886D01*
X1130496Y1122372D02*
G03X1130370Y1121886I874J-486D01*
G01X1130496Y1122372D02*
G03X1130429Y1122849I-349J194D01*
G01X1126896Y1126383*
G03X1126613Y1126500I-283J-283*
G01X1124500*
X1123542Y1127214D02*
G03X1124500Y1126500I958J286D01*
G01X1123542Y1127214D02*
G03X1123158Y1127500I-384J-114D01*
G01X1117342*
G03X1116958Y1127214I-0J-400*
G01X1116000Y1126500D02*
G03X1116958Y1127214I0J1000D01*
G01X1116000Y1126500D02*
X1112200D01*
X1111343Y1126985D02*
G03X1112200Y1126500I857J515D01*
G01X1111343Y1126985D02*
G03X1110657I-343J-206D01*
G01X1109800Y1126500D02*
G03X1110657Y1126985I0J1000D01*
G01X1109800Y1126500D02*
G03X1109400Y1126100I0J-400D01*
G01Y1121900*
G03X1109800Y1121500I400J0*
G01X1110657Y1121015D02*
G03X1109800Y1121500I-857J-515D01*
G01X1110657Y1121015D02*
G03X1111343I343J206D01*
G01X1112200Y1121500D02*
G03X1111343Y1121015I0J-1000D01*
G01X1112200Y1121500D02*
X1116000D01*
X1117000Y1120500D02*
G03X1116000Y1121500I-1000J0D01*
G01X1117000Y1120500D02*
Y1117500D01*
X1116000Y1116500D02*
G03X1117000Y1117500I0J1000D01*
G01X1116000Y1116500D02*
X1112200D01*
X1111343Y1116985D02*
G03X1112200Y1116500I857J515D01*
G01X1111343Y1116985D02*
G03X1110657I-343J-206D01*
G01X1109800Y1116500D02*
G03X1110657Y1116985I0J1000D01*
G01X1109800Y1116500D02*
G03X1109400Y1116100I0J-400D01*
G01Y1112400*
G03X1109800Y1112000I400J0*
G01X1110657Y1111515D02*
G03X1109800Y1112000I-857J-515D01*
G01X1110657Y1111515D02*
G03X1111343I343J206D01*
G01X1112200Y1112000D02*
G03X1111343Y1111515I0J-1000D01*
G01X1112200Y1112000D02*
X1116000D01*
X1117000Y1111000D02*
G03X1116000Y1112000I-1000J0D01*
G01X1117000Y1111000D02*
Y1108000D01*
X1116000Y1107000D02*
G03X1117000Y1108000I0J1000D01*
G01X1116000Y1107000D02*
X1112200D01*
X1111343Y1107485D02*
G03X1112200Y1107000I857J515D01*
G01X1111343Y1107485D02*
G03X1110657I-343J-206D01*
G01X1109800Y1107000D02*
G03X1110657Y1107485I0J1000D01*
G01X1109800Y1107000D02*
X1106000D01*
X1105000Y1108000D02*
G03X1106000Y1107000I1000J0D01*
G01X1105000Y1108000D02*
Y1110079D01*
G03X1104344Y1110386I-400J0*
G01X1102555Y1109948D02*
G03X1104344Y1110386I445J2052D01*
G01X1102555Y1109948D02*
G03X1102071Y1109529I-85J-391D01*
G01X1102075Y1109425D02*
G03X1102071Y1109529I-1500J0D01*
G01X1102075Y1109425D02*
Y1100780D01*
G03X1102639Y1100415I400J0*
G01X1104562Y1100312D02*
G03X1102639Y1100415I-1062J-1812D01*
G01X1104562Y1100312D02*
G03X1105117Y1100469I202J345D01*
G01X1106000Y1101000D02*
G03X1105117Y1100469I0J-1000D01*
G01X1106000Y1101000D02*
X1109800D01*
X1110657Y1100515D02*
G03X1109800Y1101000I-857J-515D01*
G01X1110657Y1100515D02*
G03X1111343I343J206D01*
G01X1112200Y1101000D02*
G03X1111343Y1100515I0J-1000D01*
G01X1112200Y1101000D02*
X1116000D01*
X1116958Y1100286D02*
G03X1116000Y1101000I-958J-286D01*
G01X1116958Y1100286D02*
G03X1117342Y1100000I384J114D01*
G01X1142000*
X1143061Y1099561D02*
G03X1142000Y1100000I-1061J-1061D01*
G01X1143061Y1099561D02*
X1146412Y1096210D01*
G03X1146663Y1096094I283J282*
G01X1144406Y1093837D02*
G03X1146663Y1096094I2094J163D01*
G01X1144406Y1093837D02*
G03X1144290Y1094088I-398J-32D01*
G01X1141496Y1096883*
G03X1141213Y1097000I-283J-283*
G01X1117342*
G03X1116958Y1096714I-0J-400*
G01X1116000Y1096000D02*
G03X1116958Y1096714I0J1000D01*
G01X1116000Y1096000D02*
X1112200D01*
X1111343Y1096485D02*
G03X1112200Y1096000I857J515D01*
G01X1111343Y1096485D02*
G03X1110657I-343J-206D01*
G01X1109800Y1096000D02*
G03X1110657Y1096485I0J1000D01*
G01X1109800Y1096000D02*
X1106000D01*
X1105117Y1096531D02*
G03X1106000Y1096000I883J469D01*
G01X1105117Y1096531D02*
G03X1104562Y1096688I-353J-188D01*
G01X1102639Y1096585D02*
G03X1104562Y1096688I861J1915D01*
G01X1102639Y1096585D02*
G03X1102075Y1096220I-164J-365D01*
G01Y1087421*
X1102069Y1087285D02*
G03X1102075Y1087421I-1494J136D01*
G01X1102069Y1087285D02*
G03X1102067Y1087248I398J-37D01*
G01Y1085453*
X1101800Y1084772D02*
G03X1102067Y1085453I-733J681D01*
G01X1101800Y1084772D02*
G03X1102093Y1084100I293J-272D01*
G01X1103496*
G03X1103896Y1084500I0J400*
G01Y1086500*
X1104365Y1087631D02*
G03X1103896Y1086500I1131J-1131D01*
G01X1104365Y1087631D02*
X1107365Y1090631D01*
X1108496Y1091100D02*
G03X1107365Y1090631I0J-1600D01*
G01X1108496Y1091100D02*
X1112600D01*
G03X1113000Y1091500I-0J400*
G01X1114000Y1092500D02*
G03X1113000Y1091500I0J-1000D01*
G01X1114000Y1092500D02*
X1117000D01*
X1117997Y1091571D02*
G03X1117000Y1092500I-997J-71D01*
G01X1117997Y1091571D02*
G03X1118396Y1091200I399J29D01*
G01X1122104*
G03X1122503Y1091571I-0J400*
G01X1123500Y1092500D02*
G03X1122503Y1091571I0J-1000D01*
G01X1123500Y1092500D02*
X1126500D01*
X1127500Y1091500D02*
G03X1126500Y1092500I-1000J0D01*
G01X1127500Y1091500D02*
Y1087700D01*
X1127015Y1086843D02*
G03X1127500Y1087700I-515J857D01*
G01X1127015Y1086843D02*
G03Y1086157I206J-343D01*
G01X1127500Y1085300D02*
G03X1127015Y1086157I-1000J0D01*
G01X1127500Y1085300D02*
Y1081500D01*
X1127156Y1080745D02*
G03X1127500Y1081500I-656J755D01*
G01X1127156Y1080745D02*
G03X1127416Y1080043I262J-302D01*
G01X1138214Y1080003*
G03X1138499Y1080120I2J400*
G01X1153383Y1095004*
G03X1153500Y1095287I-283J283*
G01Y1098357D02*
Y1099375D01*
G03X1153404Y1099635I-400J0*
G01X1153236Y1099861D02*
G03X1153404Y1099635I1764J1139D01*
G01X1153236Y1099861D02*
G03X1152500Y1099643I-336J-218D01*
G01Y1098625*
G03X1152596Y1098365I400J-0*
G01X1152764Y1098139D02*
G03X1152596Y1098365I-1764J-1139D01*
G01X1152764Y1098139D02*
G03X1153500Y1098357I336J218D01*
G01X1149055Y1196552D02*
G03X1149253Y1197226I-85J391D01*
G01X1148596Y1197883*
G03X1148313Y1198000I-283J-283*
G01X1129687*
G03X1129404Y1197883I0J-400*
G01X1127517Y1195996*
G03X1127400Y1195713I283J-283*
G01Y1187900*
G03X1127800Y1187500I400J0*
G01X1128657Y1187015D02*
G03X1127800Y1187500I-857J-515D01*
G01X1128657Y1187015D02*
G03X1129343I343J206D01*
G01X1130200Y1187500D02*
G03X1129343Y1187015I0J-1000D01*
G01X1130200Y1187500D02*
G03X1130600Y1187900I-0J400D01*
G01Y1192500*
X1131039Y1193561D02*
G03X1130600Y1192500I1061J-1061D01*
G01X1131039Y1193561D02*
X1131383Y1193904D01*
G03X1131500Y1194187I-283J283*
G01Y1195500*
X1132500Y1196500D02*
G03X1131500Y1195500I0J-1000D01*
G01X1132500Y1196500D02*
X1136300D01*
X1137157Y1196015D02*
G03X1136300Y1196500I-857J-515D01*
G01X1137157Y1196015D02*
G03X1137843I343J206D01*
G01X1138700Y1196500D02*
G03X1137843Y1196015I0J-1000D01*
G01X1138700Y1196500D02*
X1142500D01*
X1143500Y1195500D02*
G03X1142500Y1196500I-1000J0D01*
G01X1143500Y1195500D02*
Y1192500D01*
X1142500Y1191500D02*
G03X1143500Y1192500I0J1000D01*
G01X1142500Y1191500D02*
X1138700D01*
X1137843Y1191985D02*
G03X1138700Y1191500I857J515D01*
G01X1137843Y1191985D02*
G03X1137157I-343J-206D01*
G01X1136300Y1191500D02*
G03X1137157Y1191985I0J1000D01*
G01X1136300Y1191500D02*
X1134000D01*
G03X1133600Y1191100I0J-400*
G01Y1187900*
G03X1134000Y1187500I400J0*
G01X1134958Y1186786D02*
G03X1134000Y1187500I-958J-286D01*
G01X1134958Y1186786D02*
G03X1135342Y1186500I384J114D01*
G01X1138158*
G03X1138542Y1186786I0J400*
G01X1139500Y1187500D02*
G03X1138542Y1186786I0J-1000D01*
G01X1139500Y1187500D02*
X1143300D01*
X1144157Y1187015D02*
G03X1143300Y1187500I-857J-515D01*
G01X1144157Y1187015D02*
G03X1144843I343J206D01*
G01X1145629Y1187497D02*
G03X1144843Y1187015I71J-997D01*
G01X1145629Y1187497D02*
G03X1146000Y1187896I-29J399D01*
G01Y1192500*
X1146469Y1193631D02*
G03X1146000Y1192500I1131J-1131D01*
G01X1146469Y1193631D02*
X1147294Y1194457D01*
G03X1147410Y1194702I-282J283*
G01X1149055Y1196552D02*
G03X1147410Y1194702I445J-2052D01*
G01X1166500Y1045845D02*
Y1051213D01*
G03X1166383Y1051496I-400J-0*
G01X1166183Y1051696*
G03X1165500Y1051413I-283J-283*
G01Y1046000*
X1165483Y1045778D02*
G03X1165500Y1046000I-1483J222D01*
G01X1165483Y1045778D02*
G03X1166108Y1045391I396J-60D01*
G01X1166266Y1045481D02*
G03X1166108Y1045391I415J-910D01*
G01X1166266Y1045481D02*
G03X1166500Y1045845I-166J364D01*
G01X1162500Y1052927D02*
Y1062713D01*
G03X1162383Y1062996I-400J-0*
G01X1160244Y1065135*
G03X1159961Y1065252I-283J-283*
G01X1128619*
G03X1128336Y1064569I-0J-400*
G01X1131061Y1061844*
X1131500Y1060783D02*
G03X1131061Y1061844I-1500J0D01*
G01X1131500Y1060783D02*
Y1054000D01*
X1131061Y1052939D02*
G03X1131500Y1054000I-1061J1061D01*
G01X1131061Y1052939D02*
X1127561Y1049439D01*
X1126500Y1049000D02*
G03X1127561Y1049439I0J1500D01*
G01X1126500Y1049000D02*
X1126481D01*
G03X1126138Y1048805I-0J-400*
G01X1125615Y1048377D02*
G03X1126138Y1048805I-335J942D01*
G01X1125615Y1048377D02*
G03Y1047623I134J-377D01*
G01X1126091Y1047266D02*
G03X1125615Y1047623I-811J-585D01*
G01X1126091Y1047266D02*
G03X1126415Y1047100I324J234D01*
G01X1132672*
G03X1132954Y1047217I-0J400*
G01X1142369Y1056631*
X1143500Y1057100D02*
G03X1142369Y1056631I0J-1600D01*
G01X1143500Y1057100D02*
X1146585D01*
G03X1146909Y1057266I-0J400*
G01X1147720Y1057681D02*
G03X1146909Y1057266I0J-1000D01*
G01X1147720Y1057681D02*
X1154020D01*
X1155020Y1056681D02*
G03X1154020Y1057681I-1000J0D01*
G01X1155020Y1056681D02*
Y1054319D01*
X1154355Y1053377D02*
G03X1155020Y1054319I-335J942D01*
G01X1154355Y1053377D02*
G03Y1052623I134J-377D01*
G01X1154702Y1052412D02*
G03X1154355Y1052623I-682J-731D01*
G01X1154702Y1052412D02*
G03X1155258Y1052421I274J292D01*
G01X1155883Y1053046*
G03X1156000Y1053328I-283J282*
G01Y1055300*
X1156485Y1056157D02*
G03X1156000Y1055300I515J-857D01*
G01X1156485Y1056157D02*
G03Y1056843I-206J343D01*
G01X1156000Y1057700D02*
G03X1156485Y1056843I1000J0D01*
G01X1156000Y1057700D02*
Y1061500D01*
X1157000Y1062500D02*
G03X1156000Y1061500I0J-1000D01*
G01X1157000Y1062500D02*
X1160000D01*
X1161000Y1061500D02*
G03X1160000Y1062500I-1000J0D01*
G01X1161000Y1061500D02*
Y1057700D01*
X1160515Y1056843D02*
G03X1161000Y1057700I-515J857D01*
G01X1160515Y1056843D02*
G03Y1056157I206J-343D01*
G01X1161000Y1055300D02*
G03X1160515Y1056157I-1000J0D01*
G01X1161000Y1055300D02*
Y1053428D01*
G03X1161117Y1053146I400J0*
G01X1161571Y1052692*
G03X1161797Y1052579I283J283*
G01X1162004Y1052539D02*
G03X1161797Y1052579I-504J-2039D01*
G01X1162004Y1052539D02*
G03X1162500Y1052927I96J388D01*
G01X1189500Y1080287D02*
Y1081666D01*
G03X1188912Y1082019I-400J0*
G01X1188637Y1081921D02*
G03X1188912Y1082019I-196J981D01*
G01X1188637Y1081921D02*
G03X1188433Y1081812I79J-392D01*
G01X1188210Y1081588*
G03X1188094Y1081337I282J-283*
G01X1185513Y1079457D02*
G03X1188094Y1081337I487J2043D01*
G01X1185513Y1079457D02*
G03X1185020Y1079068I-93J-389D01*
G01Y1077920*
X1184955Y1077484D02*
G03X1185020Y1077920I-1435J436D01*
G01X1184955Y1077484D02*
G03X1185604Y1077068I383J-117D01*
G01X1186837Y1077594D02*
G03X1185604Y1077068I163J-2094D01*
G01X1186837Y1077594D02*
G03X1187088Y1077710I-32J398D01*
G01X1189383Y1080004*
G03X1189500Y1080287I-283J283*
G01X1197485Y1092657D02*
G03Y1093343I-206J343D01*
G01X1197000Y1094200D02*
G03X1197485Y1093343I1000J0D01*
G01X1197000Y1094200D02*
G03X1196600Y1094600I-400J-0D01*
G01X1193581*
G03X1193181Y1094200I0J-400*
G01Y1093138*
X1192181Y1092138D02*
G03X1193181Y1093138I0J1000D01*
G01X1192181Y1092138D02*
X1189819D01*
X1189327Y1092267D02*
G03X1189819Y1092138I492J871D01*
G01X1189327Y1092267D02*
G03X1188933I-197J-348D01*
G01X1188441Y1092138D02*
G03X1188933Y1092267I-0J1000D01*
G01X1188441Y1092138D02*
X1186079D01*
X1185587Y1092267D02*
G03X1186079Y1092138I492J871D01*
G01X1185587Y1092267D02*
G03X1185193I-197J-348D01*
G01X1184701Y1092138D02*
G03X1185193Y1092267I-0J1000D01*
G01X1184701Y1092138D02*
X1182339D01*
X1181339Y1093138D02*
G03X1182339Y1092138I1000J-0D01*
G01X1181339Y1093138D02*
Y1093600D01*
G03X1180939Y1094000I-400J-0*
G01X1174900*
X1173839Y1094439D02*
G03X1174900Y1094000I1061J1061D01*
G01X1173839Y1094439D02*
X1167396Y1100883D01*
G03X1167113Y1101000I-283J-283*
G01X1165000*
X1164000Y1102000D02*
G03X1165000Y1101000I1000J0D01*
G01X1164000Y1102000D02*
Y1105000D01*
X1165000Y1106000D02*
G03X1164000Y1105000I0J-1000D01*
G01X1165000Y1106000D02*
X1168800D01*
X1169657Y1105515D02*
G03X1168800Y1106000I-857J-515D01*
G01X1169657Y1105515D02*
G03X1170343I343J206D01*
G01X1171200Y1106000D02*
G03X1170343Y1105515I0J-1000D01*
G01X1171200Y1106000D02*
X1173172D01*
G03X1173454Y1106117I-0J400*
G01X1174283Y1106946*
G03X1174400Y1107228I-283J282*
G01Y1117100*
X1174869Y1118231D02*
G03X1174400Y1117100I1131J-1131D01*
G01X1174869Y1118231D02*
X1176883Y1120246D01*
G03X1177000Y1120528I-283J282*
G01Y1120672*
G03X1176883Y1120954I-400J-0*
G01X1173554Y1124283*
G03X1173272Y1124400I-282J-283*
G01X1165900*
G03X1165500Y1124000I0J-400*
G01Y1123000*
X1164500Y1122000D02*
G03X1165500Y1123000I0J1000D01*
G01X1164500Y1122000D02*
X1158500D01*
X1157500Y1123000D02*
G03X1158500Y1122000I1000J0D01*
G01X1157500Y1123000D02*
Y1128413D01*
G03X1156817Y1128696I-400J-0*
G01X1150517Y1122396*
G03X1150400Y1122113I283J-283*
G01Y1113387*
G03X1150517Y1113104I400J0*
G01X1159912Y1103710*
G03X1160163Y1103594I283J282*
G01X1157906Y1101337D02*
G03X1160163Y1103594I2094J163D01*
G01X1157906Y1101337D02*
G03X1157790Y1101588I-398J-32D01*
G01X1157760Y1101618*
G03X1157081Y1101282I-283J-282*
G01X1156596Y1099635D02*
G03X1157081Y1101282I-1596J1365D01*
G01X1156596Y1099635D02*
G03X1156500Y1099375I304J-260D01*
G01Y1094500*
X1156061Y1093439D02*
G03X1156500Y1094500I-1061J1061D01*
G01X1156061Y1093439D02*
X1155495Y1092873D01*
G03X1155981Y1092246I282J-283*
G01X1160227Y1083375D02*
G03X1155981Y1092246I-1727J4625D01*
G01X1160227Y1083375D02*
G03Y1082625I140J-375D01*
G01X1153886Y1076242D02*
G03X1160227Y1082625I4614J1758D01*
G01X1153886Y1076242D02*
G03X1153513Y1076500I-373J-142D01*
G01X1146598*
G03X1146315Y1076383I0J-400*
G01X1140836Y1070903*
G03X1141119Y1070220I283J-283*
G01X1163000*
X1164061Y1069781D02*
G03X1163000Y1070220I-1061J-1061D01*
G01X1164061Y1069781D02*
X1167561Y1066281D01*
X1167763Y1066029D02*
G03X1167561Y1066281I-1263J-809D01*
G01X1167763Y1066030D02*
G03X1168500Y1066245I337J215D01*
G01Y1067600*
G03X1168100Y1068000I-400J-0*
G01X1168000*
X1167000Y1069000D02*
G03X1168000Y1068000I1000J0D01*
G01X1167000Y1069000D02*
Y1072000D01*
X1168000Y1073000D02*
G03X1167000Y1072000I0J-1000D01*
G01X1168000Y1073000D02*
X1170113D01*
G03X1170396Y1073117I-0J400*
G01X1174883Y1077604*
G03X1175000Y1077887I-283J283*
G01Y1078604*
G03X1174629Y1079003I-400J-0*
G01X1173843Y1079485D02*
G03X1174629Y1079003I857J515D01*
G01X1173843Y1079485D02*
G03X1173157I-343J-206D01*
G01X1172300Y1079000D02*
G03X1173157Y1079485I0J1000D01*
G01X1172300Y1079000D02*
X1168500D01*
X1167500Y1080000D02*
G03X1168500Y1079000I1000J0D01*
G01X1167500Y1080000D02*
Y1083000D01*
X1168500Y1084000D02*
G03X1167500Y1083000I0J-1000D01*
G01X1168500Y1084000D02*
X1172300D01*
X1173157Y1083515D02*
G03X1172300Y1084000I-857J-515D01*
G01X1173157Y1083515D02*
G03X1173843I343J206D01*
G01X1174700Y1084000D02*
G03X1173843Y1083515I0J-1000D01*
G01X1174700Y1084000D02*
X1175100D01*
G03X1175500Y1084400I-0J400*
G01Y1086875*
G03X1175404Y1087135I-400J0*
G01X1178596D02*
G03X1175404I-1596J1365D01*
G01X1178596D02*
G03X1178500Y1086875I304J-260D01*
G01Y1084342*
G03X1178786Y1083958I400J-0*
G01X1179383Y1083469D02*
G03X1178786Y1083958I-883J-469D01*
G01X1179383Y1083469D02*
G03X1179938Y1083312I353J188D01*
G01X1180948Y1083599D02*
G03X1179938Y1083312I52J-2099D01*
G01X1180948Y1083599D02*
G03X1181339Y1083999I-9J400D01*
G01Y1087626*
X1182339Y1088626D02*
G03X1181339Y1087626I-0J-1000D01*
G01X1182339Y1088626D02*
X1184701D01*
X1185193Y1088497D02*
G03X1184701Y1088626I-492J-871D01*
G01X1185193Y1088497D02*
G03X1185587I197J348D01*
G01X1186079Y1088626D02*
G03X1185587Y1088497I-0J-1000D01*
G01X1186079Y1088626D02*
X1188441D01*
X1188933Y1088497D02*
G03X1188441Y1088626I-492J-871D01*
G01X1188933Y1088497D02*
G03X1189327I197J348D01*
G01X1189819Y1088626D02*
G03X1189327Y1088497I-0J-1000D01*
G01X1189819Y1088626D02*
X1192181D01*
X1193181Y1087626D02*
G03X1192181Y1088626I-1000J-0D01*
G01X1193181Y1087626D02*
Y1087164D01*
G03X1193581Y1086764I400J-0*
G01X1194077*
G03X1194360Y1086881I-0J400*
G01X1196883Y1089404*
G03X1197000Y1089687I-283J283*
G01Y1091800*
X1197485Y1092657D02*
G03X1197000Y1091800I515J-857D01*
G01X1201437Y1175041D02*
G03X1201864Y1175704I157J368D01*
G01X1195110Y1181895*
G03X1194840Y1182000I-270J-295*
G01X1190000*
X1189654Y1182062D02*
G03X1190000Y1182000I346J938D01*
G01X1189654Y1182062D02*
G03X1189232Y1181969I-139J-375D01*
G01X1169946Y1162683*
G03X1170228Y1162000I282J-283*
G01X1194513*
G03X1194886Y1162258I-0J400*
G01X1197773Y1165125D02*
G03X1194886Y1162258I1727J-4625D01*
G01X1197773Y1165125D02*
G03Y1165875I-140J375D01*
G01X1201437Y1175041D02*
G03X1197773Y1165875I-1937J-4541D01*
G01X1197000Y1195900D02*
G03X1197000I-4000J0D01*
G01X1047780Y1167358D02*
Y1162634D01*
X1046780Y1161634D02*
G03X1047780Y1162634I-0J1000D01*
G01X1046780Y1161634D02*
X1044417D01*
X1043417Y1162634D02*
G03X1044417Y1161634I1000J-0D01*
G01X1043417Y1162634D02*
Y1167358D01*
X1044417Y1168358D02*
G03X1043417Y1167358I0J-1000D01*
G01X1044417Y1168358D02*
X1046780D01*
X1047780Y1167358D02*
G03X1046780Y1168358I-1000J0D01*
G01X1033173Y1167358D02*
Y1162634D01*
X1032173Y1161634D02*
G03X1033173Y1162634I0J1000D01*
G01X1032173Y1161634D02*
X1029811D01*
X1028811Y1162634D02*
G03X1029811Y1161634I1000J-0D01*
G01X1028811Y1162634D02*
Y1167358D01*
X1029811Y1168358D02*
G03X1028811Y1167358I0J-1000D01*
G01X1029811Y1168358D02*
X1032173D01*
X1033173Y1167358D02*
G03X1032173Y1168358I-1000J0D01*
G01X1165500Y1116100D02*
G03X1165500I-4000J0D01*
G54D57*
G01X1073016Y1082500D03*
Y1080531D03*
Y1078563D03*
Y1076594D03*
Y1074626D03*
Y1072657D03*
Y1070689D03*
Y1068720D03*
Y1066752D03*
Y1064783D03*
Y1062815D03*
Y1060846D03*
X1106480D03*
Y1062815D03*
Y1064783D03*
Y1066752D03*
Y1068720D03*
Y1070689D03*
Y1072657D03*
Y1074626D03*
Y1076594D03*
Y1078563D03*
Y1080531D03*
Y1082500D03*
G54D58*
X1078921Y1054941D03*
X1080890D03*
X1082858D03*
X1084827D03*
X1086795D03*
X1088764D03*
X1090732D03*
X1092701D03*
X1094669D03*
X1096638D03*
X1098606D03*
X1100575D03*
Y1088406D03*
X1098606D03*
X1096638D03*
X1094669D03*
X1092701D03*
X1090732D03*
X1088764D03*
X1086795D03*
X1084827D03*
X1082858D03*
X1080890D03*
X1078921D03*
G54D59*
X1015500Y1139000D03*
Y1148000D03*
X1072500Y1144500D03*
Y1153500D03*
G74*
X0Y0D02*
M02*
