*
*
G04 PADS 9.5 Build Number: 522968 generated Gerber (RS-274-X) file*
G04 PC Version=2.1*
*
%IN "GDCS.pcb"*%
*
%MOIN*%
*
%FSLAX35Y35*%
*
*
*
*
G04 PC Standard Apertures*
*
*
G04 Thermal Relief Aperture macro.*
%AMTER*
1,1,$1,0,0*
1,0,$1-$2,0,0*
21,0,$3,$4,0,0,45*
21,0,$3,$4,0,0,135*
%
*
*
G04 Annular Aperture macro.*
%AMANN*
1,1,$1,0,0*
1,0,$2,0,0*
%
*
*
G04 Odd Aperture macro.*
%AMODD*
1,1,$1,0,0*
1,0,$1-0.005,0,0*
%
*
*
G04 PC Custom Aperture Macros*
*
*
*
*
*
*
G04 PC Aperture Table*
*
%ADD010C,0.001*%
%ADD011R,0.03X0.038*%
%ADD012R,0.038X0.03*%
%ADD013R,0.06X0.06*%
%ADD014C,0.06*%
%ADD015ANN,0.07874X0.0315*%
%ADD016R,0.036X0.036*%
%ADD017R,0.05X0.036*%
%ADD018R,0.02362X0.04724*%
%ADD019R,0.03937X0.00866*%
%ADD020R,0.00866X0.03937*%
%ADD021ANN,0.05906X0.0315*%
%ADD022R,0.065X0.045*%
%ADD023R,0.065X0.118*%
%ADD024C,0.07874*%
%ADD025R,0.06299X0.02362*%
%ADD026C,0.01*%
%ADD027C,0.012*%
%ADD028C,0.015*%
%ADD029C,0.022*%
%ADD030C,0.008*%
*
*
*
*
G04 PC Circuitry*
G04 Layer Name GDCS.pcb - circuitry*
%LPD*%
*
*
G04 PC Custom Flashes*
G04 Layer Name GDCS.pcb - flashes*
%LPD*%
*
*
G04 PC Circuitry*
G04 Layer Name GDCS.pcb - circuitry*
%LPD*%
*
G54D10*
G54D11*
G01X1766500Y1903100D03*
Y1896900D03*
X1914500Y1873600D03*
Y1867400D03*
X1892500Y1891900D03*
Y1898100D03*
X1819000Y1827100D03*
Y1820900D03*
X1827000Y1827100D03*
Y1820900D03*
X1735000Y1876400D03*
Y1882600D03*
X1830500Y1867100D03*
Y1860900D03*
X1840000Y1867100D03*
Y1860900D03*
X1792000Y1875900D03*
Y1882100D03*
X1783500Y1875400D03*
Y1881600D03*
X1750000Y1853400D03*
Y1859600D03*
X1758500Y1853900D03*
Y1860100D03*
X1858500Y1901400D03*
Y1907600D03*
X1862500Y1929900D03*
Y1936100D03*
X1812000Y1897900D03*
Y1904100D03*
X1735000Y1899600D03*
Y1893400D03*
X1768000Y1860100D03*
Y1853900D03*
X1853500Y1936100D03*
Y1929900D03*
X1871500D03*
Y1936100D03*
X1766500Y1880900D03*
Y1887100D03*
X1873500Y1961400D03*
Y1967600D03*
X1767000Y1839100D03*
Y1832900D03*
X1858500Y1884900D03*
Y1891100D03*
X1873500Y1830900D03*
Y1837100D03*
G54D12*
X1891100Y1837000D03*
X1884900D03*
X1900900Y1834000D03*
X1907100D03*
X1841400Y1887500D03*
X1847600D03*
X1822900Y1887000D03*
X1829100D03*
X1822900Y1906500D03*
X1829100D03*
X1777400Y1890000D03*
X1783600D03*
X1860600Y1949000D03*
X1854400D03*
X1905400Y1817000D03*
X1911600D03*
X1794100Y1814500D03*
X1787900D03*
X1907100Y1843500D03*
X1900900D03*
X1901400Y1898500D03*
X1907600D03*
X1885400Y1859000D03*
X1891600D03*
X1891100Y1869000D03*
X1884900D03*
X1900900Y1852500D03*
X1907100D03*
X1847600Y1898500D03*
X1841400D03*
X1908100Y1890000D03*
X1901900D03*
X1898900Y1880500D03*
X1905100D03*
X1884900Y1848000D03*
X1891100D03*
X1756600Y1843500D03*
X1750400D03*
X1822900Y1876000D03*
X1829100D03*
X1841400Y1906500D03*
X1847600D03*
X1822900Y1896500D03*
X1829100D03*
X1883900Y1959500D03*
X1890100D03*
X1855600Y1971500D03*
X1849400D03*
X1889600Y1968500D03*
X1883400D03*
X1840900Y1962500D03*
X1847100D03*
X1856400D03*
X1862600D03*
X1783600Y1900000D03*
X1777400D03*
X1911600Y1807500D03*
X1905400D03*
X1787900Y1822500D03*
X1794100D03*
X1756600Y1825500D03*
X1750400D03*
X1749900Y1835000D03*
X1756100D03*
X1888100Y1881000D03*
X1881900D03*
X1856100Y1918500D03*
X1849900D03*
X1871600D03*
X1865400D03*
G54D13*
X1908000Y1964500D03*
X1875500Y1902500D03*
X1839500Y1946000D03*
G54D14*
X1908000Y1972400D03*
X1875500Y1894600D03*
X1829500Y1946000D03*
X1819500D03*
X1809500D03*
Y1916000D03*
X1819500D03*
X1829500D03*
X1839500D03*
G54D15*
X1738000Y1960500D03*
Y1970500D03*
X1748000Y1960500D03*
Y1970500D03*
X1758000Y1960500D03*
Y1970500D03*
X1768000Y1960500D03*
Y1970500D03*
X1778000Y1960500D03*
Y1970500D03*
X1788000Y1960500D03*
Y1970500D03*
X1798000Y1960500D03*
Y1970500D03*
X1808000Y1960500D03*
Y1970500D03*
X1818000Y1960500D03*
Y1970500D03*
X1828000Y1960500D03*
Y1970500D03*
X1873500Y1865500D03*
Y1855500D03*
X1765000Y1803000D03*
Y1813000D03*
X1793500Y1802000D03*
X1803500D03*
X1813500D03*
X1824500D03*
X1834500D03*
X1844500D03*
X1854500D03*
X1864500D03*
X1910500Y1938000D03*
Y1948000D03*
X1737000Y1800500D03*
X1747000D03*
G54D16*
X1741400Y1823250D03*
Y1830750D03*
G54D17*
X1733400Y1827000D03*
G54D18*
X1760638Y1920291D03*
X1745992D03*
X1760598Y1942496D03*
X1745992D03*
X1882862Y1819709D03*
X1897508D03*
X1882902Y1797504D03*
X1897508D03*
X1906000Y1873000D03*
X1902260D03*
X1898520D03*
Y1862764D03*
X1902260D03*
X1906000D03*
G54D19*
X1789000Y1860000D03*
Y1858031D03*
Y1856063D03*
Y1854094D03*
Y1852126D03*
Y1850157D03*
Y1848189D03*
Y1846220D03*
Y1844252D03*
Y1842283D03*
Y1840315D03*
Y1838346D03*
X1820496D03*
Y1840315D03*
Y1842283D03*
Y1844252D03*
Y1846220D03*
Y1848189D03*
Y1850157D03*
Y1852126D03*
Y1854094D03*
Y1856063D03*
Y1858031D03*
Y1860000D03*
G54D20*
X1793921Y1833425D03*
X1795890D03*
X1797858D03*
X1799827D03*
X1801795D03*
X1803764D03*
X1805732D03*
X1807701D03*
X1809669D03*
X1811638D03*
X1813606D03*
X1815575D03*
Y1864921D03*
X1813606D03*
X1811638D03*
X1809669D03*
X1807701D03*
X1805732D03*
X1803764D03*
X1801795D03*
X1799827D03*
X1797858D03*
X1795890D03*
X1793921D03*
G54D21*
X1779000Y1801000D03*
Y1811000D03*
Y1821000D03*
G54D22*
X1884500Y1930100D03*
Y1921000D03*
Y1911900D03*
G54D23*
X1909500Y1921000D03*
G54D24*
X1751000Y1880000D03*
Y1899685D03*
G54D25*
X1837130Y1833000D03*
Y1828000D03*
Y1823000D03*
Y1818000D03*
X1865870D03*
Y1823000D03*
Y1828000D03*
Y1833000D03*
G54D26*
X1738467Y1801967D02*
X1741500Y1805000D01*
X1748467Y1801967D02*
X1750000Y1803500D01*
Y1825100*
X1750400Y1825500*
X1774000Y1806000D02*
Y1824000D01*
X1779000Y1829000*
X1785900*
X1789000*
X1794000Y1824000*
Y1822600*
X1794100Y1822500*
X1774000Y1806000D02*
X1777533Y1802467D01*
X1765000Y1815075D02*
Y1824346D01*
X1779000Y1838346*
X1789000*
X1766467Y1804467D02*
X1771500Y1809500D01*
X1771575*
Y1824500*
X1777768Y1830693*
X1792614*
X1793921Y1832000*
Y1833425*
X1865870Y1818000D02*
X1873500D01*
X1879000Y1823500*
Y1841000*
X1897508Y1819709D02*
X1900217Y1817000D01*
X1905400*
X1897508Y1819709D02*
X1882862D01*
X1883000Y1819846*
X1905400Y1807500D02*
Y1817000D01*
X1735000Y1899600D02*
X1750915D01*
X1751000Y1899685*
X1735000Y1893400D02*
Y1882600D01*
X1748500*
Y1882500*
X1751000Y1880000*
X1819000Y1872000D02*
Y1872100D01*
X1822900Y1876000*
X1805500Y1889075D02*
Y1894500D01*
X1806000Y1895000*
X1805500Y1889075D02*
X1815575Y1879000D01*
Y1864921*
X1777000Y1875000D02*
Y1889600D01*
X1777400Y1890000*
X1777000Y1853000D02*
X1782000Y1848000D01*
X1788811*
X1789000Y1848189*
X1751000Y1899685D02*
X1764500D01*
X1766500Y1897685*
Y1896900*
X1751000Y1880000D02*
X1751900Y1880900D01*
X1766500*
X1803764Y1864921D02*
Y1875764D01*
X1804000Y1876000*
X1805732Y1864921D02*
Y1869732D01*
X1806000Y1870000*
X1811638Y1833425D02*
Y1819500D01*
X1814638Y1816500*
X1831500*
X1839500Y1808500*
X1849500*
X1854500Y1803500*
Y1802000*
X1809669Y1833425D02*
Y1818000D01*
X1813669Y1814000*
X1830500*
X1842500Y1802000*
X1844500*
X1807701Y1833425D02*
Y1816500D01*
X1813201Y1811000*
X1829500*
X1834500Y1806000*
Y1804075*
X1805732Y1833425D02*
Y1815000D01*
X1812232Y1808500*
X1820000*
X1824500Y1804000*
Y1802000*
X1803764Y1833425D02*
Y1813500D01*
X1813500Y1803764*
Y1802000*
X1801795Y1833425D02*
Y1807000D01*
X1803500Y1805295*
Y1804075*
X1756100Y1835000D02*
X1764900D01*
X1767000Y1832900*
Y1839100D02*
X1768215Y1840315D01*
X1789000*
X1794100Y1822500D02*
X1796827D01*
X1799827Y1825500*
Y1833425*
X1766500Y1887100D02*
X1770000Y1883600D01*
Y1871500*
X1778500Y1863000*
Y1856000*
X1784500Y1850000*
X1788843*
X1789000Y1850157*
X1768000Y1853900D02*
X1775680Y1846220D01*
X1789000*
X1741400Y1830750D02*
X1741650Y1831000D01*
X1752100*
X1756100Y1835000*
X1741400Y1823250D02*
X1741500Y1823150D01*
Y1805000*
X1812000Y1897900D02*
X1814000Y1895900D01*
Y1886000*
X1777400Y1890000D02*
Y1900000D01*
X1758500Y1860100D02*
X1762000D01*
Y1859900*
X1768000Y1853900*
X1750000Y1859600D02*
X1750500Y1860100D01*
X1758500*
X1766500Y1896900D02*
X1773500Y1889900D01*
Y1871500*
X1782000Y1863000*
Y1855500*
X1785500Y1852000*
X1788874*
X1789000Y1852126*
X1855000Y1823000D02*
X1865870D01*
X1837130Y1828000D02*
X1841500D01*
X1845000Y1831500*
Y1838283*
X1858500Y1884900D02*
X1858600D01*
X1866000Y1877500*
Y1874500*
X1898520Y1873000D02*
X1898900Y1873380D01*
Y1880500*
X1820496Y1856063D02*
X1836937D01*
X1854000Y1856000*
X1870000Y1872000*
Y1878500*
X1820496Y1850157D02*
X1852000D01*
X1867343Y1865500*
X1871425*
X1820496Y1848189D02*
X1853500D01*
X1860811Y1855500*
X1871425*
X1820496Y1846220D02*
X1878000D01*
X1881500Y1842720*
Y1831000*
X1883000Y1829500*
Y1819846*
X1820496Y1844252D02*
X1875748D01*
X1879000Y1841000*
X1820496Y1842283D02*
X1841000D01*
X1845000Y1838283*
X1820496Y1840315D02*
X1837685D01*
X1838000Y1840000*
X1820496Y1838346D02*
X1825343Y1833500D01*
X1836630*
X1837130Y1833000*
X1881900Y1881000D02*
X1889900Y1873000D01*
X1898520*
X1822900Y1896500D02*
Y1906500D01*
X1829100Y1876000D02*
X1857000D01*
X1861500Y1871500*
X1891100Y1848000D02*
X1898520Y1855420D01*
Y1862764*
X1884900Y1848000D02*
X1891500Y1854600D01*
Y1858900*
X1891600Y1859000*
X1841400Y1898500D02*
X1844400Y1895500D01*
X1852500*
X1857000Y1891000*
X1858400*
X1858500Y1891100*
X1847600Y1898500D02*
X1855600D01*
X1858500Y1901400*
X1891100Y1869000D02*
X1891600Y1868500D01*
Y1859000*
X1896000*
X1822900Y1887000D02*
Y1896500D01*
X1841400Y1887500D02*
X1844000Y1884900D01*
X1858500*
X1884900Y1837000D02*
Y1848000D01*
X1901000Y1859000D02*
X1902500Y1860500D01*
X1906000Y1862764D02*
X1910000D01*
Y1862900*
X1914500Y1867400*
X1902260Y1862764D02*
X1902500Y1862524D01*
Y1860500*
X1902260Y1873000D02*
Y1877660D01*
X1905100Y1880500*
X1906000Y1873000D02*
X1906600Y1873600D01*
X1914500*
X1908100Y1890000D02*
X1917500Y1880600D01*
X1900900Y1852500D02*
X1906000Y1857600D01*
Y1862764*
X1914500Y1867400D02*
X1917500Y1870400D01*
Y1880600*
X1804500Y1923000D02*
X1809000Y1927500D01*
X1822500*
X1839500Y1944500*
Y1946000*
X1804500Y1923000D02*
Y1905400D01*
X1812000Y1897900*
X1802000Y1907000D02*
Y1889606D01*
X1813606Y1878000*
Y1864921*
X1802000Y1929000D02*
Y1946500D01*
X1808000Y1952500*
Y1958425*
X1819500Y1916000D02*
Y1920000D01*
X1829500Y1930000*
X1830000*
X1809500Y1916000D02*
X1813400D01*
X1822900Y1906500*
X1819500Y1946000D02*
X1823000D01*
X1839500Y1962500*
X1840900*
X1745992Y1920291D02*
X1760638D01*
X1760846Y1920500*
X1768500*
X1777000Y1929000*
X1760638Y1920291D02*
X1777429Y1903500D01*
X1777400Y1900000D02*
X1777429Y1900029D01*
Y1903500*
X1798000Y1958425D02*
Y1889138D01*
X1811638Y1875500*
Y1864921*
X1778000Y1958425D02*
Y1943500D01*
X1795000Y1926500*
Y1907000*
X1748000Y1958425D02*
Y1953000D01*
X1753500Y1947500*
X1766000*
X1791000Y1922500*
Y1892169*
X1809669Y1873500*
Y1864921*
X1863900Y1900400D02*
Y1890000D01*
X1884900Y1869000*
X1863900Y1900400D02*
X1879400Y1915900D01*
Y1932400*
X1885000Y1938000*
X1908425*
X1848000Y1930000D02*
X1853400D01*
X1853500Y1929900*
X1829500Y1916000D02*
Y1924500D01*
X1841000Y1936000*
X1853400*
X1853500Y1936100*
X1829500Y1946000D02*
X1835000Y1951500D01*
X1839500*
X1847000Y1959000*
Y1962400*
X1847100Y1962500*
X1839500Y1946000D02*
X1849500Y1956000D01*
X1868100*
X1873500Y1961400*
Y1967600D02*
X1883900D01*
X1847100Y1962500D02*
Y1970000D01*
X1848600Y1971500*
X1849400*
X1847100Y1962500D02*
X1856400D01*
X1840900D02*
Y1974000D01*
X1843900Y1977000*
X1864100*
X1873500Y1967600*
X1883400Y1968500D02*
X1883900Y1968000D01*
Y1967600*
X1853500Y1929900D02*
X1862500D01*
Y1936100D02*
X1853500D01*
Y1948100*
X1854400Y1949000*
X1883900Y1959500D02*
Y1967600D01*
X1841400Y1906500D02*
X1847400Y1900500D01*
Y1898700*
X1847600Y1898500*
X1862500Y1929900D02*
X1871500D01*
X1860600Y1949000D02*
X1881500D01*
X1890000Y1957500*
Y1959400*
X1890100Y1959500*
X1829100Y1906500D02*
X1841400D01*
X1876000Y1837100D02*
X1875000D01*
X1873500Y1840000D02*
Y1839000D01*
X1871000Y1837100D02*
X1872000D01*
X1837130Y1815819D02*
Y1816819D01*
X1841280Y1818000D02*
X1840280D01*
X1832980D02*
X1833980D01*
X1816500Y1820900D02*
X1817500D01*
X1821500D02*
X1820500D01*
X1813606Y1836394D02*
Y1835394D01*
Y1830457D02*
Y1831457D01*
X1824500Y1820900D02*
X1825500D01*
X1829500D02*
X1828500D01*
X1891100Y1839500D02*
Y1838500D01*
Y1834500D02*
Y1835500D01*
X1894000Y1837000D02*
X1893000D01*
X1885400Y1856500D02*
Y1857500D01*
Y1861500D02*
Y1860500D01*
X1882500Y1859000D02*
X1883500D01*
X1828000Y1860900D02*
X1829000D01*
X1833000D02*
X1832000D01*
X1911600Y1814500D02*
Y1815500D01*
X1914500Y1817000D02*
X1913500D01*
X1911600Y1819500D02*
Y1818500D01*
X1885083Y1797504D02*
X1884083D01*
X1882902Y1800866D02*
Y1799866D01*
X1880720Y1797504D02*
X1881720D01*
X1899689D02*
X1898689D01*
X1897508Y1800866D02*
Y1799866D01*
X1895327Y1797504D02*
X1896327D01*
X1823465Y1858031D02*
X1822465D01*
X1817528D02*
X1818528D01*
X1837500Y1860900D02*
X1838500D01*
X1842500D02*
X1841500D01*
X1794100Y1817000D02*
Y1816000D01*
Y1812000D02*
Y1813000D01*
X1797000Y1814500D02*
X1796000D01*
X1884500Y1917750D02*
Y1918750D01*
X1888750Y1921000D02*
X1887750D01*
X1884500Y1924250D02*
Y1923250D01*
X1743811Y1942496D02*
X1744811D01*
X1745992Y1939134D02*
Y1940134D01*
X1748173Y1942496D02*
X1747173D01*
X1745992Y1945858D02*
Y1944858D01*
X1764000Y1903100D02*
X1765000D01*
X1769000D02*
X1768000D01*
X1766500Y1906000D02*
Y1905000D01*
X1884500Y1926850D02*
Y1927850D01*
X1888750Y1930100D02*
X1887750D01*
X1884500Y1933350D02*
Y1932350D01*
X1795890Y1867890D02*
Y1866890D01*
Y1861953D02*
Y1862953D01*
X1758417Y1942496D02*
X1759417D01*
X1760598Y1939134D02*
Y1940134D01*
X1762780Y1942496D02*
X1761780D01*
X1733400Y1829800D02*
Y1828800D01*
X1729900Y1827000D02*
X1730900D01*
X1733400Y1824200D02*
Y1825200D01*
X1736900Y1827000D02*
X1735900D01*
X1895000Y1891900D02*
X1894000D01*
X1892500Y1889000D02*
Y1890000D01*
X1907100Y1850000D02*
Y1851000D01*
X1910000Y1852500D02*
X1909000D01*
X1907100Y1855000D02*
Y1854000D01*
X1783600Y1887500D02*
Y1888500D01*
X1786500Y1890000D02*
X1785500D01*
X1783600Y1892500D02*
Y1891500D01*
X1786000Y1881600D02*
X1785000D01*
X1783500Y1884500D02*
Y1883500D01*
X1781000Y1881600D02*
X1782000D01*
X1907600Y1896000D02*
Y1897000D01*
X1910500Y1898500D02*
X1909500D01*
X1907600Y1901000D02*
Y1900000D01*
X1907100Y1846000D02*
Y1845000D01*
Y1841000D02*
Y1842000D01*
X1910000Y1843500D02*
X1909000D01*
X1794500Y1882100D02*
X1793500D01*
X1792000Y1885000D02*
Y1884000D01*
X1789500Y1882100D02*
X1790500D01*
X1747000Y1835000D02*
X1748000D01*
X1737500Y1876400D02*
X1736500D01*
X1732500D02*
X1733500D01*
X1735000Y1873500D02*
Y1874500D01*
X1765500Y1860100D02*
X1766500D01*
X1770500D02*
X1769500D01*
X1768000Y1863000D02*
Y1862000D01*
X1907100Y1831500D02*
Y1832500D01*
X1910000Y1834000D02*
X1909000D01*
X1907100Y1836500D02*
Y1835500D01*
X1727000Y1982500D02*
Y1790500D01*
X1923500*
Y1982500*
X1727000*
G54D27*
X1781175Y1811000D02*
X1784000D01*
X1795038Y1800462D02*
X1802500Y1793000D01*
X1904000*
X1911500Y1800500*
Y1807400*
X1911600Y1807500*
X1787900Y1814500D02*
Y1807600D01*
X1791962Y1803538*
X1794100Y1814500D02*
X1794600Y1815000D01*
X1799000*
X1877000Y1798000D02*
X1877496Y1797504D01*
X1882902*
X1866675Y1802000D02*
X1872000D01*
X1911600Y1807500D02*
X1917100Y1813000D01*
Y1822000*
X1911600Y1817000D02*
Y1820600D01*
X1912000Y1821000*
X1738000Y1844000D02*
X1742500Y1839500D01*
X1752600*
X1756600Y1843500*
X1733000Y1833000D02*
X1733400Y1832600D01*
Y1827000*
X1735000Y1870000D02*
Y1876400D01*
X1768000Y1865000D02*
Y1860100D01*
X1746000Y1835000D02*
X1749900D01*
X1804000Y1850000D02*
Y1850500D01*
X1813500Y1860000*
X1820496*
X1804000Y1850000D02*
X1815500Y1838500D01*
X1815575*
Y1833425*
X1780538Y1819462D02*
X1785500Y1814500D01*
X1787900*
X1781175Y1821000D02*
X1786500D01*
Y1821100*
X1787900Y1822500*
X1793921Y1864921D02*
Y1860000D01*
X1794000*
X1804000Y1850000*
X1795890Y1864921D02*
Y1881890D01*
X1796000Y1882000*
X1815575Y1833425D02*
Y1829500D01*
X1818000Y1827075*
X1818975*
X1819000Y1827100*
X1813606Y1833425D02*
Y1824000D01*
X1816500Y1821106*
X1818794*
X1819000Y1820900*
X1756600Y1825500D02*
X1757100Y1826000D01*
X1762000*
X1756600Y1825500D02*
Y1822000D01*
X1758000Y1820600*
Y1798500*
X1760500Y1796000*
X1790500*
X1793500Y1799000*
Y1799825*
X1756600Y1843500D02*
X1757100Y1844000D01*
X1762000*
X1783600Y1890000D02*
X1788000D01*
X1784000Y1882100D02*
X1783500Y1881600D01*
Y1885500*
X1784000Y1886000*
X1783500Y1875400D02*
X1784000Y1875900D01*
X1792000*
Y1882100D02*
X1795900D01*
X1796000Y1882000*
X1792000Y1875900D02*
X1793921Y1873979D01*
Y1864921*
X1819000Y1820900D02*
X1827000D01*
X1819000Y1827100D02*
X1827000D01*
X1893000Y1828000D02*
X1899000Y1834000D01*
X1900900*
X1865870Y1833000D02*
Y1828000D01*
X1870600*
X1873500Y1830900*
X1837130Y1823000D02*
X1848500D01*
X1858500Y1833000*
X1865870*
X1873500Y1837100D02*
Y1840500D01*
X1874000Y1841000*
X1873500Y1830900D02*
X1873600D01*
X1876500Y1828000*
X1847550Y1887450D02*
Y1889550D01*
X1851000Y1893000*
X1847550Y1887450D02*
X1847600Y1887500D01*
X1891000Y1834000D02*
X1891100Y1834100D01*
Y1837000*
X1881000Y1859000D02*
X1885400D01*
X1820496Y1860000D02*
Y1864000D01*
X1823496Y1867000*
X1830400*
X1830500Y1867100*
X1820496Y1858031D02*
X1825500D01*
X1828369Y1860900*
X1830500*
X1875500Y1894600D02*
X1876000Y1894100D01*
Y1888000*
X1829100Y1896500D02*
Y1887000D01*
X1834100Y1892000*
X1843000*
X1847550Y1887450*
X1840000Y1860900D02*
X1844900D01*
X1845000Y1861000*
X1830500Y1860900D02*
X1840000D01*
X1830500Y1867100D02*
X1840000D01*
X1827000Y1820900D02*
X1830900D01*
X1831000Y1821000*
X1892500Y1891900D02*
X1893000Y1891400D01*
Y1888000*
X1907000Y1833900D02*
X1907100Y1834000D01*
X1913000Y1825500D02*
X1913600D01*
X1917100Y1822000*
X1907100Y1852500D02*
X1907600Y1853000D01*
X1912000*
X1907100Y1852500D02*
X1907600Y1853000D01*
Y1898500D02*
Y1903600D01*
X1908000Y1904000*
X1907100Y1843500D02*
X1907600Y1844000D01*
X1912000*
X1907100Y1834000D02*
X1912000D01*
X1900900D02*
X1901000Y1833900D01*
Y1829500*
X1905000Y1825500*
X1913000*
X1900900Y1834000D02*
Y1843500D01*
X1738000Y1908500D02*
Y1958325D01*
Y1962675D02*
Y1968325D01*
X1808000Y1910000D02*
X1812000Y1906000D01*
Y1904100*
X1783000Y1906000D02*
X1783600Y1905400D01*
Y1900000*
X1809500Y1946000D02*
Y1946500D01*
X1815000Y1952000*
X1809500Y1946000D02*
X1810000D01*
X1814000Y1942000*
X1745992Y1942496D02*
X1749504D01*
X1750000Y1942000*
X1760598Y1942496D02*
X1763504D01*
X1764000Y1942000*
X1812000Y1904100D02*
X1815000Y1901100D01*
Y1901000*
X1766500Y1903100D02*
X1769900D01*
X1770000Y1903000*
X1858500Y1913500D02*
X1861000D01*
X1865500Y1918000*
X1858500Y1913500D02*
Y1907600D01*
X1865400Y1918500D02*
X1865500Y1918400D01*
Y1918000*
X1871600Y1918500D02*
X1876500Y1923400D01*
Y1934000*
X1907000Y1964500*
X1908000*
X1849900Y1918500D02*
X1854900Y1913500D01*
X1858500*
X1856100Y1918500D02*
X1860500Y1922900D01*
X1868000*
X1871500Y1919400*
Y1918600*
X1871600Y1918500*
X1864500Y1972000D02*
X1864600D01*
X1887000Y1965000D02*
X1889500Y1967500D01*
Y1968400*
X1889600Y1968500*
X1869000Y1943000D02*
X1871500Y1940500D01*
Y1936100*
X1827000Y1901000D02*
X1829000Y1899000D01*
Y1896600*
X1829100Y1896500*
X1884500Y1921000D02*
Y1925000D01*
Y1930100D02*
X1889900D01*
X1890000Y1930000*
X1839500Y1916000D02*
X1847500D01*
Y1916100*
X1849900Y1918500*
X1862600Y1962500D02*
Y1970000D01*
X1864600Y1972000*
X1889600Y1968500D02*
X1896100Y1962000D01*
X1855600Y1971500D02*
X1859000Y1968100D01*
Y1968000*
X1871500Y1936100D02*
X1871600Y1936000D01*
X1873000*
X1896100Y1959100*
Y1962000*
X1847600Y1906500D02*
X1851000Y1903100D01*
Y1903000*
X1847600Y1906500D02*
X1852500D01*
X1853600Y1907600*
X1858500*
X1903000Y1948000D02*
X1908325D01*
X1909500Y1921000D02*
X1910000D01*
X1917000Y1914000*
X1909500Y1921000D02*
X1917000Y1928500D01*
Y1955500*
X1908000Y1972400D02*
X1912600D01*
X1913000Y1972000*
X1908000Y1964500D02*
X1917000Y1955500D01*
G54D28*
X1750400Y1843500D02*
X1754900Y1848000D01*
X1770252*
X1774000Y1844252*
X1789000*
X1750000Y1853400D02*
Y1843900D01*
X1750400Y1843500*
X1750000Y1853400D02*
X1750500Y1853900D01*
X1758500*
X1888100Y1881000D02*
Y1893700D01*
X1892500Y1898100*
X1901000*
X1901400Y1898500*
X1901900Y1898000*
Y1890000*
X1875500Y1902500D02*
Y1902900D01*
X1884500Y1911900*
X1875500Y1902500D02*
X1888500D01*
Y1902100*
X1892500Y1898100*
X1869437Y1802000D02*
X1868437D01*
X1864500Y1806937D02*
Y1805937D01*
Y1797063D02*
Y1798063D01*
X1748000Y1975437D02*
Y1974437D01*
X1779000Y1814953D02*
Y1813953D01*
Y1807047D02*
Y1808047D01*
X1782953Y1811000D02*
X1781953D01*
X1910500Y1952937D02*
Y1951937D01*
X1905563Y1948000D02*
X1906563D01*
X1818000Y1975437D02*
Y1974437D01*
X1828000Y1975437D02*
Y1974437D01*
X1832937Y1970500D02*
X1831937D01*
X1808000Y1975437D02*
Y1974437D01*
X1798000Y1975437D02*
Y1974437D01*
X1788000Y1975437D02*
Y1974437D01*
X1871500Y1894600D02*
X1872500D01*
X1875500Y1890600D02*
Y1891600D01*
X1879500Y1894600D02*
X1878500D01*
X1778000Y1975437D02*
Y1974437D01*
X1768000Y1975437D02*
Y1974437D01*
X1758000Y1975437D02*
Y1974437D01*
X1912000Y1972400D02*
X1911000D01*
X1908000Y1976400D02*
Y1975400D01*
X1904000Y1972400D02*
X1905000D01*
G54D29*
X1799000Y1815000D03*
X1784000Y1811000D03*
X1872000Y1802000D03*
X1877000Y1798000D03*
X1738000Y1844000D03*
X1733000Y1833000D03*
X1735000Y1870000D03*
X1768000Y1865000D03*
X1819000Y1872000D03*
X1784000Y1886000D03*
X1746000Y1835000D03*
X1804000Y1850000D03*
X1762000Y1826000D03*
Y1844000D03*
X1806000Y1895000D03*
X1814000Y1886000D03*
X1804000Y1876000D03*
X1806000Y1870000D03*
X1777000Y1875000D03*
Y1853000D03*
X1788000Y1890000D03*
X1796000Y1882000D03*
X1893000Y1828000D03*
X1855000Y1823000D03*
X1876500Y1828000D03*
X1838000Y1840000D03*
X1831000Y1821000D03*
X1861500Y1871500D03*
X1870000Y1878500D03*
X1874000Y1841000D03*
X1891000Y1834000D03*
X1845000Y1861000D03*
X1866000Y1874500D03*
X1896000Y1859000D03*
X1876000Y1888000D03*
X1893000D03*
X1881000Y1859000D03*
X1851000Y1893000D03*
X1912000Y1821000D03*
X1913000Y1825500D03*
X1901000Y1859000D03*
X1912000Y1834000D03*
Y1844000D03*
Y1853000D03*
X1738000Y1908500D03*
X1808000Y1910000D03*
X1750000Y1942000D03*
X1783000Y1906000D03*
X1802000Y1907000D03*
X1795000D03*
X1802000Y1929000D03*
X1777000D03*
X1764000Y1942000D03*
X1770000Y1903000D03*
X1815000Y1952000D03*
Y1901000D03*
X1814000Y1942000D03*
X1890000Y1930000D03*
X1830000D03*
X1864500Y1972000D03*
X1884500Y1925000D03*
X1887000Y1965000D03*
X1859000Y1968000D03*
X1869000Y1943000D03*
X1851000Y1903000D03*
X1827000Y1901000D03*
X1848000Y1930000D03*
X1917000Y1914000D03*
X1913000Y1972000D03*
X1903000Y1948000D03*
X1908000Y1904000D03*
G54D30*
X1922500Y1791900D02*
Y1981100D01*
G75*
G03X1922100Y1981500I-400J-0D01*
G01X1728400*
G03X1728000Y1981100I0J-400*
G01Y1791900*
G03X1728400Y1791500I400J0*
G01X1800772*
G03X1801054Y1792183I-0J400*
G01X1795867Y1797370*
G03X1795428Y1797455I-282J-283*
G01X1793978Y1797086D02*
G03X1795428Y1797455I-478J4914D01*
G01X1793978Y1797086D02*
G03X1793734Y1796971I38J-398D01*
G01X1791631Y1794869*
X1790500Y1794400D02*
G03X1791631Y1794869I0J1600D01*
G01X1790500Y1794400D02*
X1760500D01*
X1759369Y1794869D02*
G03X1760500Y1794400I1131J1131D01*
G01X1759369Y1794869D02*
X1756869Y1797369D01*
X1756400Y1798500D02*
G03X1756869Y1797369I1600J0D01*
G01X1756400Y1798500D02*
Y1819772D01*
G03X1756283Y1820054I-400J-0*
G01X1755469Y1820869*
X1755000Y1822000D02*
G03X1755469Y1820869I1600J0D01*
G01X1755000Y1822000D02*
Y1822604D01*
G03X1754629Y1823003I-400J-0*
G01X1753843Y1823485D02*
G03X1754629Y1823003I857J515D01*
G01X1753843Y1823485D02*
G03X1753157I-343J-206D01*
G01X1752300Y1823000D02*
G03X1753157Y1823485I0J1000D01*
G01X1752300Y1823000D02*
X1751900D01*
G03X1751500Y1822600I0J-400*
G01Y1803500*
X1751412Y1802993D02*
G03X1751500Y1803500I-1412J507D01*
G01X1751412Y1802993D02*
G03X1751429Y1802681I376J-135D01*
G01X1742375Y1798773D02*
G03X1751429Y1802681I4625J1727D01*
G01X1742375Y1798773D02*
G03X1741625I-375J-140D01*
G01X1739019Y1805005D02*
G03X1741625Y1798773I-2019J-4505D01*
G01X1739019Y1805005D02*
G03X1739466Y1805087I164J365D01*
G01X1739883Y1805504*
G03X1740000Y1805787I-283J283*
G01Y1820050*
G03X1739600Y1820450I-400J-0*
G01X1738600Y1821450D02*
G03X1739600Y1820450I1000J0D01*
G01X1738600Y1821450D02*
Y1825050D01*
X1739600Y1826050D02*
G03X1738600Y1825050I0J-1000D01*
G01X1739600Y1826050D02*
X1743200D01*
X1744200Y1825050D02*
G03X1743200Y1826050I-1000J0D01*
G01X1744200Y1825050D02*
Y1821450D01*
X1743343Y1820460D02*
G03X1744200Y1821450I-143J990D01*
G01X1743343Y1820460D02*
G03X1743000Y1820064I57J-396D01*
G01Y1805000*
X1742901Y1804465D02*
G03X1743000Y1805000I-1401J535D01*
G01X1742901Y1804465D02*
G03X1743554Y1804036I374J-143D01*
G01X1748018Y1805331D02*
G03X1743554Y1804036I-1018J-4831D01*
G01X1748018Y1805331D02*
G03X1748500Y1805722I82J391D01*
G01Y1822658*
G03X1748214Y1823042I-400J0*
G01X1747500Y1824000D02*
G03X1748214Y1823042I1000J0D01*
G01X1747500Y1824000D02*
Y1827000D01*
X1748500Y1828000D02*
G03X1747500Y1827000I0J-1000D01*
G01X1748500Y1828000D02*
X1752300D01*
X1753157Y1827515D02*
G03X1752300Y1828000I-857J-515D01*
G01X1753157Y1827515D02*
G03X1753843I343J206D01*
G01X1754700Y1828000D02*
G03X1753843Y1827515I0J-1000D01*
G01X1754700Y1828000D02*
X1758500D01*
X1759200Y1827714D02*
G03X1758500Y1828000I-700J-714D01*
G01X1759200Y1827714D02*
G03X1759480Y1827600I280J286D01*
G01X1760500*
G03X1760740Y1827680I-0J400*
G01X1764060Y1826408D02*
G03X1760740Y1827680I-2060J-408D01*
G01X1764060Y1826408D02*
G03X1764735Y1826203I392J78D01*
G01X1767849Y1829317*
G03X1767566Y1830000I-283J283*
G01X1765500*
X1764500Y1831000D02*
G03X1765500Y1830000I1000J0D01*
G01X1764500Y1831000D02*
Y1833100D01*
G03X1764100Y1833500I-400J-0*
G01X1759342*
G03X1758958Y1833214I-0J-400*
G01X1758000Y1832500D02*
G03X1758958Y1833214I0J1000D01*
G01X1758000Y1832500D02*
X1755887D01*
G03X1755604Y1832383I0J-400*
G01X1753161Y1829939*
X1752100Y1829500D02*
G03X1753161Y1829939I0J1500D01*
G01X1752100Y1829500D02*
X1744600D01*
G03X1744200Y1829100I0J-400*
G01Y1828950*
X1743200Y1827950D02*
G03X1744200Y1828950I0J1000D01*
G01X1743200Y1827950D02*
X1739600D01*
X1738600Y1828950D02*
G03X1739600Y1827950I1000J0D01*
G01X1738600Y1828950D02*
Y1832550D01*
X1739600Y1833550D02*
G03X1738600Y1832550I0J-1000D01*
G01X1739600Y1833550D02*
X1743200D01*
X1744168Y1832800D02*
G03X1743200Y1833550I-968J-250D01*
G01X1744168Y1832800D02*
G03X1744556Y1832500I388J100D01*
G01X1746735*
G03X1747096Y1833071I0J400*
G01X1747000Y1833500D02*
G03X1747096Y1833071I1000J0D01*
G01X1747000Y1833500D02*
Y1836500D01*
X1747300Y1837214D02*
G03X1747000Y1836500I700J-714D01*
G01X1747300Y1837214D02*
G03X1747020Y1837900I-280J286D01*
G01X1742500*
X1741369Y1838369D02*
G03X1742500Y1837900I1131J1131D01*
G01X1741369Y1838369D02*
X1737929Y1841808D01*
G03X1737703Y1841921I-283J-283*
G01X1740079Y1844297D02*
G03X1737703Y1841921I-2079J-297D01*
G01X1740079Y1844297D02*
G03X1740192Y1844071I396J57D01*
G01X1743046Y1841217*
G03X1743328Y1841100I282J283*
G01X1747192*
G03X1747566Y1841643I0J400*
G01X1747500Y1842000D02*
G03X1747566Y1841643I1000J0D01*
G01X1747500Y1842000D02*
Y1845000D01*
X1748036Y1845886D02*
G03X1747500Y1845000I464J-886D01*
G01X1748036Y1845886D02*
G03X1748250Y1846240I-186J354D01*
G01Y1850260*
G03X1748036Y1850614I-400J0*
G01X1747500Y1851500D02*
G03X1748036Y1850614I1000J0D01*
G01X1747500Y1851500D02*
Y1855300D01*
X1747985Y1856157D02*
G03X1747500Y1855300I515J-857D01*
G01X1747985Y1856157D02*
G03Y1856843I-206J343D01*
G01X1747500Y1857700D02*
G03X1747985Y1856843I1000J0D01*
G01X1747500Y1857700D02*
Y1861500D01*
X1748500Y1862500D02*
G03X1747500Y1861500I0J-1000D01*
G01X1748500Y1862500D02*
X1751500D01*
X1752434Y1861857D02*
G03X1751500Y1862500I-934J-357D01*
G01X1752434Y1861857D02*
G03X1752808Y1861600I374J143D01*
G01X1755600*
G03X1756000Y1862000I-0J400*
G01X1757000Y1863000D02*
G03X1756000Y1862000I0J-1000D01*
G01X1757000Y1863000D02*
X1760000D01*
X1761000Y1862000D02*
G03X1760000Y1863000I-1000J0D01*
G01X1761000Y1862000D02*
G03X1761400Y1861600I400J0D01*
G01X1762000*
X1763383Y1860680D02*
G03X1762000Y1861600I-1383J-580D01*
G01X1763383Y1860680D02*
G03X1763469Y1860552I369J155D01*
G01X1764817Y1859204*
G03X1765500Y1859487I283J283*
G01Y1862000*
X1766500Y1863000D02*
G03X1765500Y1862000I0J-1000D01*
G01X1766500Y1863000D02*
X1769500D01*
X1770500Y1862000D02*
G03X1769500Y1863000I-1000J0D01*
G01X1770500Y1862000D02*
Y1858200D01*
X1770015Y1857343D02*
G03X1770500Y1858200I-515J857D01*
G01X1770015Y1857343D02*
G03Y1856657I206J-343D01*
G01X1770500Y1855800D02*
G03X1770015Y1856657I-1000J0D01*
G01X1770500Y1855800D02*
Y1853687D01*
G03X1770617Y1853404I400J0*
G01X1776184Y1847838*
G03X1776467Y1847720I283J282*
G01X1779192*
G03X1779475Y1848403I0J400*
G01X1777088Y1850790*
G03X1776837Y1850906I-283J-282*
G01X1776725Y1855082D02*
G03X1776837Y1850906I275J-2082D01*
G01X1776725Y1855082D02*
G03X1777058Y1855588I-52J397D01*
G01X1777000Y1856000D02*
G03X1777058Y1855588I1500J0D01*
G01X1777000Y1856000D02*
Y1862213D01*
G03X1776883Y1862496I-400J-0*
G01X1768939Y1870439*
X1768500Y1871500D02*
G03X1768939Y1870439I1500J0D01*
G01X1768500Y1871500D02*
Y1877604D01*
G03X1768071Y1878003I-400J-0*
G01X1768000Y1878000D02*
G03X1768071Y1878003I0J1000D01*
G01X1768000Y1878000D02*
X1765000D01*
X1764000Y1879000D02*
G03X1765000Y1878000I1000J0D01*
G01X1764000Y1879000D02*
G03X1763600Y1879400I-400J-0D01*
G01X1756243*
G03X1755850Y1879075I-0J-400*
G01X1746106Y1880648D02*
G03X1755850Y1879075I4894J-648D01*
G01X1746106Y1880648D02*
G03X1745709Y1881100I-397J52D01*
G01X1737900*
G03X1737500Y1880700I0J-400*
G01X1737015Y1879843D02*
G03X1737500Y1880700I-515J857D01*
G01X1737015Y1879843D02*
G03Y1879157I206J-343D01*
G01X1737500Y1878300D02*
G03X1737015Y1879157I-1000J0D01*
G01X1737500Y1878300D02*
Y1874500D01*
X1736500Y1873500D02*
G03X1737500Y1874500I0J1000D01*
G01X1736500Y1873500D02*
X1733500D01*
X1732500Y1874500D02*
G03X1733500Y1873500I1000J0D01*
G01X1732500Y1874500D02*
Y1878300D01*
X1732985Y1879157D02*
G03X1732500Y1878300I515J-857D01*
G01X1732985Y1879157D02*
G03Y1879843I-206J343D01*
G01X1732500Y1880700D02*
G03X1732985Y1879843I1000J0D01*
G01X1732500Y1880700D02*
Y1884500D01*
X1733214Y1885458D02*
G03X1732500Y1884500I286J-958D01*
G01X1733214Y1885458D02*
G03X1733500Y1885842I-114J384D01*
G01Y1890158*
G03X1733214Y1890542I-400J0*
G01X1732500Y1891500D02*
G03X1733214Y1890542I1000J0D01*
G01X1732500Y1891500D02*
Y1895300D01*
X1732985Y1896157D02*
G03X1732500Y1895300I515J-857D01*
G01X1732985Y1896157D02*
G03Y1896843I-206J343D01*
G01X1732500Y1897700D02*
G03X1732985Y1896843I1000J0D01*
G01X1732500Y1897700D02*
Y1901500D01*
X1733500Y1902500D02*
G03X1732500Y1901500I0J-1000D01*
G01X1733500Y1902500D02*
X1736500D01*
X1737500Y1901500D02*
G03X1736500Y1902500I-1000J0D01*
G01X1737500Y1901500D02*
G03X1737900Y1901100I400J0D01*
G01X1745981*
G03X1746357Y1901364I0J400*
G01X1755614Y1901443D02*
G03X1746357Y1901364I-4614J-1758D01*
G01X1755614Y1901443D02*
G03X1755987Y1901185I373J142D01*
G01X1763600*
G03X1764000Y1901585I-0J400*
G01Y1905000*
X1765000Y1906000D02*
G03X1764000Y1905000I0J-1000D01*
G01X1765000Y1906000D02*
X1768000D01*
X1769000Y1905000D02*
G03X1768000Y1906000I-1000J0D01*
G01X1769000Y1905000D02*
Y1901200D01*
X1768515Y1900343D02*
G03X1769000Y1901200I-515J857D01*
G01X1768515Y1900343D02*
G03Y1899657I206J-343D01*
G01X1769000Y1898800D02*
G03X1768515Y1899657I-1000J0D01*
G01X1769000Y1898800D02*
Y1896687D01*
G03X1769117Y1896404I400J0*
G01X1773882Y1891639*
G03X1774546Y1891801I283J283*
G01X1775500Y1892500D02*
G03X1774546Y1891801I0J-1000D01*
G01X1775500Y1892500D02*
G03X1775900Y1892900I-0J400D01*
G01Y1897100*
G03X1775500Y1897500I-400J-0*
G01X1774500Y1898500D02*
G03X1775500Y1897500I1000J0D01*
G01X1774500Y1898500D02*
Y1901500D01*
X1775393Y1902494D02*
G03X1774500Y1901500I107J-994D01*
G01X1775393Y1902494D02*
G03X1775633Y1903175I-43J398D01*
G01X1761996Y1916812*
G03X1761713Y1916929I-283J-283*
G01X1759457*
X1758457Y1917929D02*
G03X1759457Y1916929I1000J0D01*
G01X1758457Y1917929D02*
Y1918391D01*
G03X1758057Y1918791I-400J0*
G01X1748573*
G03X1748173Y1918391I0J-400*
G01Y1917929*
X1747173Y1916929D02*
G03X1748173Y1917929I0J1000D01*
G01X1747173Y1916929D02*
X1744811D01*
X1743811Y1917929D02*
G03X1744811Y1916929I1000J0D01*
G01X1743811Y1917929D02*
Y1922654D01*
X1744811Y1923654D02*
G03X1743811Y1922654I0J-1000D01*
G01X1744811Y1923654D02*
X1747173D01*
X1748173Y1922654D02*
G03X1747173Y1923654I-1000J-0D01*
G01X1748173Y1922654D02*
Y1922191D01*
G03X1748573Y1921791I400J0*
G01X1758057*
G03X1758457Y1922191I-0J400*
G01Y1922654*
X1759457Y1923654D02*
G03X1758457Y1922654I-0J-1000D01*
G01X1759457Y1923654D02*
X1761819D01*
X1762819Y1922654D02*
G03X1761819Y1923654I-1000J-0D01*
G01X1762819Y1922654D02*
Y1922400D01*
G03X1763219Y1922000I400J0*
G01X1767713*
G03X1767996Y1922117I-0J400*
G01X1774790Y1928912*
G03X1774906Y1929163I-282J283*
G01X1777163Y1926906D02*
G03X1774906Y1929163I-163J2094D01*
G01X1777163Y1926906D02*
G03X1776912Y1926790I32J-398D01*
G01X1769561Y1919439*
X1768500Y1919000D02*
G03X1769561Y1919439I0J1500D01*
G01X1768500Y1919000D02*
X1765016D01*
G03X1764733Y1918317I0J-400*
G01X1778490Y1904561*
X1778929Y1903500D02*
G03X1778490Y1904561I-1500J0D01*
G01X1778929Y1903500D02*
Y1902900D01*
G03X1779321Y1902500I400J-0*
G01X1780157Y1902015D02*
G03X1779321Y1902500I-857J-515D01*
G01X1780157Y1902015D02*
G03X1780843I343J206D01*
G01X1781629Y1902497D02*
G03X1780843Y1902015I71J-997D01*
G01X1781629Y1902497D02*
G03X1782000Y1902896I-29J399D01*
G01Y1903929*
G03X1781824Y1904260I-400J-0*
G01X1785100Y1906021D02*
G03X1781824Y1904260I-2100J-21D01*
G01X1785100Y1906021D02*
G03X1785120Y1905900I400J4D01*
G01X1785200Y1905400D02*
G03X1785120Y1905900I-1600J0D01*
G01X1785200Y1905400D02*
Y1902896D01*
G03X1785571Y1902497I400J0*
G01X1786500Y1901500D02*
G03X1785571Y1902497I-1000J0D01*
G01X1786500Y1901500D02*
Y1898500D01*
X1785500Y1897500D02*
G03X1786500Y1898500I0J1000D01*
G01X1785500Y1897500D02*
X1781700D01*
X1780843Y1897985D02*
G03X1781700Y1897500I857J515D01*
G01X1780843Y1897985D02*
G03X1780157I-343J-206D01*
G01X1779300Y1897500D02*
G03X1780157Y1897985I0J1000D01*
G01X1779300Y1897500D02*
G03X1778900Y1897100I0J-400D01*
G01Y1892900*
G03X1779300Y1892500I400J0*
G01X1780157Y1892015D02*
G03X1779300Y1892500I-857J-515D01*
G01X1780157Y1892015D02*
G03X1780843I343J206D01*
G01X1781700Y1892500D02*
G03X1780843Y1892015I0J-1000D01*
G01X1781700Y1892500D02*
X1785500D01*
X1786500Y1891500D02*
G03X1785500Y1892500I-1000J0D01*
G01X1786500Y1891500D02*
Y1888500D01*
X1785500Y1887500D02*
G03X1786500Y1888500I0J1000D01*
G01X1785500Y1887500D02*
X1781700D01*
X1780843Y1887985D02*
G03X1781700Y1887500I857J515D01*
G01X1780843Y1887985D02*
G03X1780157I-343J-206D01*
G01X1779300Y1887500D02*
G03X1780157Y1887985I0J1000D01*
G01X1779300Y1887500D02*
X1778900D01*
G03X1778500Y1887100I0J-400*
G01Y1876625*
G03X1778596Y1876365I400J-0*
G01X1775656Y1873386D02*
G03X1778596Y1876365I1344J1614D01*
G01X1775656Y1873386D02*
G03X1775000Y1873079I-256J-307D01*
G01Y1872287*
G03X1775117Y1872004I400J0*
G01X1783061Y1864061*
X1783500Y1863000D02*
G03X1783061Y1864061I-1500J0D01*
G01X1783500Y1863000D02*
Y1856287D01*
G03X1783617Y1856004I400J0*
G01X1785349Y1854272*
G03X1786032Y1854547I283J283*
G01X1786112Y1854921D02*
G03X1786032Y1854547I919J-393D01*
G01X1786112Y1854921D02*
G03Y1855236I-367J158D01*
G01X1786031Y1855630D02*
G03X1786112Y1855236I1000J-0D01*
G01X1786031Y1855630D02*
Y1856496D01*
X1786112Y1856890D02*
G03X1786031Y1856496I919J-394D01*
G01X1786112Y1856890D02*
G03Y1857205I-367J157D01*
G01X1786031Y1857598D02*
G03X1786112Y1857205I1000J0D01*
G01X1786031Y1857598D02*
Y1858465D01*
X1786112Y1858858D02*
G03X1786031Y1858465I919J-393D01*
G01X1786112Y1858858D02*
G03Y1859173I-367J158D01*
G01X1786031Y1859567D02*
G03X1786112Y1859173I1000J-0D01*
G01X1786031Y1859567D02*
Y1860433D01*
X1787031Y1861433D02*
G03X1786031Y1860433I0J-1000D01*
G01X1787031Y1861433D02*
X1790969D01*
X1791649Y1861166D02*
G03X1790969Y1861433I-680J-733D01*
G01X1791649Y1861166D02*
G03X1792321Y1861459I272J293D01*
G01Y1864921*
Y1872600*
G03X1791921Y1873000I-400J-0*
G01X1790500*
X1789503Y1873929D02*
G03X1790500Y1873000I997J71D01*
G01X1789503Y1873929D02*
G03X1789104Y1874300I-399J-29D01*
G01X1786400*
G03X1786000Y1873900I0J-400*
G01Y1873500*
X1785000Y1872500D02*
G03X1786000Y1873500I0J1000D01*
G01X1785000Y1872500D02*
X1782000D01*
X1781000Y1873500D02*
G03X1782000Y1872500I1000J0D01*
G01X1781000Y1873500D02*
Y1877300D01*
X1781485Y1878157D02*
G03X1781000Y1877300I515J-857D01*
G01X1781485Y1878157D02*
G03Y1878843I-206J343D01*
G01X1781000Y1879700D02*
G03X1781485Y1878843I1000J0D01*
G01X1781000Y1879700D02*
Y1883500D01*
X1782000Y1884500D02*
G03X1781000Y1883500I0J-1000D01*
G01X1782000Y1884500D02*
X1785000D01*
X1786000Y1883500D02*
G03X1785000Y1884500I-1000J0D01*
G01X1786000Y1883500D02*
Y1879700D01*
X1785515Y1878843D02*
G03X1786000Y1879700I-515J857D01*
G01X1785515Y1878843D02*
G03Y1878157I206J-343D01*
G01X1785904Y1877729D02*
G03X1785515Y1878157I-904J-429D01*
G01X1785904Y1877729D02*
G03X1786265Y1877500I361J171D01*
G01X1789104*
G03X1789503Y1877871I-0J400*
G01X1789985Y1878657D02*
G03X1789503Y1877871I515J-857D01*
G01X1789985Y1878657D02*
G03Y1879343I-206J343D01*
G01X1789500Y1880200D02*
G03X1789985Y1879343I1000J0D01*
G01X1789500Y1880200D02*
Y1884000D01*
X1790500Y1885000D02*
G03X1789500Y1884000I0J-1000D01*
G01X1790500Y1885000D02*
X1793500D01*
X1794500Y1884000D02*
G03X1793500Y1885000I-1000J0D01*
G01X1794500Y1884000D02*
Y1880200D01*
X1794015Y1879343D02*
G03X1794500Y1880200I-515J857D01*
G01X1794015Y1879343D02*
G03Y1878657I206J-343D01*
G01X1794500Y1877800D02*
G03X1794015Y1878657I-1000J0D01*
G01X1794500Y1877800D02*
Y1875828D01*
G03X1794617Y1875546I400J0*
G01X1795053Y1875110*
X1795521Y1873979D02*
G03X1795053Y1875110I-1600J-0D01*
G01X1795521Y1873979D02*
Y1868290D01*
G03X1795921Y1867890I400J-0*
G01X1796323*
X1796717Y1867809D02*
G03X1796323Y1867890I-394J-919D01*
G01X1796717Y1867809D02*
G03X1797031I157J368D01*
G01X1797425Y1867890D02*
G03X1797031Y1867809I0J-1000D01*
G01X1797425Y1867890D02*
X1798291D01*
X1798685Y1867809D02*
G03X1798291Y1867890I-394J-919D01*
G01X1798685Y1867809D02*
G03X1799000I158J368D01*
G01X1799394Y1867890D02*
G03X1799000Y1867809I-0J-1000D01*
G01X1799394Y1867890D02*
X1800260D01*
X1800654Y1867809D02*
G03X1800260Y1867890I-394J-919D01*
G01X1800654Y1867809D02*
G03X1800968I157J368D01*
G01X1801362Y1867890D02*
G03X1800969Y1867809I0J-1000D01*
G01X1801362Y1867890D02*
X1801864D01*
G03X1802264Y1868290I-0J400*
G01Y1874701*
G03X1802206Y1874909I-400J0*
G01X1802731Y1877674D02*
G03X1802206Y1874909I1269J-1674D01*
G01X1802731Y1877674D02*
G03X1802773Y1878275I-241J318D01*
G01X1789939Y1891109*
X1789500Y1892169D02*
G03X1789939Y1891109I1500J0D01*
G01X1789500Y1892169D02*
Y1921713D01*
G03X1789383Y1921996I-400J-0*
G01X1765496Y1945883*
G03X1765213Y1946000I-283J-283*
G01X1762967*
G03X1762628Y1945388I-0J-400*
G01X1762780Y1944858D02*
G03X1762628Y1945388I-1000J0D01*
G01X1762780Y1944858D02*
Y1940134D01*
X1761780Y1939134D02*
G03X1762780Y1940134I-0J1000D01*
G01X1761780Y1939134D02*
X1759417D01*
X1758417Y1940134D02*
G03X1759417Y1939134I1000J-0D01*
G01X1758417Y1940134D02*
Y1944858D01*
X1758569Y1945388D02*
G03X1758417Y1944858I848J-530D01*
G01X1758569Y1945388D02*
G03X1758230Y1946000I-339J212D01*
G01X1753500*
X1752439Y1946439D02*
G03X1753500Y1946000I1061J1061D01*
G01X1752439Y1946439D02*
X1746939Y1951939D01*
X1746500Y1953000D02*
G03X1746939Y1951939I1500J0D01*
G01X1746500Y1953000D02*
Y1955513D01*
G03X1746242Y1955886I-400J-0*
G01X1743375Y1958773D02*
G03X1746242Y1955886I4625J1727D01*
G01X1743375Y1958773D02*
G03X1742625I-375J-140D01*
G01X1739850Y1955923D02*
G03X1742625Y1958773I-1850J4577D01*
G01X1739850Y1955923D02*
G03X1739600Y1955552I150J-371D01*
G01Y1910000*
G03X1739680Y1909760I400J0*
G01X1736320D02*
G03X1739680I1680J-1260D01*
G01X1736320D02*
G03X1736400Y1910000I-320J240D01*
G01Y1955552*
G03X1736150Y1955923I-400J-0*
G01Y1965077D02*
G03Y1955923I1850J-4577D01*
G01Y1965077D02*
G03X1736400Y1965448I-150J371D01*
G01Y1965552*
G03X1736150Y1965923I-400J-0*
G01X1742625Y1972227D02*
G03X1736150Y1965923I-4625J-1727D01*
G01X1742625Y1972227D02*
G03X1743375I375J140D01*
G01X1752625D02*
G03X1743375I-4625J-1727D01*
G01X1752625D02*
G03X1753375I375J140D01*
G01X1762625D02*
G03X1753375I-4625J-1727D01*
G01X1762625D02*
G03X1763375I375J140D01*
G01X1772625D02*
G03X1763375I-4625J-1727D01*
G01X1772625D02*
G03X1773375I375J140D01*
G01X1782625D02*
G03X1773375I-4625J-1727D01*
G01X1782625D02*
G03X1783375I375J140D01*
G01X1792625D02*
G03X1783375I-4625J-1727D01*
G01X1792625D02*
G03X1793375I375J140D01*
G01X1802625D02*
G03X1793375I-4625J-1727D01*
G01X1802625D02*
G03X1803375I375J140D01*
G01X1812625D02*
G03X1803375I-4625J-1727D01*
G01X1812625D02*
G03X1813375I375J140D01*
G01X1822625D02*
G03X1813375I-4625J-1727D01*
G01X1822625D02*
G03X1823375I375J140D01*
G01X1829727Y1965875D02*
G03X1823375Y1972227I-1727J4625D01*
G01X1829727Y1965875D02*
G03Y1965125I140J-375D01*
G01X1832654Y1958851D02*
G03X1829727Y1965125I-4654J1649D01*
G01X1832654Y1958851D02*
G03X1833313Y1958435I377J-133D01*
G01X1837883Y1963004*
G03X1838000Y1963287I-283J283*
G01Y1964000*
X1839000Y1965000D02*
G03X1838000Y1964000I0J-1000D01*
G01X1839000Y1965000D02*
G03X1839400Y1965400I-0J400D01*
G01Y1974000*
X1839839Y1975061D02*
G03X1839400Y1974000I1061J-1061D01*
G01X1839839Y1975061D02*
X1842839Y1978061D01*
X1843900Y1978500D02*
G03X1842839Y1978061I0J-1500D01*
G01X1843900Y1978500D02*
X1864100D01*
X1865161Y1978061D02*
G03X1864100Y1978500I-1061J-1061D01*
G01X1865161Y1978061D02*
X1872604Y1970617D01*
G03X1872887Y1970500I283J283*
G01X1875000*
X1876000Y1969500D02*
G03X1875000Y1970500I-1000J0D01*
G01X1876000Y1969500D02*
G03X1876400Y1969100I400J0D01*
G01X1880100*
G03X1880500Y1969500I-0J400*
G01Y1970000*
X1881500Y1971000D02*
G03X1880500Y1970000I0J-1000D01*
G01X1881500Y1971000D02*
X1885300D01*
X1886157Y1970515D02*
G03X1885300Y1971000I-857J-515D01*
G01X1886157Y1970515D02*
G03X1886843I343J206D01*
G01X1887700Y1971000D02*
G03X1886843Y1970515I0J-1000D01*
G01X1887700Y1971000D02*
X1891500D01*
X1892500Y1970000D02*
G03X1891500Y1971000I-1000J0D01*
G01X1892500Y1970000D02*
Y1968028D01*
G03X1892617Y1967746I400J0*
G01X1897231Y1963131*
X1897700Y1962000D02*
G03X1897231Y1963131I-1600J0D01*
G01X1897700Y1962000D02*
Y1959100D01*
X1897540Y1958403D02*
G03X1897700Y1959100I-1440J697D01*
G01X1897540Y1958403D02*
G03X1898183Y1957946I360J-174D01*
G01X1903883Y1963646*
G03X1904000Y1963928I-283J282*
G01Y1967500*
X1905000Y1968500D02*
G03X1904000Y1967500I0J-1000D01*
G01X1905000Y1968500D02*
X1905333D01*
G03X1905576Y1969218I0J400*
G01X1910424D02*
G03X1905576I-2424J3182D01*
G01X1910424D02*
G03X1910667Y1968500I243J-318D01*
G01X1911000*
X1912000Y1967500D02*
G03X1911000Y1968500I-1000J0D01*
G01X1912000Y1967500D02*
Y1962928D01*
G03X1912117Y1962646I400J0*
G01X1918131Y1956631*
X1918600Y1955500D02*
G03X1918131Y1956631I-1600J0D01*
G01X1918600Y1955500D02*
Y1928500D01*
X1918131Y1927369D02*
G03X1918600Y1928500I-1131J1131D01*
G01X1918131Y1927369D02*
X1913867Y1923104D01*
G03X1913750Y1922822I283J-282*
G01Y1919678*
G03X1913867Y1919396I400J0*
G01X1917071Y1916192*
G03X1917297Y1916079I283J283*
G01X1914921Y1913703D02*
G03X1917297Y1916079I2079J297D01*
G01X1914921Y1913703D02*
G03X1914808Y1913929I-396J-57D01*
G01X1914170Y1914567*
G03X1913563Y1914517I-282J-283*
G01X1912750Y1914100D02*
G03X1913563Y1914517I0J1000D01*
G01X1912750Y1914100D02*
X1906250D01*
X1905250Y1915100D02*
G03X1906250Y1914100I1000J0D01*
G01X1905250Y1915100D02*
Y1926900D01*
X1906250Y1927900D02*
G03X1905250Y1926900I0J-1000D01*
G01X1906250Y1927900D02*
X1912750D01*
X1913391Y1927668D02*
G03X1912750Y1927900I-641J-768D01*
G01X1913391Y1927668D02*
G03X1913930Y1927692I256J307D01*
G01X1915283Y1929046*
G03X1915400Y1929328I-283J282*
G01Y1935130*
G03X1914663Y1935346I-400J0*
G01X1905886Y1936242D02*
G03X1914663Y1935346I4614J1758D01*
G01X1905886Y1936242D02*
G03X1905513Y1936500I-373J-142D01*
G01X1885787*
G03X1885504Y1936383I0J-400*
G01X1883154Y1934033*
G03X1883437Y1933350I283J-283*
G01X1887750*
X1888750Y1932350D02*
G03X1887750Y1933350I-1000J0D01*
G01X1888750Y1932350D02*
Y1927850D01*
X1887750Y1926850D02*
G03X1888750Y1927850I0J1000D01*
G01X1887750Y1926850D02*
X1881300D01*
G03X1880900Y1926450I0J-400*
G01Y1924650*
G03X1881300Y1924250I400J0*
G01X1887750*
X1888750Y1923250D02*
G03X1887750Y1924250I-1000J0D01*
G01X1888750Y1923250D02*
Y1918750D01*
X1887750Y1917750D02*
G03X1888750Y1918750I0J1000D01*
G01X1887750Y1917750D02*
X1881300D01*
G03X1880900Y1917350I0J-400*
G01Y1915900*
X1880874Y1915624D02*
G03X1880900Y1915900I-1474J276D01*
G01X1880874Y1915624D02*
G03X1881268Y1915150I394J-74D01*
G01X1887750*
X1888750Y1914150D02*
G03X1887750Y1915150I-1000J0D01*
G01X1888750Y1914150D02*
Y1909650D01*
X1887750Y1908650D02*
G03X1888750Y1909650I0J1000D01*
G01X1887750Y1908650D02*
X1883891D01*
G03X1883608Y1908533I-0J-400*
G01X1880008Y1904933*
G03X1880291Y1904250I283J-283*
G01X1888500*
X1890188Y1902961D02*
G03X1888500Y1904250I-1688J-461D01*
G01X1890188Y1902961D02*
G03X1890291Y1902784I386J106D01*
G01X1891958Y1901117*
G03X1892241Y1901000I283J283*
G01X1894000*
X1894984Y1900179D02*
G03X1894000Y1901000I-984J-179D01*
G01X1894984Y1900179D02*
G03X1895378Y1899850I394J71D01*
G01X1898122*
G03X1898516Y1900179I0J400*
G01X1899500Y1901000D02*
G03X1898516Y1900179I0J-1000D01*
G01X1899500Y1901000D02*
X1903300D01*
X1904157Y1900515D02*
G03X1903300Y1901000I-857J-515D01*
G01X1904157Y1900515D02*
G03X1904843I343J206D01*
G01X1905700Y1901000D02*
G03X1904843Y1900515I0J-1000D01*
G01X1905700Y1901000D02*
X1909500D01*
X1910500Y1900000D02*
G03X1909500Y1901000I-1000J0D01*
G01X1910500Y1900000D02*
Y1897000D01*
X1909500Y1896000D02*
G03X1910500Y1897000I0J1000D01*
G01X1909500Y1896000D02*
X1905700D01*
X1904843Y1896485D02*
G03X1905700Y1896000I857J515D01*
G01X1904843Y1896485D02*
G03X1904157I-343J-206D01*
G01X1903836Y1896156D02*
G03X1904157Y1896485I-536J844D01*
G01X1903836Y1896156D02*
G03X1903650Y1895818I214J-338D01*
G01Y1892878*
G03X1903979Y1892484I400J-0*
G01X1904657Y1892015D02*
G03X1903979Y1892484I-857J-515D01*
G01X1904657Y1892015D02*
G03X1905343I343J206D01*
G01X1906200Y1892500D02*
G03X1905343Y1892015I0J-1000D01*
G01X1906200Y1892500D02*
X1910000D01*
X1911000Y1891500D02*
G03X1910000Y1892500I-1000J0D01*
G01X1911000Y1891500D02*
Y1889387D01*
G03X1911117Y1889104I400J0*
G01X1918561Y1881661*
X1919000Y1880600D02*
G03X1918561Y1881661I-1500J0D01*
G01X1919000Y1880600D02*
Y1870400D01*
X1918561Y1869339D02*
G03X1919000Y1870400I-1061J1061D01*
G01X1918561Y1869339D02*
X1917117Y1867896D01*
G03X1917000Y1867613I283J-283*
G01Y1865500*
X1916000Y1864500D02*
G03X1917000Y1865500I0J1000D01*
G01X1916000Y1864500D02*
X1913887D01*
G03X1913604Y1864383I0J-400*
G01X1911415Y1862194*
G03X1911340Y1862090I283J-283*
G01X1910000Y1861264D02*
G03X1911340Y1862090I0J1500D01*
G01X1910000Y1861264D02*
X1908581D01*
G03X1908181Y1860864I0J-400*
G01Y1860402*
X1907695Y1859543D02*
G03X1908181Y1860402I-514J859D01*
G01X1907695Y1859543D02*
G03X1907500Y1859200I205J-343D01*
G01Y1857600*
X1907061Y1856539D02*
G03X1907500Y1857600I-1061J1061D01*
G01X1907061Y1856539D02*
X1906204Y1855683D01*
G03X1906487Y1855000I283J-283*
G01X1909000*
X1910000Y1854000D02*
G03X1909000Y1855000I-1000J0D01*
G01X1910000Y1854000D02*
Y1851000D01*
X1909000Y1850000D02*
G03X1910000Y1851000I0J1000D01*
G01X1909000Y1850000D02*
X1905200D01*
X1904343Y1850485D02*
G03X1905200Y1850000I857J515D01*
G01X1904343Y1850485D02*
G03X1903657I-343J-206D01*
G01X1902800Y1850000D02*
G03X1903657Y1850485I0J1000D01*
G01X1902800Y1850000D02*
X1899000D01*
X1898000Y1851000D02*
G03X1899000Y1850000I1000J0D01*
G01X1898000Y1851000D02*
Y1851813D01*
G03X1897317Y1852096I-400J-0*
G01X1894117Y1848896*
G03X1894000Y1848613I283J-283*
G01Y1846500*
X1893000Y1845500D02*
G03X1894000Y1846500I0J1000D01*
G01X1893000Y1845500D02*
X1889200D01*
X1888343Y1845985D02*
G03X1889200Y1845500I857J515D01*
G01X1888343Y1845985D02*
G03X1887657I-343J-206D01*
G01X1886800Y1845500D02*
G03X1887657Y1845985I0J1000D01*
G01X1886800Y1845500D02*
G03X1886400Y1845100I0J-400D01*
G01Y1839900*
G03X1886800Y1839500I400J0*
G01X1887657Y1839015D02*
G03X1886800Y1839500I-857J-515D01*
G01X1887657Y1839015D02*
G03X1888343I343J206D01*
G01X1889200Y1839500D02*
G03X1888343Y1839015I0J-1000D01*
G01X1889200Y1839500D02*
X1893000D01*
X1894000Y1838500D02*
G03X1893000Y1839500I-1000J0D01*
G01X1894000Y1838500D02*
Y1835500D01*
X1893000Y1834500D02*
G03X1894000Y1835500I0J1000D01*
G01X1893000Y1834500D02*
X1889200D01*
X1888343Y1834985D02*
G03X1889200Y1834500I857J515D01*
G01X1888343Y1834985D02*
G03X1887657I-343J-206D01*
G01X1886800Y1834500D02*
G03X1887657Y1834985I0J1000D01*
G01X1886800Y1834500D02*
X1883400D01*
G03X1883000Y1834100I0J-400*
G01Y1831787*
G03X1883117Y1831504I400J0*
G01X1884061Y1830561*
X1884500Y1829500D02*
G03X1884061Y1830561I-1500J0D01*
G01X1884500Y1829500D02*
Y1823178D01*
G03X1884655Y1822862I400J0*
G01X1885043Y1822071D02*
G03X1884655Y1822862I-1000J-0D01*
G01X1885043Y1822071D02*
Y1821609D01*
G03X1885443Y1821209I400J-0*
G01X1894927*
G03X1895327Y1821609I-0J400*
G01Y1822071*
X1896327Y1823071D02*
G03X1895327Y1822071I-0J-1000D01*
G01X1896327Y1823071D02*
X1898689D01*
X1899689Y1822071D02*
G03X1898689Y1823071I-1000J-0D01*
G01X1899689Y1822071D02*
Y1819815D01*
G03X1899806Y1819532I400J-0*
G01X1900721Y1818617*
G03X1901004Y1818500I283J283*
G01X1902158*
G03X1902542Y1818786I0J400*
G01X1903500Y1819500D02*
G03X1902542Y1818786I0J-1000D01*
G01X1903500Y1819500D02*
X1907300D01*
X1908157Y1819015D02*
G03X1907300Y1819500I-857J-515D01*
G01X1908157Y1819015D02*
G03X1908843I343J206D01*
G01X1909700Y1819500D02*
G03X1908843Y1819015I0J-1000D01*
G01X1909700Y1819500D02*
X1913500D01*
X1914500Y1818500D02*
G03X1913500Y1819500I-1000J0D01*
G01X1914500Y1818500D02*
Y1815500D01*
X1913500Y1814500D02*
G03X1914500Y1815500I0J1000D01*
G01X1913500Y1814500D02*
X1909700D01*
X1908843Y1814985D02*
G03X1909700Y1814500I857J515D01*
G01X1908843Y1814985D02*
G03X1908157I-343J-206D01*
G01X1907300Y1814500D02*
G03X1908157Y1814985I0J1000D01*
G01X1907300Y1814500D02*
G03X1906900Y1814100I0J-400D01*
G01Y1810400*
G03X1907300Y1810000I400J0*
G01X1908157Y1809515D02*
G03X1907300Y1810000I-857J-515D01*
G01X1908157Y1809515D02*
G03X1908843I343J206D01*
G01X1909700Y1810000D02*
G03X1908843Y1809515I0J-1000D01*
G01X1909700Y1810000D02*
X1911672D01*
G03X1911954Y1810117I-0J400*
G01X1915383Y1813546*
G03X1915500Y1813828I-283J282*
G01Y1821172*
G03X1915383Y1821454I-400J-0*
G01X1913541Y1823296*
G03X1913217Y1823411I-283J-283*
G01X1911740Y1823820D02*
G03X1913217Y1823411I1260J1680D01*
G01X1911740Y1823820D02*
G03X1911500Y1823900I-240J-320D01*
G01X1905000*
X1903869Y1824369D02*
G03X1905000Y1823900I1131J1131D01*
G01X1903869Y1824369D02*
X1899869Y1828369D01*
X1899400Y1829500D02*
G03X1899869Y1828369I1600J0D01*
G01X1899400Y1829500D02*
Y1831100D01*
G03X1899000Y1831500I-400J-0*
G01X1898950Y1831501D02*
G03X1899000Y1831500I50J999D01*
G01X1898950Y1831501D02*
G03X1898647Y1831385I-20J-399D01*
G01X1895192Y1827929*
G03X1895079Y1827703I283J-283*
G01X1892703Y1830079D02*
G03X1895079Y1827703I297J-2079D01*
G01X1892703Y1830079D02*
G03X1892929Y1830192I-57J396D01*
G01X1897869Y1835131*
X1897880Y1835143D02*
G03X1897869Y1835131I1120J-1143D01*
G01X1897880Y1835143D02*
G03X1898000Y1835428I-280J285D01*
G01Y1835500*
X1898929Y1836497D02*
G03X1898000Y1835500I71J-997D01*
G01X1898929Y1836497D02*
G03X1899300Y1836896I-29J399D01*
G01Y1840604*
G03X1898929Y1841003I-400J-0*
G01X1898000Y1842000D02*
G03X1898929Y1841003I1000J0D01*
G01X1898000Y1842000D02*
Y1845000D01*
X1899000Y1846000D02*
G03X1898000Y1845000I0J-1000D01*
G01X1899000Y1846000D02*
X1902800D01*
X1903657Y1845515D02*
G03X1902800Y1846000I-857J-515D01*
G01X1903657Y1845515D02*
G03X1904343I343J206D01*
G01X1905200Y1846000D02*
G03X1904343Y1845515I0J-1000D01*
G01X1905200Y1846000D02*
X1909000D01*
X1910000Y1845000D02*
G03X1909000Y1846000I-1000J0D01*
G01X1910000Y1845000D02*
Y1842000D01*
X1909000Y1841000D02*
G03X1910000Y1842000I0J1000D01*
G01X1909000Y1841000D02*
X1905200D01*
X1904343Y1841485D02*
G03X1905200Y1841000I857J515D01*
G01X1904343Y1841485D02*
G03X1903657I-343J-206D01*
G01X1902871Y1841003D02*
G03X1903657Y1841485I-71J997D01*
G01X1902871Y1841003D02*
G03X1902500Y1840604I29J-399D01*
G01Y1836896*
G03X1902871Y1836497I400J0*
G01X1903657Y1836015D02*
G03X1902871Y1836497I-857J-515D01*
G01X1903657Y1836015D02*
G03X1904343I343J206D01*
G01X1905200Y1836500D02*
G03X1904343Y1836015I0J-1000D01*
G01X1905200Y1836500D02*
X1909000D01*
X1910000Y1835500D02*
G03X1909000Y1836500I-1000J0D01*
G01X1910000Y1835500D02*
Y1832500D01*
X1909000Y1831500D02*
G03X1910000Y1832500I0J1000D01*
G01X1909000Y1831500D02*
X1905200D01*
X1904343Y1831985D02*
G03X1905200Y1831500I857J515D01*
G01X1904343Y1831985D02*
G03X1903657I-343J-206D01*
G01X1902943Y1831510D02*
G03X1903657Y1831985I-143J990D01*
G01X1902943Y1831510D02*
G03X1902600Y1831114I57J-396D01*
G01Y1830328*
G03X1902717Y1830046I400J0*
G01X1905546Y1827217*
G03X1905828Y1827100I282J283*
G01X1911500*
G03X1911740Y1827180I-0J400*
G01X1914803Y1826577D02*
G03X1911740Y1827180I-1803J-1077D01*
G01X1914803Y1826577D02*
G03X1914863Y1826500I343J205D01*
G01X1918231Y1823131*
X1918700Y1822000D02*
G03X1918231Y1823131I-1600J0D01*
G01X1918700Y1822000D02*
Y1813000D01*
X1918231Y1811869D02*
G03X1918700Y1813000I-1131J1131D01*
G01X1918231Y1811869D02*
X1914617Y1808254D01*
G03X1914500Y1807972I283J-282*
G01Y1806000*
X1913500Y1805000D02*
G03X1914500Y1806000I0J1000D01*
G01X1913500Y1805000D02*
G03X1913100Y1804600I0J-400D01*
G01Y1800500*
X1912631Y1799369D02*
G03X1913100Y1800500I-1131J1131D01*
G01X1912631Y1799369D02*
X1905446Y1792183D01*
G03X1905728Y1791500I282J-283*
G01X1922100*
G03X1922500Y1791900I-0J400*
G01X1812504Y1861252D02*
G03X1812202Y1861961I-250J313D01*
G01X1812071Y1861953D02*
G03X1812202Y1861961I-0J1000D01*
G01X1812071Y1861953D02*
X1811205D01*
X1810811Y1862033D02*
G03X1811205Y1861953I394J920D01*
G01X1810811Y1862033D02*
G03X1810496I-157J-367D01*
G01X1810102Y1861953D02*
G03X1810496Y1862033I0J1000D01*
G01X1810102Y1861953D02*
X1809236D01*
X1808843Y1862033D02*
G03X1809236Y1861953I393J920D01*
G01X1808843Y1862033D02*
G03X1808528I-158J-367D01*
G01X1808134Y1861953D02*
G03X1808528Y1862033I-0J1000D01*
G01X1808134Y1861953D02*
X1807268D01*
X1806874Y1862033D02*
G03X1807268Y1861953I394J920D01*
G01X1806874Y1862033D02*
G03X1806559I-157J-367D01*
G01X1806165Y1861953D02*
G03X1806559Y1862033I0J1000D01*
G01X1806165Y1861953D02*
X1805299D01*
X1804906Y1862033D02*
G03X1805299Y1861953I393J920D01*
G01X1804906Y1862033D02*
G03X1804591I-158J-367D01*
G01X1804197Y1861953D02*
G03X1804591Y1862033I-0J1000D01*
G01X1804197Y1861953D02*
X1803331D01*
X1802937Y1862033D02*
G03X1803331Y1861953I394J920D01*
G01X1802937Y1862033D02*
G03X1802622I-157J-367D01*
G01X1802228Y1861953D02*
G03X1802622Y1862033I0J1000D01*
G01X1802228Y1861953D02*
X1801362D01*
X1800969Y1862033D02*
G03X1801362Y1861953I393J920D01*
G01X1800968Y1862033D02*
G03X1800654I-157J-367D01*
G01X1800260Y1861953D02*
G03X1800654Y1862033I-0J1000D01*
G01X1800260Y1861953D02*
X1799394D01*
X1799000Y1862033D02*
G03X1799394Y1861953I394J920D01*
G01X1799000Y1862033D02*
G03X1798685I-157J-367D01*
G01X1798291Y1861953D02*
G03X1798685Y1862033I0J1000D01*
G01X1798291Y1861953D02*
X1797425D01*
X1797031Y1862033D02*
G03X1797425Y1861953I394J920D01*
G01X1797031Y1862033D02*
G03X1796717I-157J-367D01*
G01X1796323Y1861953D02*
G03X1796717Y1862033I-0J1000D01*
G01X1796323Y1861953D02*
X1795921D01*
G03X1795521Y1861553I0J-400*
G01Y1860907*
G03X1795638Y1860624I400J0*
G01X1803467Y1852796*
G03X1804033I283J282*
G01X1812369Y1861131*
X1812504Y1861252D02*
G03X1812369Y1861131I996J-1252D01*
G01X1824985Y1823657D02*
G03Y1824343I-206J343D01*
G01X1824503Y1825129D02*
G03X1824985Y1824343I997J71D01*
G01X1824503Y1825129D02*
G03X1824104Y1825500I-399J-29D01*
G01X1821896*
G03X1821497Y1825129I0J-400*
G01X1821015Y1824343D02*
G03X1821497Y1825129I-515J857D01*
G01X1821015Y1824343D02*
G03Y1823657I206J-343D01*
G01X1821500Y1822800D02*
G03X1821015Y1823657I-1000J0D01*
G01X1821500Y1822800D02*
Y1819000D01*
X1821404Y1818571D02*
G03X1821500Y1819000I-904J429D01*
G01X1821404Y1818571D02*
G03X1821765Y1818000I361J-171D01*
G01X1824235*
G03X1824596Y1818571I0J400*
G01X1824500Y1819000D02*
G03X1824596Y1818571I1000J0D01*
G01X1824500Y1819000D02*
Y1822800D01*
X1824985Y1823657D02*
G03X1824500Y1822800I515J-857D01*
G01X1816985Y1823657D02*
G03Y1824343I-206J343D01*
G01X1816500Y1825200D02*
G03X1816985Y1824343I1000J0D01*
G01X1816500Y1825200D02*
Y1826146D01*
G03X1816383Y1826429I-400J0*
G01X1814443Y1828369*
X1813975Y1829500D02*
G03X1814443Y1828369I1600J0D01*
G01X1813975Y1829500D02*
Y1830057D01*
G03X1813575Y1830457I-400J-0*
G01X1813538*
G03X1813138Y1830057I-0J-400*
G01Y1820287*
G03X1813255Y1820004I400J0*
G01X1815142Y1818117*
G03X1815425Y1818000I283J283*
G01X1816235*
G03X1816596Y1818571I0J400*
G01X1816500Y1819000D02*
G03X1816596Y1818571I1000J0D01*
G01X1816500Y1819000D02*
Y1822800D01*
X1816985Y1823657D02*
G03X1816500Y1822800I515J-857D01*
G01X1833645Y1830123D02*
G03Y1830877I-134J377D01*
G01X1832993Y1831663D02*
G03X1833645Y1830877I987J156D01*
G01X1832993Y1831663D02*
G03X1832598Y1832000I-395J-63D01*
G01X1825343*
X1824282Y1832439D02*
G03X1825343Y1832000I1061J1061D01*
G01X1824282Y1832439D02*
X1819925Y1836796D01*
G03X1819642Y1836913I-283J-283*
G01X1818528*
X1817847Y1837181D02*
G03X1818528Y1836913I681J732D01*
G01X1817847Y1837181D02*
G03X1817175Y1836888I-272J-293D01*
G01Y1833425*
Y1830400*
G03X1817575Y1830000I400J0*
G01X1820500*
X1821497Y1829071D02*
G03X1820500Y1830000I-997J-71D01*
G01X1821497Y1829071D02*
G03X1821896Y1828700I399J29D01*
G01X1824104*
G03X1824503Y1829071I-0J400*
G01X1825500Y1830000D02*
G03X1824503Y1829071I0J-1000D01*
G01X1825500Y1830000D02*
X1828500D01*
X1829500Y1829000D02*
G03X1828500Y1830000I-1000J0D01*
G01X1829500Y1829000D02*
Y1825200D01*
X1829015Y1824343D02*
G03X1829500Y1825200I-515J857D01*
G01X1829015Y1824343D02*
G03Y1823657I206J-343D01*
G01X1829500Y1822800D02*
G03X1829015Y1823657I-1000J0D01*
G01X1829500Y1822800D02*
Y1819000D01*
X1829404Y1818571D02*
G03X1829500Y1819000I-904J429D01*
G01X1829404Y1818571D02*
G03X1829765Y1818000I361J-171D01*
G01X1831500*
X1832353Y1817734D02*
G03X1831500Y1818000I-853J-1234D01*
G01X1832353Y1817734D02*
G03X1832980Y1818063I227J329D01*
G01Y1819181*
X1833645Y1820123D02*
G03X1832980Y1819181I335J-942D01*
G01X1833645Y1820123D02*
G03Y1820877I-134J377D01*
G01X1832980Y1821819D02*
G03X1833645Y1820877I1000J-0D01*
G01X1832980Y1821819D02*
Y1824181D01*
X1833645Y1825123D02*
G03X1832980Y1824181I335J-942D01*
G01X1833645Y1825123D02*
G03Y1825877I-134J377D01*
G01X1832980Y1826819D02*
G03X1833645Y1825877I1000J-0D01*
G01X1832980Y1826819D02*
Y1829181D01*
X1833645Y1830123D02*
G03X1832980Y1829181I335J-942D01*
G01X1837985Y1863657D02*
G03Y1864343I-206J343D01*
G01X1837503Y1865129D02*
G03X1837985Y1864343I997J71D01*
G01X1837503Y1865129D02*
G03X1837104Y1865500I-399J-29D01*
G01X1833396*
G03X1832997Y1865129I0J-400*
G01X1832515Y1864343D02*
G03X1832997Y1865129I-515J857D01*
G01X1832515Y1864343D02*
G03Y1863657I206J-343D01*
G01X1833000Y1862800D02*
G03X1832515Y1863657I-1000J0D01*
G01X1833000Y1862800D02*
Y1859000D01*
X1832672Y1858259D02*
G03X1833000Y1859000I-672J741D01*
G01X1832672Y1858259D02*
G03X1832941Y1857563I269J-296D01*
G01X1836937*
X1836943*
X1837560Y1857561*
G03X1837830Y1858258I2J400*
G01X1837500Y1859000D02*
G03X1837830Y1858258I1000J0D01*
G01X1837500Y1859000D02*
Y1862800D01*
X1837985Y1863657D02*
G03X1837500Y1862800I515J-857D01*
G01X1828485Y1863657D02*
G03Y1864343I-206J343D01*
G01X1828010Y1865057D02*
G03X1828485Y1864343I990J143D01*
G01X1828010Y1865057D02*
G03X1827614Y1865400I-396J-57D01*
G01X1824324*
X1824324D02*
G03X1824042Y1865283I0J-400D01*
G01X1822213Y1863454*
G03X1822096Y1863172I283J-282*
G01Y1861833*
G03X1822487Y1861433I400J-0*
G01X1823465Y1860433D02*
G03X1822487Y1861433I-1000J0D01*
G01X1823465Y1860433D02*
Y1859567D01*
X1823384Y1859173D02*
G03X1823465Y1859567I-919J394D01*
G01X1823384Y1859173D02*
G03Y1858858I368J-157D01*
G01X1823465Y1858465D02*
G03X1823384Y1858858I-1000J-0D01*
G01X1823465Y1858465D02*
Y1857963D01*
G03X1823865Y1857563I400J0*
G01X1828059*
G03X1828328Y1858259I0J400*
G01X1828000Y1859000D02*
G03X1828328Y1858259I1000J0D01*
G01X1828000Y1859000D02*
Y1862800D01*
X1828485Y1863657D02*
G03X1828000Y1862800I515J-857D01*
G01X1790096Y1797859D02*
G03X1790089Y1798431I-283J282D01*
G01X1788955Y1803928D02*
G03X1790089Y1798431I4545J-1928D01*
G01X1788955Y1803928D02*
G03X1788870Y1804367I-368J157D01*
G01X1786769Y1806469*
X1786300Y1807600D02*
G03X1786769Y1806469I1600J0D01*
G01X1786300Y1807600D02*
Y1811604D01*
G03X1785929Y1812003I-400J-0*
G01X1785024Y1812784D02*
G03X1785929Y1812003I976J216D01*
G01X1785024Y1812784D02*
G03X1784806Y1813058I-391J-86D01*
G01X1784369Y1813369D02*
G03X1784806Y1813058I1131J1131D01*
G01X1784369Y1813369D02*
X1780602Y1817135D01*
G03X1780198Y1817233I-282J-283*
G01X1776185Y1818225D02*
G03X1780198Y1817233I2815J2775D01*
G01X1776185Y1818225D02*
G03X1775500Y1817944I-285J-281D01*
G01Y1814056*
G03X1776185Y1813775I400J-0*
G01Y1808225D02*
G03Y1813775I2815J2775D01*
G01Y1808225D02*
G03X1775500Y1807944I-285J-281D01*
G01Y1806787*
G03X1775617Y1806504I400J0*
G01X1777292Y1804830*
G03X1777705Y1804735I282J283*
G01X1781864Y1798276D02*
G03X1777705Y1804735I-2864J2724D01*
G01X1781864Y1798276D02*
G03X1782154Y1797600I290J-276D01*
G01X1789672*
G03X1789954Y1797717I-0J400*
G01X1790096Y1797859*
X1800364Y1805813D02*
G03X1800465Y1806307I-254J309D01*
G01X1800295Y1807000D02*
G03X1800465Y1806307I1500J0D01*
G01X1800295Y1807000D02*
Y1822881D01*
G03X1799612Y1823164I-400J0*
G01X1797887Y1821439*
X1797250Y1821061D02*
G03X1797887Y1821439I-423J1439D01*
G01X1797250Y1821061D02*
G03X1796973Y1820769I112J-384D01*
G01X1796000Y1820000D02*
G03X1796973Y1820769I0J1000D01*
G01X1796000Y1820000D02*
X1792200D01*
X1791343Y1820485D02*
G03X1792200Y1820000I857J515D01*
G01X1791343Y1820485D02*
G03X1790657I-343J-206D01*
G01X1789800Y1820000D02*
G03X1790657Y1820485I0J1000D01*
G01X1789800Y1820000D02*
X1787928D01*
G03X1787643Y1819880I0J-400*
G01X1786500Y1819400D02*
G03X1787643Y1819880I0J1600D01*
G01X1786500Y1819400D02*
X1783828D01*
G03X1783546Y1818717I0J-400*
G01X1785232Y1817031*
G03X1785654Y1816938I283J282*
G01X1786000Y1817000D02*
G03X1785654Y1816938I0J-1000D01*
G01X1786000Y1817000D02*
X1789800D01*
X1790657Y1816515D02*
G03X1789800Y1817000I-857J-515D01*
G01X1790657Y1816515D02*
G03X1791343I343J206D01*
G01X1792200Y1817000D02*
G03X1791343Y1816515I0J-1000D01*
G01X1792200Y1817000D02*
X1796000D01*
X1797000Y1816000D02*
G03X1796000Y1817000I-1000J0D01*
G01X1797000Y1816000D02*
Y1813000D01*
X1796000Y1812000D02*
G03X1797000Y1813000I0J1000D01*
G01X1796000Y1812000D02*
X1792200D01*
X1791343Y1812485D02*
G03X1792200Y1812000I857J515D01*
G01X1791343Y1812485D02*
G03X1790657I-343J-206D01*
G01X1789871Y1812003D02*
G03X1790657Y1812485I-71J997D01*
G01X1789871Y1812003D02*
G03X1789500Y1811604I29J-399D01*
G01Y1808428*
G03X1789617Y1808146I400J0*
G01X1791133Y1806630*
G03X1791572Y1806545I282J283*
G01X1798125Y1803727D02*
G03X1791572Y1806545I-4625J-1727D01*
G01X1798125Y1803727D02*
G03X1798875I375J140D01*
G01X1800364Y1805813D02*
G03X1798875Y1803727I3136J-3813D01*
G01X1813975Y1836794D02*
Y1837597D01*
G03X1813858Y1837880I-400J-0*
G01X1803929Y1847808*
G03X1803703Y1847921I-283J-283*
G01X1801921Y1849703D02*
G03X1803703Y1847921I2079J297D01*
G01X1801921Y1849703D02*
G03X1801808Y1849929I-396J-57D01*
G01X1793161Y1858577*
G03X1793086Y1858635I-283J-283*
G01X1792649Y1859030D02*
G03X1793086Y1858635I1272J970D01*
G01X1792649Y1859030D02*
G03X1791942Y1858695I-318J-243D01*
G01X1791969Y1858465D02*
G03X1791942Y1858695I-1000J-0D01*
G01X1791969Y1858465D02*
Y1857598D01*
X1791888Y1857205D02*
G03X1791969Y1857598I-919J393D01*
G01X1791888Y1857205D02*
G03Y1856890I367J-158D01*
G01X1791969Y1856496D02*
G03X1791888Y1856890I-1000J0D01*
G01X1791969Y1856496D02*
Y1855630D01*
X1791888Y1855236D02*
G03X1791969Y1855630I-919J394D01*
G01X1791888Y1855236D02*
G03Y1854921I367J-157D01*
G01X1791969Y1854528D02*
G03X1791888Y1854921I-1000J-0D01*
G01X1791969Y1854528D02*
Y1853661D01*
X1791888Y1853268D02*
G03X1791969Y1853661I-919J393D01*
G01X1791888Y1853268D02*
G03Y1852953I367J-158D01*
G01X1791969Y1852559D02*
G03X1791888Y1852953I-1000J0D01*
G01X1791969Y1852559D02*
Y1851693D01*
X1791888Y1851299D02*
G03X1791969Y1851693I-919J394D01*
G01X1791888Y1851299D02*
G03Y1850984I367J-157D01*
G01X1791969Y1850591D02*
G03X1791888Y1850984I-1000J-0D01*
G01X1791969Y1850591D02*
Y1849724D01*
X1791888Y1849331D02*
G03X1791969Y1849724I-919J393D01*
G01X1791888Y1849331D02*
G03Y1849016I367J-158D01*
G01X1791969Y1848622D02*
G03X1791888Y1849016I-1000J0D01*
G01X1791969Y1848622D02*
Y1847756D01*
X1791888Y1847362D02*
G03X1791969Y1847756I-919J394D01*
G01X1791888Y1847362D02*
G03Y1847047I367J-157D01*
G01X1791969Y1846654D02*
G03X1791888Y1847047I-1000J-0D01*
G01X1791969Y1846654D02*
Y1845787D01*
X1791888Y1845394D02*
G03X1791969Y1845787I-919J393D01*
G01X1791888Y1845394D02*
G03Y1845079I367J-158D01*
G01X1791969Y1844685D02*
G03X1791888Y1845079I-1000J0D01*
G01X1791969Y1844685D02*
Y1843819D01*
X1791888Y1843425D02*
G03X1791969Y1843819I-919J394D01*
G01X1791888Y1843425D02*
G03Y1843110I367J-157D01*
G01X1791969Y1842717D02*
G03X1791888Y1843110I-1000J-0D01*
G01X1791969Y1842717D02*
Y1841850D01*
X1791888Y1841457D02*
G03X1791969Y1841850I-919J393D01*
G01X1791888Y1841457D02*
G03Y1841142I367J-158D01*
G01X1791969Y1840748D02*
G03X1791888Y1841142I-1000J0D01*
G01X1791969Y1840748D02*
Y1839882D01*
X1791888Y1839488D02*
G03X1791969Y1839882I-919J394D01*
G01X1791888Y1839488D02*
G03Y1839173I367J-157D01*
G01X1791969Y1838780D02*
G03X1791888Y1839173I-1000J-0D01*
G01X1791969Y1838780D02*
Y1837913D01*
X1790969Y1836913D02*
G03X1791969Y1837913I-0J1000D01*
G01X1790969Y1836913D02*
X1789500D01*
G03X1789395Y1836899I-0J-400*
G01X1789000Y1836846D02*
G03X1789395Y1836899I0J1500D01*
G01X1789000Y1836846D02*
X1779787D01*
G03X1779504Y1836729I0J-400*
G01X1766617Y1823842*
G03X1766500Y1823559I283J-283*
G01Y1817987*
G03X1766758Y1817614I400J0*
G01X1769324Y1815382D02*
G03X1766758Y1817614I-4324J-2382D01*
G01X1769324Y1815382D02*
G03X1770075Y1815575I351J193D01*
G01Y1824500*
X1770514Y1825561D02*
G03X1770075Y1824500I1061J-1061D01*
G01X1770514Y1825561D02*
X1776707Y1831753D01*
X1777768Y1832193D02*
G03X1776707Y1831753I-0J-1500D01*
G01X1777768Y1832193D02*
X1791827D01*
G03X1792110Y1832310I0J400*
G01X1792304Y1832504*
G03X1792421Y1832787I-283J283*
G01Y1833425*
X1792474Y1833820D02*
G03X1792421Y1833425I1447J-395D01*
G01X1792474Y1833820D02*
G03X1792488Y1833925I-386J105D01*
G01Y1835394*
X1793488Y1836394D02*
G03X1792488Y1835394I0J-1000D01*
G01X1793488Y1836394D02*
X1794354D01*
X1794748Y1836313D02*
G03X1794354Y1836394I-394J-919D01*
G01X1794748Y1836313D02*
G03X1795063I158J368D01*
G01X1795457Y1836394D02*
G03X1795063Y1836313I-0J-1000D01*
G01X1795457Y1836394D02*
X1796323D01*
X1796717Y1836313D02*
G03X1796323Y1836394I-394J-919D01*
G01X1796717Y1836313D02*
G03X1797031I157J368D01*
G01X1797425Y1836394D02*
G03X1797031Y1836313I0J-1000D01*
G01X1797425Y1836394D02*
X1798291D01*
X1798685Y1836313D02*
G03X1798291Y1836394I-394J-919D01*
G01X1798685Y1836313D02*
G03X1799000I158J368D01*
G01X1799394Y1836394D02*
G03X1799000Y1836313I-0J-1000D01*
G01X1799394Y1836394D02*
X1800260D01*
X1800654Y1836313D02*
G03X1800260Y1836394I-394J-919D01*
G01X1800654Y1836313D02*
G03X1800968I157J368D01*
G01X1801362Y1836394D02*
G03X1800969Y1836313I0J-1000D01*
G01X1801362Y1836394D02*
X1802228D01*
X1802622Y1836313D02*
G03X1802228Y1836394I-394J-919D01*
G01X1802622Y1836313D02*
G03X1802937I158J368D01*
G01X1803331Y1836394D02*
G03X1802937Y1836313I-0J-1000D01*
G01X1803331Y1836394D02*
X1804197D01*
X1804591Y1836313D02*
G03X1804197Y1836394I-394J-919D01*
G01X1804591Y1836313D02*
G03X1804906I157J368D01*
G01X1805299Y1836394D02*
G03X1804906Y1836313I0J-1000D01*
G01X1805299Y1836394D02*
X1806165D01*
X1806559Y1836313D02*
G03X1806165Y1836394I-394J-919D01*
G01X1806559Y1836313D02*
G03X1806874I158J368D01*
G01X1807268Y1836394D02*
G03X1806874Y1836313I-0J-1000D01*
G01X1807268Y1836394D02*
X1808134D01*
X1808528Y1836313D02*
G03X1808134Y1836394I-394J-919D01*
G01X1808528Y1836313D02*
G03X1808843I157J368D01*
G01X1809236Y1836394D02*
G03X1808843Y1836313I0J-1000D01*
G01X1809236Y1836394D02*
X1810102D01*
X1810496Y1836313D02*
G03X1810102Y1836394I-394J-919D01*
G01X1810496Y1836313D02*
G03X1810811I158J368D01*
G01X1811205Y1836394D02*
G03X1810811Y1836313I-0J-1000D01*
G01X1811205Y1836394D02*
X1812071D01*
X1812465Y1836313D02*
G03X1812071Y1836394I-394J-919D01*
G01X1812465Y1836313D02*
G03X1812780I157J368D01*
G01X1813173Y1836394D02*
G03X1812780Y1836313I0J-1000D01*
G01X1813173Y1836394D02*
X1813575D01*
G03X1813975Y1836794I-0J400*
G01X1817608Y1856890D02*
G03Y1857205I-367J157D01*
G01X1817528Y1857598D02*
G03X1817608Y1857205I1000J0D01*
G01X1817528Y1857598D02*
Y1858000D01*
G03X1817128Y1858400I-400J-0*
G01X1814328*
G03X1814046Y1858283I0J-400*
G01X1806296Y1850533*
G03Y1849967I282J-283*
G01X1816346Y1839917*
G03X1816418Y1839860I283J283*
G01X1816822Y1839503D02*
G03X1816418Y1839860I-1247J-1003D01*
G01X1816822Y1839503D02*
G03X1817532Y1839790I311J250D01*
G01X1817528Y1839882D02*
G03X1817532Y1839790I1000J-0D01*
G01X1817528Y1839882D02*
Y1840748D01*
X1817608Y1841142D02*
G03X1817528Y1840748I920J-394D01*
G01X1817608Y1841142D02*
G03Y1841457I-367J157D01*
G01X1817528Y1841850D02*
G03X1817608Y1841457I1000J0D01*
G01X1817528Y1841850D02*
Y1842717D01*
X1817608Y1843110D02*
G03X1817528Y1842717I920J-393D01*
G01X1817608Y1843110D02*
G03Y1843425I-367J158D01*
G01X1817528Y1843819D02*
G03X1817608Y1843425I1000J-0D01*
G01X1817528Y1843819D02*
Y1844685D01*
X1817608Y1845079D02*
G03X1817528Y1844685I920J-394D01*
G01X1817608Y1845079D02*
G03Y1845394I-367J157D01*
G01X1817528Y1845787D02*
G03X1817608Y1845394I1000J0D01*
G01X1817528Y1845787D02*
Y1846654D01*
X1817608Y1847047D02*
G03X1817528Y1846654I920J-393D01*
G01X1817608Y1847047D02*
G03Y1847362I-367J158D01*
G01X1817528Y1847756D02*
G03X1817608Y1847362I1000J-0D01*
G01X1817528Y1847756D02*
Y1848622D01*
X1817608Y1849016D02*
G03X1817528Y1848622I920J-394D01*
G01X1817608Y1849016D02*
G03Y1849331I-367J157D01*
G01X1817528Y1849724D02*
G03X1817608Y1849331I1000J0D01*
G01X1817528Y1849724D02*
Y1850591D01*
X1817608Y1850984D02*
G03X1817528Y1850591I920J-393D01*
G01X1817608Y1850984D02*
G03Y1851299I-367J158D01*
G01X1817528Y1851693D02*
G03X1817608Y1851299I1000J-0D01*
G01X1817528Y1851693D02*
Y1852559D01*
X1817608Y1852953D02*
G03X1817528Y1852559I920J-394D01*
G01X1817608Y1852953D02*
G03Y1853268I-367J157D01*
G01X1817528Y1853661D02*
G03X1817608Y1853268I1000J0D01*
G01X1817528Y1853661D02*
Y1854528D01*
X1817608Y1854921D02*
G03X1817528Y1854528I920J-393D01*
G01X1817608Y1854921D02*
G03Y1855236I-367J158D01*
G01X1817528Y1855630D02*
G03X1817608Y1855236I1000J-0D01*
G01X1817528Y1855630D02*
Y1856496D01*
X1817608Y1856890D02*
G03X1817528Y1856496I920J-394D01*
G01X1742754Y1803019D02*
G03X1742127Y1803505I-344J204D01*
G01X1741587Y1802966*
G03X1741505Y1802519I283J-283*
G01X1741625Y1802227D02*
G03X1741505Y1802519I-4625J-1727D01*
G01X1741625Y1802227D02*
G03X1742375I375J140D01*
G01X1742754Y1803019D02*
G03X1742375Y1802227I4246J-2519D01*
G01X1881500Y1823345D02*
Y1828713D01*
G03X1881383Y1828996I-400J-0*
G01X1881183Y1829196*
G03X1880500Y1828913I-283J-283*
G01Y1823500*
X1880483Y1823278D02*
G03X1880500Y1823500I-1483J222D01*
G01X1880483Y1823278D02*
G03X1881108Y1822891I396J-60D01*
G01X1881266Y1822981D02*
G03X1881108Y1822891I415J-910D01*
G01X1881266Y1822981D02*
G03X1881500Y1823345I-166J364D01*
G01X1877500Y1830427D02*
Y1840213D01*
G03X1877383Y1840496I-400J-0*
G01X1875244Y1842635*
G03X1874961Y1842752I-283J-283*
G01X1843619*
G03X1843336Y1842069I-0J-400*
G01X1846061Y1839344*
X1846500Y1838283D02*
G03X1846061Y1839344I-1500J0D01*
G01X1846500Y1838283D02*
Y1831500D01*
X1846061Y1830439D02*
G03X1846500Y1831500I-1061J1061D01*
G01X1846061Y1830439D02*
X1842561Y1826939D01*
X1841500Y1826500D02*
G03X1842561Y1826939I0J1500D01*
G01X1841500Y1826500D02*
X1841481D01*
G03X1841138Y1826305I-0J-400*
G01X1840615Y1825877D02*
G03X1841138Y1826305I-335J942D01*
G01X1840615Y1825877D02*
G03Y1825123I134J-377D01*
G01X1841091Y1824766D02*
G03X1840615Y1825123I-811J-585D01*
G01X1841091Y1824766D02*
G03X1841415Y1824600I324J234D01*
G01X1847672*
G03X1847954Y1824717I-0J400*
G01X1857369Y1834131*
X1858500Y1834600D02*
G03X1857369Y1834131I0J-1600D01*
G01X1858500Y1834600D02*
X1861585D01*
G03X1861909Y1834766I-0J400*
G01X1862720Y1835181D02*
G03X1861909Y1834766I0J-1000D01*
G01X1862720Y1835181D02*
X1869020D01*
X1870020Y1834181D02*
G03X1869020Y1835181I-1000J0D01*
G01X1870020Y1834181D02*
Y1831819D01*
X1869355Y1830877D02*
G03X1870020Y1831819I-335J942D01*
G01X1869355Y1830877D02*
G03Y1830123I134J-377D01*
G01X1869702Y1829912D02*
G03X1869355Y1830123I-682J-731D01*
G01X1869702Y1829912D02*
G03X1870258Y1829921I274J292D01*
G01X1870883Y1830546*
G03X1871000Y1830828I-283J282*
G01Y1832800*
X1871485Y1833657D02*
G03X1871000Y1832800I515J-857D01*
G01X1871485Y1833657D02*
G03Y1834343I-206J343D01*
G01X1871000Y1835200D02*
G03X1871485Y1834343I1000J0D01*
G01X1871000Y1835200D02*
Y1839000D01*
X1872000Y1840000D02*
G03X1871000Y1839000I0J-1000D01*
G01X1872000Y1840000D02*
X1875000D01*
X1876000Y1839000D02*
G03X1875000Y1840000I-1000J0D01*
G01X1876000Y1839000D02*
Y1835200D01*
X1875515Y1834343D02*
G03X1876000Y1835200I-515J857D01*
G01X1875515Y1834343D02*
G03Y1833657I206J-343D01*
G01X1876000Y1832800D02*
G03X1875515Y1833657I-1000J0D01*
G01X1876000Y1832800D02*
Y1830928D01*
G03X1876117Y1830646I400J0*
G01X1876571Y1830192*
G03X1876797Y1830079I283J283*
G01X1877004Y1830039D02*
G03X1876797Y1830079I-504J-2039D01*
G01X1877004Y1830039D02*
G03X1877500Y1830427I96J388D01*
G01X1890100Y1861900D02*
Y1866100D01*
G03X1889700Y1866500I-400J-0*
G01X1889200*
X1888343Y1866985D02*
G03X1889200Y1866500I857J515D01*
G01X1888343Y1866985D02*
G03X1887657I-343J-206D01*
G01X1886800Y1866500D02*
G03X1887657Y1866985I0J1000D01*
G01X1886800Y1866500D02*
X1883000D01*
X1882000Y1867500D02*
G03X1883000Y1866500I1000J0D01*
G01X1882000Y1867500D02*
Y1869613D01*
G03X1881883Y1869896I-400J-0*
G01X1872773Y1879006*
G03X1872092Y1878687I-283J-283*
G01X1871596Y1877135D02*
G03X1872092Y1878687I-1596J1365D01*
G01X1871596Y1877135D02*
G03X1871500Y1876875I304J-260D01*
G01Y1872000*
X1871061Y1870939D02*
G03X1871500Y1872000I-1061J1061D01*
G01X1871061Y1870939D02*
X1870495Y1870373D01*
G03X1870981Y1869746I282J-283*
G01X1875227Y1860875D02*
G03X1870981Y1869746I-1727J4625D01*
G01X1875227Y1860875D02*
G03Y1860125I140J-375D01*
G01X1868886Y1853742D02*
G03X1875227Y1860125I4614J1758D01*
G01X1868886Y1853742D02*
G03X1868513Y1854000I-373J-142D01*
G01X1861598*
G03X1861315Y1853883I0J-400*
G01X1855836Y1848403*
G03X1856119Y1847720I283J-283*
G01X1878000*
X1879061Y1847281D02*
G03X1878000Y1847720I-1061J-1061D01*
G01X1879061Y1847281D02*
X1882561Y1843781D01*
X1882684Y1843641D02*
G03X1882561Y1843781I-1184J-921D01*
G01X1882684Y1843641D02*
G03X1883400Y1843887I316J246D01*
G01Y1845100*
G03X1883000Y1845500I-400J-0*
G01X1882000Y1846500D02*
G03X1883000Y1845500I1000J0D01*
G01X1882000Y1846500D02*
Y1849500D01*
X1883000Y1850500D02*
G03X1882000Y1849500I0J-1000D01*
G01X1883000Y1850500D02*
X1885113D01*
G03X1885396Y1850617I-0J400*
G01X1889883Y1855104*
G03X1890000Y1855387I-283J283*
G01Y1856104*
G03X1889629Y1856503I-400J-0*
G01X1888843Y1856985D02*
G03X1889629Y1856503I857J515D01*
G01X1888843Y1856985D02*
G03X1888157I-343J-206D01*
G01X1887300Y1856500D02*
G03X1888157Y1856985I0J1000D01*
G01X1887300Y1856500D02*
X1883500D01*
X1882500Y1857500D02*
G03X1883500Y1856500I1000J0D01*
G01X1882500Y1857500D02*
Y1860500D01*
X1883500Y1861500D02*
G03X1882500Y1860500I0J-1000D01*
G01X1883500Y1861500D02*
X1887300D01*
X1888157Y1861015D02*
G03X1887300Y1861500I-857J-515D01*
G01X1888157Y1861015D02*
G03X1888843I343J206D01*
G01X1889700Y1861500D02*
G03X1888843Y1861015I0J-1000D01*
G01X1889700Y1861500D02*
G03X1890100Y1861900I-0J400D01*
G01X1868500Y1872787D02*
Y1873143D01*
G03X1867764Y1873361I-400J0*
G01X1864404Y1875865D02*
G03X1867764Y1873361I1596J-1365D01*
G01X1864404Y1875865D02*
G03X1864500Y1876125I-304J260D01*
G01Y1876713*
G03X1864383Y1876996I-400J-0*
G01X1859496Y1881883*
G03X1859213Y1882000I-283J-283*
G01X1857000*
X1856000Y1883000D02*
G03X1857000Y1882000I1000J0D01*
G01X1856000Y1883000D02*
G03X1855600Y1883400I-400J-0D01*
G01X1844000*
X1842939Y1883839D02*
G03X1844000Y1883400I1061J1061D01*
G01X1842939Y1883839D02*
X1841896Y1884883D01*
G03X1841613Y1885000I-283J-283*
G01X1839500*
X1838500Y1886000D02*
G03X1839500Y1885000I1000J0D01*
G01X1838500Y1886000D02*
Y1889000D01*
X1838800Y1889714D02*
G03X1838500Y1889000I700J-714D01*
G01X1838800Y1889714D02*
G03X1838520Y1890400I-280J286D01*
G01X1834928*
G03X1834646Y1890283I0J-400*
G01X1832117Y1887754*
G03X1832000Y1887472I283J-282*
G01Y1885500*
X1831000Y1884500D02*
G03X1832000Y1885500I0J1000D01*
G01X1831000Y1884500D02*
X1827200D01*
X1826343Y1884985D02*
G03X1827200Y1884500I857J515D01*
G01X1826343Y1884985D02*
G03X1825657I-343J-206D01*
G01X1824800Y1884500D02*
G03X1825657Y1884985I0J1000D01*
G01X1824800Y1884500D02*
X1821000D01*
X1820000Y1885500D02*
G03X1821000Y1884500I1000J0D01*
G01X1820000Y1885500D02*
Y1888500D01*
X1821000Y1889500D02*
G03X1820000Y1888500I0J-1000D01*
G01X1821000Y1889500D02*
G03X1821400Y1889900I-0J400D01*
G01Y1893600*
G03X1821000Y1894000I-400J-0*
G01X1820000Y1895000D02*
G03X1821000Y1894000I1000J0D01*
G01X1820000Y1895000D02*
Y1898000D01*
X1821000Y1899000D02*
G03X1820000Y1898000I0J-1000D01*
G01X1821000Y1899000D02*
G03X1821400Y1899400I-0J400D01*
G01Y1903600*
G03X1821000Y1904000I-400J-0*
G01X1820000Y1905000D02*
G03X1821000Y1904000I1000J0D01*
G01X1820000Y1905000D02*
Y1907113D01*
G03X1819883Y1907396I-400J-0*
G01X1813441Y1913838*
G03X1812826Y1913777I-283J-283*
G01X1809868Y1912017D02*
G03X1812826Y1913777I-368J3983D01*
G01X1809868Y1912017D02*
G03X1809600Y1911360I37J-398D01*
G01X1810079Y1910297D02*
G03X1809600Y1911360I-2079J-297D01*
G01X1810079Y1910297D02*
G03X1810192Y1910071I396J57D01*
G01X1813131Y1907131*
X1813143Y1907120D02*
G03X1813131Y1907131I-1143J-1120D01*
G01X1813143Y1907120D02*
G03X1813428Y1907000I285J280D01*
G01X1813500*
X1814500Y1906000D02*
G03X1813500Y1907000I-1000J0D01*
G01X1814500Y1906000D02*
Y1904028D01*
G03X1814617Y1903746I400J0*
G01X1815191Y1903172*
G03X1815398Y1903062I283J283*
G01X1814916Y1898902D02*
G03X1815398Y1903062I84J2098D01*
G01X1814916Y1898902D02*
G03X1814500Y1898502I-16J-400D01*
G01Y1897687*
G03X1814617Y1897404I400J0*
G01X1815061Y1896961*
X1815500Y1895900D02*
G03X1815061Y1896961I-1500J0D01*
G01X1815500Y1895900D02*
Y1887625D01*
G03X1815596Y1887365I400J-0*
G01X1813789Y1883911D02*
G03X1815596Y1887365I211J2089D01*
G01X1813789Y1883911D02*
G03X1813466Y1883230I-40J-398D01*
G01X1816635Y1880061*
X1817075Y1879000D02*
G03X1816635Y1880061I-1500J0D01*
G01X1817075Y1879000D02*
Y1873981D01*
G03X1817719Y1873664I400J-0*
G01X1818743Y1874084D02*
G03X1817719Y1873664I257J-2084D01*
G01X1818743Y1874084D02*
G03X1818977Y1874198I-49J397D01*
G01X1819883Y1875104*
G03X1820000Y1875387I-283J283*
G01Y1877500*
X1821000Y1878500D02*
G03X1820000Y1877500I0J-1000D01*
G01X1821000Y1878500D02*
X1824800D01*
X1825657Y1878015D02*
G03X1824800Y1878500I-857J-515D01*
G01X1825657Y1878015D02*
G03X1826343I343J206D01*
G01X1827200Y1878500D02*
G03X1826343Y1878015I0J-1000D01*
G01X1827200Y1878500D02*
X1831000D01*
X1831958Y1877786D02*
G03X1831000Y1878500I-958J-286D01*
G01X1831958Y1877786D02*
G03X1832342Y1877500I384J114D01*
G01X1857000*
X1858061Y1877061D02*
G03X1857000Y1877500I-1061J-1061D01*
G01X1858061Y1877061D02*
X1861412Y1873710D01*
G03X1861663Y1873594I283J282*
G01X1859406Y1871337D02*
G03X1861663Y1873594I2094J163D01*
G01X1859406Y1871337D02*
G03X1859290Y1871588I-398J-32D01*
G01X1856496Y1874383*
G03X1856213Y1874500I-283J-283*
G01X1832342*
G03X1831958Y1874214I-0J-400*
G01X1831000Y1873500D02*
G03X1831958Y1874214I0J1000D01*
G01X1831000Y1873500D02*
X1827200D01*
X1826343Y1873985D02*
G03X1827200Y1873500I857J515D01*
G01X1826343Y1873985D02*
G03X1825657I-343J-206D01*
G01X1824800Y1873500D02*
G03X1825657Y1873985I0J1000D01*
G01X1824800Y1873500D02*
X1822687D01*
G03X1822404Y1873383I0J-400*
G01X1821216Y1872194*
G03X1821099Y1871926I282J-283*
G01X1817719Y1870336D02*
G03X1821099Y1871926I1281J1664D01*
G01X1817719Y1870336D02*
G03X1817075Y1870019I-244J-317D01*
G01Y1864921*
X1817022Y1864527D02*
G03X1817075Y1864921I-1447J394D01*
G01X1817022Y1864527D02*
G03X1817008Y1864421I386J-106D01*
G01Y1862953*
X1816741Y1862272D02*
G03X1817008Y1862953I-733J681D01*
G01X1816741Y1862272D02*
G03X1817034Y1861600I293J-272D01*
G01X1818496*
G03X1818896Y1862000I0J400*
G01Y1864000*
X1819365Y1865131D02*
G03X1818896Y1864000I1131J-1131D01*
G01X1819365Y1865131D02*
X1822365Y1868131D01*
X1823496Y1868600D02*
G03X1822365Y1868131I0J-1600D01*
G01X1823496Y1868600D02*
X1827600D01*
G03X1828000Y1869000I-0J400*
G01X1829000Y1870000D02*
G03X1828000Y1869000I0J-1000D01*
G01X1829000Y1870000D02*
X1832000D01*
X1832997Y1869071D02*
G03X1832000Y1870000I-997J-71D01*
G01X1832997Y1869071D02*
G03X1833396Y1868700I399J29D01*
G01X1837104*
G03X1837503Y1869071I-0J400*
G01X1838500Y1870000D02*
G03X1837503Y1869071I0J-1000D01*
G01X1838500Y1870000D02*
X1841500D01*
X1842500Y1869000D02*
G03X1841500Y1870000I-1000J0D01*
G01X1842500Y1869000D02*
Y1865200D01*
X1842015Y1864343D02*
G03X1842500Y1865200I-515J857D01*
G01X1842015Y1864343D02*
G03Y1863657I206J-343D01*
G01X1842500Y1862800D02*
G03X1842015Y1863657I-1000J0D01*
G01X1842500Y1862800D02*
Y1859000D01*
X1842156Y1858245D02*
G03X1842500Y1859000I-656J755D01*
G01X1842156Y1858245D02*
G03X1842416Y1857543I262J-302D01*
G01X1853214Y1857503*
G03X1853499Y1857620I2J400*
G01X1868383Y1872504*
G03X1868500Y1872787I-283J283*
G01X1889742Y1897817D02*
G03Y1898383I-283J283D01*
G01X1887492Y1900633*
G03X1887209Y1900750I-283J-283*
G01X1879900*
G03X1879500Y1900350I0J-400*
G01Y1899500*
X1878500Y1898500D02*
G03X1879500Y1899500I0J1000D01*
G01X1878500Y1898500D02*
X1878167D01*
G03X1877924Y1897782I-0J-400*
G01X1873076D02*
G03X1877924I2424J-3182D01*
G01X1873076D02*
G03X1872833Y1898500I-243J318D01*
G01X1872500*
X1871500Y1899500D02*
G03X1872500Y1898500I1000J0D01*
G01X1871500Y1899500D02*
Y1904913D01*
G03X1870817Y1905196I-400J-0*
G01X1865517Y1899896*
G03X1865400Y1899613I283J-283*
G01Y1890787*
G03X1865517Y1890504I400J0*
G01X1884404Y1871617*
G03X1884687Y1871500I283J283*
G01X1886800*
X1887657Y1871015D02*
G03X1886800Y1871500I-857J-515D01*
G01X1887657Y1871015D02*
G03X1888343I343J206D01*
G01X1888700Y1871366D02*
G03X1888343Y1871015I500J-866D01*
G01X1888700Y1871366D02*
G03X1888783Y1871995I-200J347D01*
G01X1882396Y1878383*
G03X1882113Y1878500I-283J-283*
G01X1880000*
X1879000Y1879500D02*
G03X1880000Y1878500I1000J0D01*
G01X1879000Y1879500D02*
Y1882500D01*
X1880000Y1883500D02*
G03X1879000Y1882500I0J-1000D01*
G01X1880000Y1883500D02*
X1883800D01*
X1884657Y1883015D02*
G03X1883800Y1883500I-857J-515D01*
G01X1884657Y1883015D02*
G03X1885343I343J206D01*
G01X1886021Y1883484D02*
G03X1885343Y1883015I179J-984D01*
G01X1886021Y1883484D02*
G03X1886350Y1883878I-71J394D01*
G01Y1893700*
X1886863Y1894937D02*
G03X1886350Y1893700I1237J-1237D01*
G01X1886863Y1894937D02*
X1889742Y1897817D01*
X1915400Y1950870D02*
Y1954672D01*
G03X1915283Y1954954I-400J-0*
G01X1909854Y1960383*
G03X1909572Y1960500I-282J-283*
G01X1905428*
G03X1905146Y1960383I0J-400*
G01X1884946Y1940183*
G03X1885228Y1939500I282J-283*
G01X1905513*
G03X1905886Y1939758I-0J400*
G01X1908773Y1942625D02*
G03X1905886Y1939758I1727J-4625D01*
G01X1908773Y1942625D02*
G03Y1943375I-140J375D01*
G01X1914663Y1950654D02*
G03X1908773Y1943375I-4163J-2654D01*
G01X1914663Y1950654D02*
G03X1915400Y1950870I337J216D01*
G01X1909900Y1801328D02*
Y1804614D01*
G03X1909557Y1805010I-400J0*
G01X1908843Y1805485D02*
G03X1909557Y1805010I857J515D01*
G01X1908843Y1805485D02*
G03X1908157I-343J-206D01*
G01X1907300Y1805000D02*
G03X1908157Y1805485I0J1000D01*
G01X1907300Y1805000D02*
X1903500D01*
X1902500Y1806000D02*
G03X1903500Y1805000I1000J0D01*
G01X1902500Y1806000D02*
Y1809000D01*
X1903500Y1810000D02*
G03X1902500Y1809000I0J-1000D01*
G01X1903500Y1810000D02*
G03X1903900Y1810400I-0J400D01*
G01Y1814100*
G03X1903500Y1814500I-400J-0*
G01X1902542Y1815214D02*
G03X1903500Y1814500I958J286D01*
G01X1902542Y1815214D02*
G03X1902158Y1815500I-384J-114D01*
G01X1900217*
X1899156Y1815939D02*
G03X1900217Y1815500I1061J1061D01*
G01X1899156Y1815939D02*
X1898866Y1816229D01*
G03X1898583Y1816346I-283J-283*
G01X1896327*
X1895327Y1817346D02*
G03X1896327Y1816346I1000J0D01*
G01X1895327Y1817346D02*
Y1817809D01*
G03X1894927Y1818209I-400J-0*
G01X1885443*
G03X1885043Y1817809I0J-400*
G01Y1817346*
X1884043Y1816346D02*
G03X1885043Y1817346I0J1000D01*
G01X1884043Y1816346D02*
X1881681D01*
X1880681Y1817346D02*
G03X1881681Y1816346I1000J0D01*
G01X1880681Y1817346D02*
Y1822071D01*
Y1822088D02*
G03Y1822071I1000J-17D01*
G01Y1822088D02*
G03X1879998Y1822377I-400J6D01*
G01X1874561Y1816939*
X1873500Y1816500D02*
G03X1874561Y1816939I0J1500D01*
G01X1873500Y1816500D02*
X1870221D01*
G03X1869878Y1816305I0J-400*
G01X1869020Y1815819D02*
G03X1869878Y1816305I-0J1000D01*
G01X1869020Y1815819D02*
X1862720D01*
X1861720Y1816819D02*
G03X1862720Y1815819I1000J-0D01*
G01X1861720Y1816819D02*
Y1819181D01*
X1862385Y1820123D02*
G03X1861720Y1819181I335J-942D01*
G01X1862385Y1820123D02*
G03Y1820877I-134J377D01*
G01X1861862Y1821305D02*
G03X1862385Y1820877I858J514D01*
G01X1861862Y1821305D02*
G03X1861519Y1821500I-343J-205D01*
G01X1856625*
G03X1856365Y1821404I-0J-400*
G01Y1824596D02*
G03Y1821404I-1365J-1596D01*
G01Y1824596D02*
G03X1856625Y1824500I260J304D01*
G01X1861519*
G03X1861862Y1824695I0J400*
G01X1862385Y1825123D02*
G03X1861862Y1824695I335J-942D01*
G01X1862385Y1825123D02*
G03Y1825877I-134J377D01*
G01X1861720Y1826819D02*
G03X1862385Y1825877I1000J-0D01*
G01X1861720Y1826819D02*
Y1829181D01*
X1862385Y1830123D02*
G03X1861720Y1829181I335J-942D01*
G01X1862385Y1830123D02*
G03Y1830877I-134J377D01*
G01X1861909Y1831234D02*
G03X1862385Y1830877I811J585D01*
G01X1861909Y1831234D02*
G03X1861585Y1831400I-324J-234D01*
G01X1859328*
G03X1859046Y1831283I0J-400*
G01X1849631Y1821869*
X1848500Y1821400D02*
G03X1849631Y1821869I0J1600D01*
G01X1848500Y1821400D02*
X1841415D01*
G03X1841091Y1821234I0J-400*
G01X1840615Y1820877D02*
G03X1841091Y1821234I-335J942D01*
G01X1840615Y1820877D02*
G03Y1820123I134J-377D01*
G01X1841280Y1819181D02*
G03X1840615Y1820123I-1000J0D01*
G01X1841280Y1819181D02*
Y1816819D01*
X1840280Y1815819D02*
G03X1841280Y1816819I-0J1000D01*
G01X1840280Y1815819D02*
X1835268D01*
G03X1834985Y1815136I0J-400*
G01X1840004Y1810117*
G03X1840287Y1810000I283J283*
G01X1849500*
X1850561Y1809561D02*
G03X1849500Y1810000I-1061J-1061D01*
G01X1850561Y1809561D02*
X1853171Y1806951D01*
G03X1853532Y1806841I283J282*
G01X1859125Y1803727D02*
G03X1853532Y1806841I-4625J-1727D01*
G01X1859125Y1803727D02*
G03X1859875I375J140D01*
G01Y1800273D02*
G03Y1803727I4625J1727D01*
G01Y1800273D02*
G03X1859125I-375J-140D01*
G01X1849875D02*
G03X1859125I4625J1727D01*
G01X1849875D02*
G03X1849125I-375J-140D01*
G01X1839875D02*
G03X1849125I4625J1727D01*
G01X1839875D02*
G03X1839125I-375J-140D01*
G01X1829875D02*
G03X1839125I4625J1727D01*
G01X1829875D02*
G03X1829125I-375J-140D01*
G01X1820706Y1805159D02*
G03X1829125Y1800273I3794J-3159D01*
G01X1820706Y1805159D02*
G03X1820681Y1805698I-308J256D01*
G01X1819496Y1806883*
G03X1819213Y1807000I-283J-283*
G01X1816206*
G03X1816003Y1806255I0J-400*
G01X1808875Y1800273D02*
G03X1816003Y1806255I4625J1727D01*
G01X1808875Y1800273D02*
G03X1808125I-375J-140D01*
G01X1801271Y1797595D02*
G03X1808125Y1800273I2229J4405D01*
G01X1801271Y1797595D02*
G03X1800808Y1796955I-180J-357D01*
G01X1803046Y1794717*
G03X1803328Y1794600I282J283*
G01X1880328*
G03X1880726Y1795041I-0J400*
G01X1880720Y1795142D02*
G03X1880726Y1795041I1000J-0D01*
G01X1880720Y1795142D02*
Y1799866D01*
X1881720Y1800866D02*
G03X1880720Y1799866I0J-1000D01*
G01X1881720Y1800866D02*
X1884083D01*
X1885083Y1799866D02*
G03X1884083Y1800866I-1000J0D01*
G01X1885083Y1799866D02*
Y1795142D01*
X1885078Y1795041D02*
G03X1885083Y1795142I-995J101D01*
G01X1885078Y1795041D02*
G03X1885476Y1794600I398J-41D01*
G01X1894934*
G03X1895332Y1795041I-0J400*
G01X1895327Y1795142D02*
G03X1895332Y1795041I1000J-0D01*
G01X1895327Y1795142D02*
Y1799866D01*
X1896327Y1800866D02*
G03X1895327Y1799866I-0J-1000D01*
G01X1896327Y1800866D02*
X1898689D01*
X1899689Y1799866D02*
G03X1898689Y1800866I-1000J0D01*
G01X1899689Y1799866D02*
Y1795142D01*
X1899684Y1795041D02*
G03X1899689Y1795142I-995J101D01*
G01X1899684Y1795041D02*
G03X1900082Y1794600I398J-41D01*
G01X1903172*
G03X1903454Y1794717I-0J400*
G01X1909783Y1801046*
G03X1909900Y1801328I-283J282*
G01X1916000Y1876900D02*
Y1879813D01*
G03X1915883Y1880096I-400J-0*
G01X1908596Y1887383*
G03X1908313Y1887500I-283J-283*
G01X1906200*
X1905343Y1887985D02*
G03X1906200Y1887500I857J515D01*
G01X1905343Y1887985D02*
G03X1904657I-343J-206D01*
G01X1903800Y1887500D02*
G03X1904657Y1887985I0J1000D01*
G01X1903800Y1887500D02*
X1900000D01*
X1899000Y1888500D02*
G03X1900000Y1887500I1000J0D01*
G01X1899000Y1888500D02*
Y1891500D01*
X1899821Y1892484D02*
G03X1899000Y1891500I179J-984D01*
G01X1899821Y1892484D02*
G03X1900150Y1892878I-71J394D01*
G01Y1895600*
G03X1899750Y1896000I-400J-0*
G01X1899500*
X1898839Y1896250D02*
G03X1899500Y1896000I661J750D01*
G01X1898839Y1896250D02*
G03X1898574Y1896350I-265J-300D01*
G01X1895378*
G03X1894984Y1896021I-0J-400*
G01X1894515Y1895343D02*
G03X1894984Y1896021I-515J857D01*
G01X1894515Y1895343D02*
G03Y1894657I206J-343D01*
G01X1895000Y1893800D02*
G03X1894515Y1894657I-1000J0D01*
G01X1895000Y1893800D02*
Y1890000D01*
X1894000Y1889000D02*
G03X1895000Y1890000I0J1000D01*
G01X1894000Y1889000D02*
X1891000D01*
X1890464Y1889156D02*
G03X1891000Y1889000I536J844D01*
G01X1890464Y1889156D02*
G03X1889850Y1888818I-214J-338D01*
G01Y1883878*
G03X1890179Y1883484I400J-0*
G01X1891000Y1882500D02*
G03X1890179Y1883484I-1000J0D01*
G01X1891000Y1882500D02*
Y1879500D01*
X1890000Y1878500D02*
G03X1891000Y1879500I0J1000D01*
G01X1890000Y1878500D02*
X1887487D01*
G03X1887204Y1877817I0J-400*
G01X1890404Y1874617*
G03X1890687Y1874500I283J283*
G01X1895939*
G03X1896339Y1874900I-0J400*
G01Y1875362*
X1897097Y1876333D02*
G03X1896339Y1875362I242J-971D01*
G01X1897097Y1876333D02*
G03X1897400Y1876721I-97J388D01*
G01Y1877600*
G03X1897000Y1878000I-400J-0*
G01X1896000Y1879000D02*
G03X1897000Y1878000I1000J0D01*
G01X1896000Y1879000D02*
Y1882000D01*
X1897000Y1883000D02*
G03X1896000Y1882000I0J-1000D01*
G01X1897000Y1883000D02*
X1900800D01*
X1901657Y1882515D02*
G03X1900800Y1883000I-857J-515D01*
G01X1901657Y1882515D02*
G03X1902343I343J206D01*
G01X1903200Y1883000D02*
G03X1902343Y1882515I0J-1000D01*
G01X1903200Y1883000D02*
X1907000D01*
X1908000Y1882000D02*
G03X1907000Y1883000I-1000J0D01*
G01X1908000Y1882000D02*
Y1879000D01*
X1907000Y1878000D02*
G03X1908000Y1879000I0J1000D01*
G01X1907000Y1878000D02*
X1904887D01*
G03X1904604Y1877883I0J-400*
G01X1903877Y1877156*
G03X1903760Y1876873I283J-283*
G01Y1876597*
G03X1904348Y1876245I400J0*
G01X1904819Y1876362D02*
G03X1904348Y1876244I-0J-1000D01*
G01X1904819Y1876362D02*
X1907181D01*
X1908176Y1875461D02*
G03X1907181Y1876362I-995J-99D01*
G01X1908176Y1875461D02*
G03X1908574Y1875100I398J39D01*
G01X1911600*
G03X1912000Y1875500I-0J400*
G01X1913000Y1876500D02*
G03X1912000Y1875500I0J-1000D01*
G01X1913000Y1876500D02*
X1915600D01*
G03X1916000Y1876900I-0J400*
G01X1736900Y1828800D02*
Y1825200D01*
X1735900Y1824200D02*
G03X1736900Y1825200I0J1000D01*
G01X1735900Y1824200D02*
X1730900D01*
X1729900Y1825200D02*
G03X1730900Y1824200I1000J0D01*
G01X1729900Y1825200D02*
Y1828800D01*
X1730900Y1829800D02*
G03X1729900Y1828800I0J-1000D01*
G01X1730900Y1829800D02*
X1735900D01*
X1736900Y1828800D02*
G03X1735900Y1829800I-1000J0D01*
G01X1748173Y1944858D02*
Y1940134D01*
X1747173Y1939134D02*
G03X1748173Y1940134I0J1000D01*
G01X1747173Y1939134D02*
X1744811D01*
X1743811Y1940134D02*
G03X1744811Y1939134I1000J-0D01*
G01X1743811Y1940134D02*
Y1944858D01*
X1744811Y1945858D02*
G03X1743811Y1944858I0J-1000D01*
G01X1744811Y1945858D02*
X1747173D01*
X1748173Y1944858D02*
G03X1747173Y1945858I-1000J0D01*
G74*
G01X0Y0D02*
M02*
